<svg width="15" height="15" viewBox="0 0 15 15" fill="none" xmlns="http://www.w3.org/2000/svg">
<g id="video_call">
<mask id="mask0_3905_2406" style="mask-type:alpha" maskUnits="userSpaceOnUse" x="0" y="0" width="15" height="15">
<rect id="Bounding box" width="15" height="15" fill="#D9D9D9"/>
</mask>
<g mask="url(#mask0_3905_2406)">
<path id="video_call_2" d="M5.625 10H6.875V8.125H8.75V6.875H6.875V5H5.625V6.875H3.75V8.125H5.625V10ZM2.5 12.5C2.15625 12.5 1.86198 12.3776 1.61719 12.1328C1.3724 11.888 1.25 11.5938 1.25 11.25V3.75C1.25 3.40625 1.3724 3.11198 1.61719 2.86719C1.86198 2.6224 2.15625 2.5 2.5 2.5H10C10.3438 2.5 10.638 2.6224 10.8828 2.86719C11.1276 3.11198 11.25 3.40625 11.25 3.75V6.5625L13.75 4.0625V10.9375L11.25 8.4375V11.25C11.25 11.5938 11.1276 11.888 10.8828 12.1328C10.638 12.3776 10.3438 12.5 10 12.5H2.5Z" fill="var(--justweb3-primary-color)"/>
</g>
</g>
</svg>
