<svg width="21" height="21" viewBox="0 0 21 21" fill="none" xmlns="http://www.w3.org/2000/svg">
<g id="avatar">
<mask id="mask0_3722_1779" style="mask-type:alpha" maskUnits="userSpaceOnUse" x="0" y="0" width="21" height="21">
<rect id="Bounding box" x="0.115234" y="0.85498" width="20" height="20" fill="#D9D9D9"/>
</mask>
<g mask="url(#mask0_3722_1779)">
<path id="background_replace" d="M2.61523 8.89665V7.12581L6.38607 3.35498H8.1569L2.61523 8.89665ZM2.61523 4.81331V3.35498H4.07357L2.61523 4.81331ZM13.5944 6.20915C13.4555 6.05637 13.3062 5.90706 13.1465 5.76123C12.9868 5.6154 12.8236 5.48692 12.6569 5.37581L14.6777 3.35498H16.4486L13.5944 6.20915ZM4.69857 13.3341L6.30273 11.73C6.39996 11.8828 6.50065 12.0216 6.60482 12.1466C6.70898 12.2716 6.82357 12.3897 6.94857 12.5008C6.55968 12.598 6.16732 12.7196 5.77148 12.8654C5.37565 13.0112 5.01801 13.1675 4.69857 13.3341ZM14.6986 9.22998V9.18831C14.6986 8.92442 14.6777 8.66748 14.6361 8.41748C14.5944 8.16748 14.5319 7.92443 14.4486 7.68831L17.6152 4.52165V6.31331L14.6986 9.22998ZM9.19857 4.68831L10.5527 3.35498H12.3236L10.9902 4.68831C10.8375 4.66054 10.6916 4.6397 10.5527 4.62581C10.4138 4.61192 10.268 4.60498 10.1152 4.60498C9.96246 4.60498 9.80968 4.61192 9.6569 4.62581C9.50412 4.6397 9.35135 4.66054 9.19857 4.68831ZM2.61523 13.0425V11.2716L5.61523 8.27165C5.58746 8.42442 5.56662 8.5772 5.55273 8.72998C5.53885 8.88276 5.5319 9.03554 5.5319 9.18831C5.5319 9.34109 5.53885 9.48692 5.55273 9.62581C5.56662 9.7647 5.58746 9.90359 5.61523 10.0425L2.61523 13.0425ZM17.3861 14.7716C17.275 14.605 17.1465 14.4453 17.0007 14.2925C16.8548 14.1397 16.6986 14.0008 16.5319 13.8758L17.6152 12.7925V14.5633L17.3861 14.7716ZM14.9694 13.0633C14.8722 13.0216 14.775 12.9835 14.6777 12.9487C14.5805 12.914 14.4833 12.8828 14.3861 12.855C14.2611 12.8133 14.1395 12.7716 14.0215 12.73C13.9034 12.6883 13.7819 12.6536 13.6569 12.6258L17.6152 8.64665V10.4383L14.9694 13.0633ZM10.1152 12.5216C9.19857 12.5216 8.41385 12.1953 7.76107 11.5425C7.10829 10.8897 6.7819 10.105 6.7819 9.18831C6.7819 8.27165 7.10829 7.48693 7.76107 6.83415C8.41385 6.18137 9.19857 5.85498 10.1152 5.85498C11.0319 5.85498 11.8166 6.18137 12.4694 6.83415C13.1222 7.48693 13.4486 8.27165 13.4486 9.18831C13.4486 10.105 13.1222 10.8897 12.4694 11.5425C11.8166 12.1953 11.0319 12.5216 10.1152 12.5216ZM3.44857 18.355V16.8758C3.44857 16.4036 3.56662 15.9661 3.80273 15.5633C4.03885 15.1605 4.36523 14.855 4.7819 14.6466C5.49023 14.2855 6.29232 13.98 7.18815 13.73C8.08398 13.48 9.05968 13.355 10.1152 13.355C11.1708 13.355 12.1465 13.48 13.0423 13.73C13.9382 13.98 14.7402 14.2855 15.4486 14.6466C15.8652 14.855 16.1916 15.1605 16.4277 15.5633C16.6638 15.9661 16.7819 16.4036 16.7819 16.8758V18.355H3.44857Z" fill="var(--justweb3-primary-color)"/>
</g>
</g>
</svg>
