<svg width="17" height="16" viewBox="0 0 17 16" fill="none" xmlns="http://www.w3.org/2000/svg">
<g id="Frame 2257">
<path id="Subtract" fill-rule="evenodd" clip-rule="evenodd" d="M2.11523 0C1.01066 0 0.115234 0.895431 0.115234 2V14C0.115234 15.1046 1.01066 16 2.11523 16H14.1152C15.2198 16 16.1152 15.1046 16.1152 14V2C16.1152 0.895431 15.2198 0 14.1152 0H2.11523ZM3.11523 2C2.56295 2 2.11523 2.44772 2.11523 3V7C2.11523 7.55228 2.56295 8 3.11523 8H13.1152C13.6675 8 14.1152 7.55228 14.1152 7V3C14.1152 2.44772 13.6675 2 13.1152 2H3.11523Z" fill="#3280F4"/>
</g>
</svg>
