<svg width="24" height="25" viewBox="0 0 24 25" fill="none" xmlns="http://www.w3.org/2000/svg">
<mask id="mask0_1051_1807" style="mask-type:alpha" maskUnits="userSpaceOnUse" x="0" y="0" width="24" height="25">
<rect y="0.5" width="24" height="24" fill="var(--justweb3-primary-color)"/>
</mask>
<g mask="url(#mask0_1051_1807)">
<path d="M15.2 11.45L10.55 6.8C10.7833 6.7 11.0208 6.625 11.2625 6.575C11.5042 6.525 11.75 6.5 12 6.5C12.9833 6.5 13.8125 6.8375 14.4875 7.5125C15.1625 8.1875 15.5 9.01667 15.5 10C15.5 10.25 15.475 10.4958 15.425 10.7375C15.375 10.9792 15.3 11.2167 15.2 11.45ZM5.85 17.6C6.7 16.95 7.65 16.4375 8.7 16.0625C9.75 15.6875 10.85 15.5 12 15.5C12.3 15.5 12.5875 15.5125 12.8625 15.5375C13.1375 15.5625 13.425 15.6 13.725 15.65L11.525 13.45C10.7417 13.35 10.0708 13.0208 9.5125 12.4625C8.95417 11.9042 8.625 11.2333 8.525 10.45L5.675 7.6C5.14167 8.28333 4.72917 9.0375 4.4375 9.8625C4.14583 10.6875 4 11.5667 4 12.5C4 13.4833 4.1625 14.4083 4.4875 15.275C4.8125 16.1417 5.26667 16.9167 5.85 17.6ZM18.3 17.4C18.8333 16.7167 19.25 15.9625 19.55 15.1375C19.85 14.3125 20 13.4333 20 12.5C20 10.2833 19.2208 8.39583 17.6625 6.8375C16.1042 5.27917 14.2167 4.5 12 4.5C11.0667 4.5 10.1875 4.65 9.3625 4.95C8.5375 5.25 7.78333 5.66667 7.1 6.2L18.3 17.4ZM12 22.5C10.6333 22.5 9.34167 22.2375 8.125 21.7125C6.90833 21.1875 5.84583 20.4708 4.9375 19.5625C4.02917 18.6542 3.3125 17.5917 2.7875 16.375C2.2625 15.1583 2 13.8667 2 12.5C2 11.1167 2.2625 9.82083 2.7875 8.6125C3.3125 7.40417 4.02917 6.34583 4.9375 5.4375C5.84583 4.52917 6.90833 3.8125 8.125 3.2875C9.34167 2.7625 10.6333 2.5 12 2.5C13.3833 2.5 14.6792 2.7625 15.8875 3.2875C17.0958 3.8125 18.1542 4.52917 19.0625 5.4375C19.9708 6.34583 20.6875 7.40417 21.2125 8.6125C21.7375 9.82083 22 11.1167 22 12.5C22 13.8667 21.7375 15.1583 21.2125 16.375C20.6875 17.5917 19.9708 18.6542 19.0625 19.5625C18.1542 20.4708 17.0958 21.1875 15.8875 21.7125C14.6792 22.2375 13.3833 22.5 12 22.5Z" fill="var(--justweb3-primary-color)"/>
</g>
</svg>
