<svg width="10" height="10" viewBox="0 0 10 10" fill="none" xmlns="http://www.w3.org/2000/svg">
<mask id="mask0_1198_2299" style="mask-type:alpha" maskUnits="userSpaceOnUse" x="0" y="0" width="10" height="10">
<rect width="10" height="10" fill="var(--justweb3-primary-color)"/>
</mask>
<g mask="url(#mask0_1198_2299)">
<path d="M5 5.83325C4.88194 5.83325 4.78299 5.79332 4.70312 5.71346C4.62326 5.6336 4.58333 5.53464 4.58333 5.41658C4.58333 5.29853 4.62326 5.19957 4.70312 5.11971C4.78299 5.03985 4.88194 4.99992 5 4.99992C5.11806 4.99992 5.21701 5.03985 5.29688 5.11971C5.37674 5.19957 5.41667 5.29853 5.41667 5.41658C5.41667 5.53464 5.37674 5.6336 5.29688 5.71346C5.21701 5.79332 5.11806 5.83325 5 5.83325ZM3.33333 5.83325C3.21528 5.83325 3.11632 5.79332 3.03646 5.71346C2.9566 5.6336 2.91667 5.53464 2.91667 5.41658C2.91667 5.29853 2.9566 5.19957 3.03646 5.11971C3.11632 5.03985 3.21528 4.99992 3.33333 4.99992C3.45139 4.99992 3.55035 5.03985 3.63021 5.11971C3.71007 5.19957 3.75 5.29853 3.75 5.41658C3.75 5.53464 3.71007 5.6336 3.63021 5.71346C3.55035 5.79332 3.45139 5.83325 3.33333 5.83325ZM6.66667 5.83325C6.54861 5.83325 6.44965 5.79332 6.36979 5.71346C6.28993 5.6336 6.25 5.53464 6.25 5.41658C6.25 5.29853 6.28993 5.19957 6.36979 5.11971C6.44965 5.03985 6.54861 4.99992 6.66667 4.99992C6.78472 4.99992 6.88368 5.03985 6.96354 5.11971C7.0434 5.19957 7.08333 5.29853 7.08333 5.41658C7.08333 5.53464 7.0434 5.6336 6.96354 5.71346C6.88368 5.79332 6.78472 5.83325 6.66667 5.83325ZM5 7.49992C4.88194 7.49992 4.78299 7.45999 4.70312 7.38013C4.62326 7.30027 4.58333 7.20131 4.58333 7.08325C4.58333 6.9652 4.62326 6.86624 4.70312 6.78638C4.78299 6.70652 4.88194 6.66658 5 6.66658C5.11806 6.66658 5.21701 6.70652 5.29688 6.78638C5.37674 6.86624 5.41667 6.9652 5.41667 7.08325C5.41667 7.20131 5.37674 7.30027 5.29688 7.38013C5.21701 7.45999 5.11806 7.49992 5 7.49992ZM3.33333 7.49992C3.21528 7.49992 3.11632 7.45999 3.03646 7.38013C2.9566 7.30027 2.91667 7.20131 2.91667 7.08325C2.91667 6.9652 2.9566 6.86624 3.03646 6.78638C3.11632 6.70652 3.21528 6.66658 3.33333 6.66658C3.45139 6.66658 3.55035 6.70652 3.63021 6.78638C3.71007 6.86624 3.75 6.9652 3.75 7.08325C3.75 7.20131 3.71007 7.30027 3.63021 7.38013C3.55035 7.45999 3.45139 7.49992 3.33333 7.49992ZM6.66667 7.49992C6.54861 7.49992 6.44965 7.45999 6.36979 7.38013C6.28993 7.30027 6.25 7.20131 6.25 7.08325C6.25 6.9652 6.28993 6.86624 6.36979 6.78638C6.44965 6.70652 6.54861 6.66658 6.66667 6.66658C6.78472 6.66658 6.88368 6.70652 6.96354 6.78638C7.0434 6.86624 7.08333 6.9652 7.08333 7.08325C7.08333 7.20131 7.0434 7.30027 6.96354 7.38013C6.88368 7.45999 6.78472 7.49992 6.66667 7.49992ZM2.08333 9.16658C1.85417 9.16658 1.65799 9.08499 1.49479 8.92179C1.3316 8.7586 1.25 8.56242 1.25 8.33325V2.49992C1.25 2.27075 1.3316 2.07457 1.49479 1.91138C1.65799 1.74818 1.85417 1.66659 2.08333 1.66659H2.5V0.833252H3.33333V1.66659H6.66667V0.833252H7.5V1.66659H7.91667C8.14583 1.66659 8.34201 1.74818 8.50521 1.91138C8.6684 2.07457 8.75 2.27075 8.75 2.49992V8.33325C8.75 8.56242 8.6684 8.7586 8.50521 8.92179C8.34201 9.08499 8.14583 9.16658 7.91667 9.16658H2.08333ZM2.08333 8.33325H7.91667V4.16659H2.08333V8.33325Z" fill="var(--justweb3-primary-color)"/>
</g>
</svg>
