<svg width="10" height="10" viewBox="0 0 10 10" fill="none" xmlns="http://www.w3.org/2000/svg">
<mask id="mask0_1198_2305" style="mask-type:alpha" maskUnits="userSpaceOnUse" x="0" y="0" width="10" height="10">
<rect width="10" height="10" fill="var(--justweb3-primary-color)"/>
</mask>
<g mask="url(#mask0_1198_2305)">
<path d="M2.08333 9.16658C1.85417 9.16658 1.65799 9.08499 1.49479 8.92179C1.3316 8.7586 1.25 8.56242 1.25 8.33325V2.49992C1.25 2.27075 1.3316 2.07457 1.49479 1.91138C1.65799 1.74818 1.85417 1.66659 2.08333 1.66659H2.5V0.833252H3.33333V1.66659H6.66667V0.833252H7.5V1.66659H7.91667C8.14583 1.66659 8.34201 1.74818 8.50521 1.91138C8.6684 2.07457 8.75 2.27075 8.75 2.49992V4.44784C8.75 4.56589 8.71007 4.66485 8.63021 4.74471C8.55035 4.82457 8.45139 4.8645 8.33333 4.8645C8.21528 4.8645 8.11632 4.82457 8.03646 4.74471C7.9566 4.66485 7.91667 4.56589 7.91667 4.44784V4.16659H2.08333V8.33325H4.5C4.61806 8.33325 4.71701 8.37318 4.79687 8.45304C4.87674 8.5329 4.91667 8.63186 4.91667 8.74992C4.91667 8.86797 4.87674 8.96693 4.79687 9.04679C4.71701 9.12665 4.61806 9.16658 4.5 9.16658H2.08333ZM7.5 9.58325C6.92361 9.58325 6.43229 9.38013 6.02604 8.97388C5.61979 8.56763 5.41667 8.07631 5.41667 7.49992C5.41667 6.92353 5.61979 6.43221 6.02604 6.02596C6.43229 5.61971 6.92361 5.41658 7.5 5.41658C8.07639 5.41658 8.56771 5.61971 8.97396 6.02596C9.38021 6.43221 9.58333 6.92353 9.58333 7.49992C9.58333 8.07631 9.38021 8.56763 8.97396 8.97388C8.56771 9.38013 8.07639 9.58325 7.5 9.58325ZM8.19792 8.4895L8.48958 8.19784L7.70833 7.41659V6.24992H7.29167V7.58325L8.19792 8.4895Z" fill="var(--justweb3-primary-color)"/>
</g>
</svg>
