<svg width="20" height="20" viewBox="0 0 20 20" fill="none" xmlns="http://www.w3.org/2000/svg">
<g id="deployed_code">
<mask id="mask0_5847_634" style="mask-type:alpha" maskUnits="userSpaceOnUse" x="0" y="0" width="20" height="20">
<rect id="Bounding box" width="20" height="20" fill="#D9D9D9"/>
</mask>
<g mask="url(#mask0_5847_634)">
<path id="deployed_code_2" d="M9.16667 18.1042L3.33333 14.7501C3.06944 14.5973 2.86458 14.3959 2.71875 14.1459C2.57292 13.8959 2.5 13.6181 2.5 13.3126V6.68758C2.5 6.38203 2.57292 6.10425 2.71875 5.85425C2.86458 5.60425 3.06944 5.40286 3.33333 5.25008L9.16667 1.89591C9.43056 1.74314 9.70833 1.66675 10 1.66675C10.2917 1.66675 10.5694 1.74314 10.8333 1.89591L16.6667 5.25008C16.9306 5.40286 17.1354 5.60425 17.2813 5.85425C17.4271 6.10425 17.5 6.38203 17.5 6.68758V13.3126C17.5 13.6181 17.4271 13.8959 17.2813 14.1459C17.1354 14.3959 16.9306 14.5973 16.6667 14.7501L10.8333 18.1042C10.5694 18.257 10.2917 18.3334 10 18.3334C9.70833 18.3334 9.43056 18.257 9.16667 18.1042ZM9.16667 10.4792V16.1876L10 16.6667L10.8333 16.1876V10.4792L15.8333 7.58341V6.70841L14.9375 6.18758L10 9.04175L5.0625 6.18758L4.16667 6.70841V7.58341L9.16667 10.4792Z" fill="var(--justweb3-primary-color)"/>
</g>
</g>
</svg>
