<svg width="11" height="10" viewBox="0 0 11 10" fill="none" xmlns="http://www.w3.org/2000/svg">
<g id="content_copy">
<mask id="mask0_1635_1672" style="mask-type:alpha" maskUnits="userSpaceOnUse" x="0" y="0" width="11" height="10">
<rect id="Bounding box" x="0.5" width="10" height="10" fill="#D9D9D9"/>
</mask>
<g mask="url(#mask0_1635_1672)">
<path id="content_copy_2" d="M4.25 7.50016C4.02083 7.50016 3.82465 7.41857 3.66146 7.25537C3.49826 7.09218 3.41667 6.896 3.41667 6.66683V1.66683C3.41667 1.43766 3.49826 1.24148 3.66146 1.07829C3.82465 0.915093 4.02083 0.833496 4.25 0.833496H8C8.22917 0.833496 8.42535 0.915093 8.58854 1.07829C8.75174 1.24148 8.83333 1.43766 8.83333 1.66683V6.66683C8.83333 6.896 8.75174 7.09218 8.58854 7.25537C8.42535 7.41857 8.22917 7.50016 8 7.50016H4.25ZM2.58333 9.16683C2.35417 9.16683 2.15799 9.08523 1.99479 8.92204C1.8316 8.75884 1.75 8.56266 1.75 8.3335V2.50016H2.58333V8.3335H7.16667V9.16683H2.58333Z" fill="#3280F4"/>
</g>
</g>
</svg>
