<svg width="20" height="20" viewBox="0 0 20 20" fill="none" xmlns="http://www.w3.org/2000/svg">
<g id="dns">
<mask id="mask0_5847_765" style="mask-type:alpha" maskUnits="userSpaceOnUse" x="0" y="0" width="20" height="20">
<rect id="Bounding box" width="20" height="20" fill="#D9D9D9"/>
</mask>
<g mask="url(#mask0_5847_765)">
<path id="dns_2" d="M6.25 5C5.90278 5 5.60764 5.12153 5.36458 5.36458C5.12153 5.60764 5 5.90278 5 6.25C5 6.59722 5.12153 6.89236 5.36458 7.13542C5.60764 7.37847 5.90278 7.5 6.25 7.5C6.59722 7.5 6.89236 7.37847 7.13542 7.13542C7.37847 6.89236 7.5 6.59722 7.5 6.25C7.5 5.90278 7.37847 5.60764 7.13542 5.36458C6.89236 5.12153 6.59722 5 6.25 5ZM6.25 13.3333C5.90278 13.3333 5.60764 13.4549 5.36458 13.6979C5.12153 13.941 5 14.2361 5 14.5833C5 14.9306 5.12153 15.2257 5.36458 15.4688C5.60764 15.7118 5.90278 15.8333 6.25 15.8333C6.59722 15.8333 6.89236 15.7118 7.13542 15.4688C7.37847 15.2257 7.5 14.9306 7.5 14.5833C7.5 14.2361 7.37847 13.941 7.13542 13.6979C6.89236 13.4549 6.59722 13.3333 6.25 13.3333ZM3.33333 2.5H16.6667C16.9028 2.5 17.1007 2.57986 17.2604 2.73958C17.4201 2.89931 17.5 3.09722 17.5 3.33333V9.16667C17.5 9.40278 17.4201 9.60069 17.2604 9.76042C17.1007 9.92014 16.9028 10 16.6667 10H3.33333C3.09722 10 2.89931 9.92014 2.73958 9.76042C2.57986 9.60069 2.5 9.40278 2.5 9.16667V3.33333C2.5 3.09722 2.57986 2.89931 2.73958 2.73958C2.89931 2.57986 3.09722 2.5 3.33333 2.5ZM3.33333 10.8333H16.6667C16.9028 10.8333 17.1007 10.9132 17.2604 11.0729C17.4201 11.2326 17.5 11.4306 17.5 11.6667V17.5C17.5 17.7361 17.4201 17.934 17.2604 18.0937C17.1007 18.2535 16.9028 18.3333 16.6667 18.3333H3.33333C3.09722 18.3333 2.89931 18.2535 2.73958 18.0937C2.57986 17.934 2.5 17.7361 2.5 17.5V11.6667C2.5 11.4306 2.57986 11.2326 2.73958 11.0729C2.89931 10.9132 3.09722 10.8333 3.33333 10.8333Z" fill="var(--justweb3-primary-color)"/>
</g>
</g>
</svg>
