<svg width="16" height="15" viewBox="0 0 16 15" fill="none" xmlns="http://www.w3.org/2000/svg">
  <mask id="mask0_1635_1042" style="mask-type:alpha" maskUnits="userSpaceOnUse" x="0" y="0" width="16" height="15">
    <rect x="0.5" width="15" height="15" fill="#D9D9D9"/>
  </mask>
  <g mask="url(#mask0_1635_1042)">
    <path d="M3.625 11.875H4.51562L10.625 5.76562L9.73438 4.875L3.625 10.9844V11.875ZM2.375 13.125V10.4688L10.625 2.23438C10.75 2.11979 10.888 2.03125 11.0391 1.96875C11.1901 1.90625 11.349 1.875 11.5156 1.875C11.6823 1.875 11.8438 1.90625 12 1.96875C12.1562 2.03125 12.2917 2.125 12.4063 2.25L13.2656 3.125C13.3906 3.23958 13.4818 3.375 13.5391 3.53125C13.5964 3.6875 13.625 3.84375 13.625 4C13.625 4.16667 13.5964 4.32552 13.5391 4.47656C13.4818 4.6276 13.3906 4.76563 13.2656 4.89063L5.03125 13.125H2.375ZM10.1719 5.32812L9.73438 4.875L10.625 5.76562L10.1719 5.32812Z" fill="var(--justweb3-primary-color)"/>
  </g>
</svg>
