<svg width="24" height="24" viewBox="0 0 24 24" fill="none" xmlns="http://www.w3.org/2000/svg">
<path fill-rule="evenodd" clip-rule="evenodd" d="M15.3591 11.6174C15.4412 11.6641 15.5272 11.7033 15.6161 11.7346C15.7819 11.7929 15.9576 11.8236 16.1364 11.8236C16.2394 11.8236 16.3414 11.8134 16.4411 11.7936C16.4454 11.7927 16.4498 11.7919 16.4541 11.791L16.4558 11.7906C16.6759 11.7447 16.8843 11.6519 17.0669 11.518C17.1356 11.4676 17.2006 11.4114 17.2613 11.3498C17.5597 11.0464 17.7273 10.6349 17.7273 10.2059C17.7273 9.77688 17.5597 9.36542 17.2613 9.06205C16.963 8.75869 16.5583 8.58826 16.1364 8.58826C15.9313 8.58826 15.7303 8.62852 15.5436 8.70475C15.3462 8.78534 15.1648 8.90614 15.0114 9.06205C14.7131 9.36542 14.5455 9.77688 14.5455 10.2059C14.5455 10.4519 14.6005 10.6921 14.7038 10.9094C14.7806 11.0712 14.8841 11.2203 15.0114 11.3498C15.1156 11.4557 15.2328 11.5454 15.3591 11.6174ZM9.29622 10.9094C9.39945 10.6921 9.45455 10.4519 9.45455 10.2059C9.45455 9.77688 9.28693 9.36542 8.98858 9.06205C8.83524 8.90614 8.65382 8.78534 8.45641 8.70474C8.26972 8.62852 8.06872 8.58826 7.86364 8.58826C7.4417 8.58826 7.03705 8.75869 6.73869 9.06205C6.44034 9.36542 6.27273 9.77688 6.27273 10.2059C6.27273 10.6349 6.44034 11.0464 6.73869 11.3498C6.79931 11.4114 6.86431 11.4675 6.93295 11.5179C7.11561 11.6518 7.32407 11.7447 7.54423 11.7906L7.54567 11.7909L7.54803 11.7914C7.5514 11.7921 7.55477 11.7928 7.55814 11.7935C7.65807 11.8133 7.76033 11.8236 7.86364 11.8236C8.0435 11.8236 8.22022 11.7926 8.38691 11.7335C8.47436 11.7026 8.55904 11.6639 8.63996 11.6179C8.76665 11.5459 8.88413 11.456 8.98858 11.3498C9.11588 11.2203 9.21938 11.0712 9.29622 10.9094ZM7.74397 12.4775C7.67857 12.4731 7.6124 12.4709 7.54545 12.4706C7.29272 12.4705 7.04243 12.5026 6.80011 12.5651C6.78739 12.5683 6.77468 12.5717 6.762 12.5752C6.4317 12.665 6.11688 12.8115 5.83173 13.0103C5.42382 13.2995 5 13.7809 5 14.3665C4.99994 14.5194 5.03159 14.6705 5.09288 14.8101C5.15418 14.9497 5.24374 15.0746 5.35573 15.1766C5.53462 15.3431 5.75139 15.4467 5.95523 15.5146C5.97401 15.5209 5.99267 15.5268 6.01118 15.5325C6.20245 15.5911 6.41523 15.6316 6.63943 15.6586C6.76656 15.6739 6.89736 15.6848 7.03 15.6923C6.95243 15.4693 6.90916 15.2268 6.90909 14.967C6.90909 14.871 6.9148 14.7758 6.92572 14.6827C6.97713 14.2445 7.1441 13.8395 7.37589 13.4778C7.42832 13.396 7.48407 13.3164 7.54254 13.2391L7.54521 13.2356C7.65602 13.0895 7.77656 12.9518 7.90287 12.8233C7.99985 12.7246 8.10022 12.6313 8.20218 12.5437C8.09179 12.5186 7.97895 12.4999 7.86364 12.4877C7.82404 12.4835 7.78415 12.4801 7.74397 12.4775ZM18.0448 15.5146C18.026 15.5209 18.0073 15.5268 17.9888 15.5325C17.7979 15.5911 17.5849 15.6316 17.3605 15.6586C17.2334 15.6739 17.1026 15.6848 16.97 15.6923C17.0476 15.4691 17.0909 15.2264 17.0909 14.9663C17.0909 14.8703 17.0852 14.7758 17.0743 14.6827C17.0229 14.2446 16.8562 13.8396 16.6245 13.478C16.5712 13.3949 16.5146 13.314 16.4551 13.2356C16.3444 13.0898 16.2235 12.9516 16.0973 12.8233C16.0003 12.7246 15.8999 12.6313 15.7978 12.5437C15.9096 12.5186 16.0227 12.4999 16.1364 12.4877C16.1763 12.4834 16.2164 12.48 16.2565 12.4773C16.3224 12.4729 16.3884 12.4707 16.4545 12.4706C16.7144 12.4706 16.9649 12.5048 17.2003 12.5652C17.2129 12.5685 17.2255 12.5718 17.238 12.5752C17.5894 12.6703 17.906 12.824 18.1683 13.0096C18.5755 13.2988 19 13.7796 19 14.3658C19 14.7004 18.8568 14.978 18.6436 15.1766C18.4653 15.3431 18.2486 15.4467 18.0448 15.5146ZM16.5483 9.76324C16.4362 9.64921 16.2877 9.58826 16.1364 9.58826C15.9851 9.58826 15.8365 9.64921 15.7244 9.76324C15.6117 9.87784 15.5455 10.0368 15.5455 10.2059C15.5455 10.375 15.6117 10.534 15.7244 10.6486C15.8365 10.7626 15.9851 10.8236 16.1364 10.8236C16.2877 10.8236 16.4362 10.7626 16.5483 10.6486C16.661 10.534 16.7273 10.375 16.7273 10.2059C16.7273 10.0368 16.661 9.87784 16.5483 9.76324ZM8.2756 9.76324C8.16346 9.64921 8.01493 9.58826 7.86364 9.58826C7.71235 9.58826 7.56382 9.64921 7.45167 9.76324C7.33896 9.87784 7.27273 10.0368 7.27273 10.2059C7.27273 10.375 7.33896 10.534 7.45167 10.6486C7.56382 10.7626 7.71235 10.8236 7.86364 10.8236C8.01493 10.8236 8.16346 10.7626 8.2756 10.6486C8.38831 10.534 8.45455 10.375 8.45455 10.2059C8.45455 10.0368 8.38831 9.87784 8.2756 9.76324Z" fill="var(--justweb3-primary-color)"/>
<path fill-rule="evenodd" clip-rule="evenodd" d="M15.5451 15.2731C15.8234 15.037 16 14.7194 16 14.3361C16 13.6378 15.4274 12.9887 14.7514 12.5519C14.2852 12.2511 13.708 12.0065 13.0644 11.8736C12.7258 11.8037 12.3689 11.7647 12 11.7647C11.6311 11.7647 11.2742 11.8037 10.9357 11.8736C10.292 12.0066 9.71481 12.2513 9.24857 12.5525C8.57257 12.9892 8 13.6383 8 14.3366C8 14.7199 8.17714 15.0375 8.45429 15.2731C8.71657 15.496 9.05829 15.6405 9.41029 15.739C10.1137 15.9365 11.04 16 12 16C12.96 16 13.8863 15.9365 14.5897 15.739C14.9417 15.6405 15.2834 15.496 15.5451 15.2731ZM11.0132 11.0278C11.3184 11.1631 11.6552 11.2353 12 11.2353C12.3448 11.2353 12.6816 11.1631 12.9869 11.0277C13.2182 10.9252 13.4314 10.7863 13.6162 10.615C14.0449 10.2179 14.2857 9.67928 14.2857 9.11765C14.2857 8.55601 14.0449 8.01738 13.6162 7.62024C13.1876 7.22311 12.6062 7 12 7C11.3938 7 10.8124 7.22311 10.3838 7.62024C9.9551 8.01738 9.71429 8.55601 9.71429 9.11765C9.71429 9.67928 9.9551 10.2179 10.3838 10.615C10.5686 10.7863 10.7818 10.9252 11.0132 11.0278ZM8.96565 14.6439C9.10366 14.7611 9.32201 14.8661 9.62136 14.9498C10.2176 15.1172 11.0566 15.1818 12 15.1818C12.9434 15.1818 13.7817 15.1174 14.378 14.95C14.6776 14.8662 14.8962 14.7611 15.0332 14.6444L15.0343 14.6434C15.1635 14.5338 15.2 14.434 15.2 14.3361C15.2 14.2205 15.1519 14.0542 14.994 13.8432C14.8372 13.6337 14.6031 13.4239 14.3246 13.2439C13.7374 12.8651 12.9151 12.5829 12 12.5829C11.0849 12.5829 10.2628 12.8651 9.67585 13.2442M8.96565 14.6439C8.83669 14.5343 8.8 14.4341 8.8 14.3366C8.8 14.221 8.84813 14.0547 9.00604 13.8438C9.16291 13.6342 9.39719 13.4242 9.67585 13.2442M13.0791 8.22662C12.8052 7.97282 12.4182 7.81818 12 7.81818C11.5818 7.81818 11.1948 7.97282 10.9209 8.22662C10.6495 8.47798 10.5143 8.80057 10.5143 9.11765C10.5143 9.43472 10.6495 9.75731 10.9209 10.0087C11.1948 10.2625 11.5818 10.4171 12 10.4171C12.4182 10.4171 12.8052 10.2625 13.0791 10.0087C13.3505 9.75731 13.4857 9.43472 13.4857 9.11765C13.4857 8.80057 13.3505 8.47798 13.0791 8.22662Z" fill="var(--justweb3-primary-color)"/>
</svg>
