<svg width="10" height="10" viewBox="0 0 10 10" fill="none" xmlns="http://www.w3.org/2000/svg">
<mask id="mask0_1198_2293" style="mask-type:alpha" maskUnits="userSpaceOnUse" x="0" y="0" width="10" height="10">
<rect width="10" height="10" fill="var(--justweb3-primary-color)"/>
</mask>
<g mask="url(#mask0_1198_2293)">
<path d="M4.99996 4.99992C5.22913 4.99992 5.42531 4.91832 5.5885 4.75513C5.7517 4.59193 5.83329 4.39575 5.83329 4.16659C5.83329 3.93742 5.7517 3.74124 5.5885 3.57804C5.42531 3.41485 5.22913 3.33325 4.99996 3.33325C4.77079 3.33325 4.57461 3.41485 4.41142 3.57804C4.24822 3.74124 4.16663 3.93742 4.16663 4.16659C4.16663 4.39575 4.24822 4.59193 4.41142 4.75513C4.57461 4.91832 4.77079 4.99992 4.99996 4.99992ZM4.99996 9.16658C3.8819 8.2152 3.04683 7.33152 2.49475 6.51554C1.94267 5.69957 1.66663 4.94436 1.66663 4.24992C1.66663 3.20825 2.0017 2.37839 2.67183 1.76034C3.34197 1.14228 4.11801 0.833252 4.99996 0.833252C5.8819 0.833252 6.65795 1.14228 7.32808 1.76034C7.99822 2.37839 8.33329 3.20825 8.33329 4.24992C8.33329 4.94436 8.05725 5.69957 7.50517 6.51554C6.95308 7.33152 6.11801 8.2152 4.99996 9.16658Z" fill="var(--justweb3-primary-color)"/>
</g>
</svg>
