<svg width="20" height="23" viewBox="0 0 20 23" fill="none" xmlns="http://www.w3.org/2000/svg">
<path d="M9.40476 1.38098C11.8991 1.38098 14.2912 2.37735 16.0549 4.15089C17.8187 5.92443 18.8095 8.32987 18.8095 10.838C18.8095 14.0682 17.0581 16.7119 15.2127 18.6086C14.2906 19.5458 13.2845 20.3956 12.2074 21.1473L11.7622 21.452L11.5532 21.5918L11.1593 21.844L10.8082 22.0594L10.3735 22.3137C10.0783 22.4826 9.74443 22.5715 9.40476 22.5715C9.0651 22.5715 8.73127 22.4826 8.43607 22.3137L8.00136 22.0594L7.45798 21.7231L7.25734 21.5918L6.8289 21.3049C5.66687 20.514 4.58437 19.611 3.5968 18.6086C1.75138 16.7109 0 14.0682 0 10.838C0 8.32987 0.990856 5.92443 2.75459 4.15089C4.51833 2.37735 6.91046 1.38098 9.40476 1.38098ZM9.40476 7.68569C8.99308 7.68569 8.58543 7.76723 8.20508 7.92565C7.82473 8.08407 7.47914 8.31627 7.18804 8.60899C6.89693 8.90171 6.66602 9.24923 6.50847 9.63169C6.35093 10.0142 6.26984 10.4241 6.26984 10.838C6.26984 11.252 6.35093 11.6619 6.50847 12.0444C6.66602 12.4269 6.89693 12.7744 7.18804 13.0671C7.47914 13.3598 7.82473 13.592 8.20508 13.7504C8.58543 13.9089 8.99308 13.9904 9.40476 13.9904C10.2362 13.9904 11.0336 13.6583 11.6215 13.0671C12.2094 12.4759 12.5397 11.6741 12.5397 10.838C12.5397 10.002 12.2094 9.20017 11.6215 8.60899C11.0336 8.01781 10.2362 7.68569 9.40476 7.68569Z" fill="var(--justweb3-primary-color)"/>
</svg>
