<svg width="20" height="20" viewBox="0 0 20 20" fill="none" xmlns="http://www.w3.org/2000/svg">
  <mask id="mask0_1948_2781" style="mask-type:alpha" maskUnits="userSpaceOnUse" x="0" y="0" width="20" height="20">
    <rect width="20" height="20" fill="#D9D9D9"/>
  </mask>
  <g mask="url(#mask0_1948_2781)">
    <path d="M9.16666 16.2292L4.99999 13.8333C4.7361 13.6806 4.53124 13.4757 4.38541 13.2188C4.23957 12.9618 4.16666 12.6875 4.16666 12.3958V7.60417C4.16666 7.3125 4.23957 7.0382 4.38541 6.78126C4.53124 6.52431 4.7361 6.31945 4.99999 6.16667L9.16666 3.77084C9.43055 3.61806 9.70832 3.54167 9.99999 3.54167C10.2917 3.54167 10.5694 3.61806 10.8333 3.77084L15 6.16667C15.2639 6.31945 15.4687 6.52431 15.6146 6.78126C15.7604 7.0382 15.8333 7.3125 15.8333 7.60417V12.3958C15.8333 12.6875 15.7604 12.9618 15.6146 13.2188C15.4687 13.4757 15.2639 13.6806 15 13.8333L10.8333 16.2292C10.5694 16.3819 10.2917 16.4583 9.99999 16.4583C9.70832 16.4583 9.43055 16.3819 9.16666 16.2292ZM1.66666 5.83334V3.33334C1.66666 2.87501 1.82985 2.48264 2.15624 2.15626C2.48263 1.82987 2.87499 1.66667 3.33332 1.66667H5.83332V3.33334H3.33332V5.83334H1.66666ZM5.83332 18.3333H3.33332C2.87499 18.3333 2.48263 18.1701 2.15624 17.8438C1.82985 17.5174 1.66666 17.125 1.66666 16.6667V14.1667H3.33332V16.6667H5.83332V18.3333ZM14.1667 18.3333V16.6667H16.6667V14.1667H18.3333V16.6667C18.3333 17.125 18.1701 17.5174 17.8437 17.8438C17.5174 18.1701 17.125 18.3333 16.6667 18.3333H14.1667ZM16.6667 5.83334V3.33334H14.1667V1.66667H16.6667C17.125 1.66667 17.5174 1.82987 17.8437 2.15626C18.1701 2.48264 18.3333 2.87501 18.3333 3.33334V5.83334H16.6667ZM6.70832 7.10417L5.83332 7.60417V8.54167L9.16666 10.4792V14.3125L9.99999 14.7917L10.8333 14.3125V10.4792L14.1667 8.54167V7.60417L13.2917 7.10417L9.99999 9.04167L6.70832 7.10417Z" fill="var(--justweb3-primary-color)"/>
  </g>
</svg>
