<svg width="12" height="12" viewBox="0 0 12 12" fill="none" xmlns="http://www.w3.org/2000/svg">
<g id="arcticons:contacts">
<path id="Vector" d="M3.125 1.125H8.875C9.14022 1.125 9.39457 1.23036 9.58211 1.41789C9.76964 1.60543 9.875 1.85978 9.875 2.125V9.875C9.875 10.1402 9.76964 10.3946 9.58211 10.5821C9.39457 10.7696 9.14022 10.875 8.875 10.875H3.125C2.85978 10.875 2.60543 10.7696 2.41789 10.5821C2.23036 10.3946 2.125 10.1402 2.125 9.875V2.125C2.125 1.85978 2.23036 1.60543 2.41789 1.41789C2.60543 1.23036 2.85978 1.125 3.125 1.125ZM6 3.31875C5.64444 3.31875 5.30345 3.45999 5.05203 3.71141C4.80062 3.96283 4.65938 4.30382 4.65938 4.65938C4.65938 5.01493 4.80062 5.35592 5.05203 5.60734C5.30345 5.85876 5.64444 6 6 6C6.35556 6 6.69655 5.85876 6.94797 5.60734C7.19938 5.35592 7.34062 5.01493 7.34062 4.65938C7.34062 4.30382 7.19938 3.96283 6.94797 3.71141C6.69655 3.45999 6.35556 3.31875 6 3.31875ZM6 6.4875C4.5085 6.4875 3.31875 6.90425 3.31875 7.4015V8.68125H8.68125V7.4015C8.68125 6.90425 7.49175 6.4875 6 6.4875Z" stroke="var(--justweb3-primary-color)" stroke-width="0.5" stroke-linecap="round" stroke-linejoin="round"/>
</g>
</svg>
