<svg width="15" height="16" viewBox="0 0 15 16" fill="none" xmlns="http://www.w3.org/2000/svg">
<g id="mic">
<mask id="mask0_3905_3303" style="mask-type:alpha" maskUnits="userSpaceOnUse" x="0" y="0" width="15" height="16">
<rect id="Bounding box" y="0.5" width="15" height="15" fill="#D9D9D9"/>
</mask>
<g mask="url(#mask0_3905_3303)">
<path id="mic_2" d="M7.5 9.25C6.97917 9.25 6.53646 9.06771 6.17188 8.70312C5.80729 8.33854 5.625 7.89583 5.625 7.375V3.625C5.625 3.10417 5.80729 2.66146 6.17188 2.29688C6.53646 1.93229 6.97917 1.75 7.5 1.75C8.02083 1.75 8.46354 1.93229 8.82812 2.29688C9.19271 2.66146 9.375 3.10417 9.375 3.625V7.375C9.375 7.89583 9.19271 8.33854 8.82812 8.70312C8.46354 9.06771 8.02083 9.25 7.5 9.25ZM6.875 13.625V11.7031C5.79167 11.5573 4.89583 11.0729 4.1875 10.25C3.47917 9.42708 3.125 8.46875 3.125 7.375H4.375C4.375 8.23958 4.67969 8.97656 5.28906 9.58594C5.89844 10.1953 6.63542 10.5 7.5 10.5C8.36458 10.5 9.10156 10.1953 9.71094 9.58594C10.3203 8.97656 10.625 8.23958 10.625 7.375H11.875C11.875 8.46875 11.5208 9.42708 10.8125 10.25C10.1042 11.0729 9.20833 11.5573 8.125 11.7031V13.625H6.875Z" fill="var(--justweb3-primary-color)"/>
</g>
</g>
</svg>
