<svg width="21" height="21" viewBox="0 0 21 21" fill="none" xmlns="http://www.w3.org/2000/svg">
<g id="nickname">
<mask id="mask0_3722_1782" style="mask-type:alpha" maskUnits="userSpaceOnUse" x="0" y="0" width="21" height="21">
<rect id="Bounding box" x="0.115234" y="0.85498" width="20" height="20" fill="#D9D9D9"/>
</mask>
<g mask="url(#mask0_3722_1782)">
<path id="id_card" d="M11.7817 11.6884H15.9484V10.0217H11.7817V11.6884ZM11.7817 9.18835H15.9484V7.52169H11.7817V9.18835ZM4.28174 14.1884H10.9484V13.73C10.9484 13.105 10.6428 12.6085 10.0317 12.2404C9.42063 11.8724 8.61507 11.6884 7.61507 11.6884C6.61507 11.6884 5.80952 11.8724 5.1984 12.2404C4.58729 12.6085 4.28174 13.105 4.28174 13.73V14.1884ZM7.61507 10.855C8.0734 10.855 8.46577 10.6918 8.79216 10.3654C9.11854 10.039 9.28174 9.64669 9.28174 9.18835C9.28174 8.73002 9.11854 8.33766 8.79216 8.01127C8.46577 7.68488 8.0734 7.52169 7.61507 7.52169C7.15674 7.52169 6.76438 7.68488 6.43799 8.01127C6.1116 8.33766 5.9484 8.73002 5.9484 9.18835C5.9484 9.64669 6.1116 10.039 6.43799 10.3654C6.76438 10.6918 7.15674 10.855 7.61507 10.855ZM3.4484 17.5217C2.99007 17.5217 2.59771 17.3585 2.27132 17.0321C1.94493 16.7057 1.78174 16.3134 1.78174 15.855V5.85502C1.78174 5.39669 1.94493 5.00433 2.27132 4.67794C2.59771 4.35155 2.99007 4.18835 3.4484 4.18835H16.7817C17.2401 4.18835 17.6324 4.35155 17.9588 4.67794C18.2852 5.00433 18.4484 5.39669 18.4484 5.85502V15.855C18.4484 16.3134 18.2852 16.7057 17.9588 17.0321C17.6324 17.3585 17.2401 17.5217 16.7817 17.5217H3.4484Z" fill="#3280F4"/>
</g>
</g>
</svg>
