<svg width="24" height="24" viewBox="0 0 24 24" fill="none" xmlns="http://www.w3.org/2000/svg">
<path d="M16.1115 15.7274L16.1122 15.7268C16.3668 15.5155 16.5 15.2604 16.5 14.9663C16.5 14.6823 16.3805 14.3748 16.1395 14.0601C15.8992 13.7462 15.5578 13.4521 15.1725 13.2086C14.3609 12.6966 13.2409 12.3235 12 12.3235C10.7591 12.3235 9.63921 12.6966 8.82771 13.2091C8.4423 13.4526 8.10084 13.7467 7.86051 14.0607C7.61955 14.3755 7.5 14.6829 7.5 14.9669C7.5 15.2607 7.63362 15.5161 7.88739 15.727L16.1115 15.7274ZM16.1115 15.7274C15.8622 15.9349 15.5125 16.0873 15.1052 16.1987L15.1048 16.1988M16.1115 15.7274L15.1048 16.1988M15.1048 16.1988C14.2925 16.4218 13.1897 16.5 12 16.5C10.8103 16.5 9.70752 16.4218 8.89521 16.1988L8.89478 16.1987M15.1048 16.1988L8.89478 16.1987M8.89478 16.1987C8.48767 16.0874 8.13764 15.9349 7.88746 15.7271L8.89478 16.1987ZM12 6.5C12.6402 6.5 13.2455 6.73085 13.6846 7.12864C14.1221 7.52494 14.3571 8.05125 14.3571 8.58824C14.3571 9.12523 14.1221 9.65153 13.6846 10.0478C13.2455 10.4456 12.6402 10.6765 12 10.6765C11.3598 10.6765 10.7545 10.4456 10.3154 10.0478C9.8779 9.65153 9.64286 9.12523 9.64286 8.58824C9.64286 8.05125 9.8779 7.52494 10.3154 7.12864C10.7545 6.73085 11.3598 6.5 12 6.5Z" stroke="var(--justweb3-primary-color)"/>
</svg>
