<svg width="32" height="32" viewBox="0 0 32 32" fill="none" xmlns="http://www.w3.org/2000/svg">
<g id="photo_camera_front">
<mask id="mask0_1796_8436" style="mask-type:alpha" maskUnits="userSpaceOnUse" x="0" y="0" width="32" height="32">
<rect id="Bounding box" width="32" height="32" fill="#D9D9D9"/>
</mask>
<g mask="url(#mask0_1796_8436)">
<path id="photo_camera_front_2" d="M10.6665 22.6667H21.3332V21.9333C21.3332 20.9333 20.8443 20.1389 19.8665 19.55C18.8887 18.9611 17.5998 18.6667 15.9998 18.6667C14.3998 18.6667 13.1109 18.9611 12.1332 19.55C11.1554 20.1389 10.6665 20.9333 10.6665 21.9333V22.6667ZM15.9998 17.3333C16.7332 17.3333 17.3609 17.0722 17.8832 16.55C18.4054 16.0278 18.6665 15.4 18.6665 14.6667C18.6665 13.9333 18.4054 13.3056 17.8832 12.7833C17.3609 12.2611 16.7332 12 15.9998 12C15.2665 12 14.6387 12.2611 14.1165 12.7833C13.5943 13.3056 13.3332 13.9333 13.3332 14.6667C13.3332 15.4 13.5943 16.0278 14.1165 16.55C14.6387 17.0722 15.2665 17.3333 15.9998 17.3333ZM5.33317 28C4.59984 28 3.97206 27.7389 3.44984 27.2167C2.92762 26.6944 2.6665 26.0667 2.6665 25.3333V9.33333C2.6665 8.6 2.92762 7.97222 3.44984 7.45C3.97206 6.92778 4.59984 6.66667 5.33317 6.66667H9.53317L11.9998 4H19.9998L22.4665 6.66667H26.6665C27.3998 6.66667 28.0276 6.92778 28.5498 7.45C29.0721 7.97222 29.3332 8.6 29.3332 9.33333V25.3333C29.3332 26.0667 29.0721 26.6944 28.5498 27.2167C28.0276 27.7389 27.3998 28 26.6665 28H5.33317ZM5.33317 25.3333H26.6665V9.33333H21.2665L18.8332 6.66667H13.1665L10.7332 9.33333H5.33317V25.3333Z" fill="var(--justweb3-background-color)"/>
</g>
</g>
</svg>
