<svg width="20" height="21" viewBox="0 0 20 21" fill="none" xmlns="http://www.w3.org/2000/svg">
<mask id="mask0_1051_1577" style="mask-type:alpha" maskUnits="userSpaceOnUse" x="0" y="0" width="20" height="21">
<rect y="0.5" width="20" height="20" fill="var(--justweb3-primary-color)"/>
</mask>
<g mask="url(#mask0_1051_1577)">
<path d="M9.99996 18.8334C8.84718 18.8334 7.76385 18.6146 6.74996 18.1771C5.73607 17.7396 4.85413 17.1459 4.10413 16.3959C3.35413 15.6459 2.76038 14.7639 2.32288 13.75C1.88538 12.7362 1.66663 11.6528 1.66663 10.5C1.66663 9.34726 1.88538 8.26393 2.32288 7.25004C2.76038 6.23615 3.35413 5.35421 4.10413 4.60421C4.85413 3.85421 5.73607 3.26046 6.74996 2.82296C7.76385 2.38546 8.84718 2.16671 9.99996 2.16671C10.5972 2.16671 11.1736 2.22574 11.7291 2.34379C12.2847 2.46185 12.8194 2.63199 13.3333 2.85421V4.72921C12.8472 4.45143 12.3229 4.23268 11.7604 4.07296C11.1979 3.91324 10.6111 3.83337 9.99996 3.83337C8.15274 3.83337 6.57982 4.48268 5.28121 5.78129C3.9826 7.0799 3.33329 8.65282 3.33329 10.5C3.33329 12.3473 3.9826 13.9202 5.28121 15.2188C6.57982 16.5174 8.15274 17.1667 9.99996 17.1667C11.8472 17.1667 13.4201 16.5174 14.7187 15.2188C16.0173 13.9202 16.6666 12.3473 16.6666 10.5C16.6666 10.0556 16.6215 9.62504 16.5312 9.20837C16.4409 8.79171 16.3194 8.38893 16.1666 8.00004H17.9583C18.0833 8.40282 18.177 8.80907 18.2395 9.21879C18.302 9.62851 18.3333 10.0556 18.3333 10.5C18.3333 11.6528 18.1145 12.7362 17.677 13.75C17.2395 14.7639 16.6458 15.6459 15.8958 16.3959C15.1458 17.1459 14.2638 17.7396 13.25 18.1771C12.2361 18.6146 11.1527 18.8334 9.99996 18.8334ZM16.6666 6.33337V4.66671H15V3.00004H16.6666V1.33337H18.3333V3.00004H20V4.66671H18.3333V6.33337H16.6666ZM12.9166 9.66671C13.2638 9.66671 13.559 9.54518 13.802 9.30212C14.0451 9.05907 14.1666 8.76393 14.1666 8.41671C14.1666 8.06948 14.0451 7.77435 13.802 7.53129C13.559 7.28823 13.2638 7.16671 12.9166 7.16671C12.5694 7.16671 12.2743 7.28823 12.0312 7.53129C11.7882 7.77435 11.6666 8.06948 11.6666 8.41671C11.6666 8.76393 11.7882 9.05907 12.0312 9.30212C12.2743 9.54518 12.5694 9.66671 12.9166 9.66671ZM7.08329 9.66671C7.43052 9.66671 7.72565 9.54518 7.96871 9.30212C8.21177 9.05907 8.33329 8.76393 8.33329 8.41671C8.33329 8.06948 8.21177 7.77435 7.96871 7.53129C7.72565 7.28823 7.43052 7.16671 7.08329 7.16671C6.73607 7.16671 6.44093 7.28823 6.19788 7.53129C5.95482 7.77435 5.83329 8.06948 5.83329 8.41671C5.83329 8.76393 5.95482 9.05907 6.19788 9.30212C6.44093 9.54518 6.73607 9.66671 7.08329 9.66671ZM9.99996 15.0834C10.9444 15.0834 11.802 14.816 12.5729 14.2813C13.3437 13.7466 13.9027 13.0417 14.25 12.1667H5.74996C6.09718 13.0417 6.65621 13.7466 7.42704 14.2813C8.19788 14.816 9.05552 15.0834 9.99996 15.0834Z" fill="var(--justweb3-primary-color)"/>
</g>
</svg>
