<svg width="20" height="21" viewBox="0 0 20 21" fill="none" xmlns="http://www.w3.org/2000/svg">
<mask id="mask0_1051_1572" style="mask-type:alpha" maskUnits="userSpaceOnUse" x="0" y="0" width="20" height="21">
<rect y="0.5" width="20" height="20" fill="var(--justweb3-primary-color)"/>
</mask>
<g mask="url(#mask0_1051_1572)">
<path d="M12.5 16.3333L11.3333 15.1458L14.3125 12.1666H6.25C5.20833 12.1666 4.32292 11.802 3.59375 11.0729C2.86458 10.3437 2.5 9.45829 2.5 8.41663C2.5 7.37496 2.86458 6.48954 3.59375 5.76038C4.32292 5.03121 5.20833 4.66663 6.25 4.66663H6.66667V6.33329H6.25C5.66667 6.33329 5.17361 6.53468 4.77083 6.93746C4.36806 7.34024 4.16667 7.83329 4.16667 8.41663C4.16667 8.99996 4.36806 9.49302 4.77083 9.89579C5.17361 10.2986 5.66667 10.5 6.25 10.5H14.3125L11.3333 7.49996L12.5 6.33329L17.5 11.3333L12.5 16.3333Z" fill="var(--justweb3-primary-color)"/>
</g>
</svg>
