<svg width="20" height="20" viewBox="0 0 20 20" fill="none" xmlns="http://www.w3.org/2000/svg">
<g id="settings">
<mask id="mask0_5840_435" style="mask-type:alpha" maskUnits="userSpaceOnUse" x="0" y="0" width="20" height="20">
<rect id="Bounding box" width="20" height="20" fill="#D9D9D9"/>
</mask>
<g mask="url(#mask0_5840_435)">
<path id="settings_2" d="M7.70833 18.3334L7.375 15.6667C7.19444 15.5973 7.02431 15.514 6.86458 15.4167C6.70486 15.3195 6.54861 15.2154 6.39583 15.1042L3.91667 16.1459L1.625 12.1876L3.77083 10.5626C3.75694 10.4654 3.75 10.3716 3.75 10.2813V9.71883C3.75 9.62855 3.75694 9.5348 3.77083 9.43758L1.625 7.81258L3.91667 3.85425L6.39583 4.89591C6.54861 4.7848 6.70833 4.68064 6.875 4.58341C7.04167 4.48619 7.20833 4.40286 7.375 4.33341L7.70833 1.66675H12.2917L12.625 4.33341C12.8056 4.40286 12.9757 4.48619 13.1354 4.58341C13.2951 4.68064 13.4514 4.7848 13.6042 4.89591L16.0833 3.85425L18.375 7.81258L16.2292 9.43758C16.2431 9.5348 16.25 9.62855 16.25 9.71883V10.2813C16.25 10.3716 16.2361 10.4654 16.2083 10.5626L18.3542 12.1876L16.0625 16.1459L13.6042 15.1042C13.4514 15.2154 13.2917 15.3195 13.125 15.4167C12.9583 15.514 12.7917 15.5973 12.625 15.6667L12.2917 18.3334H7.70833ZM10.0417 12.9167C10.8472 12.9167 11.5347 12.632 12.1042 12.0626C12.6736 11.4931 12.9583 10.8056 12.9583 10.0001C12.9583 9.19453 12.6736 8.50703 12.1042 7.93758C11.5347 7.36814 10.8472 7.08341 10.0417 7.08341C9.22222 7.08341 8.53125 7.36814 7.96875 7.93758C7.40625 8.50703 7.125 9.19453 7.125 10.0001C7.125 10.8056 7.40625 11.4931 7.96875 12.0626C8.53125 12.632 9.22222 12.9167 10.0417 12.9167Z" fill="var(--justweb3-primary-color)"/>
</g>
</g>
</svg>
