<svg width="20" height="21" viewBox="0 0 20 21" fill="none" xmlns="http://www.w3.org/2000/svg">
<g clip-path="url(#clip0_991_1885)">
<mask id="mask0_991_1885" style="mask-type:alpha" maskUnits="userSpaceOnUse" x="0" y="0" width="20" height="21">
<path d="M20 0.5H0V20.5H20V0.5Z" fill="#D9D9D9"/>
</mask>
<g mask="url(#mask0_991_1885)">
<path d="M6.66663 13.8332H13.3333V7.1665H6.66663V13.8332ZM9.99996 18.8332C8.84718 18.8332 7.76385 18.6144 6.74996 18.1769C5.73607 17.7394 4.85413 17.1457 4.10413 16.3957C3.35413 15.6457 2.76038 14.7637 2.32288 13.7498C1.88538 12.7359 1.66663 11.6526 1.66663 10.4998C1.66663 9.34706 1.88538 8.26373 2.32288 7.24984C2.76038 6.23595 3.35413 5.354 4.10413 4.604C4.85413 3.854 5.73607 3.26025 6.74996 2.82275C7.76385 2.38525 8.84718 2.1665 9.99996 2.1665C11.1527 2.1665 12.2361 2.38525 13.25 2.82275C14.2638 3.26025 15.1458 3.854 15.8958 4.604C16.6458 5.354 17.2395 6.23595 17.677 7.24984C18.1145 8.26373 18.3333 9.34706 18.3333 10.4998C18.3333 11.6526 18.1145 12.7359 17.677 13.7498C17.2395 14.7637 16.6458 15.6457 15.8958 16.3957C15.1458 17.1457 14.2638 17.7394 13.25 18.1769C12.2361 18.6144 11.1527 18.8332 9.99996 18.8332Z" fill="var(--justweb3-primary-color)"/>
</g>
</g>
<defs>
<clipPath id="clip0_991_1885">
<rect width="20" height="20"  transform="translate(0 0.5)"/>
</clipPath>
</defs>
</svg>
