<svg width="10" height="10" viewBox="0 0 10 10" fill="none" xmlns="http://www.w3.org/2000/svg">
<g id="switch_account">
<mask id="mask0_845_8236" style="mask-type:alpha" maskUnits="userSpaceOnUse" x="0" y="0" width="10" height="10">
<rect id="Bounding box" width="10" height="10" fill="#D9D9D9"/>
</mask>
<g mask="url(#mask0_845_8236)">
<path id="switch_account_2" d="M5.83334 4.58334C6.18057 4.58334 6.4757 4.46182 6.71876 4.21876C6.96182 3.9757 7.08334 3.68057 7.08334 3.33334C7.08334 2.98612 6.96182 2.69098 6.71876 2.44793C6.4757 2.20487 6.18057 2.08334 5.83334 2.08334C5.48612 2.08334 5.19098 2.20487 4.94793 2.44793C4.70487 2.69098 4.58334 2.98612 4.58334 3.33334C4.58334 3.68057 4.70487 3.9757 4.94793 4.21876C5.19098 4.46182 5.48612 4.58334 5.83334 4.58334ZM3.33334 6.56251C3.64584 6.19445 4.02084 5.91147 4.45834 5.71355C4.89584 5.51564 5.35418 5.41668 5.83334 5.41668C6.31251 5.41668 6.77084 5.51564 7.20834 5.71355C7.64584 5.91147 8.02084 6.19445 8.33334 6.56251V1.66668H3.33334V6.56251ZM3.33334 7.50001C3.10418 7.50001 2.908 7.41841 2.7448 7.25522C2.58161 7.09202 2.50001 6.89584 2.50001 6.66668V1.66668C2.50001 1.43751 2.58161 1.24133 2.7448 1.07814C2.908 0.914941 3.10418 0.833344 3.33334 0.833344H8.33334C8.56251 0.833344 8.75869 0.914941 8.92189 1.07814C9.08508 1.24133 9.16668 1.43751 9.16668 1.66668V6.66668C9.16668 6.89584 9.08508 7.09202 8.92189 7.25522C8.75869 7.41841 8.56251 7.50001 8.33334 7.50001H3.33334ZM1.66668 9.16668C1.43751 9.16668 1.24133 9.08508 1.07814 8.92189C0.914941 8.75869 0.833344 8.56251 0.833344 8.33334V2.50001H1.66668V8.33334H7.50001V9.16668H1.66668ZM5.83334 3.75001C5.71529 3.75001 5.61633 3.71008 5.53647 3.63022C5.45661 3.55036 5.41668 3.4514 5.41668 3.33334C5.41668 3.21529 5.45661 3.11633 5.53647 3.03647C5.61633 2.95661 5.71529 2.91668 5.83334 2.91668C5.9514 2.91668 6.05036 2.95661 6.13022 3.03647C6.21008 3.11633 6.25001 3.21529 6.25001 3.33334C6.25001 3.4514 6.21008 3.55036 6.13022 3.63022C6.05036 3.71008 5.9514 3.75001 5.83334 3.75001ZM4.45834 6.66668H7.20834C7.00695 6.52779 6.78821 6.42362 6.55209 6.35418C6.31598 6.28473 6.0764 6.25001 5.83334 6.25001C5.59029 6.25001 5.35071 6.28473 5.11459 6.35418C4.87848 6.42362 4.65973 6.52779 4.45834 6.66668Z" fill="var(--justweb3-primary-color)"/>
</g>
</g>
</svg>
