<svg width="21" height="20" viewBox="0 0 21 20" fill="none" xmlns="http://www.w3.org/2000/svg">
  <mask id="mask0_1850_1568" style="mask-type:alpha" maskUnits="userSpaceOnUse" x="0" y="0" width="21" height="20">
    <rect x="0.5" width="20" height="20" fill="#D9D9D9"/>
  </mask>
  <g mask="url(#mask0_1850_1568)">
    <path d="M8.3335 13.75L10.5002 11.5833L12.6668 13.75L13.8335 12.5833L11.6668 10.4167L13.8335 8.25L12.6668 7.08333L10.5002 9.25L8.3335 7.08333L7.16683 8.25L9.3335 10.4167L7.16683 12.5833L8.3335 13.75ZM6.3335 17.5C5.87516 17.5 5.4828 17.3368 5.15641 17.0104C4.83002 16.684 4.66683 16.2917 4.66683 15.8333V5H3.8335V3.33333H8.00016V2.5H13.0002V3.33333H17.1668V5H16.3335V15.8333C16.3335 16.2917 16.1703 16.684 15.8439 17.0104C15.5175 17.3368 15.1252 17.5 14.6668 17.5H6.3335ZM14.6668 5H6.3335V15.8333H14.6668V5Z" fill="#FFFFFF"/>
  </g>
</svg>
