<svg width="15" height="16" viewBox="0 0 15 16" fill="none" xmlns="http://www.w3.org/2000/svg">
<g id="more_vert">
<mask id="mask0_3905_2431" style="mask-type:alpha" maskUnits="userSpaceOnUse" x="0" y="0" width="15" height="16">
<rect id="Bounding box" y="0.5" width="15" height="15" fill="#D9D9D9"/>
</mask>
<g mask="url(#mask0_3905_2431)">
<path id="more_vert_2" d="M7.5 13C7.15625 13 6.86198 12.8776 6.61719 12.6328C6.3724 12.388 6.25 12.0938 6.25 11.75C6.25 11.4062 6.3724 11.112 6.61719 10.8672C6.86198 10.6224 7.15625 10.5 7.5 10.5C7.84375 10.5 8.13802 10.6224 8.38281 10.8672C8.6276 11.112 8.75 11.4062 8.75 11.75C8.75 12.0938 8.6276 12.388 8.38281 12.6328C8.13802 12.8776 7.84375 13 7.5 13ZM7.5 9.25C7.15625 9.25 6.86198 9.1276 6.61719 8.88281C6.3724 8.63802 6.25 8.34375 6.25 8C6.25 7.65625 6.3724 7.36198 6.61719 7.11719C6.86198 6.8724 7.15625 6.75 7.5 6.75C7.84375 6.75 8.13802 6.8724 8.38281 7.11719C8.6276 7.36198 8.75 7.65625 8.75 8C8.75 8.34375 8.6276 8.63802 8.38281 8.88281C8.13802 9.1276 7.84375 9.25 7.5 9.25ZM7.5 5.5C7.15625 5.5 6.86198 5.3776 6.61719 5.13281C6.3724 4.88802 6.25 4.59375 6.25 4.25C6.25 3.90625 6.3724 3.61198 6.61719 3.36719C6.86198 3.1224 7.15625 3 7.5 3C7.84375 3 8.13802 3.1224 8.38281 3.36719C8.6276 3.61198 8.75 3.90625 8.75 4.25C8.75 4.59375 8.6276 4.88802 8.38281 5.13281C8.13802 5.3776 7.84375 5.5 7.5 5.5Z" fill="var(--justweb3-primary-color)"/>
</g>
</g>
</svg>
