<svg width="20" height="20" viewBox="0 0 20 20" fill="none" xmlns="http://www.w3.org/2000/svg">
  <mask id="mask0_2261_308" style="mask-type:alpha" maskUnits="userSpaceOnUse" x="0" y="0" width="20" height="20">
    <rect width="20" height="20" fill="#D9D9D9"/>
  </mask>
  <g mask="url(#mask0_2261_308)">
    <path d="M7.16668 18.75L5.58334 16.0833L2.58334 15.4167L2.87501 12.3333L0.833344 10L2.87501 7.66667L2.58334 4.58333L5.58334 3.91667L7.16668 1.25L10 2.45833L12.8333 1.25L14.4167 3.91667L17.4167 4.58333L17.125 7.66667L19.1667 10L17.125 12.3333L17.4167 15.4167L14.4167 16.0833L12.8333 18.75L10 17.5417L7.16668 18.75ZM9.12501 12.9583L13.8333 8.25L12.6667 7.04167L9.12501 10.5833L7.33334 8.83333L6.16668 10L9.12501 12.9583Z" fill="var(--justweb3-primary-color)"/>
  </g>
</svg>
