<svg width="20" height="20" viewBox="0 0 20 20" fill="none" xmlns="http://www.w3.org/2000/svg">
  <mask id="mask0_1635_1900" style="mask-type:alpha" maskUnits="userSpaceOnUse" x="0" y="0" width="20" height="20">
    <rect width="20" height="20" fill="#D9D9D9"/>
  </mask>
  <g mask="url(#mask0_1635_1900)">
    <path d="M4.99999 16.6667C4.08332 16.6667 3.2986 16.3403 2.64582 15.6875C1.99305 15.0347 1.66666 14.25 1.66666 13.3333V6.66667C1.66666 5.75 1.99305 4.96528 2.64582 4.3125C3.2986 3.65972 4.08332 3.33334 4.99999 3.33334H15C15.9167 3.33334 16.7014 3.65972 17.3542 4.3125C18.0069 4.96528 18.3333 5.75 18.3333 6.66667V13.3333C18.3333 14.25 18.0069 15.0347 17.3542 15.6875C16.7014 16.3403 15.9167 16.6667 15 16.6667H4.99999ZM4.99999 6.66667H15C15.3055 6.66667 15.5972 6.70139 15.875 6.77084C16.1528 6.84028 16.4167 6.95139 16.6667 7.10417V6.66667C16.6667 6.20834 16.5035 5.81597 16.1771 5.48959C15.8507 5.1632 15.4583 5 15 5H4.99999C4.54166 5 4.1493 5.1632 3.82291 5.48959C3.49652 5.81597 3.33332 6.20834 3.33332 6.66667V7.10417C3.58332 6.95139 3.84721 6.84028 4.12499 6.77084C4.40277 6.70139 4.69443 6.66667 4.99999 6.66667ZM3.45832 9.375L12.7292 11.625C12.8542 11.6528 12.9792 11.6528 13.1042 11.625C13.2292 11.5972 13.3472 11.5417 13.4583 11.4583L16.3542 9.04167C16.2014 8.83334 16.0069 8.6632 15.7708 8.53125C15.5347 8.39931 15.2778 8.33334 15 8.33334H4.99999C4.63888 8.33334 4.32291 8.42709 4.05207 8.61459C3.78124 8.80209 3.58332 9.05556 3.45832 9.375Z" fill="var(--justweb3-primary-color)"/>
  </g>
</svg>
