<svg width="120" height="120" viewBox="0 0 120 120" fill="none" xmlns="http://www.w3.org/2000/svg">
<rect width="120" height="120" rx="50" fill="white"/>
<circle cx="60" cy="60" r="60" fill="#0648B3"/>
<path fill-rule="evenodd" clip-rule="evenodd" d="M74.2431 12.3982C70.101 11.0974 65.7256 10.3253 61.1963 10.1539L60.8921 12.0582C65.3022 12.2055 69.6953 12.9557 73.9373 14.3127L74.2431 12.3982ZM35.1029 16.3602C34.6867 16.0454 34.1684 15.8585 33.6062 15.8585H33.6061C32.2352 15.8585 31.1239 16.9698 31.1239 18.3409C31.1239 18.4953 31.138 18.6464 31.165 18.7931C18.0252 27.7751 9.40039 42.8757 9.40039 59.9939C9.40039 78.7171 19.7186 95.0281 34.9768 103.558L35.2984 101.544C31.7472 99.4913 28.401 96.949 25.3631 93.911C6.63202 75.18 6.63202 44.8073 25.3631 26.0762C27.5032 23.936 29.7957 22.0408 32.2051 20.3899C32.604 20.6631 33.0863 20.8231 33.6061 20.8231C34.9773 20.8231 36.0887 19.7117 36.0887 18.3407C36.0887 18.2273 36.0811 18.1159 36.0662 18.0066C40.61 15.4924 45.4754 13.7713 50.4593 12.8442L50.7799 10.8381C45.1795 11.8 39.8992 13.6972 35.1029 16.3602ZM26.252 86.9664C27.623 86.9664 28.7343 88.0777 28.7343 89.4486C28.7343 89.8091 28.6574 90.1515 28.5192 90.4605C28.542 90.4834 28.5643 90.5066 28.5866 90.5297C28.6125 90.5565 28.6383 90.5833 28.6648 90.6097C30.9641 92.909 33.4587 94.8926 36.0934 96.5666L35.7662 98.6154C32.6105 96.6901 29.7102 94.3877 27.1255 91.7729C26.8539 91.875 26.5596 91.931 26.2521 91.931C24.8809 91.931 23.7696 90.8197 23.7696 89.4486C23.7696 89.0417 23.8677 88.6576 24.0412 88.3187C17.803 80.5683 14.0696 70.7173 14.0696 59.9939C14.0696 38.2062 29.4812 20.0203 49.9974 15.7383L49.6724 17.7732C41.9736 19.5169 34.6586 23.384 28.6648 29.3777C12.8875 45.1548 11.8349 70.081 25.502 87.0816C25.7387 87.0069 25.9905 86.9662 26.252 86.9662V86.9664ZM82.3848 96.6214C81.9715 96.314 81.4592 96.1319 80.9044 96.1319H80.9043C79.5334 96.1319 78.422 97.2433 78.422 98.6144C78.422 98.689 78.4256 98.763 78.4319 98.8362C75.4727 100.295 72.3816 101.395 69.223 102.137L68.8972 104.176C72.5568 103.383 76.0503 102.146 79.3204 100.526C79.7502 100.882 80.3022 101.096 80.9043 101.096C82.2755 101.096 83.3868 99.9852 83.3868 98.6142C83.3868 98.4935 83.3779 98.3747 83.3614 98.2586C96.0562 90.2542 104.492 76.111 104.492 59.9938C104.492 51.7772 102.299 44.074 98.4675 37.4347C98.7647 37.0254 98.9401 36.5221 98.9401 35.9776C98.9401 34.6065 97.8288 33.4952 96.4579 33.4952C96.2842 33.4952 96.1147 33.513 95.9514 33.5469C92.4926 28.7599 88.1194 24.6772 83.0878 21.5546L82.7597 23.6086C85.2872 25.2421 87.6825 27.1638 89.8965 29.3778C91.552 31.0333 93.0439 32.7903 94.3741 34.6278C94.1218 35.0163 93.9753 35.4799 93.9753 35.9777C93.9753 37.3486 95.0866 38.4601 96.4579 38.4601C96.5862 38.4601 96.7123 38.4503 96.8356 38.4315C106.349 54.9782 104.037 76.4689 89.8965 90.6097C87.5731 92.9332 85.0509 94.9369 82.3848 96.6214ZM67.5264 80.2997C67.4234 81.5759 66.3554 82.5797 65.0525 82.5797C64.2357 82.5797 63.5112 82.1852 63.0589 81.5765C50.6427 83.6763 37.4134 74.5357 37.4134 59.994C37.4134 47.9175 47.2042 38.1266 59.2807 38.1266C78.6987 38.1266 88.4855 61.7145 74.7431 75.4562C72.5442 77.6551 70.0927 79.2486 67.5265 80.2998L67.5264 80.2997ZM66.9295 78.4725C66.4744 77.9471 65.8024 77.6148 65.0525 77.6148L65.0526 77.6147C63.8144 77.6147 62.7881 78.5212 62.6008 79.7066C51.3092 81.5384 39.3277 73.2154 39.3277 59.9939C39.3277 42.2721 60.853 33.3476 73.3899 45.8846C81.1818 53.676 81.1818 66.3115 73.3899 74.1029C71.419 76.0737 69.226 77.5133 66.9295 78.4725ZM64.839 65.5522C69.7802 60.611 66.2597 52.1328 59.2807 52.1328C54.9396 52.1328 51.4196 55.6527 51.4196 59.9939C51.4196 66.9726 59.8978 70.4934 64.839 65.5522ZM29.5413 39.2054C29.7018 39.2054 29.8588 39.2208 30.0108 39.2499C34.4685 32.9723 40.8947 28.1903 48.39 25.8049L48.0495 27.9367C43.3813 29.568 38.9981 32.2496 35.2673 35.9802C33.906 37.3415 32.6868 38.7907 31.6051 40.3078C31.8695 40.7024 32.0238 41.1771 32.0238 41.6878C32.0238 43.0586 30.9125 44.17 29.5414 44.17C29.4371 44.17 29.3343 44.1636 29.2332 44.151C22.4674 56.9739 24.4786 73.218 35.2673 84.0068C36.0632 84.8026 36.8896 85.5495 37.7412 86.2499L37.3951 88.4169C28.8886 81.8574 23.407 71.5663 23.407 59.9938C23.407 53.926 24.9144 48.211 27.5739 43.2013C27.2511 42.7824 27.0592 42.2577 27.0592 41.6879C27.0592 40.3167 28.1705 39.2053 29.5414 39.2053L29.5413 39.2054ZM22.3723 71.4086C23.6635 71.4966 24.6835 72.5715 24.6835 73.8851C24.6835 74.5714 24.4049 75.1927 23.9548 75.642C25.8276 79.8746 28.4971 83.8398 31.966 87.3085C33.5192 88.8617 35.1735 90.2525 36.9049 91.4859L36.5701 93.5825C30.2962 89.3322 25.2772 83.3699 22.1816 76.3671C20.8196 76.3565 19.719 75.2494 19.719 73.8851C19.719 73.1458 20.042 72.4823 20.5547 72.0275C19.3742 68.2257 18.7382 64.1842 18.7382 59.994C18.7382 41.0817 31.6875 25.195 49.203 20.7143L48.8715 22.7897C42.6801 24.5154 36.8345 27.8106 31.966 32.6791C21.4857 43.1593 18.2896 58.1652 22.3723 71.4086ZM108.883 54.7058C109.879 55.0285 110.6 55.9639 110.6 57.0678C110.6 58.0684 110.008 58.9306 109.155 59.3236C109.158 59.5467 109.16 59.7698 109.16 59.9939C109.16 84.5282 91.4474 104.925 68.112 109.094L68.4332 107.083C77.5067 105.329 86.1714 100.938 93.1978 93.9113C102.717 84.3923 107.395 71.8667 107.239 59.3903C106.301 59.0354 105.635 58.1297 105.635 57.0678C105.635 56.1109 106.176 55.2806 106.969 54.8662C105.846 44.351 101.257 34.1359 93.1977 26.0764C90.2435 23.1222 86.9992 20.635 83.5572 18.6128L83.8796 16.5942C97.5263 24.3454 107.158 38.3464 108.882 54.7057L108.883 54.7058ZM86.004 68.1801C86.004 67.3976 85.6418 66.6999 85.076 66.2449H85.0761C85.5602 64.2401 85.817 62.1469 85.817 59.9937C85.817 57.6857 85.5217 55.4465 84.9679 53.3114L83.3354 54.7249C84.1243 58.3446 84.0895 62.1078 83.231 65.7148C81.9969 65.8587 81.0392 66.9074 81.0392 68.1801C81.0392 68.8814 81.3301 69.5147 81.7977 69.9661C81.2231 71.2643 80.531 72.5232 79.721 73.7262L80.8783 75.4133C81.9355 73.9353 82.8446 72.3442 83.5844 70.6617C84.9265 70.6285 86.004 69.5303 86.004 68.1801ZM52.105 48.4311C52.6278 48.4311 53.1125 48.5927 53.5125 48.8685C55.2392 47.9715 57.2005 47.4638 59.2807 47.4638C70.4061 47.4638 76.0155 60.9787 68.1406 68.8535C60.2657 76.7284 46.7508 71.1192 46.7508 59.9939C46.7508 56.8671 47.8965 54.0077 49.7907 51.8126C49.6823 51.5339 49.6226 51.2307 49.6226 50.9136C49.6226 49.5424 50.7339 48.4313 52.105 48.4313V48.4311ZM54.5874 50.9135C54.5874 50.7753 54.5759 50.6401 54.5543 50.5081L54.5544 50.5083C58.3614 48.6238 63.248 48.9479 66.7873 52.4872C70.9325 56.6326 70.9325 63.3552 66.7873 67.5004C60.1182 74.1696 48.6651 69.4233 48.6651 59.9939C48.6651 57.2861 49.6103 54.9659 51.1144 53.1901C51.4179 53.3223 51.7528 53.3957 52.105 53.3957C53.4761 53.3957 54.5874 52.2846 54.5874 50.9135ZM59.2807 42.7951C65.8362 42.7951 70.9945 46.2145 73.8936 50.9715C73.9766 50.963 74.0609 50.9586 74.1461 50.9586C75.5172 50.9586 76.6286 52.0699 76.6286 53.441C76.6286 54.1784 76.3068 54.8407 75.7963 55.2953C77.4147 60.8896 76.2943 67.3023 71.4418 72.1548C60.6339 82.9624 42.0822 75.2661 42.0822 59.9938C42.0822 50.4952 49.7822 42.7951 59.2807 42.7951ZM90.4856 59.9938C90.4856 56.4837 89.906 53.1095 88.8373 49.9609L87.2629 51.3243C90.0063 60.2081 88.4288 70.1395 82.5276 77.8172L83.6607 79.4691C87.9307 74.1307 90.4856 67.3612 90.4856 59.9938ZM59.2807 24.1199C63.7602 24.1199 68.0464 24.9431 72.0003 26.443L71.6914 28.3765C67.5153 26.7401 63.081 25.9615 58.659 26.0418L58.9652 24.1243C58.994 24.124 59.0227 24.1236 59.0514 24.1231L59.0913 24.1223C59.1543 24.1212 59.2174 24.1201 59.2806 24.1201L59.2807 24.1199ZM72.7503 21.7455C68.664 20.3067 64.2779 19.5043 59.7107 19.4567H59.7106L59.4055 21.367C63.8231 21.3816 68.238 22.1499 72.4427 23.6701L72.7503 21.7455ZM60.4547 14.7974C65.0014 14.9135 69.38 15.7028 73.4976 17.066L73.191 18.9851C68.9652 17.5555 64.5634 16.7955 60.1498 16.7071L60.4547 14.7974ZM74.0142 55.9199C72.7042 55.8514 71.6636 54.7679 71.6636 53.4411C71.6636 52.8427 71.8754 52.2937 72.2279 51.865C71.6297 50.9136 70.9167 50.014 70.0884 49.1856C60.486 39.5834 43.9964 46.4171 43.9964 59.9939C43.9964 73.5704 60.4861 80.4038 70.0884 70.8019C74.119 66.7712 75.4271 61.0492 74.0142 55.9199ZM44.6251 107.684C48.7735 108.958 53.1533 109.703 57.685 109.846H57.6852L57.9893 107.941C53.5783 107.822 49.1806 107.098 44.9308 105.77L44.6251 107.684ZM58.4279 105.194C53.8794 105.11 49.4947 104.354 45.3698 103.021L45.6757 101.105C49.9106 102.503 54.3181 103.228 58.7329 103.284L58.4279 105.194ZM99.8231 59.9939C99.8231 46.1443 92.8781 33.9188 82.2813 26.6059L81.9453 28.7084C83.5722 29.8896 85.1284 31.2122 86.5953 32.679C101.68 47.7637 101.68 72.2239 86.5953 87.3085C81.8153 92.0886 76.0936 95.352 70.0273 97.1022L69.6949 99.1837C87.0388 94.5866 99.8231 78.7842 99.8231 59.9939ZM59.1722 100.535C54.6027 100.523 50.2113 99.7549 46.1161 98.3492L46.4228 96.4283C50.6381 97.9124 55.0597 98.6419 59.4782 98.6198L59.1723 100.535L59.1722 100.535ZM95.1543 59.9939C95.1543 48.551 89.7968 38.3591 81.4532 31.791V31.7911L81.1044 33.9752C81.8557 34.6065 82.5871 35.2737 83.2939 35.9806C96.5554 49.242 96.5554 70.7459 83.2939 84.0072C79.6545 87.6466 75.3937 90.2852 70.8538 91.9266L70.5114 94.0719C84.8227 89.3586 95.1543 75.8835 95.1543 59.9939ZM59.8496 95.8606C59.6602 95.8641 59.471 95.8676 59.2807 95.8676C54.9161 95.8676 50.7337 95.0878 46.865 93.6598L47.1731 91.7297C51.3623 93.3252 55.8035 94.0608 60.2255 93.9388L59.9187 95.8594H59.9186L59.8496 95.8606ZM53.334 59.994C53.334 54.7108 59.7501 52.053 63.4859 55.7888V55.7887C65.808 58.1108 65.808 61.8769 63.4859 64.199C59.7503 67.9348 53.334 65.2769 53.334 59.994Z" fill="white"/>
</svg>
