<?xml version="1.0" encoding="utf-8"?>
<!-- Generator: Adobe Illustrator 26.0.3, SVG Export Plug-In . SVG Version: 6.00 Build 0)  -->
<svg version="1.0" id="katman_1" xmlns="http://www.w3.org/2000/svg" xmlns:xlink="http://www.w3.org/1999/xlink" x="0px" y="0px"
	 viewBox="0 0 1676.4 1136" style="enable-background:new 0 0 1676.4 1136;" xml:space="preserve">
<style type="text/css">
	.st0{fill-rule:evenodd;clip-rule:evenodd;fill:url(#SVGID_1_);}
	.st1{fill:#393E4D;}
</style>
<linearGradient id="SVGID_1_" gradientUnits="userSpaceOnUse" x1="123.4474" y1="569.2991" x2="565.004" y2="577.3676" gradientTransform="matrix(1 0 0 -1 0 1136)">
	<stop  offset="0" style="stop-color:#29CCB9"/>
	<stop  offset="0.4948" style="stop-color:#0091FF"/>
	<stop  offset="1" style="stop-color:#FF66B7"/>
</linearGradient>
<path class="st0" d="M228.2,718.2c-47.4-35.4-78-91.9-78-155.6c0-107.2,86.9-194.1,194.1-194.1c88.5,0,185,52.9,208.4,133.8
	C526.5,412,443.1,345.8,344.2,345.8c-119.8,0-216.9,97.1-216.9,216.9s97.1,216.9,216.9,216.9s216.9-97.1,216.9-216.9v-11.4l-11.9,0
	c-0.4,0-0.9,0-1.6,0c-1.4,0-3.4-0.1-6-0.2c-5.1-0.2-12.2-0.5-20.2-1.2c-16.3-1.4-34.8-4.2-47.5-9.2c-20.3-8.1-31.8-18.9-44.9-31.5
	l-0.8-0.7c-13.1-12.6-27.9-26.8-53.5-38.8c-25.2-11.9-53.1-10-73.6-5.7c-10.4,2.1-19.3,5-25.6,7.3c-3.2,1.1-5.7,2.2-7.5,2.9
	c-10.3,4.3-20.3,9.5-30.4,14.2c0,0,19.8,5.4,29.7,8.5c0.4,0.1,0.9,0.3,1.6,0.5c1.5,0.5,3.6,1.2,6.1,2.3c5.2,2.1,12,5.3,18.7,9.6
	c10.6,6.8,19.4,15.4,23,25.9c-22.5,3-43.6,12.8-59.3,22.1c-9.6,5.6-17.5,11.2-23.1,15.4c-2.8,2.1-5,3.9-6.5,5.1
	c-1.3,1.1-21.6,18.9-21.6,18.9s26.2,2.8,39.1,5.4c8.6,1.7,20.2,4.5,32.3,8.7c12.1,4.2,24.4,9.8,34.6,16.9
	c10.2,7.1,17.7,15.4,21.4,24.8c10.7,27.4,0.2,54.2-21,69.2C291.7,736.5,260,740,228.2,718.2z M302.2,752.2
	c8.5-2.8,16.5-6.8,23.7-11.9c28.8-20.5,43.9-57.9,29-96.1c-5.9-15-17.1-26.5-29.6-35.2c-12.5-8.7-26.8-15.1-40.1-19.7
	c-8.7-3-17.2-5.4-24.6-7.2c2.6-1.7,5.4-3.5,8.4-5.2c17.6-10.3,39.7-19.8,60.9-19.8c32,0,55.8,9.8,78.6,20.3c2.1,1,4.1,1.9,6.2,2.9
	c20.3,9.5,41.7,19.6,66.5,19.6c24.1,0,42.8-6.8,55.7-13.8c-11.5,96.2-93.4,170.8-192.7,170.8C329.8,756.7,315.7,755.1,302.2,752.2z
	 M512.2,571.9c-8.5,2.9-18.9,5-31,5c-19.5,0-36.2-7.8-57.4-17.7c-1.9-0.9-3.8-1.8-5.7-2.7c-21.2-9.8-45.8-20.3-77.8-22.2
	c-4.3-21.2-20.4-35.7-34.1-44.5c-1.5-1-3.1-1.9-4.6-2.8c1.4-0.3,2.8-0.6,4.2-0.9c18.5-3.8,40.6-4.8,59.2,4
	c22.2,10.4,34.7,22.5,47.7,35l0.4,0.4c13.4,12.9,27.6,26.3,52.3,36.2C479.2,567.3,497,570.3,512.2,571.9z"/>
<g transform="translate(-339.000000, -514.000000)">
	<g transform="translate(339.000000, 497.000000)">
		<g transform="translate(0.000000, 17.000000)">
			<path class="st1" d="M214.3,422.8L214.3,422.8c0.3-0.3,0.5-0.5,0.8-0.7l0,0L214.3,422.8z M205.8,707.9L205.8,707.9L205.8,707.9
				c-0.3-0.2-0.6-0.5-0.8-0.8l0,0L205.8,707.9z M325.1,514.4c-0.3-0.2-0.6-0.5-0.7-0.8l0,0L325.1,514.4z M320.3,613.5L320.3,613.5
				c-0.3-0.2-0.6-0.4-0.8-0.6L320.3,613.5z M320.8,613.8l0.8,0.6l0,0C321.3,614.2,321,614,320.8,613.8L320.8,613.8z M1461,666.8
				l40.7-50.7c0.3-0.3,0.3-0.8,0.1-1.1c-0.2-0.4-0.6-0.6-1-0.6h-16.4c-0.3,0-0.6,0.1-0.8,0.4l-51.4,63.3c-0.3,0.4-0.8,0.5-1.2,0.3
				c-0.4-0.1-0.7-0.6-0.7-1v-62.1c0-0.6-0.5-1.1-1.1-1.1h-13.1c-0.6,0-1.1,0.5-1.1,1.1l-0.2,126c0,0.3,0.1,0.6,0.3,0.8
				s0.5,0.3,0.8,0.3h13.3c0.6,0,1.1-0.5,1.1-1.1v-35.7c0-0.2,0.1-0.5,0.2-0.7l17.1-21.8c0.2-0.3,0.6-0.4,0.9-0.4
				c0.4,0,0.7,0.2,0.9,0.5l34.5,58.7c0.2,0.3,0.5,0.5,0.9,0.5h19.1c-5.3-11.9-39.1-67.7-43.1-74.3
				C1460.7,667.6,1460.8,667.2,1461,666.8z M1121.7,613.9h-13.5c-0.4,0-0.7,0.3-0.8,0.7l-7,105c0,0.4-0.3,0.7-0.7,0.7
				s-0.8-0.2-0.8-0.6l-15.6-71.5c-0.1-0.4-0.4-0.6-0.8-0.6h-18.2c-0.4,0-0.7,0.3-0.8,0.6c-1.2,5.9-10.5,52.3-14.6,71.7
				c-0.1,0.4-0.4,0.6-0.8,0.6c-0.4,0-0.7-0.3-0.7-0.7c-1.2-22.4-6.9-97.3-7.6-105.2c0-0.4-0.4-0.7-0.8-0.7c-2.5,0-10.7,0-13.4,0
				c-0.2,0-0.4,0.1-0.6,0.2c-0.1,0.2-0.2,0.4-0.2,0.6l9.7,127.9c0,0,0.2-0.4,0.1,0c0.1,0.2,0.5,0,0.5,0h22.1c0,0,13.6-70,15-75.7
				c0.1-0.3,0.3-0.5,0.5-0.6c0.3-0.1,0.6,0,0.9,0.2l0,0c2.5,2.4,14.9,68.2,16.2,75.4c0.1,0.4,0.4,0.7,0.8,0.7h21.4
				c0.4,0,0.7-0.3,0.8-0.7l9.6-127.2c0-0.2-0.1-0.4-0.2-0.6C1122.1,614,1121.9,613.9,1121.7,613.9z M731.7,394.8
				c1.9,0,2.3,0.5,2.3,2.3c0,0.7,0,1.4,0,2.2l0,7.2c0,0.9,0,1.7,0,2.6l0,8.5c0,1,0,2,0,3l0,15.8c0,1.1,0,2.2,0,3.3l0,16.8
				c0,1.1,0,2.2,0,3.4l0,19.6c0,1,0,2.1,0,3.1l0,8.9c0,0.9,0,1.9,0,2.8l0,7.8c0,0.8,0,1.6,0,2.4l0,4.4c0,0.7,0,1.3,0,2l0,3.5
				c0,3.2,0,5.5,0,6.5c0,0.7,0.3,1.5-0.3,2.1c-4.5-0.1-9-0.1-13.5,0c-0.7-0.7-0.3-1.7-0.3-2.5l0,0v-99.4c0-0.7,0-1.3,0-2
				c-0.1-0.7-0.5-0.8-1.1-0.6l0,0l-0.1,0.3c-0.1,0.2-0.1,0.4-0.3,0.6c-0.2,0.3-0.1,0.6-0.4,0.9c-0.7,0.6-5.8,13-11.1,26.6l-2.1,5.5
				c-5.7,14.6-11.2,28.8-11.6,29.7c-0.7,1.4-0.5,1.8-1.6,0.9c-1.6-1.4-21.5-52.7-25.9-63.5c-0.2-0.6-0.9-1.3-1.3-0.8
				c-0.1,0.2-0.2,0.4-0.2,0.7l0,0l0,17.8c0,19.7-0.4,76.7-0.4,84.9l0,1l0,0l-1.5,0c-0.3,0-0.7,0-1,0l-2.5,0c-0.5,0-0.9,0-1.4,0l-4,0
				c-1.2,0-2.1,0-2.6,0c-0.2,0-0.5,0-0.7-0.2c-0.1-0.2-0.1-0.3-0.1-0.5c0.1-3.7,0.1-14.4,0.1-28.3l0-33.3c0-1.2,0-2.4,0-3.6l0-7.1
				c0-21.3-0.1-42.1-0.1-54.2l0-0.2c0-0.2,0.1-0.3,0.2-0.4c0.1-0.1,0.3-0.1,0.5-0.1c1.9,0,3.9,0.1,5.9,0.1l11.7-0.1
				c0.9,0,1.8-0.1,2,1.1c1.2,1.3,17.4,43.9,21,53.1c1.1,2.8,2,1.3,2.7-0.6c1.1-3,19.5-50.7,20.6-52l0,0l0.1-0.1l0-0.1
				c0.1-0.4,0.1-0.7,0.4-1c0.3-0.2,2.9-0.3,6.1-0.3l2.9,0c0.5,0,1,0,1.5,0l4.2,0C730.3,394.8,731.1,394.8,731.7,394.8z M906.2,522.8
				c4.5-0.2,8.9-0.1,13.4,0c0.7-0.7,0.3-1.7,0.3-2.5c0-34.3,0-104.2,0-104.9c0-0.7,0.4-0.9,1.1-0.6v0.1c0.4,0.3,35.3,88.5,42.3,106
				c0.1,0.6,0.4,1.2,0.9,1.5c0.5,0.4,1.1,0.5,1.7,0.4c3.2-0.1,18,1.1,19.7,0c1.2-0.9,0.4-111.9,0.4-126c0-1.5-0.4-2-2-2
				c-3.2,0.1-6.5,0-9.8,0c-2.5,0-2.5,0-2.5,2.5c0,33.9,0.2,103.5-0.2,104.4c-0.4,0.4-40.8-102.6-43.4-105.8c-0.1,0-0.1-0.1-0.1-0.1
				c0-0.1,0-0.1,0-0.2c-0.3-1.1-1.3-0.8-2-0.8c-6.1,0-12.3,0-18.4,0c-1.6,0-1.9,0.6-1.9,2c0,41.4,0.1,82.8,0,124.2
				C905.7,521.6,905.3,522.4,906.2,522.8z M717.9,614.3c0,0.1-0.4,106.2-0.4,106.2l-43.6-106.5h-22.1c0,0,0,122.5,0,128.2l13.9-0.1
				l0.3-107.8c0,0,28.7,72.9,43.9,107.8h21.9c0,0,0-127.5,0-127.9C731.9,613.1,719,613.7,717.9,614.3z M858.3,728.8
				c-0.5,0-1,0.1-1.5,0.1h-58.7c-0.6,0.1-1.2,0-1.7-0.2c-0.4-0.7-0.2-1.4-0.2-2.2c0-13.2,0-26.5,0-39.7c0-2.5,0-2.5,2.5-2.5
				c18.7,0,37.4,0,56.1,0c1.8,0,2.3-0.5,2.2-2.2c-0.1-3,0-6,0-9c0-2.4,0-2.4-2.5-2.4h-55.7c-2.6,0-2.6,0-2.6-2.6
				c0-12.6,0-25.3,0-37.9c0-1.9,0.6-2.3,2.4-2.3c19.4,0.1,38.7,0.1,58.1,0c0.8,0,1.6,0.3,2.3-0.3v-13c-0.5-0.6-1.3-0.3-1.9-0.3
				c-24.8,0-49.5,0-74.3-0.1c-1.9,0-2.1,0.7-2.1,2.3c0,41.3,0,82.5,0,123.8c0,1.9,0.6,2.3,2.4,2.3c24.6-0.1,49.2-0.1,73.8-0.1
				c0.7,0,1.5,0.3,2.1-0.3c0-4.3,0-8.7,0-13C858.8,728.9,858.6,728.8,858.3,728.8z M1123.1,397.4c0-2.8,0.3-2.6-2.7-2.6
				c-28.1,0-56.2,0-84.3,0c-3.8,0-7.7,0.1-11.5,0c-1.5,0-1.9,0.5-1.9,1.9c0.1,3.2,0.1,6.5,0,9.7c-0.1,1.9,0.6,2.2,2.3,2.1
				c12.3-0.1,24.7,0,37,0c3.2,0,2.9-0.4,2.9,2.8c0,17.1,0,34.2,0,51.3c0,19.2,0,62.1,0,62.1h15.6c0,0,0-77.4,0-114
				c0-0.7,0.1-1.3,0.1-2c0.8-0.4,1.6-0.2,2.4-0.2c12.6,0,25.3,0,37.9,0c1.7,0,2.2-0.4,2.1-2.1C1123,403.4,1123.1,400.4,1123.1,397.4
				z M996,614.7c-0.7-0.8-1.7-0.4-2.5-0.4c-31.6,0-63.1,0-94.7,0c-0.4,0-0.9,0-1.3,0c-1.2-0.1-1.5,0.4-1.5,1.5c0,3.2,0,6.5,0,9.7
				c0,2.4,0,2.4,2.4,2.4c12.5,0,25,0,37.5,0c1.8,0,2.4,0.4,2.4,2.3c-0.1,10.2,0,20.4,0,30.6c0,26.3,0,52.6,0,78.9
				c0,3.3-0.4,2.9,3,2.9c3.2,0,6.5,0,9.8,0c3,0,2.8,0.4,2.8-2.6c0-36.2,0-72.4,0-108.6c0-3.3,0-3.3,3.4-3.3c12.2,0,24.4,0,36.6,0
				c0.8,0,1.6,0.4,2.3-0.3C995.8,623.3,995.8,619,996,614.7z M1335.8,614.3c10.8,0.4,20.9,3,27.9,11.9c5.9,7.5,5.7,15.9,5.8,26.3
				c0.1,7.4-0.5,15.7-4.8,21.8c-5.3,7.5-14.3,11.6-23.3,12.7c-0.6,0.1-0.9,0.2-0.8,0.7l0.2,0.4l0,0l31.7,54.2l-18.4,0.3l-29.8-54.7
				l-19.9,0.3l0,3.7c0,0.5,0,1,0,1.5l0,3.6c0,0.7,0,1.4,0,2.1l0,4.5c0,4,0,8.4,0,12.7l0,5.2c0,4.2,0,8.3,0,11.6l0,5.2l0,0.7l0,0
				l0,3.2c-0.1,0.2-0.2,0.4-0.5,0.4c-4.9,0.1-9.8,0.1-14.6,0c-0.1,0-0.2-0.1-0.3-0.2c-0.2-0.2-0.3-11.9-0.3-28.5l0-5.1l0-1.3l0,0
				l0-30.6l0-1.5l0,0l0-7.7c0-1,0-2.1,0-3.1l0-6.2c0-1,0-2,0-3.1l0-6l0-1.5l0,0l0-7.3l0-1.4l0,0l0-9.7l0-1.3l0,0l0-11.1l-0.1-1.1
				c0-0.4,0.1-0.7,0.3-1c0.7-0.5,1.6-0.3,2.3-0.3C1306.1,614.3,1321,613.7,1335.8,614.3z M1334.7,627.9l-29.2,0
				c-1,0-1.2,0.2-1.2,1.2l0,44.4c0,1.3,0.3,1.3,1.9,1.3c9.3,0,18.6,0,28,0c2.4,0,4.9-0.2,7.3-0.7c7.7-1.8,12.4-7,13.3-13.9
				c0.7-5.6,0.7-11.3,0.1-16.9c-0.6-6.4-4-11.1-10.1-13.6C1341.5,628.4,1338.1,627.8,1334.7,627.9z M867.6,521.8
				c-1.1-1.1-36.7-124.1-37.9-125.4l-0.1-0.1l0-0.2c-0.1-0.3-0.1-0.7-0.4-1c-6.6-0.5-13.1-0.1-19.7-0.2
				c-1.8,0-35.3,113.5-39.6,127.8c2.5,0.1,5,0.1,7.5,0.1c2.1,0,6.4,1.3,8.2,0.1c1.8-1.2,9.1-33.4,10.7-35.2l0,0
				c0.3-0.9,0.9-1.1,1.9-1.1c13.7,0,27.5,0,41.2,0c0.9,0,1.6,0.2,1.9,1.1c2,5.7,9.8,33.3,9.8,33.3c0.1,0.4,0.2,0.8,0.3,1.1
				c0.1,0,0.1,0.1,0.1,0.1c0,0.1,0,0.1,0,0.2c0.1,0.3,0.3,0.5,0.5,0.5c5.2-0.2,10.4-0.2,15.7,0c0.5-0.2,0.4-0.5,0.2-0.8
				C867.8,521.9,867.7,521.8,867.6,521.8L867.6,521.8z M800.3,472.6c1.3-4.5,2.5-8.9,3.8-13.2l13.2-45.9c0.2-0.6,0.3-1.1,0.5-1.7
				c0.1-0.4,0.6-0.7,1-0.7c0.5-0.1,0.9,0.2,1,0.7c0.1,0.3,0.1,0.6,0.2,0.9c5.7,19.6,11.4,39.3,17,59c0.1,0.3,0.1,0.6,0.2,1
				L800.3,472.6z M1208.9,394.8c-2.5,0-16.1,0-18.4,0c-0.3,0-0.6,0.2-0.7,0.5l-38.2,129.4h16.1l10.1-38.1c0.1-0.3,0.4-0.5,0.7-0.5
				h42.7c0.3,0,0.6,0.2,0.7,0.5c1.1,3.8,11.4,38.1,11.4,38.1s16.1,0.2,16.2,0c0.1-1-37.8-122.3-40.1-129.5
				C1209.3,395,1209.1,394.8,1208.9,394.8z M1217.8,472.7c-3.3,0-32.4-0.4-35.9-0.4c-0.1,0-0.2,0-0.2-0.1c0-0.1-0.1-0.1,0-0.2
				c1.1-3.8,11.6-40.5,16.9-58.7c0.2-0.8,0.6-2.1,1.4-2.1c0.7,0,1.1,1.3,1.3,2c5.3,18.3,15.7,55.5,16.8,59.2c0,0.1,0,0.1,0,0.2
				C1218,472.6,1217.9,472.7,1217.8,472.7L1217.8,472.7z M1244,654.5c-0.2-11.6-4.8-22.6-13-30.8c-8.2-8.2-19.4-12.9-31-12.8
				c-24.2,0-43.5,19.2-44,43.6c-0.1,2.3-0.2,5.6-0.3,9.1c-0.2,5-0.4,10.2-0.4,13.6c0,3.6,0.2,9.1,0.3,14.4c0.1,3.2,0.2,6.2,0.2,8.4
				c0.2,11.6,4.8,22.6,13,30.8c8.2,8.2,19.4,12.9,31,12.8c24.1,0,43.5-19.2,44-43.6c0.1-2.3,0.2-5.6,0.3-9.1
				c0.2-5,0.4-10.2,0.4-13.6c0-3.6-0.2-9.1-0.3-14.4C1244.2,659.7,1244.1,656.7,1244,654.5z M1229.9,677.2c0,3.2-0.2,8.2-0.4,13.1
				c-0.1,3.6-0.3,7-0.3,9.4c-0.4,16.5-13.3,29.4-29.4,29.4s-29.1-12.9-29.4-29.3c0-2.3-0.1-5.3-0.2-8.6c-0.2-4.9-0.3-10.5-0.3-13.9
				c0-3.2,0.2-8.2,0.4-13.1c0.1-3.6,0.3-6.9,0.3-9.4c0.4-16.5,13.3-29.4,29.4-29.4c16.1,0,29.1,12.9,29.4,29.3
				c0,2.3,0.1,5.3,0.2,8.6C1229.8,668.3,1230,673.9,1229.9,677.2L1229.9,677.2z"/>
		</g>
	</g>
</g>
</svg>
