<svg width="120" height="120" viewBox="0 0 120 120" fill="none" xmlns="http://www.w3.org/2000/svg">
<rect width="120" height="120" rx="50" fill="white"/>
<path fill-rule="evenodd" clip-rule="evenodd" d="M60 0C93.1371 0 120 26.8629 120 60C120 93.1371 93.1371 120 60 120C26.8629 120 0 93.1371 0 60C0 26.8629 26.8629 0 60 0Z" fill="#0D251D"/>
<path d="M33.3191 67.8583L25.4883 60.0308L60.014 25.5051L67.8449 33.336L33.3191 67.8583Z" fill="#0BC98D"/>
<path d="M59.9856 94.5292L52.1582 86.6983L86.6805 52.176L94.5113 60.0035L59.9856 94.5292Z" fill="#0BC98D"/>
<path d="M59.6736 94.2137L25.8027 60.3428L33.6336 52.5154L67.5044 86.3828L59.6736 94.2137Z" fill="#0BC98D"/>
<path d="M73.1287 54.2846L52.1836 33.336L60.0145 25.5051L80.9596 46.4537L73.1287 54.2846Z" fill="#0BC98D"/>
<path d="M59.4305 67.9816L51.5996 60.1507L72.5448 39.2021L80.3756 47.033L59.4305 67.9816Z" fill="#0BC98D"/>
</svg>
