<?xml version="1.0" encoding="UTF-8"?>
<svg xmlns="http://www.w3.org/2000/svg" xmlns:xlink="http://www.w3.org/1999/xlink" width="32px" height="32px" viewBox="0 0 32 32" version="1.1">
<g id="surface1">
<path style=" stroke:none;fill-rule:nonzero;fill:rgb(100%,1.568627%,12.54902%);fill-opacity:1;" d="M 32 16 C 32 24.835938 24.835938 32 16 32 C 7.164062 32 0 24.835938 0 16 C 0 7.164062 7.164062 0 16 0 C 24.835938 0 32 7.164062 32 16 Z M 32 16 "/>
<path style=" stroke:none;fill-rule:nonzero;fill:rgb(100%,100%,100%);fill-opacity:1;" d="M 11.335938 20.25 C 10.378906 20.25 9.601562 20.027344 8.992188 19.578125 C 8.390625 19.125 8.089844 18.46875 8.089844 17.632812 C 8.089844 17.453125 8.109375 17.242188 8.148438 16.984375 C 8.25 16.410156 8.398438 15.71875 8.589844 14.90625 C 9.132812 12.703125 10.539062 11.601562 12.804688 11.601562 C 13.421875 11.601562 13.976562 11.707031 14.464844 11.917969 C 14.949219 12.113281 15.335938 12.421875 15.617188 12.832031 C 15.898438 13.234375 16.039062 13.714844 16.039062 14.273438 C 16.039062 14.4375 16.019531 14.648438 15.980469 14.90625 C 15.859375 15.617188 15.71875 16.3125 15.546875 16.984375 C 15.265625 18.078125 14.785156 18.90625 14.09375 19.449219 C 13.40625 19.988281 12.488281 20.25 11.335938 20.25 Z M 11.507812 18.523438 C 11.957031 18.523438 12.332031 18.386719 12.644531 18.125 C 12.964844 17.863281 13.195312 17.460938 13.332031 16.910156 C 13.515625 16.152344 13.65625 15.5 13.753906 14.9375 C 13.785156 14.769531 13.804688 14.597656 13.804688 14.417969 C 13.804688 13.691406 13.425781 13.324219 12.664062 13.324219 C 12.21875 13.324219 11.832031 13.460938 11.511719 13.722656 C 11.199219 13.984375 10.976562 14.386719 10.839844 14.9375 C 10.695312 15.476562 10.554688 16.128906 10.40625 16.910156 C 10.375 17.070312 10.355469 17.234375 10.355469 17.414062 C 10.347656 18.15625 10.738281 18.523438 11.507812 18.523438 Z M 11.507812 18.523438 "/>
<path style=" stroke:none;fill-rule:nonzero;fill:rgb(100%,100%,100%);fill-opacity:1;" d="M 16.59375 20.132812 C 16.503906 20.132812 16.441406 20.109375 16.390625 20.050781 C 16.351562 19.988281 16.339844 19.917969 16.351562 19.832031 L 18.007812 12.027344 C 18.023438 11.9375 18.066406 11.867188 18.144531 11.808594 C 18.214844 11.75 18.292969 11.726562 18.375 11.726562 L 21.566406 11.726562 C 22.457031 11.726562 23.167969 11.910156 23.707031 12.273438 C 24.25 12.644531 24.523438 13.175781 24.523438 13.875 C 24.523438 14.074219 24.5 14.285156 24.453125 14.503906 C 24.257812 15.425781 23.851562 16.101562 23.238281 16.542969 C 22.636719 16.984375 21.8125 17.203125 20.761719 17.203125 L 19.140625 17.203125 L 18.59375 19.832031 C 18.574219 19.921875 18.535156 19.992188 18.457031 20.050781 C 18.386719 20.109375 18.308594 20.132812 18.226562 20.132812 Z M 20.84375 15.546875 C 21.183594 15.546875 21.472656 15.457031 21.722656 15.269531 C 21.976562 15.085938 22.144531 14.824219 22.226562 14.476562 C 22.253906 14.34375 22.265625 14.222656 22.265625 14.117188 C 22.265625 13.886719 22.195312 13.707031 22.0625 13.585938 C 21.925781 13.460938 21.691406 13.394531 21.363281 13.394531 L 19.921875 13.394531 L 19.46875 15.546875 Z M 20.84375 15.546875 "/>
</g>
</svg>
