<?xml version="1.0" encoding="UTF-8"?> <svg xmlns="http://www.w3.org/2000/svg" width="800" height="800" viewBox="0 0 800 800" fill="none"><path d="M400 700C565.69 700 700 565.69 700 400C700 234.31 565.69 100 400 100C234.31 100 100 234.31 100 400C100 565.69 234.31 700 400 700Z" fill="#EDF0F4"></path><path d="M363.473 356.318V223.139C363.473 223.139 320.312 244.595 320.312 290.222C320.312 335.848 363.473 356.318 363.473 356.318Z" fill="#006E3C"></path><path d="M363.472 223.139C363.472 223.139 406.632 244.595 406.632 290.222C406.632 335.848 363.472 356.318 363.472 356.318V223.139Z" fill="#00B43C"></path><path d="M463.85 418.716L523.041 385.174C523.041 385.174 502.571 371.363 482.347 382.954C462.124 394.546 463.85 418.716 463.85 418.716Z" fill="#006E3C"></path><path d="M523.042 385.174C523.042 385.174 524.275 409.837 504.051 421.182C483.828 432.773 463.851 418.716 463.851 418.716L523.042 385.174Z" fill="#00B43C"></path><path fill-rule="evenodd" clip-rule="evenodd" d="M525.896 379.695C525.943 379.719 525.978 379.737 526.001 379.748L529.454 381.968V385.667C529.454 386.654 528.221 415.016 507.257 427.101C500.845 430.8 494.186 432.034 488.02 432.034C477.908 432.034 468.783 428.581 464.344 426.361L456.452 430.8C456.698 432.28 456.945 434.007 456.945 435.733C456.945 445.598 450.286 453.737 441.407 456.45V499.363C450.286 501.83 456.945 510.215 456.945 520.08C456.945 532.165 447.08 541.783 435.241 541.783C428.829 541.783 423.157 539.071 419.211 534.631L384.436 554.608C384.929 556.335 385.176 558.061 385.176 559.787C385.176 571.626 375.311 581.244 363.472 581.244C351.388 581.244 341.769 571.626 341.769 559.787C341.769 558.061 342.016 556.335 342.509 554.608L307.734 534.631C303.788 539.071 298.116 541.783 291.703 541.783C279.619 541.783 270 531.918 270 520.08C270 510.215 276.659 502.076 285.538 499.363V456.45C276.659 453.984 270 445.598 270 435.733C270 423.648 279.865 414.03 291.703 414.03C297.622 414.03 302.802 416.496 306.748 420.195L342.509 399.478C342.016 397.752 341.769 396.026 341.769 394.299C341.769 384.434 348.181 376.049 357.307 373.582V360.758C346.948 353.852 313.9 329.682 313.9 290.962C313.9 246.075 358.293 218.206 360.266 216.973L363.472 215L366.679 216.973C368.652 218.206 413.045 246.075 413.045 290.962C413.045 329.682 379.997 354.099 369.638 360.758V373.582C378.517 376.049 385.176 384.434 385.176 394.299C385.176 396.026 384.929 397.752 384.436 399.478L419.95 420.195C423.896 416.249 429.076 414.03 434.995 414.03C440.914 414.03 446.093 416.496 450.039 420.195L457.931 415.756C458.671 407.617 461.877 388.134 478.895 378.268C499.62 366.219 523.878 378.66 525.896 379.695ZM435.241 445.105C437.461 445.105 439.434 444.365 441.161 443.132C442.887 441.652 444.12 439.679 444.367 436.719C444.613 436.226 444.613 435.733 444.613 435.24C444.613 431.294 442.147 427.841 438.694 426.361C437.708 425.868 436.228 425.621 434.995 425.621C433.762 425.621 432.529 425.868 431.542 426.361C428.336 427.594 426.116 430.554 425.623 434.007V435.24V436.719C426.116 439.186 427.349 441.405 429.322 442.885C430.062 443.625 430.802 444.118 431.789 444.365C433.022 444.858 434.008 445.105 435.241 445.105ZM444.613 520.08C444.613 525.506 440.174 529.699 434.995 529.699C433.268 529.699 431.295 529.205 430.062 528.219C427.349 526.492 425.376 523.533 425.376 520.08V519.833C425.376 518.847 425.623 517.86 425.87 516.874C426.363 515.147 427.596 513.668 429.076 512.435C430.309 511.448 431.789 510.708 433.268 510.462C433.49 510.462 433.712 510.412 433.956 510.357C434.255 510.29 434.587 510.215 434.995 510.215C437.214 510.215 439.434 510.955 440.914 512.188C443.38 514.161 444.613 516.874 444.613 520.08ZM421.184 503.556C423.403 501.583 426.116 500.103 429.076 499.363V456.45C425.623 455.463 422.663 453.737 420.197 451.271L384.189 472.234C384.929 473.96 385.176 476.18 385.176 478.153C385.176 479.445 384.988 480.549 384.776 481.793C384.745 481.974 384.714 482.158 384.682 482.346L421.184 503.556ZM363.472 569.406C358.54 569.406 354.594 565.953 353.854 561.267V559.787C353.854 555.841 356.32 552.388 359.773 550.909C361.006 550.415 362.239 550.169 363.472 550.169C364.706 550.169 365.939 550.415 367.172 550.909C370.625 552.388 373.091 555.841 373.091 559.787V561.267C372.351 565.706 368.158 569.406 363.472 569.406ZM305.761 503.556L342.262 482.346C342.016 481.113 341.769 479.633 341.769 478.153C341.769 475.934 342.262 473.96 342.756 471.987L306.748 451.271C304.281 453.737 301.322 455.463 297.869 456.45V499.363C300.829 500.103 303.542 501.583 305.761 503.556ZM301.569 520.08C301.569 523.533 299.842 526.492 296.883 528.219C295.403 529.205 293.676 529.699 291.95 529.699C286.524 529.699 282.331 525.259 282.331 520.08C282.331 517.121 283.811 514.161 286.031 512.435C287.757 511.201 289.73 510.462 291.95 510.462C292.443 510.462 293.183 510.462 293.676 510.708C295.403 510.955 296.636 511.695 297.869 512.681C299.349 513.668 300.335 515.394 301.075 517.121C301.322 518.107 301.569 519.094 301.569 520.08ZM291.703 426.114C286.524 426.114 282.085 430.307 282.085 435.733C282.085 438.693 283.565 441.405 285.538 443.872C287.017 445.105 289.237 445.845 291.457 445.845C292.69 445.845 293.923 445.598 294.91 445.105C295.896 444.612 296.636 444.118 297.376 443.625L297.376 443.625C299.349 442.145 300.829 439.926 301.075 437.459V435.98V434.5C300.582 431.047 298.362 428.087 295.156 426.854C294.17 426.361 292.936 426.114 291.703 426.114ZM357.553 386.654C359.28 385.421 361.253 384.681 363.472 384.681C365.692 384.681 367.912 385.421 369.391 386.654C371.365 388.134 372.598 390.353 372.844 392.82V394.299C372.844 397.259 371.365 400.218 369.145 401.945L369.145 401.945C368.405 402.438 367.665 402.931 366.679 403.425C365.692 403.918 364.459 404.164 363.226 404.164C361.993 404.164 360.759 403.918 359.773 403.425C358.786 403.178 358.047 402.685 357.307 401.945C355.087 400.218 353.607 397.505 353.607 394.299V392.82C354.347 390.353 355.58 388.134 357.553 386.654ZM369.391 485.552C371.611 483.826 373.091 481.359 373.091 478.4C373.091 478.4 373.091 478.153 372.598 477.907C372.598 476.92 372.598 475.934 372.351 475.194C371.858 473.221 370.625 471.494 369.145 470.261C368.158 469.521 366.925 468.781 365.692 468.535C364.952 468.288 364.212 468.288 363.226 468.288C362.239 468.288 361.499 468.288 360.759 468.535C359.28 468.781 358.047 469.521 357.06 470.261C355.58 471.741 354.347 473.467 353.854 475.44C353.607 476.18 353.607 476.92 353.607 477.907V478.153C353.607 481.113 355.087 483.826 357.307 485.552C357.8 486.045 358.293 486.292 358.786 486.539C360.02 487.278 361.499 487.772 363.226 487.772C364.952 487.772 366.432 487.278 367.912 486.539C368.158 486.415 368.405 486.23 368.652 486.045C368.898 485.86 369.145 485.675 369.391 485.552ZM414.031 430.554C413.538 432.28 413.291 434.007 413.291 435.733C413.291 437.459 413.538 439.432 414.031 441.159L377.777 462.122C375.311 459.903 372.598 458.423 369.391 457.436V415.016C372.844 414.03 375.804 412.303 378.27 409.837L414.031 430.554ZM363.472 229.551C353.854 236.457 325.985 259.393 325.985 291.208C325.985 317.844 345.468 337.081 357.553 346.207V295.894C357.553 292.688 360.02 289.975 363.472 289.975C366.679 289.975 369.391 292.688 369.391 295.894V346.207C381.23 337.081 400.96 317.844 400.96 291.208C400.96 259.393 373.091 236.457 363.472 229.551ZM348.428 409.837C350.894 412.303 354.1 414.03 357.307 415.016V457.436C354.1 458.423 351.388 459.903 348.921 461.876L312.42 440.912C312.913 439.186 313.16 437.459 313.16 435.733C313.16 434.007 312.913 432.28 312.42 430.554L348.428 409.837ZM313.407 520.08C313.407 521.313 313.407 522.546 313.16 523.78L348.428 544.25C351.141 541.783 354.101 540.057 357.553 539.071V498.87C353.854 497.637 350.401 495.664 347.935 492.951L312.42 513.421C313.16 515.641 313.407 517.86 313.407 520.08ZM378.517 544.25C376.05 541.783 372.844 540.057 369.391 539.071V498.87C373.091 497.883 376.544 495.664 379.01 492.951L414.525 513.421C413.785 515.394 413.538 517.614 413.538 520.08C413.538 521.313 413.538 522.546 413.785 523.78L378.517 544.25ZM477.168 418.469C484.074 420.195 492.953 420.935 500.845 416.496C512.436 409.837 515.643 395.532 516.629 388.873C510.217 386.161 496.159 381.968 484.814 388.627C476.922 393.313 472.976 401.452 471.249 408.111L483.087 401.205C486.047 399.479 489.5 400.465 491.226 403.425C492.953 406.384 491.966 409.837 489.007 411.563L477.168 418.469Z" fill="black"></path></svg> 