<svg width="872" height="873" viewBox="0 0 872 873" fill="none" xmlns="http://www.w3.org/2000/svg">
  <g clip-path="url(#clip0_4488_315)">
    <mask id="mask0_4488_315" style="mask-type:luminance" maskUnits="userSpaceOnUse" x="0" y="0" width="872" height="873">
      <path d="M872 0.216797H0V872.217H872V0.216797Z" fill="white"/>
    </mask>
    <g mask="url(#mask0_4488_315)">
      <path d="M500.529 502.49L458.324 618.292C457.277 621.431 457.277 624.919 458.324 628.407L530.874 827.572L614.935 779.089L514.132 502.49C511.69 496.212 502.97 496.212 500.529 502.49Z" fill="var(--justweb3-primary-color)"/>
      <path d="M585.288 307.859C582.847 301.581 574.127 301.581 571.685 307.859L529.48 423.661C528.434 426.8 528.434 430.288 529.48 433.776L648.421 759.904L732.482 711.421L585.288 308.208V307.859Z" fill="var(--justweb3-primary-color)"/>
      <path d="M436 54.2808C438.092 54.2808 440.185 54.9784 441.929 56.0248L762.128 240.889C765.964 242.982 768.057 247.167 768.057 251.353V621.081C768.057 625.267 765.616 629.452 762.128 631.545L441.929 816.409C440.185 817.455 438.092 818.153 436 818.153C433.907 818.153 431.814 817.455 430.07 816.409L109.872 631.545C106.035 629.452 103.942 625.267 103.942 621.081V251.004C103.942 246.819 106.384 242.633 109.872 240.54L430.07 55.676C431.814 54.6296 433.907 53.932 436 53.932V54.2808ZM436 0.216797C424.489 0.216797 413.328 3.0072 402.864 8.9368L82.6653 193.801C62.0861 205.66 49.5293 227.286 49.5293 251.004V620.732C49.5293 644.451 62.0861 666.076 82.6653 677.935L402.864 862.799C412.979 868.729 424.489 871.519 436 871.519C447.51 871.519 458.672 868.729 469.136 862.799L789.334 677.935C809.913 666.076 822.47 644.451 822.47 620.732V251.004C822.47 227.286 809.913 205.66 789.334 193.801L468.787 8.9368C458.672 3.0072 447.161 0.216797 435.651 0.216797H436Z" fill="var(--justweb3-primary-color)"/>
      <path d="M223.93 760.252L253.578 679.33L312.874 728.511L257.414 779.436L223.93 760.252Z" fill="white"/>
      <path d="M408.794 224.845H327.524C321.594 224.845 316.013 228.682 313.92 234.263L139.869 711.421L223.93 759.904L415.77 234.263C417.514 229.379 414.026 224.496 409.143 224.496L408.794 224.845Z" fill="var(--justweb3-primary-color)"/>
      <path d="M551.104 224.845H469.833C463.904 224.845 458.323 228.682 456.23 234.263L257.414 779.088L341.475 827.571L557.731 234.263C559.475 229.379 555.987 224.496 551.104 224.496V224.845Z" fill="var(--justweb3-primary-color)"/>
    </g>
  </g>
  <defs>
    <clipPath id="clip0_4488_315">
      <rect width="872" height="872" fill="var(--justweb3-background-color)" transform="translate(0 0.216797)"/>
    </clipPath>
  </defs>
</svg>
