<svg aria-hidden="true" data-name="Layer 1" focusable="false" id="Layer_1"
     version="1.1" viewBox="0 0 600 526" xmlns="http://www.w3.org/2000/svg">
  <path d="M0,8C0,3.58,3.58,0,8,0h462.32c7.46,0,14.26,1.97,20.41,5.92,6.14,3.51,10.97,8.33,14.48,14.46,3.95,6.14,5.92,12.93,5.92,20.38v182.79c0,7.89-1.98,15.12-5.92,21.7-3.51,6.14-8.34,11.18-14.48,15.12-6.14,3.51-12.95,5.26-20.41,5.26H70.08c-3.63,0-6.58,2.94-6.58,6.57s2.94,6.58,6.58,6.58h444.34c15.8,0,30.06,3.95,42.79,11.83,13.17,7.45,23.48,17.75,30.94,30.9,7.9,12.71,11.85,26.74,11.85,42.08v76.27c0,15.34-3.95,29.81-11.85,43.39-7.46,13.15-17.77,23.67-30.94,31.56-13.16,7.45-27.43,11.18-42.79,11.18H8c-4.42,0-8-3.58-8-8V8ZM164.22,500.36c17.55,0,33.79-4.38,48.71-13.15,14.92-8.77,26.77-20.6,35.55-35.5,8.78-14.9,13.17-31.12,13.17-48.66s-4.39-33.75-13.17-48.65c-8.78-14.9-20.63-26.74-35.55-35.51-14.92-9.2-31.16-13.81-48.71-13.81s-33.79,4.6-48.71,13.81c-14.92,8.77-26.77,20.6-35.55,35.51-8.78,14.9-13.17,31.12-13.17,48.65s4.39,33.75,13.17,48.66c8.78,14.9,20.63,26.74,35.55,35.5,14.92,8.77,31.16,13.15,48.71,13.15ZM423.58,150.57c16.68,0,30.94-5.92,42.79-17.75,12.29-12.27,18.43-26.96,18.43-44.05s-6.14-32.22-18.43-44.05c-11.85-12.27-26.11-18.41-42.79-18.41-17.55,0-32.48,6.14-44.76,18.41-11.85,11.83-17.77,26.52-17.77,44.05s5.92,31.78,17.77,44.05c12.29,11.83,27.21,17.75,44.76,17.75Z" fill="var(--justweb3-primary-color)"
        stroke-width="0px"></path>
</svg>