<svg aria-hidden="true" fill="none" focusable="false" height="564" viewBox="0 0 666 564"
     width="666" xmlns="http://www.w3.org/2000/svg">
  <path clip-rule="evenodd" d="M97.3 347.518L99.98 396.419C100.16 399.739 101.4 402.879 103.5 405.439C118.22 423.259 184.22 485.459 332.96 485.459C481.7 485.459 546.9 424.078 562.18 405.778C564.48 403.018 565.8 399.599 566.02 395.979L568.68 347.559C586.38 337.839 604.66 326.859 604.66 326.859C633.4 311.279 665.48 333.659 665.54 366.459C665.64 419.539 624.16 474.079 568.22 508.459C505.14 547.219 410.98 563.299 333 563.299C255.02 563.299 160.86 547.219 97.78 508.459C41.84 474.079 0.360019 419.559 0.460019 366.459C0.520019 333.659 32.6 311.279 61.34 326.859C61.34 326.859 79.58 337.818 97.28 347.518H97.3Z"
        fill="var(--justweb3-primary-color)"
        fill-rule="evenodd"></path>
  <path clip-rule="evenodd" d="M332.998 0.558899C454.618 0.558899 487.598 3.39892 537.038 9.07892C559.838 11.6989 578.098 28.6589 576.398 51.6389L558.178 299.779C552.478 301.439 546.258 303.519 539.298 305.859C502.758 318.119 445.478 337.339 333.018 337.339C220.558 337.339 163.258 318.119 126.738 305.859C119.758 303.519 113.538 301.439 107.838 299.779L89.6182 51.6589C87.9382 28.6789 106.158 11.3189 128.978 9.09894C177.818 4.35894 228.678 0.578918 333.018 0.578918L332.998 0.558899ZM116.538 418.659L116.598 419.539L117.858 419.819C117.418 419.419 116.978 419.039 116.538 418.659ZM548.258 419.799L549.398 419.539L549.458 418.739C549.078 419.079 548.678 419.439 548.258 419.799Z"
        fill="var(--justweb3-primary-color)"
        fill-rule="evenodd"></path>
</svg>