<svg aria-hidden="true" fill="none" focusable="false" height="64" viewBox="0 0 65 64"
     width="65" xmlns="http://www.w3.org/2000/svg">
  <g clip-path="url(#clip-farcaster)">
    <path
      d="M16.9443 8H49.6228V56H44.8259V34.0129H44.7789C44.2487 27.9362 39.3045 23.1742 33.2835 23.1742C27.2625 23.1742 22.3183 27.9362 21.7882 34.0129H21.7411V56H16.9443V8Z"
      fill="var(--justweb3-primary-color)"></path>
    <path
      d="M8.25 14.8129L10.1987 21.6258H11.8476V49.1871C11.0198 49.1871 10.3486 49.8803 10.3486 50.7355V52.5935H10.0488C9.22093 52.5935 8.5498 53.2868 8.5498 54.1419V56H25.3388V54.1419C25.3388 53.2868 24.6676 52.5935 23.8397 52.5935H23.5399V50.7355C23.5399 49.8803 22.8688 49.1871 22.0409 49.1871H20.2421V14.8129H8.25Z"
      fill="var(--justweb3-primary-color)"></path>
    <path
      d="M45.1257 49.1871C44.2979 49.1871 43.6267 49.8803 43.6267 50.7355V52.5935H43.3269C42.499 52.5935 41.8279 53.2868 41.8279 54.1419V56H58.6169V54.1419C58.6169 53.2868 57.9457 52.5935 57.1179 52.5935H56.818V50.7355C56.818 49.8803 56.1469 49.1871 55.319 49.1871V21.6258H56.9679L58.9167 14.8129H46.9246V49.1871H45.1257Z"
      fill="var(--justweb3-primary-color)"></path>
  </g>
  <defs>
    <clipPath id="clip-farcaster">
      <rect fill="var(--justweb3-primary-color)" height="64" transform="translate(0.25)" width="64"></rect>
    </clipPath>
  </defs>
</svg>