<svg width="362" height="316" viewBox="0 0 362 316" fill="none" xmlns="http://www.w3.org/2000/svg">
  <path d="M331.286 2.41177C331.286 2.41177 255.942 23.1948 227.446 31.2878C198.95 39.3808 181.282 100.324 181.092 100.856L97.5087 124.299C97.5087 124.299 67.1087 130.34 67.1087 161.766C67.1087 191.592 97.5087 180.383 97.5087 180.383C97.5087 180.383 112.061 176.583 140.481 168.415C168.901 160.247 181.021 101.43 181.097 100.898L331.29 59.1038C331.29 59.1038 361.69 52.6038 361.69 21.1088C361.834 -8.79623 331.286 2.41177 331.286 2.41177Z" fill="var(--justweb3-primary-color)"/>
  <path d="M30.9378 313.817L140.438 282.927C168.744 274.872 180.938 215.942 181.092 215.372L264.68 191.929C264.68 191.929 295.08 185.888 295.08 154.466C295.08 124.678 264.456 135.241 264.456 135.241C264.456 135.241 249.942 139.041 221.522 147.209C193.102 155.377 180.982 214.84 180.868 215.372L30.7098 257.167C30.7098 257.167 0.309753 263.702 0.309753 295.162C0.393753 325.064 30.9378 313.817 30.9378 313.817Z" fill="var(--justweb3-primary-color)"/>
</svg>
