<svg aria-hidden="true" fill="none" focusable="false" height="24" viewBox="0 0 32 24"
     width="32" xmlns="http://www.w3.org/2000/svg">
  <g clip-path="url(#clip0_1_2)">
    <g clip-path="url(#clip1_1_2)">
      <path
        d="M45.333 10.66H39.241V5.112H36.804V18.888H39.241V12.995H45.333V18.888H47.788V5.112H45.333V10.66ZM56.817 9.379C56.095 8.932 55.243 8.709 54.262 8.709C53.28 8.709 52.428 8.933 51.707 9.379C50.985 9.825 50.434 10.444 50.052 11.235C49.67 12.026 49.479 12.919 49.479 13.914C49.479 14.909 49.67 15.802 50.052 16.593C50.434 17.384 50.985 18.003 51.707 18.449C52.428 18.896 53.28 19.119 54.262 19.119C55.244 19.119 56.095 18.896 56.817 18.449C57.538 18.003 58.09 17.384 58.472 16.593C58.854 15.802 59.045 14.909 59.045 13.914C59.045 12.919 58.854 12.026 58.472 11.235C58.09 10.444 57.539 9.825 56.817 9.379ZM56.108 16.258C55.701 16.825 55.086 17.109 54.262 17.109C53.438 17.109 52.822 16.825 52.416 16.257C52.01 15.69 51.807 14.908 51.807 13.914C51.807 12.919 52.009 12.138 52.416 11.57C52.822 11.002 53.438 10.718 54.262 10.718C55.086 10.718 55.701 11.003 56.108 11.57C56.514 12.138 56.717 12.919 56.717 13.914C56.717 14.909 56.514 15.69 56.108 16.258ZM62.9 5.112H60.608V18.888H62.9V5.112ZM71.802 9.379C71.08 8.932 70.229 8.709 69.247 8.709C68.264 8.709 67.413 8.933 66.692 9.379C65.97 9.825 65.419 10.444 65.037 11.235C64.655 12.026 64.464 12.919 64.464 13.914C64.464 14.909 64.655 15.802 65.037 16.593C65.418 17.384 65.97 18.003 66.692 18.449C67.413 18.896 68.265 19.119 69.247 19.119C70.228 19.119 71.08 18.896 71.802 18.449C72.523 18.003 73.075 17.384 73.457 16.593C73.838 15.802 74.03 14.909 74.03 13.914C74.03 12.919 73.839 12.026 73.457 11.235C73.075 10.444 72.523 9.825 71.802 9.379ZM71.092 16.258C70.686 16.825 70.071 17.109 69.247 17.109C68.422 17.109 67.807 16.825 67.401 16.257C66.995 15.69 66.791 14.908 66.791 13.914C66.791 12.919 66.995 12.138 67.401 11.57C67.807 11.002 68.422 10.718 69.247 10.718C70.072 10.718 70.686 11.003 71.092 11.57C71.499 12.138 71.702 12.919 71.702 13.914C71.702 14.909 71.499 15.69 71.092 16.258ZM80.794 8.709C80.151 8.709 79.582 8.852 79.085 9.14C78.587 9.426 78.154 9.821 77.812 10.297V8.939H75.593V18.888H77.885V13.015C77.957 12.237 78.215 11.675 78.657 11.331C79.1 10.986 79.569 10.814 80.067 10.814C80.697 10.814 81.158 11.003 81.449 11.379C81.74 11.755 81.886 12.262 81.886 12.9V18.889H84.159V12.613C84.159 11.427 83.865 10.479 83.276 9.771C82.688 9.064 81.861 8.71 80.794 8.71V8.709ZM90.033 16.516L87.705 8.939H85.25L88.832 18.984L88.614 19.558C88.456 20.03 88.289 20.346 88.113 20.505C87.937 20.664 87.625 20.744 87.177 20.744H85.686V22.715H87.886C88.723 22.715 89.359 22.488 89.795 22.036C90.232 21.583 90.607 20.91 90.923 20.017L94.815 8.938H92.341L90.032 16.515L90.033 16.516ZM109.154 9.771C108.59 9.063 107.817 8.709 106.836 8.709C106.145 8.709 105.535 8.881 105.008 9.225C104.481 9.57 104.047 10.023 103.708 10.584C103.453 9.997 103.086 9.538 102.607 9.206C102.128 8.875 101.562 8.709 100.907 8.709C100.253 8.709 99.728 8.852 99.262 9.14C98.795 9.427 98.41 9.819 98.107 10.317V8.939H95.888V18.888H98.18V13.416C98.18 12.485 98.383 11.819 98.789 11.417C99.195 11.015 99.658 10.814 100.18 10.814C100.701 10.814 101.116 11.005 101.389 11.388C101.662 11.77 101.798 12.274 101.798 12.899V18.888H104.09V13.416C104.09 12.485 104.296 11.819 104.708 11.417C105.12 11.015 105.587 10.814 106.108 10.814C106.629 10.814 107.045 11.005 107.317 11.388C107.591 11.771 107.727 12.274 107.727 12.899V18.888H110V12.612C110 11.426 109.717 10.479 109.154 9.771ZM27.372 3.517C24.667 0.629 20.623 -0.597 16.87 0.277C17.815 0.765 18.697 1.379 19.495 2.103C31.849 2.882 31.671 21.379 19.309 21.9C16.346 21.918 13.478 20.375 11.738 17.872C11.251 17.177 11.716 16.195 12.537 16.195H18.187C19.007 16.195 19.473 17.177 18.985 17.872C18.3 18.847 17.453 19.683 16.483 20.337C17.329 20.655 18.217 20.828 19.115 20.848C24.473 15.768 23.908 6.528 17.992 2.196C13.614 -1.151 7.204 -0.586 3.402 3.465C-4.636 12.005 2.672 26.154 13.855 23.723C12.91 23.235 12.028 22.621 11.23 21.897C-1.124 21.117 -0.946998 2.622 11.416 2.1C14.38 2.082 17.247 3.625 18.986 6.128C19.474 6.823 19.009 7.805 18.188 7.805H12.538C11.717 7.805 11.251 6.823 11.739 6.128C12.424 5.153 13.271 4.317 14.241 3.662C13.395 3.344 12.507 3.172 11.609 3.152C5.317 9.196 7.382 20.162 15.363 23.262C16.627 23.751 17.95 23.996 19.31 23.997C29.43 23.988 34.522 11.053 27.373 3.516L27.372 3.517ZM18.833 9.902C19.941 9.901 20.845 10.857 20.824 12.021C20.822 13.171 19.926 14.097 18.833 14.097H11.892C9.25 13.992 9.247 10.007 11.892 9.902H18.833Z"
        fill="var(--justweb3-primary-color)"></path>
    </g>
  </g>
  <defs>
    <clipPath id="clip0_1_2">
      <rect fill="var(--justweb3-primary-color)" height="24" width="110"></rect>
    </clipPath>
    <clipPath id="clip1_1_2">
      <rect fill="var(--justweb3-primary-color)" height="23.9997" transform="translate(0.000320435 0.000105858)"
            width="110"></rect>
    </clipPath>
  </defs>
</svg>