<svg aria-hidden="true" fill="var(--justweb3-primary-color)" focusable="false" height="30" viewBox="0 0 98 30"
     width="100" xmlns="http://www.w3.org/2000/svg">
  <path
    d="M16.8451 0.471957C15.3987 0.471957 14.2271 1.64478 14.2271 3.0926V19.5363C14.2271 20.8062 13.7342 21.9952 12.8373 22.893C10.9869 24.7453 7.973 24.7453 6.12263 22.893C5.65398 22.4239 5.29037 21.8658 5.05605 21.2511C4.53083 19.9003 3.01983 19.2371 1.67044 19.7547C0.321043 20.2805 -0.341534 21.793 0.175599 23.1438C0.676572 24.4379 1.43611 25.6027 2.4219 26.5894C4.36923 28.5388 6.92258 29.5094 9.47592 29.5094C12.0293 29.5094 14.5826 28.5388 16.5299 26.5894C18.4126 24.7048 19.455 22.1974 19.455 19.5283V3.08451C19.455 1.63669 18.2834 0.463867 16.837 0.463867L16.8451 0.471957Z"
    fill="var(--justweb3-primary-color)"></path>
  <path
    d="M41.183 0.471924C39.7366 0.471924 38.565 1.64474 38.565 3.09257V19.5363C38.565 22.157 36.4318 24.2923 33.8138 24.2923C31.1958 24.2923 29.0626 22.157 29.0626 19.5363V3.09257C29.0626 1.64474 27.891 0.471924 26.4447 0.471924C24.9983 0.471924 23.8267 1.64474 23.8267 3.09257V19.5363C23.8267 25.0445 28.3031 29.5255 33.8057 29.5255C39.3083 29.5255 43.7848 25.0445 43.7848 19.5363V3.09257C43.7848 1.64474 42.6132 0.471924 41.1668 0.471924H41.183Z"
    fill="var(--justweb3-primary-color)"></path>
  <path
    d="M97.9059 9.20738C97.6311 6.97497 96.5969 5.01758 95.102 3.52122C95.0455 3.45652 95.0212 3.44034 94.9728 3.3999C93.0012 1.53956 90.6175 0.47998 88.145 0.47998C85.6724 0.47998 83.1999 1.45059 81.3172 3.3999C79.4911 5.2845 78.4487 7.79191 78.4487 10.4611V26.9048C78.4487 28.0777 79.2244 29.0563 80.2506 29.388C80.2991 29.4042 80.3476 29.4203 80.3961 29.4365C80.4849 29.4608 80.5738 29.4769 80.6708 29.4931C80.7273 29.5012 80.7758 29.5174 80.8324 29.5255C82.3838 29.663 83.6847 28.4416 83.6847 26.921V20.7981C83.6847 20.612 83.8302 20.4665 84.016 20.4665H87.8703C90.5852 20.4665 93.2274 19.3503 95.1424 17.4009C97.2837 15.2171 98.3018 12.2648 97.922 9.21547L97.9059 9.20738ZM91.3932 13.7207C90.464 14.6671 89.1712 15.2171 87.8622 15.2171H84.0079C83.8221 15.2171 83.6766 15.0715 83.6766 14.8854V10.4611C83.6766 9.1912 84.0241 8.0022 84.8967 7.10439C86.6905 5.25214 89.6075 5.25214 91.3932 7.10439C91.4094 7.12057 91.4094 7.12057 91.4336 7.14483C91.9508 7.66249 92.3224 8.33383 92.5406 9.06988C93.0577 10.7604 92.6053 12.4913 91.3932 13.7288V13.7207Z"
    fill="var(--justweb3-primary-color)"></path>
  <path
    d="M74.061 2.91466C74.061 2.91466 74.061 2.84186 74.061 2.80951C74.061 2.76907 74.0449 2.72862 74.0449 2.68818C74.0449 2.63965 74.0287 2.59921 74.0206 2.55877C74.0206 2.5345 74.0045 2.51024 74.0045 2.48597C73.9883 2.42935 73.9802 2.37273 73.956 2.30802C73.956 2.30802 73.956 2.29994 73.956 2.29185C73.9318 2.21905 73.9075 2.13817 73.8752 2.06537C73.7863 1.84699 73.6651 1.64478 73.5116 1.45874C73.5035 1.44256 73.4954 1.43448 73.4793 1.4183C73.447 1.37786 73.4146 1.3455 73.3823 1.31315C73.3581 1.28888 73.3338 1.25653 73.3015 1.23227C73.2773 1.208 73.2449 1.18374 73.2207 1.15947C73.1803 1.12712 73.148 1.08667 73.1076 1.05432C73.1076 1.05432 73.0995 1.04623 73.0914 1.03814C73.0672 1.02197 73.0429 1.00579 73.0268 0.989615C72.9864 0.957262 72.946 0.924908 72.8975 0.900642C72.8652 0.876377 72.8329 0.8602 72.8005 0.844024C72.7601 0.819758 72.7197 0.795493 72.6793 0.771228C72.6389 0.755051 72.6066 0.738874 72.5662 0.714609C72.5258 0.698432 72.4854 0.674167 72.445 0.65799C72.4046 0.641814 72.3642 0.625636 72.3238 0.609459C72.2834 0.593282 72.243 0.585194 72.2026 0.569017C72.1622 0.552841 72.1137 0.544751 72.0733 0.536663C72.0329 0.528575 71.9925 0.520487 71.9602 0.512399C71.9117 0.50431 71.8632 0.49622 71.8147 0.488131C71.7743 0.488131 71.742 0.480046 71.7016 0.471957C71.6531 0.471957 71.5966 0.471957 71.5481 0.471957C71.5239 0.471957 71.4915 0.471957 71.4673 0.471957C71.4673 0.471957 71.4511 0.471957 71.4431 0.471957C71.3946 0.471957 71.3461 0.471957 71.2895 0.471957C71.2491 0.471957 71.2168 0.471957 71.1764 0.471957C71.136 0.471957 71.1037 0.480043 71.0633 0.488131C71.0148 0.488131 70.9663 0.50431 70.9178 0.512399C70.9017 0.512399 70.8855 0.512397 70.8694 0.520486C70.635 0.577105 70.4088 0.65799 70.2068 0.771228C70.1341 0.81167 70.0694 0.852112 69.9967 0.900642C69.9482 0.932996 69.8997 0.973438 69.8513 1.01388C69.8351 1.03006 69.8109 1.03814 69.7947 1.05432C69.7624 1.08667 69.7301 1.11903 69.6977 1.14329C69.6654 1.16756 69.6331 1.19991 69.6088 1.22418C69.5846 1.24845 69.5604 1.2808 69.5361 1.30506C69.5038 1.34551 69.4634 1.37786 69.4311 1.4183C69.4311 1.4183 69.423 1.42639 69.4149 1.43448L61.367 11.5531C61.2458 11.7068 61.0115 11.7068 60.8903 11.5531L52.8424 1.43448C52.8424 1.43448 52.8343 1.42639 52.8263 1.4183C52.7939 1.37786 52.7616 1.33742 52.7212 1.30506C52.697 1.2808 52.6727 1.24845 52.6485 1.22418C52.6242 1.19991 52.5919 1.16756 52.5596 1.14329C52.5273 1.11094 52.495 1.07859 52.4546 1.04623C52.4384 1.03006 52.4222 1.02197 52.4061 1.01388C52.2849 0.916819 52.1637 0.835933 52.0344 0.763138C52.0101 0.746961 51.9859 0.738875 51.9617 0.730786C51.9132 0.706521 51.8566 0.682256 51.8081 0.65799C51.6789 0.601372 51.5334 0.560928 51.388 0.520486C51.3637 0.520486 51.3476 0.504309 51.3233 0.504309C51.2829 0.49622 51.2344 0.488133 51.186 0.480044C51.1456 0.480044 51.1052 0.463867 51.0648 0.463867C51.0324 0.463867 50.992 0.463867 50.9597 0.463867C50.9112 0.463867 50.8547 0.463867 50.8062 0.463867H50.79C50.7658 0.463867 50.7335 0.463867 50.7092 0.463867C50.6527 0.463867 50.6042 0.463867 50.5476 0.463867C50.5072 0.463867 50.4749 0.471956 50.4426 0.480044C50.3941 0.480044 50.3456 0.49622 50.2971 0.504309C50.2567 0.504309 50.2163 0.520488 50.184 0.528576C50.1436 0.536664 50.0951 0.552839 50.0547 0.560927C50.0143 0.569016 49.9739 0.585195 49.9335 0.601372C49.8931 0.617549 49.8527 0.625635 49.8123 0.6499C49.7719 0.666077 49.7315 0.682254 49.6911 0.706519C49.6507 0.722696 49.6184 0.738872 49.578 0.763138C49.5376 0.787403 49.4972 0.811668 49.4568 0.835934C49.4245 0.85211 49.3922 0.876375 49.3598 0.892552C49.3194 0.924906 49.271 0.949172 49.2306 0.981525C49.2063 0.997702 49.1821 1.01388 49.1659 1.03006C49.1659 1.03006 49.1578 1.03815 49.1498 1.04623C49.1094 1.07859 49.069 1.11094 49.0366 1.15138C49.0124 1.17565 48.9801 1.19991 48.9558 1.22418C48.9316 1.24845 48.9074 1.2808 48.875 1.30506C48.8427 1.33742 48.8104 1.37786 48.7781 1.41021C48.77 1.42639 48.7619 1.43448 48.7457 1.45065C48.6003 1.63669 48.471 1.8389 48.3821 2.05729C48.3498 2.13008 48.3256 2.20288 48.3013 2.27567C48.3013 2.27567 48.3013 2.28376 48.3013 2.29185C48.2852 2.34847 48.269 2.40509 48.2529 2.46979C48.2529 2.49406 48.2367 2.51832 48.2367 2.54259C48.2286 2.58303 48.2205 2.63156 48.2124 2.672C48.2124 2.71245 48.1963 2.75289 48.1963 2.79333C48.1963 2.82569 48.1963 2.86613 48.1963 2.89848C48.1963 2.94701 48.1963 3.00363 48.1963 3.05216C48.1963 3.05216 48.1963 3.06834 48.1963 3.07642V26.8078C48.1963 28.2476 49.3194 29.4851 50.7658 29.5094C52.2364 29.5336 53.4323 28.3527 53.4323 26.8887V11.4318C53.4323 11.1406 53.7959 11.0192 53.9736 11.2457C53.9736 11.2457 59.1127 17.7084 59.1207 17.7084C59.1692 17.7731 59.2258 17.8297 59.2823 17.8863C59.2985 17.9025 59.3066 17.9106 59.3147 17.9268C59.3793 17.9915 59.452 18.0481 59.5247 18.1128C59.549 18.129 59.5651 18.1451 59.5894 18.1613C59.6379 18.2018 59.6944 18.2341 59.7429 18.2665C59.7672 18.2826 59.7995 18.2988 59.8318 18.315C59.8803 18.3474 59.9368 18.3716 59.9934 18.404C60.0176 18.4121 60.0419 18.4282 60.0661 18.4363C60.2277 18.5091 60.3974 18.5657 60.5671 18.6062C60.5833 18.6062 60.6075 18.6062 60.6237 18.6143C60.6964 18.6304 60.761 18.6385 60.8337 18.6466C60.858 18.6466 60.8741 18.6466 60.8984 18.6466C60.9873 18.6547 61.0761 18.6628 61.1569 18.6628C61.2458 18.6628 61.3347 18.6628 61.4155 18.6466C61.4398 18.6466 61.4559 18.6466 61.4802 18.6466C61.5529 18.6385 61.6175 18.6224 61.6902 18.6143C61.7064 18.6143 61.7306 18.6143 61.7468 18.6062C61.9165 18.5657 62.0862 18.5091 62.2478 18.4363C62.272 18.4282 62.2963 18.4121 62.3205 18.404C62.3771 18.3797 62.4336 18.3474 62.4821 18.315C62.5063 18.2988 62.5387 18.2826 62.5629 18.2665C62.6195 18.2341 62.668 18.1937 62.7245 18.1532C62.7488 18.1371 62.7649 18.1209 62.7891 18.1047C62.8619 18.0481 62.9265 17.9834 62.9992 17.9187C63.0154 17.9106 63.0235 17.8944 63.0316 17.8782C63.0881 17.8216 68.3403 11.2295 68.3403 11.2295C68.518 11.0031 68.8816 11.1325 68.8816 11.4156V26.7836C68.8816 28.2233 70.0048 29.4608 71.4511 29.4851C72.9217 29.5094 74.1176 28.3285 74.1176 26.8645V3.05216C74.1176 3.05216 74.1176 3.03598 74.1176 3.0279C74.1176 2.97937 74.1176 2.92274 74.1176 2.87421L74.061 2.91466Z"
    fill="var(--justweb3-primary-color)"></path>
</svg>