<svg aria-hidden="true" color="white" fill="none" focusable="false"
     height="24" viewBox="0 0 24 24" width="24" xmlns="http://www.w3.org/2000/svg">
  <path clip-rule="evenodd" d="M16.1451 8.68583C17.0469 7.92987 18.0529 7.64225 19.0178 7.71497C20.047 7.79253 20.9994 8.27728 21.7108 8.98137C22.4221 9.68551 22.9107 10.6273 22.989 11.6438C23.0679 12.6695 22.7261 13.7438 21.825 14.6866C21.7426 14.7734 21.6584 14.8591 21.5723 14.9437C17.4849 18.9893 12.0556 19 12 19H11.9998C11.972 19 6.52538 18.9998 2.42745 14.9433L2.42657 14.9423C2.34196 14.8581 2.25865 14.7732 2.17659 14.688L2.17593 14.6872C1.27437 13.7452 0.932241 12.6712 1.01092 11.6455C1.08889 10.6292 1.57723 9.68726 2.28834 8.98288C2.99939 8.27853 3.95173 7.79339 4.98114 7.71551C5.94594 7.6425 6.95221 7.92977 7.85443 8.68536C7.95145 7.51996 8.45688 6.61294 9.19057 5.98939C9.97307 5.32433 10.9928 5 11.9998 5C13.0068 5 14.0265 5.32433 14.8089 5.98939C15.5427 6.61303 16.0482 7.52021 16.1451 8.68583ZM12.1869 18.5899L12.1867 18.5847H12.187L12.1869 18.5899ZM11.8127 18.5899L11.8125 18.5847H11.8129L11.8127 18.5899ZM15.0706 12.9723C14.9587 12.9723 14.92 13.1321 14.9913 13.2168C15.1175 13.3668 15.1935 13.5598 15.1935 13.7703C15.1935 14.248 14.8024 14.6353 14.3198 14.6353C13.8372 14.6353 13.4459 14.248 13.4459 13.7703C13.4459 13.7448 13.4123 13.732 13.397 13.7528C13.2592 13.9401 13.1662 14.1505 13.1279 14.3714C13.1064 14.4957 13.0043 14.5989 12.876 14.5989H12.8051C12.6376 14.5989 12.4994 14.4644 12.5242 14.3015C12.6936 13.1854 13.8048 12.3759 15.0706 12.3759C16.3363 12.3759 17.4475 13.1854 17.6169 14.3015C17.6415 14.4644 17.5034 14.5989 17.336 14.5989C17.1684 14.5989 17.0358 14.4637 16.9993 14.3029C16.8338 13.5714 16.0658 12.9723 15.0706 12.9723ZM7.31093 13.7703C7.31093 13.7366 7.26679 13.7185 7.24602 13.7453C7.09869 13.9356 6.99831 14.1511 6.95582 14.3783C6.93074 14.5124 6.82048 14.624 6.68172 14.624H6.62971C6.46223 14.624 6.32406 14.4895 6.34875 14.3267C6.51813 13.21 7.62945 12.4011 8.89513 12.4011C10.1608 12.4011 11.2721 13.21 11.4415 14.3267C11.4662 14.4895 11.328 14.624 11.1605 14.624C10.9931 14.624 10.8604 14.4889 10.824 14.3281C10.6585 13.5961 9.89052 12.9974 8.89513 12.9974C8.80464 12.9974 8.77153 13.1232 8.8321 13.1893C8.97283 13.3428 9.05858 13.5467 9.05858 13.7703C9.05858 14.248 8.66736 14.6353 8.18475 14.6353C7.70215 14.6353 7.31093 14.248 7.31093 13.7703ZM12.9719 15.8564C13.0902 15.7399 13.2732 15.6832 13.4202 15.7621C13.5671 15.8411 13.6229 16.0244 13.517 16.152C13.172 16.5673 12.6135 16.8306 11.9974 16.8306C11.3818 16.8306 10.822 16.5702 10.4766 16.1516C10.371 16.0238 10.4275 15.8405 10.5747 15.7621C10.722 15.6836 10.9046 15.7411 11.0228 15.8576C11.2505 16.0824 11.5961 16.2344 11.9974 16.2344C12.3978 16.2344 12.7437 16.0808 12.9719 15.8564Z"
        fill="var(--justweb3-primary-color)"
        fill-rule="evenodd"></path>
</svg>