<svg aria-hidden="true" fill="none" focusable="false" height="22" viewBox="0 0 19 22"
     width="19" xmlns="http://www.w3.org/2000/svg">
  <path
    d="M18.91 7.03356L6.76184 0L5.5093 0.724764V2.17601L4.25676 1.45039L3.00422 2.17515V3.6264L1.75168 2.90078L0.5 3.62554V17.6927L1.75254 18.4183L3.00508 17.6927V19.1439L4.25762 19.8687L5.51016 19.1431V20.5943L6.76184 21.3182L18.91 14.2855V12.8343L17.6575 12.1095L18.91 11.3839V9.93434L17.6575 9.20872L18.91 8.48309V7.03356ZM3.00508 16.2423L1.75254 16.9679V4.35116L3.00508 5.07593V16.2423ZM6.76184 19.8678V18.4183L16.4049 12.8351L17.6575 13.5599L6.76184 19.8678ZM6.76184 16.9679V8.69545L5.5093 7.97068V17.6927L4.25762 18.4183V5.80155L11.4008 9.93692L12.6533 9.21215L4.25762 4.35116V2.90078L15.1524 9.20872L8.00924 13.3449V14.7953L16.4049 9.93434L17.6575 10.6591L6.76184 16.9679ZM16.4049 8.48395L6.76184 2.90078V1.45039L17.6575 7.75833L16.4049 8.48395Z"
    fill="var(--justweb3-primary-color)"></path>
</svg>