<svg aria-hidden="true" fill="none" focusable="false" height="64" viewBox="0 0 65 64"
     width="65" xmlns="http://www.w3.org/2000/svg">
  <path
    d="M62.4552 20.1151C61.6052 17.9903 60.5287 15.9788 59.2538 14.0806C53.5025 5.58123 43.7566 0 32.7358 0C15.0572 0 0.75 14.3355 0.75 31.9858C0.75 49.6645 15.0855 64 32.7358 64C43.785 64 53.5025 58.4188 59.2538 49.9194C60.5287 48.0496 61.5769 46.0381 62.4552 43.9132C63.9284 40.2302 64.75 36.2072 64.75 32.0142C64.7217 27.8212 63.9284 23.7981 62.4552 20.1151ZM58.1772 28.7561H21.545C22.1117 26.7729 23.1599 25.0164 24.5765 23.6282C26.7296 21.475 29.7044 20.1434 32.9908 20.1434H55.4857C56.8739 22.7782 57.7805 25.668 58.1772 28.7561ZM32.5658 6.20451C39.8469 6.20451 46.4481 9.23594 51.1511 14.1089H33.7841C28.8261 14.1089 24.3498 16.1204 21.1201 19.3502C18.5986 21.8716 16.8421 25.1014 16.1905 28.7561H6.98285C8.56939 16.0354 19.4202 6.20451 32.5658 6.20451ZM32.5658 57.8521C19.4202 57.8521 8.56939 48.0212 6.95451 35.3006H16.1621C17.692 43.6299 25.0014 49.9478 33.7841 49.9478H51.1511C46.4764 54.8207 39.8753 57.8521 32.5658 57.8521ZM32.9908 43.9416C27.5512 43.9416 22.9616 40.2869 21.545 35.3006H58.1772C57.7805 38.3887 56.8456 41.2784 55.4857 43.9416H32.9908Z"
    fill="var(--justweb3-primary-color)"></path>
</svg>