<svg aria-hidden="true" data-name="Layer 1" focusable="false" id="Layer_1"
     version="1.1" viewBox="0 0 2000 2000" xmlns="http://www.w3.org/2000/svg">
  <path d="M1000.06,1892.92c-493.31.04-893.45-400.35-892.98-893.56.46-492.9,400.09-892.25,892.88-892.28,493.31-.03,893.44,400.38,892.96,893.57-.48,492.93-400.05,892.23-892.86,892.27ZM1000.06,1802.53c442.61-.03,801.63-358.78,802.52-801.89.88-442.5-359.58-803.2-802.63-803.16-442.6.04-801.59,358.75-802.52,801.89-.94,442.46,359.56,803.19,802.64,803.16Z"
        fill="var(--justweb3-primary-color)"></path>
  <path d="M538,894.21v-165.43h496.01v164.11h83v-163.8h496.3v495.17h-495.47v-246.88h-82.99v246.55h-496.97v-246.72h-165.31v164.07h-82.65v-247.09h248.08ZM785.12,1141.52v-329.49h-163.93v329.49h163.93ZM1365.13,811.92h-163.92v329.48h163.92v-329.48Z"
        fill="var(--justweb3-primary-color)"></path>
</svg>