<svg width="11" height="11" viewBox="0 0 11 11" fill="none" xmlns="http://www.w3.org/2000/svg">
  <mask id="mask0_1635_1437" style="mask-type:alpha" maskUnits="userSpaceOnUse" x="0" y="0" width="11" height="11">
    <rect x="0.5" y="0.5" width="10" height="10" fill="#D9D9D9"/>
  </mask>
  <g mask="url(#mask0_1635_1437)">
    <path d="M4.25 8.00016C4.02083 8.00016 3.82465 7.91857 3.66146 7.75537C3.49826 7.59218 3.41667 7.396 3.41667 7.16683V2.16683C3.41667 1.93766 3.49826 1.74148 3.66146 1.57829C3.82465 1.41509 4.02083 1.3335 4.25 1.3335H8C8.22917 1.3335 8.42535 1.41509 8.58854 1.57829C8.75174 1.74148 8.83333 1.93766 8.83333 2.16683V7.16683C8.83333 7.396 8.75174 7.59218 8.58854 7.75537C8.42535 7.91857 8.22917 8.00016 8 8.00016H4.25ZM2.58333 9.66683C2.35417 9.66683 2.15799 9.58523 1.99479 9.42204C1.8316 9.25884 1.75 9.06266 1.75 8.8335V3.00016H2.58333V8.8335H7.16667V9.66683H2.58333Z" fill="var(--justaname-primary-color)"/>
  </g>
</svg>