<svg width="20" height="21" viewBox="0 0 20 21" fill="none" xmlns="http://www.w3.org/2000/svg">
  <mask id="mask0_2261_301" style="mask-type:alpha" maskUnits="userSpaceOnUse" x="0" y="0" width="20" height="21">
    <rect y="0.315918" width="20" height="20" fill="#D9D9D9"/>
  </mask>
  <g mask="url(#mask0_2261_301)">
    <path d="M7.16671 19.0659L5.58337 16.3993L2.58337 15.7326L2.87504 12.6493L0.833374 10.3159L2.87504 7.98258L2.58337 4.89925L5.58337 4.23258L7.16671 1.56592L10 2.77425L12.8334 1.56592L14.4167 4.23258L17.4167 4.89925L17.125 7.98258L19.1667 10.3159L17.125 12.6493L17.4167 15.7326L14.4167 16.3993L12.8334 19.0659L10 17.8576L7.16671 19.0659ZM9.12504 13.2743L13.8334 8.56592L12.6667 7.35758L9.12504 10.8993L7.33337 9.14925L6.16671 10.3159L9.12504 13.2743Z" fill="#06CB6C"/>
  </g>
</svg>
