<svg width="21" height="20" viewBox="0 0 21 20" fill="none" xmlns="http://www.w3.org/2000/svg">
  <mask id="mask0_1635_1375" style="mask-type:alpha" maskUnits="userSpaceOnUse" x="0" y="0" width="21" height="20">
    <rect x="0.5" width="20" height="20" fill="#D9D9D9"/>
  </mask>
  <g mask="url(#mask0_1635_1375)">
    <path d="M3.83341 19.1667V17.5H17.1667V19.1667H3.83341ZM3.83341 2.49999V0.833328H17.1667V2.49999H3.83341ZM10.5001 10.8333C11.1945 10.8333 11.7848 10.5903 12.2709 10.1042C12.757 9.61805 13.0001 9.02777 13.0001 8.33333C13.0001 7.63888 12.757 7.04861 12.2709 6.5625C11.7848 6.07638 11.1945 5.83333 10.5001 5.83333C9.80564 5.83333 9.21536 6.07638 8.72925 6.5625C8.24314 7.04861 8.00008 7.63888 8.00008 8.33333C8.00008 9.02777 8.24314 9.61805 8.72925 10.1042C9.21536 10.5903 9.80564 10.8333 10.5001 10.8333ZM3.83341 16.6667C3.37508 16.6667 2.98272 16.5035 2.65633 16.1771C2.32994 15.8507 2.16675 15.4583 2.16675 15V5C2.16675 4.54166 2.32994 4.1493 2.65633 3.82291C2.98272 3.49652 3.37508 3.33333 3.83341 3.33333H17.1667C17.6251 3.33333 18.0174 3.49652 18.3438 3.82291C18.6702 4.1493 18.8334 4.54166 18.8334 5V15C18.8334 15.4583 18.6702 15.8507 18.3438 16.1771C18.0174 16.5035 17.6251 16.6667 17.1667 16.6667H3.83341ZM5.29175 15H15.7084C15.0834 14.2222 14.3265 13.6111 13.4376 13.1667C12.5487 12.7222 11.5695 12.5 10.5001 12.5C9.43064 12.5 8.45147 12.7222 7.56258 13.1667C6.67369 13.6111 5.91675 14.2222 5.29175 15Z" fill="var(--justaname-primary-color)"/>
  </g>
</svg>
