<svg width="20" height="21" viewBox="0 0 20 21" fill="none" xmlns="http://www.w3.org/2000/svg">
  <mask id="mask0_1635_2011" style="mask-type:alpha" maskUnits="userSpaceOnUse" x="0" y="0" width="20" height="21">
    <rect y="0.315918" width="20" height="20" fill="#D9D9D9"/>
  </mask>
  <g mask="url(#mask0_1635_2011)">
    <path d="M4.87508 14.5659C5.58341 14.0242 6.37508 13.5972 7.25008 13.2847C8.12508 12.9722 9.04175 12.8159 10.0001 12.8159C10.9584 12.8159 11.8751 12.9722 12.7501 13.2847C13.6251 13.5972 14.4167 14.0242 15.1251 14.5659C15.6112 13.9965 15.9897 13.3506 16.2605 12.6284C16.5313 11.9062 16.6667 11.1354 16.6667 10.3159C16.6667 8.46869 16.0174 6.89578 14.7188 5.59717C13.4202 4.29855 11.8473 3.64925 10.0001 3.64925C8.15286 3.64925 6.57994 4.29855 5.28133 5.59717C3.98272 6.89578 3.33341 8.46869 3.33341 10.3159C3.33341 11.1354 3.46883 11.9062 3.73966 12.6284C4.0105 13.3506 4.38897 13.9965 4.87508 14.5659ZM10.0001 11.1492C9.18064 11.1492 8.48967 10.868 7.92717 10.3055C7.36467 9.743 7.08341 9.05203 7.08341 8.23258C7.08341 7.41314 7.36467 6.72217 7.92717 6.15967C8.48967 5.59717 9.18064 5.31592 10.0001 5.31592C10.8195 5.31592 11.5105 5.59717 12.073 6.15967C12.6355 6.72217 12.9167 7.41314 12.9167 8.23258C12.9167 9.05203 12.6355 9.743 12.073 10.3055C11.5105 10.868 10.8195 11.1492 10.0001 11.1492ZM10.0001 18.6492C8.8473 18.6492 7.76397 18.4305 6.75008 17.993C5.73619 17.5555 4.85425 16.9617 4.10425 16.2117C3.35425 15.4617 2.7605 14.5798 2.323 13.5659C1.8855 12.552 1.66675 11.4687 1.66675 10.3159C1.66675 9.16314 1.8855 8.0798 2.323 7.06592C2.7605 6.05203 3.35425 5.17008 4.10425 4.42008C4.85425 3.67008 5.73619 3.07633 6.75008 2.63883C7.76397 2.20133 8.8473 1.98258 10.0001 1.98258C11.1529 1.98258 12.2362 2.20133 13.2501 2.63883C14.264 3.07633 15.1459 3.67008 15.8959 4.42008C16.6459 5.17008 17.2397 6.05203 17.6772 7.06592C18.1147 8.0798 18.3334 9.16314 18.3334 10.3159C18.3334 11.4687 18.1147 12.552 17.6772 13.5659C17.2397 14.5798 16.6459 15.4617 15.8959 16.2117C15.1459 16.9617 14.264 17.5555 13.2501 17.993C12.2362 18.4305 11.1529 18.6492 10.0001 18.6492Z" fill="#D9D9D9"/>
  </g>
</svg>
