<svg width="62" height="62" viewBox="0 0 62 62" fill="none" xmlns="http://www.w3.org/2000/svg">
  <path d="M53.9265 23.844C57.8126 37.0126 50.4661 50.8918 37.5177 54.844C24.5694 58.7961 10.9224 51.3247 7.03633 38.156C3.15027 24.9874 10.4967 11.1082 23.4451 7.15604C36.3935 3.20387 50.0405 10.6753 53.9265 23.844Z" fill="var(--justweb3-primary-color)"/>
  <g filter="url(#filter0_i_1948_2798)">
    <path fill-rule="evenodd" clip-rule="evenodd" d="M37.0665 53.3149C49.1845 49.6162 56.0599 36.627 52.423 24.3029C48.7862 11.9787 36.0143 4.98638 23.8963 8.68511C11.7783 12.3838 4.90297 25.373 8.53982 37.6971C12.1767 50.0213 24.9485 57.0136 37.0665 53.3149ZM37.5177 54.844C50.4661 50.8918 57.8126 37.0126 53.9265 23.844C50.0405 10.6753 36.3935 3.20387 23.4451 7.15604C10.4967 11.1082 3.15027 24.9874 7.03633 38.156C10.9224 51.3247 24.5694 58.7961 37.5177 54.844Z" fill="black"/>
  </g>
  <path fill-rule="evenodd" clip-rule="evenodd" d="M49.4565 46.7311C47.0436 48.7272 44.214 50.2858 41.0499 51.2516C28.1015 55.2037 14.4545 47.7323 10.5684 34.5636C8.14485 26.3508 10.0902 17.8616 15.0387 11.6765C7.57733 17.849 4.10018 28.2054 7.03662 38.1561C10.9227 51.3247 24.5697 58.7962 37.518 54.844C42.391 53.3566 46.4705 50.4634 49.4565 46.7311Z" fill="black"/>
  <path d="M62.0041 21.3374C62.0041 30.9173 54.2725 38.6834 44.7351 38.6834C35.1977 38.6834 27.4661 30.9173 27.4661 21.3374C27.4661 11.7575 35.1977 3.99139 44.7351 3.99139C54.2725 3.99139 62.0041 11.7575 62.0041 21.3374Z" fill="#FDF9FE"/>
  <path fill-rule="evenodd" clip-rule="evenodd" d="M44.7351 37.087C53.424 37.087 60.4344 30.017 60.4344 21.3374C60.4344 12.6578 53.424 5.58784 44.7351 5.58784C36.0462 5.58784 29.0358 12.6578 29.0358 21.3374C29.0358 30.017 36.0462 37.087 44.7351 37.087ZM44.7351 38.6834C54.2725 38.6834 62.0041 30.9173 62.0041 21.3374C62.0041 11.7575 54.2725 3.99139 44.7351 3.99139C35.1977 3.99139 27.4661 11.7575 27.4661 21.3374C27.4661 30.9173 35.1977 38.6834 44.7351 38.6834Z" fill="black"/>
  <path d="M56.166 20.4698C56.166 25.3846 52.2571 29.311 47.5061 29.311C42.755 29.311 38.8462 25.3846 38.8462 20.4698C38.8462 15.555 42.755 11.6285 47.5061 11.6285C52.2571 11.6285 56.166 15.555 56.166 20.4698Z" fill="black" stroke="black" stroke-width="4"/>
  <path d="M42.3897 31.7444C42.3897 41.3244 34.7536 49.0904 25.3339 49.0904C15.9142 49.0904 8.27808 41.3244 8.27808 31.7444C8.27808 22.1645 15.9142 14.3984 25.3339 14.3984C34.7536 14.3984 42.3897 22.1645 42.3897 31.7444Z" fill="#FDF9FE"/>
  <path fill-rule="evenodd" clip-rule="evenodd" d="M25.3339 47.494C33.8866 47.494 40.82 40.4427 40.82 31.7444C40.82 23.0462 33.8866 15.9949 25.3339 15.9949C16.7812 15.9949 9.84782 23.0462 9.84782 31.7444C9.84782 40.4427 16.7812 47.494 25.3339 47.494ZM25.3339 49.0904C34.7536 49.0904 42.3897 41.3244 42.3897 31.7444C42.3897 22.1645 34.7536 14.3984 25.3339 14.3984C15.9142 14.3984 8.27808 22.1645 8.27808 31.7444C8.27808 41.3244 15.9142 49.0904 25.3339 49.0904Z" fill="black"/>
  <path d="M36.5516 30.8778C36.5516 35.8312 32.7007 39.719 28.1049 39.719C23.5092 39.719 19.6582 35.8312 19.6582 30.8778C19.6582 25.9243 23.5092 22.0365 28.1049 22.0365C32.7007 22.0365 36.5516 25.9243 36.5516 30.8778Z" fill="black" stroke="black" stroke-width="4"/>
  <defs>
    <filter id="filter0_i_1948_2798" x="5.99683" y="6.09882" width="48.9692" height="49.8024" filterUnits="userSpaceOnUse" color-interpolation-filters="sRGB">
      <feFlood flood-opacity="0" result="BackgroundImageFix"/>
      <feBlend mode="normal" in="SourceGraphic" in2="BackgroundImageFix" result="shape"/>
      <feColorMatrix in="SourceAlpha" type="matrix" values="0 0 0 0 0 0 0 0 0 0 0 0 0 0 0 0 0 0 127 0" result="hardAlpha"/>
      <feOffset dx="10" dy="-10"/>
      <feComposite in2="hardAlpha" operator="arithmetic" k2="-1" k3="1"/>
      <feColorMatrix type="matrix" values="0 0 0 0 0 0 0 0 0 0 0 0 0 0 0 0 0 0 1 0"/>
      <feBlend mode="normal" in2="shape" result="effect1_innerShadow_1948_2798"/>
    </filter>
  </defs>
</svg>
