<svg fill="none" height="63" viewBox="0 0 140 63" width="140" xmlns="http://www.w3.org/2000/svg">
  <path d="M70.2581 50.741H63.8128L56.99 40.355V50.741H50.5447V30.0857H56.99L63.8128 40.6468V30.0857H70.2581V50.741Z" fill="var(--justweb3-foreground-color-2)"/>
  <path d="M72.2991 42.5139C72.2991 40.7829 72.5894 39.2853 73.17 38.0211C73.7701 36.7374 74.583 35.7649 75.6088 35.1037C76.6347 34.4229 77.7863 34.0826 79.0638 34.0826C80.1283 34.0826 81.0477 34.3062 81.8219 34.7536C82.5961 35.1815 83.1865 35.7747 83.5929 36.5332V34.2868H90.0092V50.741H83.5929V48.4946C83.1865 49.2531 82.5961 49.8561 81.8219 50.3034C81.0477 50.7313 80.1283 50.9452 79.0638 50.9452C77.7863 50.9452 76.6347 50.6146 75.6088 49.9533C74.583 49.2726 73.7701 48.3001 73.17 47.0359C72.5894 45.7522 72.2991 44.2449 72.2991 42.5139ZM83.5929 42.5139C83.5929 41.6387 83.3703 40.9579 82.9252 40.4717C82.48 39.9855 81.909 39.7424 81.2122 39.7424C80.5154 39.7424 79.9444 39.9855 79.4993 40.4717C79.0541 40.9579 78.8315 41.6387 78.8315 42.5139C78.8315 43.3891 79.0541 44.0699 79.4993 44.5561C79.9444 45.0423 80.5154 45.2855 81.2122 45.2855C81.909 45.2855 82.48 45.0423 82.9252 44.5561C83.3703 44.0699 83.5929 43.3891 83.5929 42.5139Z" fill="var(--justweb3-foreground-color-2)"/>
  <path d="M114.765 34.1701C116.856 34.1701 118.472 34.8022 119.614 36.0664C120.775 37.3306 121.356 39.0422 121.356 41.2011V50.741H114.94V42.0179C114.94 41.3178 114.727 40.7732 114.301 40.3842C113.894 39.9757 113.343 39.7715 112.646 39.7715C111.93 39.7715 111.368 39.9757 110.962 40.3842C110.556 40.7732 110.352 41.3178 110.352 42.0179V50.741H103.936V42.0179C103.936 41.3178 103.723 40.7732 103.297 40.3842C102.891 39.9757 102.339 39.7715 101.642 39.7715C100.926 39.7715 100.365 39.9757 99.9585 40.3842C99.552 40.7732 99.3488 41.3178 99.3488 42.0179V50.741H92.9035V34.2868H99.3488V36.504C99.8133 35.8038 100.442 35.2398 101.236 34.8119C102.049 34.384 102.997 34.1701 104.081 34.1701C105.262 34.1701 106.307 34.4326 107.217 34.9578C108.126 35.4635 108.852 36.1831 109.394 37.1167C109.994 36.2609 110.759 35.5607 111.688 35.0161C112.617 34.4521 113.643 34.1701 114.765 34.1701Z" fill="var(--justweb3-foreground-color-2)"/>
  <path d="M140 42.368C140 42.8154 139.971 43.2433 139.913 43.6517H129.548C129.645 45.0715 130.235 45.7814 131.319 45.7814C132.016 45.7814 132.519 45.4605 132.829 44.8187H139.652C139.419 45.9856 138.926 47.0359 138.171 47.9695C137.435 48.8836 136.497 49.613 135.355 50.1575C134.232 50.6827 132.993 50.9452 131.639 50.9452C130.013 50.9452 128.561 50.6049 127.284 49.9242C126.025 49.2434 125.038 48.2709 124.322 47.0067C123.625 45.7231 123.277 44.2255 123.277 42.5139C123.277 40.8024 123.625 39.3145 124.322 38.0503C125.038 36.7666 126.025 35.7844 127.284 35.1037C128.561 34.4229 130.013 34.0826 131.639 34.0826C133.264 34.0826 134.706 34.4229 135.964 35.1037C137.242 35.7649 138.229 36.718 138.926 37.9627C139.642 39.2075 140 40.6759 140 42.368ZM133.468 40.8218C133.468 40.2772 133.293 39.8688 132.945 39.5965C132.597 39.3047 132.161 39.1589 131.639 39.1589C130.497 39.1589 129.829 39.7132 129.635 40.8218H133.468Z" fill="var(--justweb3-foreground-color-2)"/>
  <path d="M74.2827 9.62717V21.3599C74.2827 23.5335 73.7093 25.1852 72.5626 26.3148C71.4329 27.4273 69.8412 27.9836 67.7873 27.9836C65.5794 27.9836 63.8251 27.376 62.5243 26.1608C61.2235 24.9456 60.5731 23.1741 60.5731 20.8464H66.1956C66.1956 21.5824 66.3154 22.1044 66.555 22.4125C66.7946 22.7034 67.1198 22.8489 67.5306 22.8489C67.8729 22.8489 68.1382 22.7377 68.3265 22.5152C68.5147 22.2927 68.6089 21.9076 68.6089 21.3599V9.62717H74.2827Z" fill="var(--justweb3-foreground-color-2)"/>
  <path d="M92.0702 13.3241V27.8039H86.3708V25.596C85.9258 26.2806 85.3267 26.8368 84.5736 27.2647C83.8377 27.6926 82.9562 27.9066 81.9293 27.9066C80.2691 27.9066 78.9683 27.3503 78.027 26.2378C77.1027 25.1253 76.6406 23.6191 76.6406 21.7193V13.3241H82.3144V21.0004C82.3144 21.6851 82.4941 22.2328 82.8535 22.6435C83.2301 23.0372 83.7264 23.234 84.3426 23.234C84.9759 23.234 85.4722 23.0372 85.8316 22.6435C86.1911 22.2328 86.3708 21.6851 86.3708 21.0004V13.3241H92.0702Z" fill="var(--justweb3-foreground-color-2)"/>
  <path d="M101.088 27.9836C99.7192 27.9836 98.5039 27.7611 97.4428 27.3161C96.3987 26.8711 95.5686 26.2549 94.9525 25.4676C94.3363 24.6803 93.9854 23.7903 93.8999 22.7976H99.3683C99.4367 23.2255 99.6165 23.5421 99.9074 23.7475C100.215 23.9529 100.601 24.0556 101.063 24.0556C101.354 24.0556 101.585 23.9957 101.756 23.8758C101.927 23.7389 102.013 23.5763 102.013 23.3881C102.013 23.0629 101.833 22.8318 101.473 22.6949C101.114 22.558 100.506 22.4039 99.6507 22.2328C98.6066 22.0274 97.7423 21.8049 97.0577 21.5652C96.3902 21.3256 95.7997 20.9149 95.2862 20.3329C94.7899 19.751 94.5417 18.9466 94.5417 17.9196C94.5417 17.0296 94.7728 16.2252 95.2349 15.5064C95.7141 14.7704 96.4159 14.197 97.3401 13.7862C98.2643 13.3584 99.3854 13.1444 100.703 13.1444C102.654 13.1444 104.178 13.6236 105.273 14.5821C106.386 15.5406 107.053 16.79 107.276 18.3304H102.218C102.132 17.9368 101.953 17.6372 101.679 17.4318C101.405 17.2093 101.037 17.0981 100.575 17.0981C100.284 17.0981 100.061 17.158 99.9074 17.2778C99.7534 17.3805 99.6764 17.5431 99.6764 17.7656C99.6764 18.0566 99.8561 18.2791 100.215 18.4331C100.575 18.57 101.148 18.7155 101.936 18.8696C102.98 19.0749 103.861 19.306 104.58 19.5627C105.299 19.8195 105.924 20.2645 106.454 20.8977C106.985 21.5139 107.25 22.3697 107.25 23.4651C107.25 24.3209 107.002 25.0911 106.505 25.7757C106.009 26.4603 105.29 26.9994 104.349 27.3931C103.425 27.7867 102.338 27.9836 101.088 27.9836Z" fill="var(--justweb3-foreground-color-2)"/>
  <path d="M118.523 22.9516V27.8039H116.367C112.396 27.8039 110.41 25.827 110.41 21.8733V18.0737H108.613V13.3241H110.41V9.83255H116.11V13.3241H118.472V18.0737H116.11V21.976C116.11 22.3183 116.187 22.5665 116.341 22.7205C116.512 22.8746 116.786 22.9516 117.162 22.9516H118.523Z" fill="var(--justweb3-foreground-color-2)"/>
  <path d="M124.286 20.564C124.286 19.0407 124.543 17.7228 125.056 16.6103C125.587 15.4807 126.306 14.6249 127.213 14.043C128.12 13.4439 129.138 13.1444 130.268 13.1444C131.209 13.1444 132.022 13.3412 132.707 13.7349C133.391 14.1114 133.914 14.6335 134.273 15.301V13.3241H139.947V27.8039H134.273V25.827C133.914 26.4945 133.391 27.0251 132.707 27.4188C132.022 27.7953 131.209 27.9836 130.268 27.9836C129.138 27.9836 128.12 27.6926 127.213 27.1107C126.306 26.5116 125.587 25.6559 125.056 24.5434C124.543 23.4137 124.286 22.0873 124.286 20.564ZM134.273 20.564C134.273 19.7938 134.076 19.1947 133.682 18.7669C133.289 18.339 132.784 18.125 132.168 18.125C131.552 18.125 131.047 18.339 130.653 18.7669C130.259 19.1947 130.063 19.7938 130.063 20.564C130.063 21.3342 130.259 21.9332 130.653 22.3611C131.047 22.789 131.552 23.003 132.168 23.003C132.784 23.003 133.289 22.789 133.682 22.3611C134.076 21.9332 134.273 21.3342 134.273 20.564Z" fill="var(--justweb3-foreground-color-2)"/>
  <path d="M55.1234 23.9655C59.0957 37.2012 51.5862 51.1511 38.3505 55.1234C25.1147 59.0957 11.1648 51.5862 7.1925 38.3505C3.22019 25.1147 10.7297 11.1648 23.9655 7.19251C37.2012 3.2202 51.1511 10.7297 55.1234 23.9655Z" fill="var(--justweb3-primary-color)"/>
  <g filter="url(#filter0_i_1948_2671)">
    <path clip-rule="evenodd" d="M37.8892 53.5866C50.2762 49.869 57.3041 36.8137 53.5866 24.4267C49.869 12.0397 36.8137 5.0118 24.4267 8.72937C12.0397 12.4469 5.01179 25.5023 8.72936 37.8892C12.4469 50.2762 25.5022 57.3041 37.8892 53.5866ZM38.3505 55.1234C51.5862 51.1511 59.0957 37.2012 55.1234 23.9655C51.1511 10.7297 37.2012 3.2202 23.9655 7.19251C10.7297 11.1648 3.22019 25.1147 7.1925 38.3505C11.1648 51.5862 25.1147 59.0957 38.3505 55.1234Z" fill="black" fill-rule="evenodd"/>
  </g>
  <path clip-rule="evenodd" d="M50.5543 46.9686C48.0877 48.975 45.1952 50.5416 41.9607 51.5124C28.7249 55.4847 14.775 47.9752 10.8027 34.7394C8.32539 26.4849 10.3138 17.9526 15.372 11.736C7.74523 17.9399 4.19106 28.3489 7.19263 38.3502C11.1649 51.5859 25.1148 59.0954 38.3506 55.1231C43.3318 53.6282 47.502 50.72 50.5543 46.9686Z" fill="black" fill-rule="evenodd"/>
  <path d="M63.3801 21.446C63.3801 31.0748 55.4769 38.8804 45.7278 38.8804C35.9787 38.8804 28.0754 31.0748 28.0754 21.446C28.0754 11.8173 35.9787 4.01166 45.7278 4.01166C55.4769 4.01166 63.3801 11.8173 63.3801 21.446Z" fill="#FDF9FE"/>
  <path clip-rule="evenodd" d="M45.7278 37.2759C54.6095 37.2759 61.7755 30.1699 61.7755 21.446C61.7755 12.7222 54.6095 5.61624 45.7278 5.61624C36.846 5.61624 29.68 12.7222 29.68 21.446C29.68 30.1699 36.846 37.2759 45.7278 37.2759ZM45.7278 38.8804C55.4769 38.8804 63.3801 31.0748 63.3801 21.446C63.3801 11.8173 55.4769 4.01166 45.7278 4.01166C35.9787 4.01166 28.0754 11.8173 28.0754 21.446C28.0754 31.0748 35.9787 38.8804 45.7278 38.8804Z" fill="black" fill-rule="evenodd"/>
  <path d="M57.4571 20.5741C57.4571 25.4875 53.474 29.4706 48.5606 29.4706C43.6472 29.4706 39.6641 25.4875 39.6641 20.5741C39.6641 15.6607 43.6472 11.6776 48.5606 11.6776C53.474 11.6776 57.4571 15.6607 57.4571 20.5741Z" fill="black" stroke="black" stroke-width="4"/>
  <path d="M43.3307 31.9062C43.3307 41.5349 35.5251 49.3406 25.8963 49.3406C16.2676 49.3406 8.46191 41.5349 8.46191 31.9062C8.46191 22.2774 16.2676 14.4718 25.8963 14.4718C35.5251 14.4718 43.3307 22.2774 43.3307 31.9062Z" fill="#FDF9FE"/>
  <path clip-rule="evenodd" d="M25.8963 47.736C34.6389 47.736 41.7261 40.6488 41.7261 31.9062C41.7261 23.1636 34.6389 16.0764 25.8963 16.0764C17.1537 16.0764 10.0665 23.1636 10.0665 31.9062C10.0665 40.6488 17.1537 47.736 25.8963 47.736ZM25.8963 49.3406C35.5251 49.3406 43.3307 41.5349 43.3307 31.9062C43.3307 22.2774 35.5251 14.4718 25.8963 14.4718C16.2676 14.4718 8.46191 22.2774 8.46191 31.9062C8.46191 41.5349 16.2676 49.3406 25.8963 49.3406Z" fill="black" fill-rule="evenodd"/>
  <path d="M37.4074 31.0351C37.4074 35.9868 33.484 39.9316 28.7289 39.9316C23.9737 39.9316 20.0503 35.9868 20.0503 31.0351C20.0503 26.0834 23.9737 22.1386 28.7289 22.1386C33.484 22.1386 37.4074 26.0834 37.4074 31.0351Z" fill="black" stroke="black" stroke-width="4"/>
  <path d="M31.4906 24.0685L32.5926 27.1785L35.7026 28.2805L32.5926 29.3825L31.4906 32.4925L30.3886 29.3825L27.2786 28.2805L30.3886 27.1785L31.4906 24.0685Z" fill="white"/>
  <path d="M51.9479 12.4355L52.84 14.9531L55.3577 15.8452L52.84 16.7373L51.9479 19.2549L51.0559 16.7373L48.5382 15.8452L51.0559 14.9531L51.9479 12.4355Z" fill="white"/>
  <defs>
    <filter color-interpolation-filters="sRGB" filterUnits="userSpaceOnUse" height="50.0562" id="filter0_i_1948_2671" width="50.0562" x="6.12988" y="6.12988">
      <feFlood flood-opacity="0" result="BackgroundImageFix"/>
      <feBlend in="SourceGraphic" in2="BackgroundImageFix" mode="normal" result="shape"/>
      <feColorMatrix in="SourceAlpha" result="hardAlpha" type="matrix" values="0 0 0 0 0 0 0 0 0 0 0 0 0 0 0 0 0 0 127 0"/>
      <feOffset dx="10" dy="-10"/>
      <feComposite in2="hardAlpha" k2="-1" k3="1" operator="arithmetic"/>
      <feColorMatrix type="matrix" values="0 0 0 0 0 0 0 0 0 0 0 0 0 0 0 0 0 0 1 0"/>
      <feBlend in2="shape" mode="normal" result="effect1_innerShadow_1948_2671"/>
    </filter>
  </defs>
</svg>
