<svg width="75" height="76" viewBox="0 0 75 76" fill="none" xmlns="http://www.w3.org/2000/svg">
  <circle cx="33.3042" cy="39.5935" r="28.905" fill="var(--justweb3-primary-color)" stroke="black" stroke-width="1.9"/>
  <path fill-rule="evenodd" clip-rule="evenodd" d="M56.4503 58.4603C53.5079 60.8532 50.0577 62.7216 46.1996 63.8795C30.4079 68.6189 13.7641 59.6592 9.02465 43.8674C6.06853 34.0176 8.44192 23.8363 14.4785 16.4189C5.37716 23.8207 1.1355 36.241 4.71705 48.1748C9.45647 63.9666 26.1003 72.9263 41.8921 68.1868C47.834 66.4035 52.8087 62.9349 56.4503 58.4603Z" fill="black"/>
  <circle cx="50.751" cy="28.0059" r="19.8513" fill="white" stroke="black" stroke-width="1.9"/>
  <circle cx="54.0759" cy="26.9658" r="13.0007" fill="black"/>
  <path d="M58.1165 17.2554L59.1809 20.2592L62.1847 21.3236L59.1809 22.3879L58.1165 25.3918L57.0522 22.3879L54.0483 21.3236L57.0522 20.2592L58.1165 17.2554Z" fill="white"/>
  <circle cx="27.0342" cy="40.4866" r="19.8513" fill="white" stroke="black" stroke-width="1.9"/>
  <circle cx="30.4143" cy="39.4463" r="13.0007" fill="black"/>
  <path d="M33.7066 31.135L35.0214 34.8456L38.732 36.1604L35.0214 37.4752L33.7066 41.1859L32.3918 37.4752L28.6812 36.1604L32.3918 34.8456L33.7066 31.135Z" fill="white"/>
</svg>
