<svg width="164" height="76" viewBox="0 0 164 76" fill="none" xmlns="http://www.w3.org/2000/svg">
  <path d="M79.9642 62.9835H72.2742L64.1339 50.5918V62.9835H56.4438V38.3394H64.1339L72.2742 50.9399V38.3394H79.9642V62.9835Z" fill="var(--justweb3-foreground-color-2)"/>
  <path d="M82.3993 53.1676C82.3993 51.1023 82.7457 49.3155 83.4385 47.8072C84.1544 46.2756 85.1243 45.1153 86.3482 44.3264C87.5722 43.5142 88.9462 43.1081 90.4704 43.1081C91.7405 43.1081 92.8374 43.3749 93.7612 43.9087C94.6849 44.4192 95.3892 45.1269 95.8742 46.032V43.3517H103.53V62.9835H95.8742V60.3033C95.3892 61.2083 94.6849 61.9277 93.7612 62.4614C92.8374 62.9719 91.7405 63.2272 90.4704 63.2272C88.9462 63.2272 87.5722 62.8327 86.3482 62.0437C85.1243 61.2315 84.1544 60.0712 83.4385 58.5629C82.7457 57.0313 82.3993 55.2329 82.3993 53.1676ZM95.8742 53.1676C95.8742 52.1234 95.6086 51.3112 95.0775 50.7311C94.5463 50.1509 93.8651 49.8609 93.0337 49.8609C92.2024 49.8609 91.5211 50.1509 90.99 50.7311C90.4588 51.3112 90.1933 52.1234 90.1933 53.1676C90.1933 54.2119 90.4588 55.0241 90.99 55.6042C91.5211 56.1843 92.2024 56.4744 93.0337 56.4744C93.8651 56.4744 94.5463 56.1843 95.0775 55.6042C95.6086 55.0241 95.8742 54.2119 95.8742 53.1676Z" fill="var(--justweb3-foreground-color-2)"/>
  <path d="M133.066 43.2125C135.561 43.2125 137.489 43.9667 138.851 45.475C140.237 46.9834 140.93 49.0255 140.93 51.6013V62.9835H133.274V52.5759C133.274 51.7405 133.02 51.0907 132.512 50.6266C132.027 50.1393 131.369 49.8957 130.538 49.8957C129.683 49.8957 129.014 50.1393 128.529 50.6266C128.044 51.0907 127.801 51.7405 127.801 52.5759V62.9835H120.146V52.5759C120.146 51.7405 119.892 51.0907 119.384 50.6266C118.899 50.1393 118.241 49.8957 117.409 49.8957C116.555 49.8957 115.885 50.1393 115.4 50.6266C114.915 51.0907 114.673 51.7405 114.673 52.5759V62.9835H106.983V43.3517H114.673V45.9971C115.227 45.1618 115.978 44.4888 116.924 43.9783C117.894 43.4678 119.026 43.2125 120.319 43.2125C121.728 43.2125 122.975 43.5258 124.06 44.1523C125.146 44.7557 126.011 45.6143 126.658 46.7281C127.374 45.7071 128.286 44.8717 129.395 44.2219C130.503 43.549 131.727 43.2125 133.066 43.2125Z" fill="var(--justweb3-foreground-color-2)"/>
  <path d="M163.174 52.9936C163.174 53.5273 163.14 54.0378 163.07 54.5251H150.704C150.82 56.2191 151.524 57.0661 152.817 57.0661C153.648 57.0661 154.249 56.6832 154.618 55.9175H162.759C162.482 57.3098 161.893 58.5629 160.992 59.6767C160.115 60.7674 158.994 61.6376 157.632 62.2874C156.293 62.9139 154.815 63.2272 153.198 63.2272C151.258 63.2272 149.526 62.8211 148.002 62.0089C146.501 61.1967 145.323 60.0364 144.469 58.5281C143.638 56.9965 143.222 55.2097 143.222 53.1676C143.222 51.1255 143.638 49.3503 144.469 47.842C145.323 46.3104 146.501 45.1385 148.002 44.3264C149.526 43.5142 151.258 43.1081 153.198 43.1081C155.138 43.1081 156.858 43.5142 158.359 44.3264C159.884 45.1153 161.061 46.2524 161.893 47.7376C162.747 49.2227 163.174 50.9747 163.174 52.9936ZM155.38 51.1488C155.38 50.499 155.173 50.0117 154.757 49.6868C154.341 49.3387 153.822 49.1647 153.198 49.1647C151.836 49.1647 151.039 49.826 150.808 51.1488H155.38Z" fill="var(--justweb3-foreground-color-2)"/>
  <path d="M84.7667 13.9304V27.9289C84.7667 30.5223 84.0826 32.4929 82.7144 33.8407C81.3667 35.168 79.4675 35.8317 77.017 35.8317C74.3827 35.8317 72.2896 35.1068 70.7376 33.6569C69.1857 32.207 68.4097 30.0935 68.4097 27.3162H75.1179C75.1179 28.1943 75.2608 28.8172 75.5467 29.1847C75.8326 29.5319 76.2206 29.7055 76.7107 29.7055C77.1191 29.7055 77.4357 29.5727 77.6603 29.3073C77.8849 29.0418 77.9972 28.5823 77.9972 27.9289V13.9304H84.7667Z" fill="var(--justweb3-foreground-color-2)"/>
  <path d="M105.989 18.3413V35.6173H99.1892V32.983C98.6583 33.7998 97.9436 34.4635 97.045 34.974C96.1669 35.4846 95.1153 35.7398 93.89 35.7398C91.9092 35.7398 90.3572 35.0761 89.2341 33.7488C88.1314 32.4214 87.58 30.6244 87.58 28.3577V18.3413H94.3495V27.5C94.3495 28.3169 94.5639 28.9703 94.9928 29.4604C95.442 29.9301 96.0342 30.1649 96.7694 30.1649C97.5249 30.1649 98.1171 29.9301 98.546 29.4604C98.9748 28.9703 99.1892 28.3169 99.1892 27.5V18.3413H105.989Z" fill="var(--justweb3-foreground-color-2)"/>
  <path d="M116.749 35.8317C115.115 35.8317 113.665 35.5662 112.399 35.0353C111.154 34.5044 110.163 33.7692 109.428 32.8299C108.693 31.8905 108.274 30.8286 108.172 29.6442H114.697C114.778 30.1547 114.993 30.5325 115.34 30.7776C115.708 31.0226 116.167 31.1451 116.718 31.1451C117.066 31.1451 117.341 31.0737 117.545 30.9307C117.75 30.7674 117.852 30.5734 117.852 30.3487C117.852 29.9607 117.637 29.6851 117.208 29.5217C116.78 29.3583 116.055 29.1745 115.034 28.9703C113.788 28.7253 112.757 28.4598 111.94 28.1739C111.144 27.888 110.439 27.3979 109.826 26.7036C109.234 26.0093 108.938 25.0495 108.938 23.8243C108.938 22.7624 109.214 21.8026 109.765 20.945C110.337 20.0669 111.174 19.3828 112.277 18.8927C113.38 18.3821 114.717 18.1269 116.29 18.1269C118.618 18.1269 120.435 18.6987 121.742 19.8422C123.069 20.9858 123.866 22.4765 124.131 24.3144H118.097C117.995 23.8447 117.78 23.4873 117.454 23.2423C117.127 22.9768 116.688 22.8441 116.136 22.8441C115.789 22.8441 115.524 22.9156 115.34 23.0585C115.156 23.181 115.064 23.375 115.064 23.6405C115.064 23.9877 115.279 24.2531 115.708 24.4369C116.136 24.6003 116.821 24.7739 117.76 24.9576C119.006 25.2027 120.057 25.4784 120.915 25.7847C121.773 26.091 122.518 26.6219 123.151 27.3775C123.784 28.1127 124.101 29.1337 124.101 30.4406C124.101 31.4617 123.804 32.3806 123.212 33.1974C122.62 34.0143 121.762 34.6575 120.639 35.1272C119.536 35.5969 118.24 35.8317 116.749 35.8317Z" fill="var(--justweb3-foreground-color-2)"/>
  <path d="M137.551 29.828V35.6173H134.978C130.24 35.6173 127.871 33.2587 127.871 28.5415V24.0081H125.727V18.3413H127.871V14.1755H134.671V18.3413H137.489V24.0081H134.671V28.664C134.671 29.0724 134.763 29.3685 134.947 29.5523C135.151 29.7361 135.478 29.828 135.927 29.828H137.551Z" fill="var(--justweb3-foreground-color-2)"/>
  <path d="M144.426 26.9793C144.426 25.1619 144.733 23.5895 145.345 22.2621C145.978 20.9143 146.836 19.8933 147.918 19.199C149.001 18.4843 150.216 18.1269 151.564 18.1269C152.687 18.1269 153.657 18.3617 154.473 18.8314C155.29 19.2807 155.913 19.9035 156.342 20.6999V18.3413H163.111V35.6173H156.342V33.2587C155.913 34.0551 155.29 34.6881 154.473 35.1578C153.657 35.6071 152.687 35.8317 151.564 35.8317C150.216 35.8317 149.001 35.4846 147.918 34.7902C146.836 34.0755 145.978 33.0545 145.345 31.7271C144.733 30.3794 144.426 28.7968 144.426 26.9793ZM156.342 26.9793C156.342 26.0604 156.107 25.3456 155.637 24.8351C155.168 24.3246 154.565 24.0693 153.83 24.0693C153.095 24.0693 152.493 24.3246 152.023 24.8351C151.553 25.3456 151.318 26.0604 151.318 26.9793C151.318 27.8982 151.553 28.613 152.023 29.1235C152.493 29.634 153.095 29.8893 153.83 29.8893C154.565 29.8893 155.168 29.634 155.637 29.1235C156.107 28.613 156.342 27.8982 156.342 26.9793Z" fill="var(--justweb3-foreground-color-2)"/>
  <circle cx="33.3042" cy="39.6033" r="28.905" fill="var(--justweb3-primary-color)" stroke="black" stroke-width="1.9"/>
  <path fill-rule="evenodd" clip-rule="evenodd" d="M56.4503 58.4701C53.5079 60.863 50.0577 62.7314 46.1996 63.8892C30.4079 68.6286 13.7641 59.6689 9.02465 43.8772C6.06853 34.0274 8.44192 23.8461 14.4785 16.4287C5.37716 23.8305 1.1355 36.2508 4.71705 48.1846C9.45647 63.9763 26.1003 72.936 41.8921 68.1966C47.834 66.4133 52.8087 62.9446 56.4503 58.4701Z" fill="black"/>
  <circle cx="50.751" cy="28.0156" r="19.8513" fill="white" stroke="black" stroke-width="1.9"/>
  <circle cx="54.0759" cy="26.9756" r="13.0007" fill="black"/>
  <path d="M58.1165 17.2651L59.1809 20.269L62.1847 21.3333L59.1809 22.3977L58.1165 25.4015L57.0522 22.3977L54.0483 21.3333L57.0522 20.269L58.1165 17.2651Z" fill="white"/>
  <circle cx="27.0342" cy="40.4963" r="19.8513" fill="white" stroke="black" stroke-width="1.9"/>
  <circle cx="30.4143" cy="39.4561" r="13.0007" fill="black"/>
  <path d="M33.7066 31.1448L35.0214 34.8554L38.732 36.1702L35.0214 37.485L33.7066 41.1956L32.3918 37.485L28.6812 36.1702L32.3918 34.8554L33.7066 31.1448Z" fill="white"/>
</svg>
