<svg width="20" height="21" viewBox="0 0 20 21" fill="none" xmlns="http://www.w3.org/2000/svg">
  <g clip-path="url(#clip0_3527_2458)">
    <path d="M15.5535 6.3558C14.5042 5.88212 13.3941 5.54554 12.2526 5.35498C12.1104 5.603 11.9443 5.93659 11.8297 6.20198C10.599 6.0234 9.37956 6.0234 8.17143 6.20198C8.05693 5.93665 7.88706 5.603 7.74356 5.35498C6.60093 5.54563 5.48991 5.88306 4.44012 6.35828C2.35112 9.40405 1.78481 12.3741 2.06793 15.3021C3.4535 16.3004 4.79625 16.9068 6.11637 17.3037C6.44448 16.8684 6.7345 16.4075 6.98343 15.9258C6.50945 15.7517 6.05251 15.5372 5.61806 15.2847C5.73238 15.2029 5.84402 15.1177 5.95281 15.0292C8.58543 16.2173 11.4459 16.2173 14.0472 15.0292C14.1564 15.1171 14.268 15.2023 14.3819 15.2847C13.9467 15.5379 13.4889 15.7528 13.014 15.9271C13.2644 16.4107 13.5539 16.872 13.8811 17.3049C15.2024 16.9081 16.5464 16.3016 17.932 15.3021C18.2642 11.9078 17.3645 8.96505 15.5535 6.3558ZM7.34212 13.5014C6.55181 13.5014 5.90368 12.7896 5.90368 11.9227C5.90368 11.0559 6.538 10.3428 7.34212 10.3428C8.14625 10.3428 8.79437 11.0546 8.78056 11.9227C8.78181 12.7896 8.14631 13.5014 7.34212 13.5014ZM12.6578 13.5014C11.8675 13.5014 11.2194 12.7896 11.2194 11.9227C11.2194 11.0559 11.8537 10.3428 12.6578 10.3428C13.462 10.3428 14.1101 11.0546 14.0962 11.9227C14.0962 12.7896 13.462 13.5014 12.6578 13.5014Z" fill="var(--justweb3-primary-color)"/>
  </g>
  <defs>
    <clipPath id="clip0_3527_2458">
      <rect width="16" height="12" fill="white" transform="translate(2 5.35498)"/>
    </clipPath>
  </defs>
</svg>
