<svg width="20" height="21" viewBox="0 0 20 21" fill="none" xmlns="http://www.w3.org/2000/svg">
<rect width="20" height="20" transform="translate(0 0.5)" />
<path d="M12.6576 3.44002C12.5748 3.4892 12.4763 3.50526 12.3821 3.48494C11.0654 3.2006 9.70329 3.2006 8.3866 3.48494C8.29246 3.50526 8.19391 3.4892 8.11111 3.44002C7.35917 2.99337 6.77884 2.78242 6.35055 2.69054C6.15745 2.64691 5.95986 2.62636 5.76193 2.62931C5.67186 2.63175 5.58222 2.64258 5.49416 2.66166L5.48445 2.6636C5.48324 2.66385 5.48206 2.66425 5.48095 2.6648L5.47847 2.66604C5.47816 2.6662 5.47782 2.66628 5.47748 2.66628C5.47601 2.66628 5.47494 2.66769 5.47534 2.66911L5.63266 3.22204L5.54359 2.90962C5.50543 2.77579 5.3599 2.69495 5.25457 2.7859C5.19076 2.841 5.13978 2.90941 5.10521 2.98633C4.79057 3.69173 4.71127 4.47802 4.87608 5.22933C4.90162 5.34575 4.87561 5.46793 4.80441 5.56351C4.30461 6.23436 4.03411 7.05084 4.03645 7.89113C4.03645 9.68551 4.56506 10.8918 5.46646 11.6671C5.9882 12.1159 6.60217 12.391 7.23345 12.5663C7.44446 12.6249 7.56875 12.8465 7.53044 13.0621C7.48898 13.2955 7.47823 13.5338 7.49895 13.7711V14.1646C7.49895 14.3379 7.37762 14.4906 7.20534 14.5094C6.88854 14.5441 6.65194 14.512 6.47174 14.4528C6.18204 14.3569 5.95929 14.1639 5.74577 13.8866C5.63415 13.7372 5.53014 13.5821 5.43414 13.4222L5.36836 13.3147C5.28529 13.1764 5.19909 13.0401 5.10982 12.9057C4.89053 12.581 4.56506 12.1743 4.03876 12.0357L3.83441 11.982C3.63878 11.9306 3.43855 12.0476 3.38727 12.2432L3.27975 12.6534C3.22851 12.8489 3.34539 13.049 3.54087 13.1003L3.7456 13.1541C3.83793 13.1772 3.95797 13.2639 4.15533 13.5539C4.23129 13.6684 4.30441 13.7847 4.37462 13.9028L4.4531 14.0299C4.56159 14.2055 4.68624 14.3997 4.83052 14.5891C5.12252 14.9704 5.52071 15.3552 6.11164 15.5505C6.40262 15.647 6.72235 15.6908 7.07427 15.6775C7.29855 15.669 7.49895 15.8385 7.49895 16.0629V17.7932C7.49895 17.9464 7.55975 18.0933 7.66797 18.2017C7.7762 18.31 7.92298 18.3709 8.07603 18.3709H12.6927C12.8458 18.3709 12.9925 18.31 13.1008 18.2017C13.209 18.0933 13.2698 17.9464 13.2698 17.7932V13.6775C13.2698 13.4637 13.2642 13.2606 13.239 13.0665C13.2109 12.8501 13.3381 12.6293 13.5484 12.5712C14.1762 12.3979 14.7857 12.1228 15.3046 11.674C16.2048 10.8929 16.7323 9.67511 16.7323 7.87033V7.86917C16.7296 7.0363 16.459 6.22823 15.9633 5.56351C15.892 5.46793 15.866 5.34572 15.8915 5.22926C16.056 4.47834 15.9767 3.69252 15.6624 2.98749C15.6281 2.91047 15.5773 2.84191 15.5137 2.78662C15.4088 2.69543 15.2633 2.77589 15.2252 2.90956L15.1361 3.22204C15.2684 2.75778 15.2892 2.68215 15.2918 2.66983C15.2921 2.66817 15.2911 2.66704 15.2896 2.66628C15.2865 2.66474 15.2833 2.66359 15.2799 2.66285L15.2746 2.66166C15.2461 2.65424 15.2172 2.64845 15.188 2.64433C15.1276 2.6355 15.0667 2.63048 15.0056 2.62931C14.8077 2.62638 14.6101 2.64694 14.417 2.69054C13.9898 2.78242 13.4096 2.99337 12.6576 3.44002Z" fill="var(--justweb3-primary-color)"/>
</svg>
