<svg width="33" height="20" viewBox="0 0 33 20" fill="none" xmlns="http://www.w3.org/2000/svg">
<path d="M2.38304 0.47885C1.7647 0.615094 1.17431 1.07623 0.884358 1.64915C0.625844 2.16269 0.632831 2.05439 0.632831 5.55133V8.67098H5.61099C10.3271 8.67098 10.5892 8.66749 10.5892 8.6081C10.5892 8.57666 10.652 8.36006 10.7324 8.1295C11.0153 7.28758 11.4904 6.49456 12.0948 5.86225C12.6817 5.24391 13.1638 4.89457 13.9184 4.53125C14.7044 4.15046 15.4485 3.96531 16.3359 3.93037C17.6564 3.87797 18.914 4.24129 20.0459 5.00636C20.4931 5.31029 21.1987 5.99151 21.5166 6.42819C21.9393 7.00111 22.2887 7.71727 22.4738 8.38102L22.5542 8.67098H27.5952H32.6328V5.55133C32.6328 2.05789 32.6398 2.17317 32.3813 1.65265C32.0983 1.07623 31.4939 0.608107 30.8686 0.47885C30.5088 0.405488 2.7289 0.405488 2.38304 0.47885Z" fill="var(--justweb3-primary-color)"/>
<path d="M16.0217 5.35558C15.1623 5.47436 14.2401 5.86213 13.5379 6.40362C13.2654 6.61322 12.7553 7.1582 12.5737 7.43069C12.0252 8.26562 11.7772 9.13898 11.8226 10.1032C11.9134 12.0455 12.937 13.5931 14.6488 14.3826C15.6689 14.8508 16.9894 14.9241 18.0828 14.5713C18.813 14.3337 19.5256 13.8901 20.0252 13.3591C20.8776 12.4543 21.2794 11.3957 21.2828 10.0508C21.2863 9.21584 21.1466 8.57654 20.8112 7.9023C20.5702 7.41322 20.3501 7.11279 19.9518 6.71453C19.2636 6.02632 18.4532 5.58964 17.4994 5.40449C17.1501 5.33462 16.3606 5.31017 16.0217 5.35558ZM16.3187 6.82283V7.83942L16.1545 7.81846C15.5361 7.73113 14.9562 7.57741 14.9562 7.49357C14.9562 7.39575 15.3719 6.60624 15.6374 6.201L15.8994 5.80624H16.1091H16.3187V6.82283ZM17.3807 6.08222C17.7195 6.55383 18.1981 7.44466 18.1527 7.51803C18.0933 7.61235 17.4086 7.78353 17.0173 7.80449L16.7903 7.81497L16.7798 6.80886L16.7728 5.80624H16.9754H17.1815L17.3807 6.08222ZM15.075 6.29881C14.8724 6.63069 14.5719 7.23156 14.5719 7.30492C14.5719 7.32589 14.5545 7.34335 14.537 7.34335C14.4741 7.34335 13.8488 7.02196 13.744 6.93811L13.6462 6.85427L13.7859 6.72851C13.9885 6.54685 14.1737 6.42458 14.4881 6.26388C14.7396 6.13462 15.2392 5.94248 15.2636 5.96344C15.2706 5.96694 15.1833 6.12065 15.075 6.29881ZM18.0619 6.02982C18.3868 6.15907 18.8479 6.4141 19.1553 6.63418C19.3056 6.74248 19.4278 6.8403 19.4278 6.85427C19.4278 6.90667 19.2497 7.03244 18.9283 7.20361C18.7396 7.30492 18.5824 7.38178 18.5754 7.37479C18.5684 7.36781 18.4706 7.16519 18.3553 6.92414C18.2401 6.68309 18.0689 6.37567 17.978 6.24292C17.8872 6.10667 17.8069 5.9879 17.7999 5.97043C17.7719 5.92851 17.8313 5.94248 18.0619 6.02982ZM13.9711 7.54248C14.1946 7.64728 14.3833 7.73811 14.3903 7.7451C14.3973 7.74859 14.3379 7.94423 14.261 8.17479C14.1248 8.57305 14.0095 9.132 13.9606 9.60361L13.9361 9.8237H13.1082C12.6505 9.8237 12.2698 9.81671 12.2593 9.80623C12.2348 9.78178 12.3222 9.16693 12.3885 8.90842C12.5388 8.3285 12.8706 7.66824 13.192 7.31191L13.3248 7.16868L13.4436 7.25951C13.5099 7.30842 13.7475 7.43768 13.9711 7.54248ZM20.158 7.65776C20.399 8.02457 20.5946 8.46475 20.7064 8.91191C20.7903 9.2368 20.8636 9.77479 20.8287 9.80623C20.8217 9.81671 20.4479 9.8237 20.0008 9.8237H19.1903L19.1658 9.60361C19.1309 9.24379 19.0156 8.71278 18.8828 8.28658C18.8165 8.0665 18.7501 7.8534 18.7431 7.81497C18.7256 7.75558 18.778 7.71715 19.0645 7.57043C19.2532 7.47261 19.4837 7.34685 19.5815 7.28396L19.7597 7.17217L19.861 7.2665C19.9169 7.3189 20.0497 7.49357 20.158 7.65776ZM15.1728 8.02108C15.5676 8.15383 16.0042 8.25165 16.1964 8.25165H16.3187V9.03767V9.8237H15.3405H14.3623V9.63855C14.3623 9.34859 14.4532 8.85951 14.5929 8.42632C14.7152 8.04204 14.7676 7.9023 14.799 7.9023C14.806 7.9023 14.9737 7.95471 15.1728 8.02108ZM18.4147 8.10143C18.5789 8.5416 18.7291 9.26475 18.7291 9.62457V9.8237L17.7615 9.81671L16.7903 9.80623V9.04117V8.27261L17.1222 8.2237C17.3003 8.19925 17.6322 8.1189 17.8558 8.04204C18.0759 7.96868 18.275 7.9058 18.2994 7.9058C18.3204 7.9023 18.3728 7.99313 18.4147 8.10143ZM13.9641 10.6447C14.0165 11.1163 14.0619 11.3189 14.2436 11.8744C14.3274 12.1364 14.3973 12.353 14.3973 12.3564C14.3973 12.3599 14.1527 12.4857 13.8523 12.6394L13.3073 12.9154L13.2025 12.7931C12.8532 12.3879 12.5073 11.6752 12.3781 11.0988C12.2942 10.7285 12.2488 10.3652 12.2837 10.3128C12.2977 10.2883 12.5667 10.2813 13.1152 10.2848L13.9256 10.2953L13.9641 10.6447ZM16.3117 11.0709L16.3187 11.8499H16.1719C15.9763 11.8534 15.5047 11.9582 15.1204 12.0909L14.813 12.1957L14.7291 12.0141C14.5754 11.6822 14.3623 10.746 14.3623 10.4141V10.2778L15.3335 10.2848L16.3012 10.2953L16.3117 11.0709ZM18.7291 10.484C18.7291 10.7774 18.6453 11.2141 18.4986 11.6752C18.3204 12.2447 18.3553 12.2062 18.0759 12.1049C17.7684 11.9931 17.3422 11.8918 17.0348 11.8604L16.7903 11.8324L16.7798 11.0988C16.7763 10.6971 16.7798 10.3477 16.7868 10.3233C16.8008 10.2883 17.0208 10.2778 17.7684 10.2778H18.7291V10.484ZM20.8357 10.3023C20.8671 10.3652 20.7833 10.9591 20.6994 11.2455C20.5352 11.8185 20.2173 12.4438 19.9274 12.7722C19.8645 12.842 19.7981 12.8979 19.7772 12.8979C19.7562 12.8979 19.6794 12.8595 19.606 12.8141C19.5326 12.7687 19.2986 12.6429 19.0855 12.5346L18.6977 12.339L18.806 12.0525C19.0331 11.4272 19.1833 10.8193 19.1833 10.5014C19.1833 10.4036 19.1938 10.3128 19.2077 10.3023C19.2392 10.2674 20.8182 10.2709 20.8357 10.3023ZM16.3187 13.3032V14.3722L16.1195 14.3477C16.0077 14.3337 15.9064 14.3163 15.8925 14.3093C15.7807 14.2394 15.082 13.0062 14.9667 12.6639C14.9283 12.5556 14.9283 12.5521 15.0715 12.4962C15.2636 12.4228 16.0601 12.2412 16.2069 12.2377L16.3187 12.2342V13.3032ZM17.2095 12.2866C17.5274 12.3355 18.0794 12.4892 18.1457 12.5451C18.1772 12.5765 17.5623 13.8167 17.3702 14.1067C17.2304 14.3163 17.2235 14.3233 17.0348 14.3477C16.93 14.3582 16.8287 14.3617 16.8077 14.3477C16.7693 14.3233 16.7553 12.2971 16.7973 12.2586C16.8252 12.2272 16.8042 12.2272 17.2095 12.2866ZM14.799 13.2473C14.9422 13.5337 15.1169 13.8551 15.1868 13.9634C15.2532 14.0717 15.3056 14.1661 15.2986 14.173C15.2741 14.1975 14.6243 13.9215 14.4322 13.8097C14.1981 13.67 13.6636 13.2752 13.6636 13.2438C13.6636 13.2054 14.4532 12.7302 14.5265 12.7233C14.5335 12.7233 14.6558 12.9573 14.799 13.2473ZM18.8584 12.8875C19.2497 13.0936 19.4278 13.2054 19.4278 13.2438C19.4278 13.2927 19.0959 13.5861 18.8863 13.7224C18.6104 13.8971 17.992 14.1556 17.8488 14.1556C17.8313 14.1556 17.8628 14.0892 17.9187 14.0054C18.0898 13.7573 18.2959 13.3486 18.4182 13.0272C18.4811 12.8595 18.537 12.7233 18.5405 12.7233C18.5475 12.7233 18.6872 12.7966 18.8584 12.8875Z" fill="var(--justweb3-primary-color)"/>
<path d="M0.632831 14.4423C0.632831 17.9393 0.625844 17.824 0.884358 18.3445C1.17082 18.9279 1.76121 19.3856 2.39702 19.5183C2.76732 19.5952 30.4983 19.5952 30.8686 19.5183C31.5044 19.3856 32.0983 18.9244 32.3847 18.348C32.6398 17.831 32.6328 17.9358 32.6328 14.4423V11.3262H27.6057H22.5786L22.5542 11.4554C22.5402 11.5288 22.4843 11.7384 22.4249 11.9201C21.7926 13.8974 20.2345 15.41 18.2398 15.9829C17.6634 16.1506 17.2931 16.196 16.5629 16.196C15.8328 16.196 15.4625 16.1506 14.8861 15.9829C12.8913 15.41 11.3332 13.8974 10.7009 11.9201C10.6415 11.7384 10.5857 11.5288 10.5717 11.4554L10.5472 11.3262H5.59003H0.632831V14.4423Z" fill="var(--justweb3-primary-color)"/>
</svg>