<svg width="20" height="21" viewBox="0 0 20 21" fill="none" xmlns="http://www.w3.org/2000/svg">
<rect width="20" height="20" transform="translate(0 0.5)" />
<path fill-rule="evenodd" clip-rule="evenodd" d="M15.2193 16.2266V16.2251L15.2329 16.1926L17.5 4.75985V4.72355C17.5 4.43849 17.3942 4.18972 17.1659 4.04076C16.9655 3.90995 16.735 3.90088 16.5732 3.91297C16.4226 3.9266 16.274 3.95703 16.1302 4.00371C16.0689 4.02349 16.0084 4.04568 15.9488 4.07025L15.939 4.07403L3.2996 9.03352L3.29582 9.03504C3.25739 9.04816 3.21978 9.06356 3.18318 9.08116C3.09329 9.12156 3.00705 9.16962 2.9254 9.22483C2.76288 9.33673 2.45369 9.59987 2.50585 10.0173C2.54894 10.3636 2.78707 10.5828 2.94808 10.697C3.04312 10.7636 3.1453 10.8194 3.25273 10.8634L3.27692 10.874L3.28448 10.8762L3.28977 10.8785L5.50166 11.6233C5.4941 11.7617 5.50771 11.9031 5.54475 12.0429L6.65221 16.2463C6.71271 16.4754 6.84344 16.6798 7.02604 16.8308C7.20864 16.9818 7.43394 17.0718 7.67029 17.0882C7.90665 17.1045 8.14219 17.0464 8.34383 16.922C8.54547 16.7976 8.70309 16.6131 8.79455 16.3945L10.5241 14.545L13.4943 16.8225L13.5366 16.8406C13.8065 16.9586 14.0582 16.9956 14.2887 16.9646C14.5193 16.9329 14.7023 16.8361 14.8398 16.7264C14.999 16.5974 15.1258 16.433 15.2102 16.2463L15.2163 16.2334L15.2186 16.2289L15.2193 16.2266ZM6.64087 11.7541C6.6286 11.7075 6.63152 11.6581 6.64919 11.6133C6.66686 11.5684 6.69837 11.5303 6.73914 11.5046L14.2389 6.74092C14.2389 6.74092 14.6803 6.47249 14.6645 6.74092C14.6645 6.74092 14.7431 6.7878 14.5065 7.00784C14.2827 7.21729 9.16118 12.1632 8.64261 12.6637C8.61377 12.6917 8.59357 12.7274 8.5844 12.7666L7.74832 15.9575L6.64087 11.7541Z" fill="var(--justweb3-primary-color)"/>
</svg>
