<svg width="89" height="93" viewBox="0 0 89 93" fill="none" xmlns="http://www.w3.org/2000/svg">
<path d="M61.1875 48.5C61.1875 52.359 60.9789 56.0789 60.6139 59.625H28.3861C28.0037 56.0789 27.8125 52.359 27.8125 48.5C27.8125 44.641 28.0211 40.9211 28.3861 37.375H60.6139C60.9963 40.9211 61.1875 44.641 61.1875 48.5ZM66.1937 37.375H87.592C88.5133 40.9385 89 44.6584 89 48.5C89 52.3416 88.5133 56.0615 87.592 59.625H66.1937C66.5588 56.0441 66.75 52.3242 66.75 48.5C66.75 44.6758 66.5588 40.9559 66.1937 37.375ZM85.7668 31.8125H65.4811C63.7428 20.7049 60.301 11.4051 55.8684 5.46016C69.4791 9.0584 80.5519 18.9318 85.7494 31.8125H85.7668ZM59.849 31.8125H29.151C30.2113 25.4852 31.8453 19.8879 33.8443 15.351C35.6695 11.2486 37.7033 8.27617 39.6676 6.39883C41.6145 4.55625 43.2311 4 44.5 4C45.7689 4 47.3855 4.55625 49.3324 6.39883C51.2967 8.27617 53.3305 11.2486 55.1557 15.351C57.1721 19.8705 58.7887 25.4678 59.849 31.8125ZM23.5189 31.8125H3.2332C8.44805 18.9318 19.5035 9.0584 33.1316 5.46016C28.699 11.4051 25.2572 20.7049 23.5189 31.8125ZM1.40801 37.375H22.8062C22.4412 40.9559 22.25 44.6758 22.25 48.5C22.25 52.3242 22.4412 56.0441 22.8062 59.625H1.40801C0.486719 56.0615 0 52.3416 0 48.5C0 44.6584 0.486719 40.9385 1.40801 37.375ZM33.8443 81.6316C31.8279 77.1121 30.2113 71.5148 29.151 65.1875H59.849C58.7887 71.5148 57.1547 77.1121 55.1557 81.6316C53.3305 85.734 51.2967 88.7064 49.3324 90.5838C47.3855 92.4437 45.7689 93 44.5 93C43.2311 93 41.6145 92.4437 39.6676 90.6012C37.7033 88.7238 35.6695 85.7514 33.8443 81.649V81.6316ZM23.5189 65.1875C25.2572 76.2951 28.699 85.5949 33.1316 91.5398C19.5035 87.9416 8.44805 78.0682 3.2332 65.1875H23.5189ZM85.7668 65.1875C80.5519 78.0682 69.4965 87.9416 55.8857 91.5398C60.3184 85.5949 63.7428 76.2951 65.4984 65.1875H85.7668Z" fill="var(--justweb3-primary-color)"/>
</svg>
