<svg focusable="false" aria-hidden="true" viewBox="0 0 1000 1000" xmlns="http://www.w3.org/2000/svg" version="1.1" width="100" height="100"><path d="M0 0 C330 0 660 0 1000 0 C1000 330 1000 660 1000 1000 C670 1000 340 1000 0 1000 C0 670 0 340 0 0 Z M250 165 C249.35466309 165.29245605 248.70932617 165.58491211 248.04443359 165.88623047 C206.87677636 184.85810276 176.65387717 218.97446313 160.44335938 261.00341797 C144.90128043 303.20322744 148.19129593 349.49988675 166.65625 390.12890625 C177.5550623 413.22593546 194.54740913 434.68912192 215 450 C215.98484375 450.7734375 216.9696875 451.546875 217.984375 452.34375 C252.65422167 478.92113934 297.34505562 489.22805225 340.38183594 484.22802734 C375.83699143 479.33041989 409.02917493 463.46308644 434.56835938 438.40087891 C435.92047611 437.07781515 437.29554397 435.77832477 438.671875 434.48046875 C460.70943848 413.29840075 474.57168707 384.63358367 481.8125 355.25 C482.01963623 354.42346924 482.22677246 353.59693848 482.44018555 352.74536133 C484.0898177 345.68454641 484.42666541 339.45334964 485 332 C412.07 332 339.14 332 264 332 C264 322.76 264 313.52 264 304 C336.93 304 409.86 304 485 304 C484.35940988 295.67232843 483.70106711 288.19279148 481.8125 280.1875 C481.59182861 279.24245605 481.37115723 278.29741211 481.14379883 277.32373047 C474.30798678 249.11555256 459.37153509 223.36285607 439.38964844 202.45703125 C438.0426042 201.04467004 436.71239828 199.6163086 435.3828125 198.1875 C407.65022327 169.22052252 365.47745094 151.74538915 325.6015625 150.796875 C299.19178271 150.50089845 274.21880092 154.00765593 250 165 Z M559 204 C555.78769586 207.52771165 552.8581977 211.18195979 550 215 C549.2265625 215.98484375 548.453125 216.9696875 547.65625 217.984375 C521.07886066 252.65422167 510.77194775 297.34505562 515.77197266 340.38183594 C520.66958011 375.83699143 536.53691356 409.02917493 561.59912109 434.56835938 C562.92218485 435.92047611 564.22167523 437.29554397 565.51953125 438.671875 C586.70159925 460.70943848 615.36641633 474.57168707 644.75 481.8125 C645.57653076 482.01963623 646.40306152 482.22677246 647.25463867 482.44018555 C654.31545359 484.0898177 660.54665036 484.42666541 668 485 C668 412.07 668 339.14 668 264 C677.24 264 686.48 264 696 264 C696 336.93 696 409.86 696 485 C704.32767157 484.35940988 711.80720852 483.70106711 719.8125 481.8125 C720.75754395 481.59182861 721.70258789 481.37115723 722.67626953 481.14379883 C750.88444744 474.30798678 776.63714393 459.37153509 797.54296875 439.38964844 C798.95532996 438.0426042 800.3836914 436.71239828 801.8125 435.3828125 C830.77947748 407.65022327 848.25461085 365.47745094 849.203125 325.6015625 C849.49910155 299.19178271 845.99234407 274.21880092 835 250 C834.70754395 249.35466309 834.41508789 248.70932617 834.11376953 248.04443359 C815.14189724 206.87677636 781.02553687 176.65387717 738.99658203 160.44335938 C675.38508682 137.01541284 605.54518834 156.18798543 559 204 Z M565.43164062 561.59912109 C564.07952389 562.92218485 562.70445603 564.22167523 561.328125 565.51953125 C539.29056152 586.70159925 525.42831293 615.36641633 518.1875 644.75 C517.87679565 645.98979614 517.87679565 645.98979614 517.55981445 647.25463867 C515.9101823 654.31545359 515.57333459 660.54665036 515 668 C587.93 668 660.86 668 736 668 C736 677.24 736 686.48 736 696 C663.07 696 590.14 696 515 696 C515.64059012 704.32767157 516.29893289 711.80720852 518.1875 719.8125 C518.51850708 721.23006592 518.51850708 721.23006592 518.85620117 722.67626953 C525.69201322 750.88444744 540.62846491 776.63714393 560.61035156 797.54296875 C561.9573958 798.95532996 563.28760172 800.3836914 564.6171875 801.8125 C592.34977673 830.77947748 634.52254906 848.25461085 674.3984375 849.203125 C700.80821729 849.49910155 725.78119908 845.99234407 750 835 C750.64533691 834.70754395 751.29067383 834.41508789 751.95556641 834.11376953 C793.12322364 815.14189724 823.34612283 781.02553687 839.55664062 738.99658203 C855.09871957 696.79677256 851.80870407 650.50011325 833.34375 609.87109375 C822.4449377 586.77406454 805.45259087 565.31087808 785 550 C784.01515625 549.2265625 783.0303125 548.453125 782.015625 547.65625 C717.93136208 498.5302062 622.69527105 505.40496214 565.43164062 561.59912109 Z M202.45703125 560.61035156 C201.04467004 561.9573958 199.6163086 563.28760172 198.1875 564.6171875 C169.22052252 592.34977673 151.74538915 634.52254906 150.796875 674.3984375 C150.50089845 700.80821729 154.00765593 725.78119908 165 750 C165.29245605 750.64533691 165.58491211 751.29067383 165.88623047 751.95556641 C184.85810276 793.12322364 218.97446313 823.34612283 261.00341797 839.55664062 C303.20322744 855.09871957 349.49988675 851.80870407 390.12890625 833.34375 C413.22593546 822.4449377 434.68912192 805.45259087 450 785 C450.7734375 784.01515625 451.546875 783.0303125 452.34375 782.015625 C478.92113934 747.34577833 489.22805225 702.65494438 484.22802734 659.61816406 C479.33041989 624.16300857 463.46308644 590.97082507 438.40087891 565.43164062 C437.07781515 564.07952389 435.77832477 562.70445603 434.48046875 561.328125 C413.29840075 539.29056152 384.63358367 525.42831293 355.25 518.1875 C354.01020386 517.87679565 354.01020386 517.87679565 352.74536133 517.55981445 C345.68454641 515.9101823 339.45334964 515.57333459 332 515 C332 587.93 332 660.86 332 736 C322.76 736 313.52 736 304 736 C304 663.07 304 590.14 304 515 C266.32978261 515 229.05949505 535.18359031 202.45703125 560.61035156 Z " fill="currentColor" transform="translate(0,0)"></path></svg>