<svg focusable="false" aria-hidden="true" viewBox="0 0 65 64" width="65" height="64" fill="none" xmlns="http://www.w3.org/2000/svg"><g clip-path="url(#clip0_4436_14059)"><path d="M20.3273 26.892L32.7573 14.4671L45.1923 26.9021L52.4208 19.6686L32.7573 0L13.0938 19.6635L20.3273 26.892Z" fill="var(--justweb3-primary-color)"></path><path d="M0.75 32.0025L7.9785 24.7689L15.212 32.0025L7.9785 39.231L0.75 32.0025Z" fill="var(--justweb3-primary-color)"></path><path d="M20.3273 37.108L32.7573 49.5379L45.1923 37.1029L52.4259 44.3263L32.7623 63.9949L13.0938 44.3415L20.3273 37.108Z" fill="var(--justweb3-primary-color)"></path><path d="M50.2881 32.0025L57.5166 24.7689L64.7501 31.9974L57.5166 39.236L50.2881 32.0025Z" fill="var(--justweb3-primary-color)"></path><path d="M40.0922 31.9974L32.7575 24.6577L27.3336 30.0816L26.7068 30.7034L25.4229 31.9873L32.7575 39.3169L40.0922 32.0025V31.9974Z" fill="var(--justweb3-primary-color)"></path></g><defs><clipPath id="clip0_4436_14059"><rect width="64" height="64" fill="var(--justweb3-primary-color)" transform="translate(0.75)"></rect></clipPath></defs></svg>