<svg focusable="false" aria-hidden="true" viewBox="0 0 106 16" width="106" height="16" fill="none" xmlns="http://www.w3.org/2000/svg" style="width: 2em;"><path d="M0.251625 12.0017V10.1457H1.72363V2.65771H0.251625V0.801708H6.01163C6.69429 0.801708 7.28629 0.919042 7.78763 1.15371C8.29963 1.37771 8.69429 1.70304 8.97163 2.12971C9.25963 2.54571 9.40363 3.04704 9.40363 3.63371V3.79371C9.40363 4.30571 9.30763 4.72704 9.11563 5.05771C8.92363 5.37771 8.69429 5.62838 8.42763 5.80971C8.17163 5.98038 7.92629 6.10304 7.69163 6.17771V6.46571C7.92629 6.52971 8.18229 6.65238 8.45963 6.83371C8.73696 7.00438 8.97163 7.25504 9.16363 7.58571C9.36629 7.91638 9.46763 8.34838 9.46763 8.88171V9.04171C9.46763 9.66038 9.32363 10.1937 9.03563 10.6417C8.74763 11.079 8.34763 11.415 7.83563 11.6497C7.33429 11.8844 6.74763 12.0017 6.07563 12.0017H0.251625ZM3.83563 10.0817H5.81963C6.27829 10.0817 6.64629 9.96971 6.92363 9.74571C7.21163 9.52171 7.35563 9.20171 7.35563 8.78571V8.62571C7.35563 8.20971 7.21696 7.88971 6.93963 7.66571C6.66229 7.44171 6.28896 7.32971 5.81963 7.32971H3.83563V10.0817ZM3.83563 5.40971H5.78763C6.22496 5.40971 6.58229 5.29771 6.85963 5.07371C7.14763 4.84971 7.29163 4.54038 7.29163 4.14571V3.98571C7.29163 3.58038 7.15296 3.27104 6.87563 3.05771C6.59829 2.83371 6.23563 2.72171 5.78763 2.72171H3.83563V5.40971ZM15.0366 12.2257C14.2473 12.2257 13.538 12.0657 12.9086 11.7457C12.2793 11.4257 11.7833 10.9617 11.4206 10.3537C11.058 9.74571 10.8766 9.01504 10.8766 8.16171V7.90571C10.8766 7.05238 11.058 6.32171 11.4206 5.71371C11.7833 5.10571 12.2793 4.64171 12.9086 4.32171C13.538 4.00171 14.2473 3.84171 15.0366 3.84171C15.826 3.84171 16.5353 4.00171 17.1646 4.32171C17.794 4.64171 18.29 5.10571 18.6526 5.71371C19.0153 6.32171 19.1966 7.05238 19.1966 7.90571V8.16171C19.1966 9.01504 19.0153 9.74571 18.6526 10.3537C18.29 10.9617 17.794 11.4257 17.1646 11.7457C16.5353 12.0657 15.826 12.2257 15.0366 12.2257ZM15.0366 10.4337C15.6553 10.4337 16.1673 10.2364 16.5726 9.84171C16.978 9.43638 17.1806 8.86038 17.1806 8.11371V7.95371C17.1806 7.20704 16.978 6.63638 16.5726 6.24171C16.178 5.83638 15.666 5.63371 15.0366 5.63371C14.418 5.63371 13.906 5.83638 13.5006 6.24171C13.0953 6.63638 12.8926 7.20704 12.8926 7.95371V8.11371C12.8926 8.86038 13.0953 9.43638 13.5006 9.84171C13.906 10.2364 14.418 10.4337 15.0366 10.4337ZM24.0815 12.1297C23.4628 12.1297 22.9188 11.991 22.4495 11.7137C21.9908 11.4257 21.6335 11.031 21.3775 10.5297C21.1215 10.0284 20.9935 9.45238 20.9935 8.80171V4.06571H23.0095V8.64171C23.0095 9.23904 23.1535 9.68704 23.4415 9.98571C23.7402 10.2844 24.1615 10.4337 24.7055 10.4337C25.3242 10.4337 25.8042 10.231 26.1455 9.82571C26.4868 9.40971 26.6575 8.83371 26.6575 8.09771V4.06571H28.6735V12.0017H26.6895V10.9617H26.4015C26.2735 11.2284 26.0335 11.4897 25.6815 11.7457C25.3295 12.0017 24.7962 12.1297 24.0815 12.1297ZM30.9169 12.0017V4.06571H32.9009V5.10571H33.1889C33.3169 4.82838 33.5569 4.56704 33.9089 4.32171C34.2609 4.06571 34.7942 3.93771 35.5089 3.93771C36.1275 3.93771 36.6662 4.08171 37.1249 4.36971C37.5942 4.64704 37.9569 5.03638 38.2129 5.53771C38.4689 6.02838 38.5969 6.60438 38.5969 7.26571V12.0017H36.5809V7.42571C36.5809 6.82838 36.4315 6.38038 36.1329 6.08171C35.8449 5.78304 35.4289 5.63371 34.8849 5.63371C34.2662 5.63371 33.7862 5.84171 33.4449 6.25771C33.1035 6.66304 32.9329 7.23371 32.9329 7.96971V12.0017H30.9169ZM43.5975 12.0017C43.0748 12.0017 42.6482 11.8417 42.3175 11.5217C41.9975 11.191 41.8375 10.7537 41.8375 10.2097V5.72971H39.8535V4.06571H41.8375V1.60171H43.8535V4.06571H46.0295V5.72971H43.8535V9.85771C43.8535 10.1777 44.0028 10.3377 44.3015 10.3377H45.8375V12.0017H43.5975ZM48.7184 15.2017V13.4417H53.0384C53.337 13.4417 53.4864 13.2817 53.4864 12.9617V10.9617H53.1984C53.113 11.143 52.9797 11.3244 52.7984 11.5057C52.617 11.687 52.3717 11.8364 52.0624 11.9537C51.753 12.071 51.3584 12.1297 50.8784 12.1297C50.2597 12.1297 49.7157 11.991 49.2464 11.7137C48.7877 11.4257 48.4304 11.031 48.1744 10.5297C47.9184 10.0284 47.7904 9.45238 47.7904 8.80171V4.06571H49.8064V8.64171C49.8064 9.23904 49.9504 9.68704 50.2384 9.98571C50.537 10.2844 50.9584 10.4337 51.5024 10.4337C52.121 10.4337 52.601 10.231 52.9424 9.82571C53.2837 9.40971 53.4544 8.83371 53.4544 8.09771V4.06571H55.4704V13.4097C55.4704 13.9537 55.3104 14.3857 54.9904 14.7057C54.6704 15.0364 54.2437 15.2017 53.7104 15.2017H48.7184ZM61.4418 12.2257C60.6738 12.2257 59.9751 12.0657 59.3458 11.7457C58.7271 11.4257 58.2364 10.9617 57.8738 10.3537C57.5111 9.74571 57.3298 9.00971 57.3298 8.14571V7.92171C57.3298 7.05771 57.5111 6.32171 57.8738 5.71371C58.2364 5.10571 58.7271 4.64171 59.3458 4.32171C59.9751 4.00171 60.6738 3.84171 61.4418 3.84171C62.1991 3.84171 62.8498 3.97504 63.3938 4.24171C63.9378 4.50838 64.3751 4.87638 64.7058 5.34571C65.0471 5.80438 65.2711 6.32704 65.3778 6.91371L63.4258 7.32971C63.3831 7.00971 63.2871 6.72171 63.1378 6.46571C62.9884 6.20971 62.7751 6.00704 62.4978 5.85771C62.2311 5.70838 61.8951 5.63371 61.4898 5.63371C61.0844 5.63371 60.7164 5.72438 60.3858 5.90571C60.0658 6.07638 59.8098 6.33771 59.6178 6.68971C59.4364 7.03104 59.3458 7.45238 59.3458 7.95371V8.11371C59.3458 8.61504 59.4364 9.04171 59.6178 9.39371C59.8098 9.73504 60.0658 9.99638 60.3858 10.1777C60.7164 10.3484 61.0844 10.4337 61.4898 10.4337C62.0978 10.4337 62.5564 10.279 62.8658 9.96971C63.1858 9.64971 63.3884 9.23371 63.4738 8.72171L65.4258 9.18571C65.2871 9.75104 65.0471 10.2684 64.7058 10.7377C64.3751 11.1964 63.9378 11.559 63.3938 11.8257C62.8498 12.0924 62.1991 12.2257 61.4418 12.2257ZM69.5528 12.2257C68.9874 12.2257 68.4808 12.1297 68.0328 11.9377C67.5848 11.735 67.2274 11.447 66.9608 11.0737C66.7048 10.6897 66.5768 10.2257 66.5768 9.68171C66.5768 9.13771 66.7048 8.68438 66.9608 8.32171C67.2274 7.94838 67.5901 7.67104 68.0488 7.48971C68.5181 7.29771 69.0514 7.20171 69.6488 7.20171H71.8248V6.75371C71.8248 6.38038 71.7074 6.07638 71.4728 5.84171C71.2381 5.59638 70.8648 5.47371 70.3528 5.47371C69.8514 5.47371 69.4781 5.59104 69.2328 5.82571C68.9874 6.04971 68.8274 6.34304 68.7528 6.70571L66.8968 6.08171C67.0248 5.67638 67.2274 5.30838 67.5048 4.97771C67.7928 4.63638 68.1714 4.36438 68.6408 4.16171C69.1208 3.94838 69.7021 3.84171 70.3848 3.84171C71.4301 3.84171 72.2568 4.10304 72.8648 4.62571C73.4728 5.14838 73.7768 5.90571 73.7768 6.89771V9.85771C73.7768 10.1777 73.9261 10.3377 74.2248 10.3377H74.8648V12.0017H73.5208C73.1261 12.0017 72.8008 11.9057 72.5448 11.7137C72.2888 11.5217 72.1608 11.2657 72.1608 10.9457V10.9297H71.8568C71.8141 11.0577 71.7181 11.2284 71.5688 11.4417C71.4194 11.6444 71.1848 11.8257 70.8648 11.9857C70.5448 12.1457 70.1074 12.2257 69.5528 12.2257ZM69.9048 10.5937C70.4701 10.5937 70.9288 10.439 71.2808 10.1297C71.6434 9.80971 71.8248 9.38838 71.8248 8.86571V8.70571H69.7928C69.4194 8.70571 69.1261 8.78571 68.9128 8.94571C68.6994 9.10571 68.5928 9.32971 68.5928 9.61771C68.5928 9.90571 68.7048 10.1404 68.9288 10.3217C69.1528 10.503 69.4781 10.5937 69.9048 10.5937ZM79.5723 12.2257C78.5376 12.2257 77.6896 12.0017 77.0283 11.5537C76.3669 11.1057 75.9669 10.4657 75.8283 9.63371L77.6843 9.15371C77.7589 9.52704 77.8816 9.82038 78.0523 10.0337C78.2336 10.247 78.4523 10.4017 78.7083 10.4977C78.9749 10.583 79.2629 10.6257 79.5723 10.6257C80.0416 10.6257 80.3883 10.5457 80.6123 10.3857C80.8363 10.215 80.9483 10.007 80.9483 9.76171C80.9483 9.51638 80.8416 9.32971 80.6283 9.20171C80.4149 9.06304 80.0736 8.95104 79.6043 8.86571L79.1562 8.78571C78.6016 8.67904 78.0949 8.53504 77.6363 8.35371C77.1776 8.16171 76.8096 7.90038 76.5323 7.56971C76.2549 7.23904 76.1163 6.81238 76.1163 6.28971C76.1163 5.50038 76.4043 4.89771 76.9803 4.48171C77.5563 4.05504 78.3136 3.84171 79.2523 3.84171C80.1376 3.84171 80.8736 4.03904 81.4603 4.43371C82.0469 4.82838 82.4309 5.34571 82.6123 5.98571L80.7403 6.56171C80.6549 6.15638 80.4789 5.86838 80.2123 5.69771C79.9563 5.52704 79.6363 5.44171 79.2523 5.44171C78.8683 5.44171 78.5749 5.51104 78.3723 5.64971C78.1696 5.77771 78.0683 5.95904 78.0683 6.19371C78.0683 6.44971 78.1749 6.64171 78.3883 6.76971C78.6016 6.88704 78.8896 6.97771 79.2523 7.04171L79.7003 7.12171C80.2976 7.22838 80.8363 7.37238 81.3163 7.55371C81.8069 7.72438 82.1909 7.97504 82.4683 8.30571C82.7563 8.62571 82.9003 9.06304 82.9003 9.61771C82.9003 10.4497 82.5963 11.095 81.9883 11.5537C81.3909 12.0017 80.5856 12.2257 79.5723 12.2257ZM87.5506 12.0017C87.028 12.0017 86.6013 11.8417 86.2706 11.5217C85.9506 11.191 85.7906 10.7537 85.7906 10.2097V5.72971H83.8066V4.06571H85.7906V1.60171H87.8066V4.06571H89.9826V5.72971H87.8066V9.85771C87.8066 10.1777 87.956 10.3377 88.2546 10.3377H89.7906V12.0017H87.5506ZM95.1423 12.2257C94.3529 12.2257 93.6543 12.0604 93.0463 11.7297C92.4489 11.3884 91.9796 10.9137 91.6383 10.3057C91.3076 9.68704 91.1423 8.96171 91.1423 8.12971V7.93771C91.1423 7.10571 91.3076 6.38571 91.6383 5.77771C91.9689 5.15904 92.4329 4.68438 93.0303 4.35371C93.6276 4.01238 94.3209 3.84171 95.1102 3.84171C95.8889 3.84171 96.5663 4.01771 97.1423 4.36971C97.7183 4.71104 98.1663 5.19104 98.4862 5.80971C98.8063 6.41771 98.9663 7.12704 98.9663 7.93771V8.62571H93.1903C93.2116 9.16971 93.4143 9.61238 93.7983 9.95371C94.1823 10.295 94.6516 10.4657 95.2063 10.4657C95.7716 10.4657 96.1876 10.343 96.4543 10.0977C96.7209 9.85238 96.9236 9.58038 97.0623 9.28171L98.7103 10.1457C98.5609 10.423 98.3423 10.727 98.0543 11.0577C97.7769 11.3777 97.4036 11.655 96.9343 11.8897C96.4649 12.1137 95.8676 12.2257 95.1423 12.2257ZM93.2063 7.12171H96.9183C96.8756 6.66304 96.6889 6.29504 96.3583 6.01771C96.0383 5.74038 95.6169 5.60171 95.0943 5.60171C94.5503 5.60171 94.1183 5.74038 93.7983 6.01771C93.4783 6.29504 93.2809 6.66304 93.2063 7.12171ZM100.761 12.0017V4.06571H102.745V4.96171H103.033C103.15 4.64171 103.342 4.40704 103.609 4.25771C103.886 4.10838 104.206 4.03371 104.569 4.03371H105.529V5.82571H104.537C104.025 5.82571 103.603 5.96438 103.273 6.24171C102.942 6.50838 102.777 6.92438 102.777 7.48971V12.0017H100.761Z" fill="var(--justweb3-primary-color)"></path></svg>