<svg focusable="false" aria-hidden="true" viewBox="0 0 256 133" width="108" fill="none" xmlns="http://www.w3.org/2000/svg"><path d="M31.502 48.157v39.961h-.29L6.15 61.94v25.547H0V47.573h.316l25.01 26.13V48.158H31.5ZM42.392 67.896c0-11.18 9.09-20.323 20.248-20.323 11.158 0 20.27 9.138 20.27 20.323 0 11.184-9.138 20.175-20.296 20.175s-20.222-9.09-20.222-20.175Zm34.295-.048c0-7.754-6.345-14.072-14.073-14.072-7.728 0-14.025 6.318-14.025 14.072 0 7.755 6.297 14 14.025 14 7.728 0 14.073-6.298 14.073-14ZM132.161 47.405v40.034h-6.15V65.707l-13.005 21.075h-.047l-13.03-21.096v21.753h-6.15V47.405h.462l18.739 28.487 18.718-28.487h.463ZM169.592 81.479h-18.545l-2.672 5.955h-6.66l18.423-39.982h.363l18.423 39.982h-6.66l-2.672-5.955Zm-2.383-5.271-6.882-15.315-6.902 15.315h13.784ZM219.859 67.896c0 12.031-7.755 19.544-20.202 19.544h-11.158V48.252h11.158c12.447-.026 20.202 7.512 20.202 19.639v.005Zm-6.224-.026c0-8.313-5.398-13.516-13.999-13.516h-5.008v26.957h5.082c8.554 0 13.925-5.177 13.925-13.442ZM228.465 80.558l4.861-3.477c1.752 3.062 5.008 4.813 8.775 4.813 4.398 0 7.728-2.114 7.728-5.103 0-3.619-5.15-5.807-9.722-7.78-4.592-2.041-9.701-4.424-9.701-10.574 0-6.15 5.566-10.89 12.616-10.89 5.592 0 9.769 2.699 11.374 7.002l-4.572 3.162c-1.215-2.652-3.914-4.13-6.755-4.13-3.598 0-6.465 2.236-6.465 5.008 0 3.062 3.619 4.156 8.385 6.197C251.187 67.506 256 70.5 256 76.671c0 6.949-6.029 11.42-13.978 11.42-6.439 0-11.326-3.014-13.562-7.533h.005ZM18.455 20.07c-.48-.268-1-.531-1.568-.794a6.787 6.787 0 0 0-1.768-.537 4.66 4.66 0 0 0-1.862.095c-.631.158-1.263.526-1.894 1.1-.852.773-1.378 1.54-1.583 2.303-.206.763-.174 1.537.084 2.32.258.79.705 1.6 1.341 2.442.637.841 1.373 1.72 2.21 2.64 1.105 1.216 2.083 2.152 2.946 2.82.863.668 1.652 1.1 2.372 1.294.721.195 1.405.174 2.047-.068.642-.242 1.289-.663 1.941-1.257a4.337 4.337 0 0 0 1.142-1.61 5.336 5.336 0 0 0 .373-1.857 6.434 6.434 0 0 0-.252-1.93 8.08 8.08 0 0 0-.768-1.826l.278-.253 3.373 3.709-.28.252c-.183-.089-.341-.12-.473-.1-.131.021-.273.106-.436.258-.142.127-.29.326-.453.59a34.62 34.62 0 0 1-.568.899c-.216.337-.463.69-.747 1.063a7.691 7.691 0 0 1-.979 1.068 8.587 8.587 0 0 1-2.92 1.746 9.096 9.096 0 0 1-3.33.537 9.079 9.079 0 0 1-3.298-.726c-1.073-.453-2.02-1.131-2.851-2.041-.9-.99-1.515-2.073-1.847-3.241a9.35 9.35 0 0 1 .574-6.707c.494-1.016 1.115-1.863 1.862-2.541.374-.342.752-.621 1.136-.842a23.969 23.969 0 0 1 2.031-1.052 2.69 2.69 0 0 0 .658-.405c.163-.148.268-.28.31-.395.042-.116.01-.268-.105-.463l.279-.252 3.246 3.566-.227.206.006-.01ZM23.311 11.321l-.142-.3 3.24-1.504a55.05 55.05 0 0 0 1.768-.858 50.11 50.11 0 0 1 1.768-.857 11.221 11.221 0 0 1 1.852-.653 6.27 6.27 0 0 1 1.978-.2 4.153 4.153 0 0 1 1.799.532c.558.316 1 .831 1.33 1.547.264.573.364 1.12.295 1.646a3.49 3.49 0 0 1-.536 1.463c-.29.447-.652.852-1.09 1.22-.436.368-.888.69-1.356.958l.047.105a46.728 46.728 0 0 1 2.057-.484 5.072 5.072 0 0 1 1.694-.084c.52.073 1.005.278 1.452.631.447.347.878.894 1.294 1.641.49.868.884 1.563 1.178 2.089.295.526.553.915.769 1.178.215.263.415.416.6.453.183.037.399 0 .657-.127.284-.131.484-.326.594-.573.11-.252.205-.479.28-.69l.304.096c-.079.21-.152.405-.236.589-.08.184-.19.363-.327.531a2.968 2.968 0 0 1-.557.505 6.015 6.015 0 0 1-.931.521c-.784.363-1.458.526-2.02.484-.558-.042-1.032-.205-1.421-.474a3.431 3.431 0 0 1-.958-1.025 17.68 17.68 0 0 1-.668-1.19c-.3-.573-.605-1.12-.91-1.651a5.273 5.273 0 0 0-1.036-1.305 2.6 2.6 0 0 0-1.315-.642c-.49-.084-1.074.032-1.747.342l-1.415.658 3.593 7.744 1.973-.916.137.3L30.25 26.3l-.142-.3 1.973-.915-6.808-14.673-1.973.915.011-.005Zm9.038 3.862c.642-.3 1.11-.621 1.405-.963.294-.342.463-.705.515-1.084.047-.378.01-.768-.11-1.162a9.425 9.425 0 0 0-.453-1.174c-.294-.63-.584-1.146-.878-1.557-.295-.41-.61-.715-.947-.915-.337-.2-.716-.29-1.131-.268-.416.02-.895.157-1.442.405-.158.073-.31.152-.463.242-.152.09-.3.173-.452.263l3.078 6.628.878-.41v-.005ZM51.824 1.294l.042.326-1.852.248 5.876 7.538L59.11.652l-2.041.274L57.026.6l4.477-.6.042.326-2.04.274-3.373 9.206.995 7.428 2.177-.289.042.326-7.733 1.037-.042-.327 2.157-.289-.873-6.54-6.708-8.764-1.83.242-.043-.326 7.55-1.01ZM73.877 17.813l-.047.326-7.691-1.178.052-.326 2.152.331L70.789.979 68.638.652l.052-.326 2.152.332c.794.12 1.589.231 2.388.331.8.1 1.594.21 2.389.331.7.106 1.446.28 2.24.521a8.118 8.118 0 0 1 2.147 1 4.866 4.866 0 0 1 1.515 1.594c.374.636.49 1.41.353 2.315a3.586 3.586 0 0 1-.705 1.651c-.38.495-.9.89-1.568 1.195-.668.305-1.478.505-2.436.594-.957.095-2.057.042-3.303-.147l-.958-.147-1.163 7.596 2.152.326-.016-.005Zm-.215-8.144c1.325.205 2.33.048 3.014-.463.684-.51 1.136-1.478 1.357-2.914.206-1.357.11-2.43-.294-3.225-.405-.794-1.284-1.294-2.641-1.505a6.47 6.47 0 0 0-.92-.068L72.945 9.56l.726.11h-.01ZM94.651 7.17a6.386 6.386 0 0 0-1.488-.504 3.18 3.18 0 0 0-1.373.031c-.453.11-.916.337-1.395.69-.478.346-.994.836-1.551 1.462l-.28-.132 1.847-3.914 13.41 6.324-1.847 3.914-.278-.132c.126-.826.173-1.536.142-2.13-.032-.595-.153-1.095-.358-1.515a3.254 3.254 0 0 0-.852-1.079c-.363-.3-.81-.579-1.337-.826l-.768-.363-6.897 14.63 1.968.926-.142.3-7.039-3.32.142-.3 1.968.927 6.897-14.63-.769-.364v.006ZM108.756 20.165a9.358 9.358 0 0 1 6.745.1c1.052.426 1.946.983 2.677 1.678a8.904 8.904 0 0 1 1.915 2.667 8.906 8.906 0 0 1 .853 3.225 8.796 8.796 0 0 1-.442 3.383c-.374 1.136-1.026 2.193-1.963 3.177a8.1 8.1 0 0 1-2.846 1.947 9.2 9.2 0 0 1-3.335.694 9.286 9.286 0 0 1-3.351-.558 8.32 8.32 0 0 1-2.925-1.815 8.493 8.493 0 0 1-1.968-2.804 9.125 9.125 0 0 1-.778-3.282 8.987 8.987 0 0 1 .484-3.341c.373-1.105.984-2.1 1.831-2.988.92-.973 1.957-1.663 3.098-2.078l.005-.005Zm-2.909 7.886c-.605.915-.984 1.74-1.131 2.477-.147.742-.079 1.42.211 2.041.289.621.752 1.237 1.394 1.847.847.805 1.657 1.278 2.435 1.42a3.947 3.947 0 0 0 2.32-.278c.768-.327 1.542-.837 2.326-1.542.783-.7 1.599-1.494 2.446-2.388.757-.8 1.457-1.589 2.099-2.362.636-.774 1.099-1.552 1.389-2.336a4.098 4.098 0 0 0 .168-2.352c-.173-.789-.694-1.588-1.552-2.404-.799-.757-1.583-1.215-2.351-1.368-.768-.152-1.537-.073-2.31.237-.773.31-1.557.805-2.351 1.484a32.51 32.51 0 0 0-2.483 2.372c-1.132 1.19-2 2.241-2.605 3.151h-.005ZM182.039 114.18c.168-.552.321-1.152.458-1.794a7.098 7.098 0 0 0 .147-1.936 4.96 4.96 0 0 0-.521-1.894c-.31-.615-.831-1.178-1.562-1.694-.989-.699-1.899-1.068-2.725-1.099-.826-.037-1.615.168-2.368.615-.752.442-1.483 1.089-2.204 1.936-.715.842-1.457 1.8-2.21 2.873-.994 1.41-1.736 2.635-2.225 3.672-.489 1.036-.752 1.946-.789 2.735-.037.79.142 1.484.537 2.089.394.605.973 1.173 1.73 1.71.611.431 1.247.699 1.915.805a5.638 5.638 0 0 0 1.994-.043 6.797 6.797 0 0 0 1.926-.699 8.49 8.49 0 0 0 1.704-1.205l.326.232-3.04 4.313-.327-.231c.048-.211.042-.379-.005-.505-.053-.126-.174-.258-.363-.395-.163-.115-.4-.226-.71-.331-.31-.105-.663-.232-1.058-.379a18.776 18.776 0 0 1-1.262-.526 8.483 8.483 0 0 1-1.321-.763 8.975 8.975 0 0 1-2.456-2.604 9.55 9.55 0 0 1-1.31-3.298 9.506 9.506 0 0 1-.006-3.551c.221-1.205.705-2.336 1.452-3.394.811-1.152 1.784-2.03 2.91-2.635a9.85 9.85 0 0 1 7.028-.937c1.157.279 2.168.721 3.036 1.337.436.305.81.631 1.125.978.316.342.6.673.858.984.258.315.484.6.684.863.2.263.389.457.563.584.189.131.347.21.478.231.127.021.279-.053.453-.21l.326.231-2.93 4.151-.263-.184.005-.032ZM196.527 113.286l-.068.342-2.247-.442-3.277 16.708 4.029.789a5.424 5.424 0 0 0 1.679.053 4.655 4.655 0 0 0 1.715-.589c.563-.321 1.099-.774 1.609-1.358.511-.584.968-1.325 1.363-2.23l.316.063-1.084 5.518-15.488-3.04.069-.342 2.246.442 3.283-16.709-2.247-.442.069-.341 8.033 1.578ZM214.614 112.981l.079.336-2.226.537 2.61 10.869c.184.757.394 1.488.642 2.188.247.7.568 1.3.968 1.799.399.5.904.863 1.515 1.084.605.221 1.357.226 2.241.011.873-.211 1.578-.484 2.12-.826.542-.342.963-.726 1.273-1.152.305-.421.516-.869.626-1.331.11-.463.163-.911.163-1.347 0-.437-.037-.837-.11-1.205a18.63 18.63 0 0 0-.195-.915l-2.73-11.374-2.205.526-.079-.337 4.84-1.162.085.336-2.252.542 2.725 11.353c.063.258.131.589.21.984.079.4.116.831.106 1.294a6.608 6.608 0 0 1-.195 1.431 3.727 3.727 0 0 1-.71 1.41c-.353.452-.831.868-1.442 1.241-.61.379-1.399.679-2.367.916-1.568.373-2.867.505-3.898.384-1.037-.116-1.873-.395-2.515-.832a4.281 4.281 0 0 1-1.462-1.657 9.966 9.966 0 0 1-.758-2.093l-2.715-11.306-2.251.542-.079-.337 7.986-1.915v.006ZM226.25 109.713l-.216-.273 2.967-2.31a48.515 48.515 0 0 0 1.61-1.299 57.606 57.606 0 0 1 1.61-1.299c.51-.395 1.089-.763 1.736-1.095a6.717 6.717 0 0 1 1.957-.668 4.282 4.282 0 0 1 1.931.111c.626.184 1.183.589 1.673 1.22.436.563.657 1.152.668 1.768a4.62 4.62 0 0 1-.332 1.783 7.136 7.136 0 0 1-.863 1.584c-.352.484-.668.868-.952 1.147l.063.078a13.505 13.505 0 0 1 1.789-.983 6.533 6.533 0 0 1 1.994-.558c.679-.074 1.347 0 2.004.226.658.226 1.258.684 1.799 1.379.59.757.884 1.536.89 2.335 0 .8-.164 1.558-.5 2.278a7.833 7.833 0 0 1-1.31 1.984 12.513 12.513 0 0 1-1.563 1.483c-.552.426-1.104.847-1.657 1.257a86.26 86.26 0 0 0-1.657 1.258l-2.967 2.309-.216-.273 1.81-1.405-10.453-13.441-1.81 1.404h-.005Zm10.185 1.826c.589-.458.994-.9 1.21-1.321.215-.42.31-.831.268-1.236a2.885 2.885 0 0 0-.384-1.168 10.476 10.476 0 0 0-.742-1.094 9.995 9.995 0 0 0-1.273-1.394c-.4-.353-.794-.589-1.189-.716a2.053 2.053 0 0 0-1.22-.01c-.421.121-.884.373-1.379.757a5.403 5.403 0 0 0-.415.358c-.132.126-.269.253-.4.374l4.719 6.071.805-.626v.005Zm6.108 7.165c.42-.326.757-.668 1.015-1.026.258-.358.394-.768.421-1.226.021-.457-.095-.983-.353-1.567-.258-.589-.699-1.284-1.32-2.084-.174-.22-.426-.505-.753-.847a4.24 4.24 0 0 0-1.188-.857 3.331 3.331 0 0 0-1.547-.326c-.568.01-1.184.273-1.836.784l-1.142.883 5.519 7.092c.384-.237.778-.51 1.184-.826Z" fill="#fff"></path></svg>