<svg focusable="false" aria-hidden="true" viewBox="0 0 93 94" width="93" height="94" fill="none" xmlns="http://www.w3.org/2000/svg"><path d="M46.4947 29.913C55.665 29.913 63.1 37.3538 63.1 46.5313C63.1 55.7087 55.665 63.1496 46.4947 63.1496C37.3245 63.1496 29.8895 55.7087 29.8895 46.5313C29.8895 37.3538 37.3245 29.913 46.4947 29.913ZM46.4947 0C40.2304 0 34.1404 1.23391 28.3867 3.66849C22.8447 6.01167 17.8756 9.36442 13.6163 13.627C9.35706 17.8896 6.00695 22.8626 3.66561 28.409C1.23294 34.1631 0 40.262 0 46.5313C0 52.8005 1.23294 58.8953 3.66561 64.6535C6.00695 70.1999 9.35706 75.1729 13.6163 79.4355C17.8756 83.6981 22.8447 87.0508 28.3867 89.394C34.1362 91.8286 40.2304 93.0625 46.4947 93.0625C52.759 93.0625 58.849 91.8286 64.6027 89.394C70.1447 87.0508 75.1139 83.6981 79.3731 79.4355C83.6324 75.1729 86.9825 70.1999 89.3238 64.6535C91.7565 58.8994 92.9894 52.8005 92.9894 46.5313C92.9894 40.262 91.7565 34.1672 89.3238 28.409C86.9825 22.8626 83.6324 17.8896 79.3731 13.627C75.1139 9.36442 70.1447 6.01167 64.6027 3.66849C58.8532 1.23391 52.759 0 46.4947 0Z" fill="var(--justweb3-primary-color)"></path><path d="M46.4947 29.9129C55.6649 29.9129 63.1 37.3538 63.1 46.5312C63.1 55.7087 55.6649 63.1495 46.4947 63.1495C37.3244 63.1495 29.8894 55.7087 29.8894 46.5312C29.8894 37.3538 37.3244 29.9129 46.4947 29.9129ZM46.4947 9.97095C26.3525 9.97095 9.96313 26.3732 9.96313 46.5312C9.96313 66.6892 26.3525 83.0915 46.4947 83.0915C66.6369 83.0915 83.0263 66.6892 83.0263 46.5312C83.0263 26.3732 66.6369 9.97095 46.4947 9.97095Z" fill="black"></path><path fill-rule="evenodd" clip-rule="evenodd" d="M63.0142 44.8323C62.1638 36.4528 55.0918 29.913 46.4947 29.913C46.4947 29.913 46.4947 29.913 46.4947 29.913C45.3484 29.913 44.2292 30.0293 43.1483 30.2506C40.9851 30.6937 38.9751 31.5577 37.2075 32.7535C32.7923 35.7403 29.8894 40.7968 29.8894 46.5313C29.8894 48.8257 30.3541 51.0115 31.1944 52.9997C33.7154 58.9641 39.617 63.1496 46.4947 63.1496C55.6649 63.1496 63.0999 55.7088 63.0999 46.5313C63.0999 45.9577 63.0709 45.3909 63.0142 44.8323ZM19.9263 46.5313C19.9263 31.8698 31.8447 19.942 46.4947 19.942C61.1447 19.942 73.0631 31.8698 73.0631 46.5313C73.0631 61.1928 61.1447 73.1206 46.4947 73.1206C31.8447 73.1206 19.9263 61.1928 19.9263 46.5313Z" fill="var(--justweb3-primary-color)"></path><path d="M46.4947 29.913C55.6649 29.913 63.0999 37.3538 63.0999 46.5313C63.0999 55.7087 55.6649 63.1496 46.4947 63.1496C37.3244 63.1496 29.8894 55.7087 29.8894 46.5313C29.8894 37.3538 37.3244 29.913 46.4947 29.913Z" fill="black"></path></svg>