<svg color="white" focusable="false" aria-hidden="true" viewBox="0 0 19 20" xmlns="http://www.w3.org/2000/svg" width="19" height="20" fill="none"><path d="M3.00959 8.10878C3.20327 8.52905 3.68745 9.36959 3.68745 9.36959L9.23133 0L3.8327 3.85661C3.51799 4.07911 3.25169 4.37577 3.05801 4.72188C2.54962 5.78492 2.54962 7.02101 3.00959 8.10878Z" fill="currentColor"></path><path d="M0.8308 11.1748C0.951846 12.9795 1.84758 14.6606 3.25171 15.7484L9.23135 20.0006C9.23135 20.0006 5.47894 14.4876 2.33176 8.99932C2.01705 8.43072 1.79916 7.78795 1.70233 7.12046C1.65391 6.82379 1.65391 6.52713 1.70233 6.23047C1.6297 6.3788 1.46024 6.70018 1.46024 6.70018C1.14552 7.36768 0.927637 8.08461 0.806591 8.82627C0.733964 9.61737 0.733964 10.4085 0.8308 11.1748Z" fill="currentColor"></path><path d="M16.0825 11.9171C15.8888 11.4968 15.4047 10.6562 15.4047 10.6562L9.86078 20.0011L15.2836 16.1692C15.5983 15.9467 15.8646 15.6501 16.0583 15.304C16.5425 14.2409 16.5667 13.0048 16.0825 11.9171Z" fill="currentColor"></path><path d="M18.2855 8.82571C18.1645 7.02101 17.2687 5.33993 15.8646 4.25216L9.88498 0C9.88498 0 13.6374 5.51298 16.7846 11.0012C17.0993 11.5698 17.3172 12.2126 17.414 12.8801C17.4624 13.1768 17.4624 13.4734 17.414 13.7701C17.4866 13.6218 17.6561 13.3004 17.6561 13.3004C17.9708 12.6329 18.1887 11.9159 18.3097 11.199C18.3582 10.3832 18.3582 9.61681 18.2855 8.82571Z" fill="currentColor"></path><path d="M3.05788 4.72188C3.25156 4.37577 3.49365 4.07911 3.83257 3.85661L9.2312 0L3.68732 9.34487C3.68732 9.34487 3.20314 8.50433 3.00947 8.08405C2.54949 7.02101 2.54949 5.78492 3.05788 4.72188ZM0.830648 11.1743C0.951693 12.979 1.84743 14.6601 3.25156 15.7478L9.2312 20C9.2312 20 5.47879 14.487 2.33161 8.99876C2.01689 8.43016 1.79901 7.78739 1.70217 7.1199C1.65376 6.82324 1.65376 6.52658 1.70217 6.22991C1.62955 6.37824 1.46008 6.69963 1.46008 6.69963C1.14537 7.36712 0.927484 8.08405 0.806439 8.82571C0.733812 9.61681 0.733812 10.4079 0.830648 11.1743ZM16.0824 11.9159C15.8887 11.4957 15.4045 10.6551 15.4045 10.6551L9.86063 20L15.2835 16.1681C15.5982 15.9456 15.8645 15.6489 16.0582 15.3028C16.5423 14.2398 16.5666 13.0037 16.0824 11.9159ZM18.2612 8.85043C18.1401 7.04574 17.2444 5.36465 15.8403 4.27689L9.88484 0C9.88484 0 13.6373 5.51298 16.7844 11.0012C17.0992 11.5698 17.317 12.2126 17.4139 12.8801C17.4623 13.1768 17.4623 13.4734 17.4139 13.7701C17.4865 13.6218 17.656 13.3004 17.656 13.3004C17.9707 12.6329 18.1886 11.9159 18.3096 11.199C18.358 10.3832 18.358 9.61681 18.2612 8.85043Z" fill="currentColor"></path></svg>