<svg focusable="false" aria-hidden="true" viewBox="0 0 65 64" xmlns="http://www.w3.org/2000/svg" width="65" height="64" fill="none"><path fill-rule="evenodd" clip-rule="evenodd" d="M21.4727 31.7089L32.2493 14.7732L43.0264 31.7089L32.2493 37.8667L21.4727 31.7089Z" fill="currentColor"></path><path fill-rule="evenodd" clip-rule="evenodd" d="M21.4727 34.6023L32.2493 40.7609L43.0264 34.6023L32.2493 49.2284L21.4727 34.6023Z" fill="currentColor"></path><path fill-rule="evenodd" clip-rule="evenodd" d="M37.1507 7.90235C35.477 8.68332 33.8473 9.55537 32.2689 10.5146C30.6807 9.54465 29.0372 8.6684 27.3467 7.89032C28.9247 6.82366 30.5553 5.83705 32.2324 4.9342C33.9195 5.8424 35.5609 6.83298 37.1507 7.90235Z" fill="currentColor"></path><path fill-rule="evenodd" clip-rule="evenodd" d="M60.163 4.08778C54.2468 -1.82765 43.4665 -1.12103 32.2324 4.93565C33.9195 5.84385 35.5609 6.83442 37.1507 7.9038C41.4995 5.89267 45.6422 4.81447 49.1512 4.81447C52.2886 4.81447 54.9213 5.67478 56.7463 7.49973C60.6184 11.3719 60.1582 18.8663 56.3466 27.0999C57.4147 28.6903 58.4051 30.3315 59.3143 32.0178C65.3713 20.7844 66.078 10.0032 60.1622 4.08778H60.163Z" fill="currentColor"></path><path fill-rule="evenodd" clip-rule="evenodd" d="M37.1503 7.90466C35.4766 8.68563 33.8469 9.55768 32.2686 10.5169C40.9926 15.9137 48.338 23.2703 53.7216 32.0026C54.6839 30.417 55.5599 28.7807 56.3458 27.1007C53.796 23.3257 50.8875 19.8058 47.6609 16.59C44.4478 13.3602 40.9279 10.4513 37.1503 7.90466Z" fill="currentColor"></path><path fill-rule="evenodd" clip-rule="evenodd" d="M59.3146 32.0198C58.4078 33.7003 57.4186 35.3352 56.3509 36.9184C55.5653 35.2335 54.6879 33.593 53.7227 32.0041C54.6849 30.4186 55.561 28.7823 56.3469 27.1023C57.415 28.6927 58.4054 30.3335 59.3146 32.0198Z" fill="currentColor"></path><path fill-rule="evenodd" clip-rule="evenodd" d="M56.3502 36.9142C55.5646 35.2295 54.6872 33.5891 53.722 32.0004C51.0539 36.3637 47.8722 40.3914 44.245 43.997C40.6465 47.6262 36.6257 50.8107 32.2686 53.482C33.8452 54.4443 35.475 55.3164 37.1503 56.0943C40.9278 53.5476 44.448 50.6387 47.6609 47.4089C50.8892 44.1992 53.7992 40.6846 56.3502 36.9142Z" fill="currentColor"></path><path fill-rule="evenodd" clip-rule="evenodd" d="M62.7744 40.1166C61.8785 37.3137 60.7199 34.6017 59.3139 32.0167C58.407 33.697 57.4179 35.3316 56.3502 36.9146C60.1582 45.1441 60.6184 52.6301 56.7458 56.4982C52.8737 60.3704 45.3833 59.9066 37.1503 56.0946C36.8112 56.3249 36.4721 56.5468 36.1327 56.7647C34.8638 57.5824 33.5627 58.3489 32.2324 59.0623C38.2124 62.2885 44.0632 63.9967 49.1227 63.9967C53.5642 63.9967 57.3963 62.6805 60.1622 59.9146C64.4906 55.5858 65.4151 48.556 62.7744 40.1166Z" fill="currentColor"></path><path fill-rule="evenodd" clip-rule="evenodd" d="M37.1507 56.0964C36.8116 56.3267 36.4726 56.5486 36.1331 56.7665C34.8642 57.5842 33.5631 58.3506 32.2328 59.0641C30.5564 58.1599 28.9257 57.1735 27.3467 56.1084C29.0372 55.3303 30.6807 54.4541 32.2689 53.4841C33.8459 54.4464 35.4754 55.3183 37.1507 56.0964Z" fill="currentColor"></path><path fill-rule="evenodd" clip-rule="evenodd" d="M22.6872 57.9152C16.0487 59.9945 10.7433 59.4897 7.75107 56.4975C4.75886 53.5057 4.25448 48.1998 6.33381 41.5617C6.83599 39.973 7.43883 38.4179 8.13868 36.9058C7.07511 35.3259 6.08872 33.6954 5.183 32.02C3.77846 34.6037 2.6213 37.3144 1.72694 40.1159C-0.917372 48.5553 0.011146 55.585 4.33513 59.9139C7.04886 62.6232 10.8203 64 15.3345 64C18.3238 63.9548 21.289 63.4565 24.1289 62.5221C26.9331 61.6262 29.6464 60.4676 32.2328 59.0616C30.5565 58.1574 28.926 57.171 27.347 56.1059C25.8343 56.8082 24.2779 57.4126 22.6876 57.9152H22.6872Z" fill="currentColor"></path><path fill-rule="evenodd" clip-rule="evenodd" d="M27.3462 56.1066C29.0367 55.3285 30.6803 54.4522 32.2685 53.4823C27.8969 50.8142 23.8624 47.6296 20.2519 43.9972C16.6196 40.3867 13.4351 36.3522 10.7669 31.9806C9.79727 33.5709 8.91974 35.2156 8.13867 36.9065C10.6939 40.6796 13.6079 44.1969 16.84 47.4092C20.0507 50.6434 23.5694 53.5563 27.3462 56.1066Z" fill="currentColor"></path><path fill-rule="evenodd" clip-rule="evenodd" d="M10.767 31.9808C9.79731 33.5711 8.91978 35.2158 8.13871 36.9067C7.07499 35.3268 6.08847 33.6963 5.18262 32.0209C6.09126 30.3321 7.08319 28.6894 8.15476 27.099C8.93259 28.7743 9.80472 30.4042 10.767 31.9808Z" fill="currentColor"></path><path fill-rule="evenodd" clip-rule="evenodd" d="M7.75129 7.49953C10.7435 4.50771 16.0494 4.00292 22.6874 6.08628C24.277 6.58914 25.8333 7.19197 27.3469 7.89116C28.9249 6.82465 30.5555 5.83816 32.2326 4.93545C29.6471 3.52775 26.9336 2.36903 24.1288 1.47495C15.6939 -1.16536 8.66416 -0.240851 4.33536 4.08758C1.56947 6.85349 0.25293 10.6856 0.25293 15.1276C0.25293 20.1871 1.9611 26.0419 5.18322 32.022C6.09187 30.3332 7.0838 28.6905 8.15536 27.1001C4.34338 18.8661 3.87912 11.3717 7.75129 7.49953Z" fill="currentColor"></path><path fill-rule="evenodd" clip-rule="evenodd" d="M27.3468 7.89148C19.7949 13.026 13.2832 19.5436 8.15527 27.1C8.9331 28.7753 9.80524 30.4051 10.7675 31.9818C16.1653 23.2497 23.528 15.8993 32.269 10.5161C30.6808 9.54621 29.0373 8.66956 27.3468 7.89148Z" fill="currentColor"></path></svg>