<svg focusable="false" aria-hidden="true" viewBox="0 0 115 40" fill="none" height="40" width="115" xmlns="http://www.w3.org/2000/svg"><g fill="#f6f6f6"><path d="m39.8915 17.4185h-20.3847v7.3069l11.1461.176c-.2098.7982-.4871 1.5386-.844 2.2138-.8609 1.6302-2.0884 2.877-3.6824 3.7355-1.594.8609-3.5257 1.2901-5.7973 1.2901-2.2355 0-4.213-.5136-5.9324-1.5385-1.7218-1.0249-3.0771-2.4526-4.0658-4.2853-.98875-1.8304-1.48311-3.9549-1.48311-6.3737 0-2.4187.50401-4.5336 1.50961-6.3471 1.008-1.8135 2.4067-3.2218 4.2033-4.22983 1.7942-1.00802 3.8271-1.50962 6.0987-1.50962 2.1246 0 4.0297.40273 5.713 1.20818 1.6832.80545 3.1494 2.01367 4.3962 3.62697l5.8793-5.87934c-1.7942-2.12455-4.0562-3.79092-6.7861-4.99909-2.7298-1.208178-5.7611-1.81347-9.0938-1.81347-2.8939 0-5.6044.50401-8.1317 1.50962-2.5273 1.00801-4.73383 2.41876-6.61964 4.22981-1.88582 1.81347-3.36167 3.92838-4.42274 6.34717-1.063484 2.4187-1.59402 5.0376-1.59402 7.8567 0 2.8215.520891 5.4477 1.56508 7.8833 1.04419 2.4356 2.48146 4.5602 4.31181 6.3737 1.83035 1.8134 3.98384 3.2338 6.45561 4.2587 2.4719 1.0249 5.1173 1.5386 7.9388 1.5386 3.8464 0 7.2418-.8055 10.1911-2.4188 2.9469-1.6109 5.2547-4.0007 6.9235-7.1695 1.6664-3.1687 2.5008-7.0778 2.5008-11.7296v-1.2612z"></path><path d="m78.7894 34.4511-5.8238-5.8239c-1.0635 1.0997-2.3272 1.9606-3.791 2.5828-1.4662.6222-3.1856.9332-5.1655.9332-1.6856 0-3.2338-.2917-4.6421-.8802-1.4108-.586-2.619-1.4107-3.627-2.4718-1.008-1.061-1.7942-2.344-2.3633-3.8464-.5691-1.5023-.8512-3.1687-.8512-4.9991 0-1.7941.2821-3.4412.8512-4.9436.5667-1.5024 1.3553-2.7829 2.3633-3.8464 1.008-1.061 2.2162-1.87614 3.627-2.44526 1.4107-.5667 2.9565-.85127 4.6421-.85127 1.9052 0 3.5788.31109 5.0281.93327 1.4469.62217 2.6816 1.48306 3.7089 2.58276l5.7684-5.82386c-1.7942-1.72183-3.8922-3.07711-6.2917-4.06583-2.3995-.988727-5.1365-1.48308875-8.2137-1.48308875-2.8938 0-5.5778.50400775-8.0496 1.50961875-2.4718 1.00801-4.6253 2.40911-6.4557 4.20329-1.8328 1.79417-3.2604 3.91149-4.2853 6.34717-1.0249 2.4356-1.5385 5.0642-1.5385 7.8832 0 2.8215.5136 5.4477 1.5385 7.8833 1.0249 2.4357 2.4622 4.5699 4.3142 6.4002 1.8497 1.8328 4.0104 3.2508 6.4822 4.2588s5.1559 1.512 8.0497 1.512c3.1495 0 5.9251-.4944 8.3246-1.4831 2.3971-.9887 4.5313-2.344 6.4002-4.0658z"></path><path d="m92.1396 23.4087h.9019l11.5705 15.9884h10.22l-12.429-16.273c1.319-.2339 2.537-.6125 3.639-1.143 1.978-.9526 3.516-2.2813 4.616-3.9839 1.099-1.7025 1.649-3.6896 1.649-5.9613 0-2.23304-.55-4.21291-1.649-5.93474-1.1-1.72183-2.619-3.06746-4.56-4.03689-1.942-.96944-4.194-1.456565-6.7576-1.456565h-15.8244v38.789395h8.626v-15.9884zm6.2073-16.09936c1.7221 0 3.0411.45819 3.9551 1.37457.916.91638 1.374 2.06909 1.374 3.46049 0 1.5024-.467 2.6913-1.401 3.5715-.933.8802-2.262 1.3191-3.9836 1.3191h-6.1542v-9.72566z"></path></g></svg>