<svg focusable="false" aria-hidden="true" viewBox="-45 45 400 234" fill="currentColor" xmlns="http://www.w3.org/2000/svg" width="100" height="100"><g><g><path d="M132.08,10.8h0c-2.47-1.23,7.41-8.66,14.8-10.19,2.78-.57,8.55-.74,9.23-.52-.15,.01-.34,.04-.5,.06-.06,0-.13,.02-.19,.02-.06,0-.12,.02-.18,.02-.06,0-.11,.02-.17,.02-.05,0-.11,.02-.16,.02-.05,0-.1,.02-.15,.02-.04,0-.09,.02-.14,.02s-.09,.01-.13,.01c-.04,0-.08,.01-.11,.01-.05,.02-.12,.05-.17,.07,7.25-.11,11.06-.06,11.42,.18-.09,.09-17.24,4.99-20.7,3.64-2.15-.84-4.98,1.69-5.09,1.97,.32,.44,1.44,.18,2.98-.24,2.68-.74,3.24-.8,3.85-.6,.02,.06,.05,.13,.07,.19-.71,1.11-9.73,5.53-10.95,5.58-.24-.04-.46-.16-.67-.29h-.02c-.3-.19-.61-.36-1-.26-1.11,.29-1.78,.39-2.02,.27Zm.33-7.78h0c-1.08,.63-4.26,1.39-3.44,.36,.24-.32,.72-.57,.94-.69,.05-.03,.09-.05,.14-.07,.87-.37,1.61-.63,4.59-1.05l5.38-.66,3.95-.37c.66-.05,.8-.05,.97-.05h.06c-.06,.09-.3,.19-.71,.32-7.89,2.45-8.39,3.82-8.39,3.83,.14,.03,.28,.03,.42,.04,0,.17,0,.23-.57,.7-.06,.04-.13,.09-.18,.14-2.63,2.04-2.98,2.07-3.3,2.11-.2,.02-.37,.04-.83,.42-1.25,1.03-2.15,2.42-3.47,3.37-.43,.31-1,.5-1.28,.22-.38-.38-.75-.15-1.12,.07h0c-.19,.13-.39,.25-.6,.28-.55-.05-.19-1.27,1.28-2.69,.72-.7,.74-.75,.74-.93h0c-.1-.06-.14-.09-.58-.03-.46,.07-1.66,.25-.97-.93,.64-1.09,2.02-1.99,3.43-2.25,2.25-.41,3.19-.57,5.48-2.62-.01-.04-.04-.08-.05-.11-.04,0-1,.06-1.88,.59Zm21.1-1.87c-2.37-.08-4.29,.42-5.22,.72h0c-.32,.1-.51,.19-.53,.3-.11,.68,5.33-.03,6.13-.8,.14-.13,0-.2-.38-.22Zm4.38,2.07c.9,.64,4.03,.18,5.82-.15,2.95-.55,4.64-.17,5.12,.11-.02,.08-.05,.18-.06,.25-1.06,.52-5.52,1.29-6.13,.85-3.52-2.55-20.87,2.85-22.38,6.97,.47,.42,.95,.3,1.44,.17h.02s0,0,0,0c.27-.07,.54-.14,.82-.12,.03,.13,.02,.26,0,.38,0,.02,0,.03,0,.05,0,.08-.01,.16-.01,.23,.1,.07,.24,.16,.37,.19,.23,0,.43,0,1.08-.15,6.71-1.46,13.07-4.18,19.75-5.72,3.7-.85,9.13-1.36,11.45-1.59,5.37-.51,6.81-.74,7.35-1.21,0-.07,0-.16-.01-.23-1.13-.91-11.29-2.86-19.98-1.5-1.65,.26-4.44,.8-4.64,1.48Zm-48.56,4.39c.05,.05,.39,.27,1.01,.64,.22,.13,.31,.24,.47,1.05,.23,1.14,.71,1.97,1.77,3.04,1.74,1.77,2.49,1.56,2.85,1.46h0c.72-.26,1.19-.91,1.92-1.16,.34-.11,.69-.1,1.05-.09h0c.37,.01,.75,.03,1.11-.11,.18-.07,.55-.22,1.06-.65,.19-.17,.61-.52,1.26-1.28,.05-.06,.11-.13,.16-.19,1.28-1.53,2.17-3.31,3.28-4.95,.79-1.17,2.25-1.55,3.09-2.65-.02-.03-.05-.06-.07-.09-.24,0-1.56,.22-3.96,.69-3.86,.87-9,2.12-12.82,3.14l-.12,.04c-1.4,.42-2.29,.76-2.07,1.08,0,0,.01,.01,.02,.03Zm83.84-3.81h.08c.73,.18,1.08,.25,1.64,.39-.53-.12-1.1-.25-1.71-.39Zm1.71,.39c4.82,1.11,6.57,1.57,11.29,3.03-1.75-.49-4.31-1.17-8.93-2.4-1.23-.33-1.88-.51-2.37-.63Zm-79.86,2.88c.14-.99,1.97-1.64,3.47-1.99,2.45-.55,2.5-.08,1.72,1.17-.33,.53-1.89,2.72-2.91,2.96-.95,.22-2.12-1.06-2.26-1.77-.03-.13-.03-.25-.01-.37Zm60.59-.73h-.02c-2.98,.45-9.92,1.81-9.98,1.82-2.64,.55-4.14,.83-4.51,.84-.6,.02-1.18-.1-1.76-.21l-.08-.02h0c-.75-.16-1.49-.32-2.27-.19-.1,.01-2.52,.4-6.07,1.63-.42,.14-4.14,1.45-5.88,2.64-.01,.09-.04,.21-.05,.29,.73,0,1.43-.22,2.12-.44,.9-.29,1.79-.57,2.76-.38-1.13,.82-2.67,.75-3.71,1.74,.22,.04,.42,0,.64-.04,.31-.06,.62-.11,.92,.06-.04,.06-.11,.15-.15,.22h0c.4,.14,.57,.19,8.28-1.9,3.18-.86,7.43-1.94,12.13-2.66,3.7-.56,7.43-.67,11.16-.73-2.87,.2-4.99,.75-5.54,1.74,.32,.24,.99,.75,7.63,.52,5.22-.18,5.68,.68,5.84,1-.89,.49-22.32,1.73-23.4,1.36,.03-.08,.06-.19,.09-.27,1.49-.67,3.34-.27,4.62-1.55-.73-1.28-6.66-.19-8.45,.18-3.61,.73-10.17,2.55-10.4,3.54,.66,.34,1.34,.29,2.02,.22h0c.34-.03,.69-.06,1.03-.04,.05,.07,.11,.16,.16,.24-.49,.32-.83,.56-1.01,.72v.28c.08,.03,.19,.08,.27,.09,.13,.03,.62,.05,1.14,.04,.1,0,.23,0,.33,0,7.9-.23,15.71-1.47,23.58-2.04,3.83-.28,7.65,.03,11.46,.34h0c3.65,.3,7.29,.6,10.95,.38,3.22-.19,4.61-.79,4.14-1.78-1.28-2.66-11.66-4.74-19.89-5.02,3.23-.05,6.45-.17,9.66-.6,1-.14,1.08-.22,1.29-.42-.77-1.08-6.97-2.44-14.55-2.04-2.02,.11-3.83,.37-4.51,.47Zm-19.83,.12h0c-1.55,.89-6.61,2.13-6.26,1.18,.14-.37,1.32-.79,1.71-.93,1.68-.6,3.6-.93,4.48-.79,.56,.15,.34,.37,.06,.53Zm47.76,.37h0c.72-.06,2.84,.5,4.5,.98-.67-.21-1.28-.39-1.86-.57,2.1,.58,3.05,.9,5.01,1.56,0,0,0,0,0,0l.09,.03-.09-.03c.08,.02,.16,.04,.24,.07h-.01c.6,.2,1.23,.41,1.89,.65l.22,.08,3.3,1.21c1.71,.65,7.57,3.04,9.21,3.77l4.14,1.91c1.72,.88,3.68,1.89,5.67,2.94-7.74-3.86-13.12-5.4-16.65-6.41-3.93-1.12-7.44-2.4-10.53-3.85-.05-.03-.12-.07-.18-.11,.56-.05,1.09,.06,1.63,.19,.32,.07,.65,.14,.98,.18-2.28-1.57-5.27-1.08-7.56-2.59Zm-101.17,3.96h0c-.35-.06-1.67-.04-3.95,.07,0,0,0-.02,.01-.04l.11-.04c2.58-.92,6.01-2.14,8.6-2.98,.32-.1,.47-.14,.6,.03,.51,.66,.51,1.56,1.03,2.21,.64,.79,1.41,1.47,1.94,2.35,.44,.71,.63,1.56,.44,1.94-.05,.09-.13,.17-.19,.19-.13,.08-.28,.06-.44,.04h0c-.21-.03-.42-.06-.6,.16-.26,.34-.43,.52-.52,.55-.44,.09-.72-.19-1-.47h0c-.31-.31-.62-.62-1.14-.42-.29,.11-.31,.32-.31,.84h0c0,.52,.01,1.02-.85,.97-.78-.04-2.35-.7-3.36-1.28-1.65-.96-1.45-1.38-1.36-1.56,.12-.26,.46-.41,1.75-.88,.59-.22,.9-.39,1.02-.53,.32-.4-1.43-1.06-1.81-1.13Zm143.36,14.89h.01c-6.38-3.48-7.1-4.15-7.5-4.51,1.18-.08,7.36,3.65,10.47,5.63,3.04,2.06,7.09,4.84,10.06,7l1.81,1.38c5.73,4.46,5.95,5.32,6.02,5.6-.82,.11-2.52-.75-10.41-5.8-4.12-2.63-6.25-3.9-8.15-4.85-6.88-3.42-14.3-5.58-21.19-8.99-.6-.29-1.17-.59-1.7-.88-1-.54-3.08-1.66-2.75-2.55,.17-.45,.08-.57-.17-.75-1.51-1.11-3.33-1.69-4.84-2.78-.15-.12-.34-.32-.46-.47,.76-.93,6.86,1.16,8.08,1.59,5.15,1.81,9.15,3.96,9.65,4.84-.56,.09-1.08-.07-1.6-.23-.41-.13-.82-.26-1.25-.26,.2,1.3,20.41,10.53,20.61,10.56-.09-.14-.95-1.4-6.69-4.52Zm-163.63-4.71c-.01-.06-.04-.14-.05-.2-.67-.28-1.3-.12-1.94,.04-.42,.11-.85,.22-1.27,.19,0-.05,0-.11,0-.16,2.62-2.38,11.11-3.28,12.12-1.75-.31,.54-1.1,.67-2.72,.88-3.58,.48-3.9,1.52-3.92,1.64,.29,.25,.55,.38,3.06,.36,7.79-.06,8.4-.38,8.95-.66,.52-.35,.14-1.3,.93-1.44,1.29-.23,2.07-.37,2.24-.69,.02-.04-.06-3.87-12.29-2.84-1.67,.14-4.18,1.01-10.99,4.8l-1.42,.8c-5.12,2.93-5.14,3.18-5.17,3.4,.1-.01,11.3-2.93,12.47-4.38Zm94.74,.54h.02c.29-.05,.59-.11,.52-.43-.18-.77-1.1-.34-1.46-.84-.06-1.01,4.56-1.05,7.68-.83,2.73,.19,4.58,.59,5.47,1.18,1.32,.86,1.37,2.35,.77,2.89-1.42,1.28-13.42-.81-13.53-1.54-.05-.32,.24-.37,.53-.43Zm66.53,2c-2.22-1.25-4.89-2.7-7.52-4.09,2.3,1.15,4.79,2.49,7.52,4.09Zm-174.85,5.87c-.32,.41-3.37,1.99-9.14,4.77-2.43,1.16-2.8,1.27-3.22,1.21,.19-1.11,7.89-6.9,12.91-9.08,.04-.02,.09-.04,.13-.06,6.86-2.82,22.14-4.77,24.78-3.16l-.07,.22c-.56,.29-1.21,.32-1.77,.63,0,.06-.02,.13-.03,.19,.06,.04,.13,.08,.19,.11-.01,.06-.04,.14-.06,.2-.55,.16-1.39,.24-3.34,.33-14.03,.61-21.87,3.47-23.72,5.24,.76,.35,1.36,.03,1.97-.3,.41-.22,.81-.44,1.27-.46,.04,.05,.09,.11,.12,.17Zm84.27-.26h0c.19-.21,1.21-.39,3.04-.56,.04-.09,.11-.19,.15-.27-1.18-.45-1.84-.84-1.94-1.16,.77-1.48,8.03-1.51,12.42-1.18,.02,0,1.76,.13,3.74,.41,3.7,.52,7.05,2.34,10.75,2.88,1.74,.25,3.49,.19,5.24,.13h.11c1.81-.08,3.62-.14,5.42,.12,1.16,.17,2.63,.49,3.57,.73,8.77,2.25,14.19,7.37,13.76,10.74-.34,2.62-3.2,3.5-8.07,2.48-8.21-1.73-15.65-5.7-23.65-8.03-6.97-2.02-14.22-2.84-21.2-4.84-.11-.04-.25-.08-.36-.11-2.58-.77-2.77-1.03-2.99-1.33Zm-73.3,3.52c6.44-1.71,7.31-2.17,7.9-2.7,0-.08-.01-.19-.02-.27-.19-.05-4.81-1.15-24.49,6.73-3.19,1.28-3.4,1.31-4.1,1.43-.06-.05-.14-.11-.2-.16,.66-1.06,4.5-4.85,26.14-8.9,2.93-.55,3.45-.68,3.95-1.03,0-.07-.02-.16-.04-.23-.06-.03-.15-.07-.22-.1v-.23c.38-.17,.6-.27,.66-.31-1.04-.96-15.62,1.72-24.87,5.32-8.68,3.37-15.54,9.34-15.77,10.47,.53,.05,1-.17,1.46-.39,.54-.26,1.08-.52,1.72-.35-4.74,3.52-7.12,5.45-7.15,5.79,.42,.03,3.01-1.28,7.77-3.94,13.34-7.45,19.78-9.16,27.24-11.13Zm95.97-1.69c.21-.78-1.94-1.78-4.9-2.27-3.09-.52-5.53-.26-5.22,.55,.32,.84,9.29,3.16,10.12,1.72Zm-26.79,3.76h0c0,.1,0,.21-.01,.29,.44,.29,.45,.3,.89,.51,5.14,2.46,10.67,3.95,15.86,6.29,8.09,3.65,15.38,8.81,23.49,12.44,2.3,1.03,5.6,2.3,8.27,2.5,3.56,.27,3.29-1.65,3.12-2.25-.06-.22-1.92-2.38-5.58-6.48,.04-.08,.08-.18,.11-.26,.59,.16,.77,.22,2.12,.83h.02c2.03,.93,5.42,2.46,6.62,1.79,1.92-1.07-2.07-4.76-10.86-8.35-10.96-4.48-39.91-12.83-42.77-10.8,.15,.76,.18,.92,12.77,4.36,4.53,1.24,16.58,4.53,21.38,7.69,2.48,1.64,1.44,2.64-.58,2.3-2.19-.37-5.5-1.8-11.18-4.3-15.92-7-22.6-7.83-23.4-7.66-.03,.09-.07,.21-.1,.29,.12,.14,.29,.32,.43,.44,0,.09,0,.2-.01,.29-.19,.02-.43,.04-.61,.06Zm47.45,1.94c.24-.89-2.15-2.58-6.44-3.76-3.39-.93-6.1-.72-6.08,.06,.05,1.57,11.62,4.99,12.51,3.7ZM48.78,54.26h0c-4.48,2.94-9.38,5.32-9.69,3.11-.27-1.84,3.91-8,14.75-13.9,8.42-4.59,28.41-12.69,30.83-10.91-.74,1.03-2.33,.65-2.98,1.82,.85-.01,1.37,0,1.56,.05,.04,.06,.09,.15,.13,.22-.61,1.78-15.64,8.4-19.12,9.48-2.25,.7-3.81,1.34-4.68,1.91-3.8,2.49-7.02,5.73-10.81,8.23Zm109.45-7c2.68,1.53,9.03,6.44,19.04,14.72,.06,.06,.14,.11,.2,.17,5.39,4.26,9.06,4.31,10.76,3.95,3.02-.62,8.5-5.58-1.39-11.95-4.6-2.96-9.01-5.01-10.71-4.97-.75,.01-1.61,.44-.84,1.54,1.15,1.64,3.1,2.31,4.47,3.67,.88,.88,.63,1.89-1.72,.92-1.21-.5-3.38-1.95-7.71-4.84-18.97-12.66-24.79-13.37-24.84-13.37-.02,.07-.04,.17-.06,.24,.11,.14,.26,.32,.36,.47-.04,.06-.08,.15-.11,.22-.25,.06-.52,.05-.78,.03-.02,0-.04,0-.06,0h0c-.34-.02-.68-.04-1.02,.08h0c-.02,.06-.06,.13-.08,.18,.31,.62,5.14,3.61,14.49,8.94Zm-84.63-9.84c-.28-.71-7.59,1.92-8.49,3.61-.24,.7,1.33,.44,3.94-.67,2.78-1.18,4.74-2.45,4.55-2.94Zm176.37,4.3c.06-.11,.17-.19,.28-.27,.2-.15,.4-.3,.31-.61-.26-.88-1.18-1.29-1.49-2.14-.55-2.53,5.35,.9,6.03,1.3,2.55,1.51,4.26,3.01,5.09,4.46,.97,1.69,1.92,5.04,.56,5.43-1.39,.4-12.02-6.17-10.78-8.17Zm-110.23,.65h0s0,.01,0,.01h0c-1.15-.11-2.56-.24,1.58,5.22,1.14,1.5,4.64,5.02,10.48,10.57,3.32,3.15,5.25,7.35,8.17,10.8,9.06,10.71,18.63,7.92,19.12,2.1,.61-7.12-12.26-15.46-12.39-15.54-6.8-4.09-8.6-1.79-2.75,3.52l.02,.02c.8,.73,3.1,2.85,1.81,3.99-2.56,2.27-16.75-12.45-16.58-14.54,.51-.41,.88-.43,3.4,.96,.55,.31,2.24,1.23,3.22,1.03,1.28-.27,1.99-1.71-3.49-5.42-3.47-2.34-9.3-5.37-10.77-4.76-.48,.37-.32,.81-.14,1.26,.12,.32,.24,.64,.14,.94l-1.81-.17Zm-90.96,7.28s-.01,.03-.03,.07c-.18,.6,.96,.53,4.77-1.66,2.82-1.62,5.19-3.54,4.98-4.02-.33-.77-8.49,3.39-9.72,5.61Zm82.51-.47h.01c.07-.03,.17-.06,.24-.09,.17-.48-.05-1.25-.26-1.94-.29-.96-.53-1.79,.39-1.54,1.28,.34,3.62,3.09,4.89,4.85,4.27,5.93,2.63,6.5,1.2,7-1.24,.43-1.08,1.2,.01,3.15,3.24,5.78,7.93,10.66,10.62,16.8,.07,.17,.17,.38,.24,.55,.65,1.52,.95,2.76,1.05,3.16,1.36,5.64-1.43,8.04-3.88,7.54-1.39-.28-3.53-1.66-5.79-6.67-2.78-6.16-4.13-12.82-6.66-19.06-1.61-3.98-3.82-7.67-5.38-11.67-.05-.14-.12-.32-.17-.45-1.04-2.8-.8-3.28-.68-3.5,.08-.02,.39,0,.93,.1,.36-.28,.1-.85,.53-1.1,1.56,.34,1.46,2.26,2.73,2.88ZM46.77,87.33c5.75,1.81,22.74-19.29,21.45-21.76-1.55-.33-5.2,3.49-6.29,4.67-1.02,1.11-3.41,3.7-4.4,3.06-1.96-1.29,15.18-18.07,18.34-17.96,.11,.34,.15,.45-1.74,2.59-.49,.55-1.96,2.22-1.82,2.87,.41,1.81,5.32-2.81,7.18-4.57h.01c8.7-8.22,8.62-8.85,8.55-9.26-.71-.15-1.29,.12-1.88,.39h-.01c-.32,.15-.65,.3-.98,.38-.06-.04-.13-.09-.19-.13,.58-1.13,.86-1.74,.83-1.84h0c-.28-.03-.67-.07-2.97,1.14-13.63,7.13-31.54,25.72-31.7,25.9-6.11,6.85-8.09,13.36-4.4,14.52Zm206.72-28.71c3.01,1.81,6.79,.87,9.79,2.71,.19,.11,1.2,.74,2.34,1.66,9.43,7.58,12.03,20.79,6.68,24.04-2.14,1.3-5.22,.52-9.17-2.32-.19-.14-.44-.32-.64-.47-5.37-4.01-9.75-9.14-15.08-13.2-5.13-3.92-11.34-6.12-16.32-10.28-3.44-2.87-5.03-5.14-4.73-6.76,.4-.99,.9-1.02,3.32-1.17,1.08-.07,.57-.99,.04-1.97v-.02c-.32-.56-.63-1.14-.67-1.58-.22-2.88,3.03-4.65,9.48-2.22,1.54,.57,2.9,1.24,4.71,2.31,2.08,1.23,4.87,3.15,7.96,7.17,.46,.59,1.08,1.4,2.28,2.12Zm-216.32-7.25c1.39-1.46,2.76-2.88,3.98-4.09,.04-.04,.09-.09,.13-.13-1.36,1.42-2.74,2.81-4.11,4.22Zm82.72-2.11c.27,.06,.54,.12,.81,.09,1.17-.13,.94-1.51,1.76-1.96,1.61-.53,4.9,6.14,5.04,6.43,.25,.51,.83,1.71,1.29,2.86,.06,.14,.13,.33,.19,.47,.99,2.55,1.71,5.19,2.58,7.78,1.07,3.18,2.85,6.05,4,9.19,.04,.11,.08,.22,.11,.32,4.48,12.66-3.3,20.16-10.56,18.15-7.11-1.97-7.43-7.43-8.78-30.4-.29-5.03,.58-9.84,1.27-11.49,.3-.72,.58-1.17,.85-1.35,.46-.31,.92-.21,1.39-.1h0s.04,0,.05,.01ZM54.27,90.92h0c.08,.85,1.34,3.03,5.99-1.79,6.54-6.77,10-15.64,15.66-23,3.41-4.43,3.87-4.49,4.82-4.03h0c.89,.43,1.54,.74,7.38-6.21,4.8-5.71,4.78-6.41,4.77-6.65-1.22-.04-1.96,.71-2.69,1.45h-.01c-.48,.5-.95,.98-1.57,1.25-.04-.06-.08-.14-.11-.2,.84-1.35,2.49-2.02,2.98-3.65-.55,0-.92,.52-1.46,.52,.04-.16,.07-.37,.09-.52-3.16-.33-36.58,35.38-35.86,42.83Zm59.1-40.65h0c.01,.09-.27,2.22-.87,6.36-.17,1.18,.35,1.09,.74,1.02h0c.48-.09,1.76-.34,1.63,3.9-.16,5.56-1.88,5.85-2.45,5.94-3.79,.62-2.04,11.62-1.99,11.73,.09,.02,.21,.06,.3,.08,.88-.67,1.07-2.17,1.24-3.55h0c.22-1.8,.42-3.36,2.08-2.55,1.33,.64,1.67,6.61,1.79,8.57,.01,.19,.02,.39,.03,.6,.59,18.78-10.6,13.65-10.71,13.54-4.15-3.78-2.02-13.8-.61-20.45v-.02c1.61-7.55,1.54-7.58,.61-8.06h0c-.44-1.66,1.12-6.69,1.24-7.08,0,0,0-.02,0-.02,.49-1.46,1.61-2.62,1.94-4.15,.57-2.62,1.06-4.43,1.47-5.35,.56-1.26,1.06-1.13,1.26-1.02,.11,.06,.17,.19,.24,.32,.1,.2,.2,.39,.47,.34,.59-.11,.67-.8,1.16-1.02,.14,.11,.32,.29,.35,.47,.02,.11,.05,.27,.06,.39Zm-16.75,1.2h0c-.34,.17-.67,.33-1.08,.27-.14-.85-.32-1.3-.51-1.35-5.14,1.34-19.14,21.48-25.19,31.91-3.9,6.72-4.69,12.86-1.85,14.6,.81,.5,8.1,4.38,15.27-12.21,3.71-8.59,2.6-9.82,1.02-9.34-.98,.29-2.5,2.06-3.54,4.1-.89,1.77-2.28,4.01-4.01,3.16-.23-.11-1.29-.88,.75-4.76,1.56-2.96,2.59-3.99,3.17-3.17,.46,.65,3.38,1.83,8.29-4.95,3.94-5.43,9.64-17.03,8.73-18.51-.38-.06-.7,.1-1.02,.25h-.03Zm8.36,.03h-.01c-.91,.62-1.47,.86-1.68,.73-.43-.27-.37-1.01-1.03-1.05-2.84,.76-9.61,13.83-7.7,14.87,.6,.33,1.44-.52,2.46-1.65,1.33-1.47,2.58-2.86,3.22-2.22,1.14,1.12-1.46,7.35-1.91,7.58-.49,.26-.86-.08-1.51-.7h0c-.62-.59-1.65-1.55-3.47,0-1.26,1.08-3.84,3.92-6.93,10.88-3.64,8.2-5.26,17.01-.66,18.19,2.98,.77,4.08-1.45,5.19-3.7,.66-1.33,1.33-2.68,2.4-3.43,.07,.03,.17,.07,.23,.11,0,.23-.01,.54-.05,.76-.01,.08-.04,.16-.05,.23-.01,.09-.04,.17-.05,.26l-.06,.28-.06,.3-.06,.32c-.02,.11-.05,.23-.07,.34-.02,.12-.05,.24-.07,.37-.03,.13-.05,.26-.08,.39-.8,4.67,3.46,3.75,4.2,3.16,.78-.62,2.23-2.54,3.15-8.45,.72-4.66,.68-9.4,1.73-14.01,1.42-6.26,3.72-12.32,4.51-18.74,.78-6.33-1.46-4.92-1.6-4.83h0s-.01-.01-.01-.01Zm-73,5.42c.24-.27,.47-.54,.71-.8,1.46-1.62,2.97-3.19,4.49-4.74-1.82,1.91-3.67,3.87-5.2,5.55Zm31.68-4.42h0s0,.01,0,.01c-.44,.61-.42,.71-.38,.82,.19,.09,.37,.01,.56-.06,.24-.1,.47-.19,.7,.04,.04,.29,.17,1.21-6.11,5.99-.79,.6-3.2,2.43-4.18,2.53-1.55,.14-1.38-1.85-1.36-2.01,.38-3.21,10.49-8.81,11.13-8.25,.21,.18-.15,.68-.33,.94Zm175.4,4.48c.77,2.2,7.43,7.36,8.8,4.46h0c.6-1.86-1.45-4.39-3.68-5.83-.13-.09-.6-.38-1.11-.62-3.21-1.54-4.64,.14-4,1.99Zm-205.63-.71c-1.57,2.11-3.04,3.71-6.57,7.58h0c-2.15,2.35-4.48,5-7.38,9.14l.97-1.42c1.84-2.5,4.28-5.84,6.2-8.29l.33-.42c4.16-5.17,6.62-7.4,7-7.58-.04,.19-.22,.52-.56,.98Zm94.39,12.02c-1.18-4.88-4.25-11.17-5.22-9.94h0c-1.12,1.41-.87,19.78,4.13,19.13,1.82-.58,2.26-4.36,1.09-9.19Zm86.26,2.58h.01c.32-.75,1.32-.5,1.69-1.16,.17-.31,.14-.65,.12-.99v-.03c-.02-.39-.04-.78,.24-1.13,.2-.25,.48-.6,1.17-.62,.7-.04,4.99,.57,19.83,15.26h.02c3.33,3.3,8.88,8.8,11.69,8.6,.06,0,5.7-1.1-3.19-9.21-2.38-2.17-4.61-4.04-13.69-10-12.75-8.37-11.81-10.02-10.99-11.46,2.04-2.52,6.72,.11,8.1,.98,.18,.11,22.18,15.34,30.37,23.08,9.34,8.83,8.79,14.72,5.66,14.38-2.93-.32-4.06-3.23-6.38-4.43-.07,.04-.17,.09-.25,.13,.03,1.59,.77,3.32,1.51,5.06v.02c1.43,3.34,2.85,6.66-.88,8.83-2.42,1.41-7.69,.06-14.01-6.13-6.01-5.88-10.86-12.87-17.2-18.45-4.26-3.75-9.43-6.41-13.02-10.94-.74-.93-.88-1.61-.8-1.8Zm-123.75-9.54c-.13,.44-.36,.97-1.04,2.04-1.1,1.71-2.71,3.54-3.65,3.49-1.84-.55,2.31-5.83,3.67-6.61,.45-.26,1.42-.32,1.02,1.08ZM9.72,92.12c-2.51,4.49-4.24,9.34-6.55,13.93-1.92,3.81-2.67,4.79-2.92,5.1-.08-.01-.18-.03-.25-.04,.06-.27,.15-.55,.24-.84l.07-.2c1-2.7,2.48-6.25,3.56-8.92,1.66-3.77,2.38-5.36,3.94-8.39-.85,1.67-1.71,3.47-2.32,4.84-.27,.65-.27,.68-.26,.77,.22-.24,.99-1.6,1.78-3.04,1.54-2.8,3.49-6.71,3.62-7.38-.01,0-.04-.02-.05-.02-.34,.34-1.18,1.79-2.11,3.56,.72-1.37,1.6-3.04,2.76-5.23,11.39-19.62,16.79-22.86,16.84-22.89,.08,.03,.19,.06,.27,.08-.04,.17-.11,.39-.19,.55-.32,.62-.59,1.06-1.79,2.7-.91,1.26-1.36,1.99-1.32,2.22,.08,0,.19,.02,.27,.02,.98,1.92-8.54,15.36-12.19,19.32-2.1,2.28-3.24,3.57-3.4,3.87Zm-1.91,.65c.2-.39,.42-.82,.66-1.27-.22,.41-.44,.83-.66,1.27Zm246.94-25.25c.8,3.04,8.75,9.57,10.03,7.22,.57-1.77-1.42-5.11-4.54-7.58-.56-.44-.88-.66-1.2-.85-2.65-1.57-4.86-.95-4.29,1.21ZM17.74,75.53l1.72-2.53c-.55,.79-1.13,1.63-1.72,2.53Zm-3.56,7.22s-.03,.06-.04,.11h0c-.09,.23-.21,.55-.19,.7,.06,.56,1.29-.99,1.82-1.69,2.32-3.06,4-6.39,3.71-6.67-.6,.06-4,4.63-5.29,7.55Zm82.04-4.2h0c-.03,.24-.08,.43-.15,.67-1.43,5.08-3.26,5.12-3.87,5.13-1.59-.16-.74-5.73,1.71-7.66,1.61-1.28,2.46,.67,2.31,1.86Zm133.99,40.48h0c-.05-.07-.11-.15-.17-.23-3.44-4.83-5.9-10.28-9.42-15.07-2.4-3.26-4.39-5.08-7.41-7.82-6.71-6.09-14.31-13-11.62-15.33,1.08-.66,2.48-.14,3.49-.98,.71-.58,.04-1.81,1.05-2.25,.27-.11,1.02,.09,1.72,.48,.19,.1,.42,.24,.6,.36,11.11,7.28,16.11,19.97,25.44,28.82,2.61,2.48,5.57,1.48,3.16-2.11-5.7-8.52,.49-7.78,3.13-5.91,2.83,2.02,5.71,5.53,6.26,6.21,7.98,9.99-1.37,19.8-8.7,18.79-4.13-.57-6.69-3.87-7.53-4.97Zm73.03-30.75h0c-.12-1.18-.86-2.12-1.2-3.21-.17-.6-.18-.7-.17-.95,.04-.02,.08-.06,.11-.08,.62,.33,2.07,2.69,2.88,4.08,4.94,8.46,4.98,13.32,4.3,13.15-.66-.16-3.93-6.06-5.22-8.98-.44-1-.72-1.85-.84-2.53-.04-.26,0-.52,.06-.77,0-.02,0-.05,.01-.07,.04-.21,.08-.42,.06-.64Zm-91.39,20.08c2.35-2.62,6.95,.04,10.09,3.89h0c14.66,17.93,1.32,29.21-8.5,28.03-5.24-.63-8.68-4.24-9.91-5.76-.6-.73-1.03-1.3-1.75-2.47-2.54-4.14-3.21-9.09-5.72-13.25-2.41-3.99-6.34-6.74-8.75-10.73-3.75-6.21-4.89-13.27-2.44-15.1,.9-.68,1.94-.65,2.98-.63h.03c1,.02,2.02,.04,2.9-.55,1.79-1.21,1.48-3.78,3.24-5.02,3.61-2.16,9.73,2.98,12.97,6.97,6.13,7.56,1.16,9.82-.66,9.72-2.5-.14-3.87-2.77-6.39-2.86h0c-.17,0-2.37,0-2.21,2.57,.25,4.3,6.84,13.7,9.59,16.76,5.99,6.67,7.56,.27,7.57,.19,.19-1.79-.97-3.39-2.12-4.96h0c-1.59-2.19-3.14-4.32-.9-6.8Zm85.9,19.35h0c-2.61-4.69-6.93-8.07-9.62-12.7-1.88-3.25-3.7-8.11-2.63-11.11,.53-1.11,.8-1.5,2.6-1.58,.72-.04,.84-.04,1.05-.52,.52-1.16,.36-2.34,.2-3.52-.15-1.11-.3-2.22,.11-3.31,1.48-3.94,4.66-2.58,7.14,0,.88,.91,1.74,2.01,2.56,3.28,.11,.19,.28,.43,.39,.62,2.2,3.48,2.97,7.53,4.48,11.28,.8,1.97,1.55,2.19,2,2.32,2.28,.67,3.67,1.26,5.68,5.68,5.27,11.6,4.16,27.81-.56,30.05-1.8,.85-3.49-.85-4.59-2.44-.27-.38-.57-.85-1.05-1.63-3.13-5.22-4.82-11.11-7.78-16.42ZM21.86,152.52c1.5-2.82,6.36-14.3,4.98-19.24-.62-2.22-3.16-2.78-5.82,4.11-.47,1.22-1.26,3.26-2.37,3.61-4.43,1.4-.5-11.02,4.38-19.3,3.26-5.53,4.34-4.79,4.81-4.46h0c.72,.5,.2,2.66-.05,3.7-.31,1.28-.61,2.74-.3,3.87,.01,.06,2.02,5.59,7.05-4.73,1.32-2.71,5.44-11.72,3.04-13.91-.68-.38-1.34-.15-2,.08h0s-.03,.01-.03,.01c-.71,.24-1.41,.48-2.13-.02-.7-.49-.71-1.24-.72-2-.01-.8-.02-1.59-.84-2.07-1.81-1.08-8.12,4.83-12.18,13.86-12.56,27.9-12.8,28.43-10.46,36.43,1.53,5.22,7.38,9.99,12.66,.08Zm148.15-32.88h0c-2.52,.91-3,1.73-2.25,3.81,3.08,8.47,10.72,14.48,12.73,23.54,.04,.19,.1,.46,.14,.66,.17,.78,.34,2.22,.33,3.19-.07,8.01-6.27,10.17-9.44,9.04-3.54-1.26-5.58-4.97-6.66-7.86-2.88-7.71-3.79-15.97-6.56-23.72-1.87-5.22-4.9-9.92-6.69-15.18-.06-.19-.14-.44-.19-.64-.29-1.02-1.14-4.4,.35-5.32,.39-.24,.83-.18,1.28-.13h.04c.58,.08,1.17,.16,1.64-.41,.89-1.1,1.46-1.69,1.71-1.79,1.37-.29,2.27,1.04,3.05,2.2h0c.81,1.23,1.49,2.24,2.44,1.03,.52-.66,.74-1.71,.96-2.74,.39-1.84,.78-3.64,2.82-3.12,2.51,.63,4.96,3.92,6.29,6.54,4.36,8.6,.84,9.87-1.99,10.9Zm-164.35-.8c-.35-1.12-.73-3.48,.63-6.73,1.21-2.86,4.29-7.86,5.17-7.11h-.01c.24,.2,.28,.85,.12,1.93-.04,.27-.09,.7-.09,1.05,0,.37,.06,.72,.59,.6,.3-.06,.47,0,.57,.25,.61,2.17-1.21,6.24-2.83,9.28-2.37,4.41-3.19,3.78-4.15,.72Zm293.18-11.96c-.39-.62-1-1.42-1.69-1.72-1.83-.81-3.14,2.58-1.77,6.19,.37,1,3.39,7.09,4.92,3.52,.83-2.4-.14-5.9-1.46-7.98Zm-165.47,5.94c2.04-.72,3.21-2.75,5.23-3.5h0c4.76-1.42,9.44,5.79,10.33,7.25,1.26,2.08,1.99,3.82,2.25,4.47,.07,.19,.17,.45,.24,.65,1.25,3.39,1.89,6.96,2.92,10.42,1.2,4.05,3.78,7.5,5.12,11.49,.05,.14,.09,.27,.14,.41,5.4,17.07-12.61,27.6-24.43,22.26-5.27-2.38-7.6-7.44-8.51-10.25-.29-.9-.7-2.12-1.07-4.13-.77-4.1-.69-8.3-1.54-12.39-.63-3.04-1.69-5.98-2.2-9.06-.11-.71-.48-3.24-.32-5.98,.29-4.71,1.54-8.1,3.74-10.05,.02-.02,.64-.57,1.53-.9,1.08-.41,2.21-.39,3.34-.36h.06c1.06,.02,2.14,.04,3.17-.32Zm-90.47,17.11h0c-1.86-.8-2.58-.47-3.72,3.21-2.78,8.91-2.05,18.6-6.04,27.24-.22,.47-.61,1.33-1.01,1.97-3.56,5.65-6.76,2.9-7.52,1.26-2.31-4.94,.61-13.43,1.86-17.04,2.22-6.44,13.45-38.5,16.8-37.14,.55,.22,.37,1.05,1,1.21,.38,.09,.72-.06,1.05-.22,.34-.17,.68-.33,1.08-.22,.42,.42,.42,.45-.24,2.88-.49,1.82-.54,2.27-.46,2.55,.06,.19,.15,.32,.27,.39,.22,.11,.54,.01,.96-.29,2.8-2.02,4.48-2.78,5.02-2.28,.06,.06,.11,.14,.15,.24,.48,1.41-.16,4.99-1.55,8.72-3.49,9.33-5.52,8.46-7.66,7.53Zm242.44,11.96v.04h.02l.03,.06c1.41,3.06,5,10.86,7.34,10.18h0c.55-.17,5.19-1.85-.32-12.32-3.69-7.02-9.76-12.42-13.36-19.51-1.89-3.72-1.54-5.63-.37-7.53,2.38-3.09,5.03-1,6.84,1.3,.1,.14,13.74,20.7,17.72,29.93,4.65,10.76,2.63,17.61,.34,17.18-2.86-.54-2.32-3.46-3.59-5.12l-.36,.07c-.43,1.8-.33,3.7-.22,5.61v.08s0,.04,0,.04c.2,3.66,.4,7.31-3.09,10.2-2.21,1.84-6.08,.97-9.73-5.12-3.98-6.62-5.68-14.26-9.31-21.03-2.35-4.38-5.99-7.89-8.28-12.31-.8-1.56-1.06-2.4-1.23-2.95-.17-.57-.38-1.72-.05-2.43,.44-.93,1.64-.9,2.17-1.71,.6-.88,.57-2.01,1.16-2.89,.34-.51,1.08-1.31,2.16-.98,1.16,.36,4.66,2.95,12.11,19.2Zm-171.61-15.77v-.02h0c1.36-.27,3.41-.67,4.55,3.03,.75,2.44,.65,7-1.51,8.85-.67,.57-1.61,.66-2.54,.75-1.39,.14-2.77,.27-3.18,2.01-.38,1.62,.33,12.58,2.05,12.79,.02,0,1.84,0,1.56-3.49-.28-3.49,2.71-4.59,3.79-4.33,1.57,.37,3.37,1.87,4.79,10.21l.11,.71c2.51,19.49-13.71,18.55-18,15.22-1.54-1.2-3.59-3.58-4.55-8.11-.2-.94-.3-1.57-.41-2.51-.17-1.53-.07-6.87,.31-16.02,.18-4.37-.18-5.58-1.67-5.63-.84-.03-1.31-1.43-1.42-4.18-.04-.95,.02-3.37,.25-4.59,.36-1.92,2.63-2.83,2.63-4.94,0-4.28,.12-6.78,.33-7.51,.22-.75,.62-2.14,2.37-2.31,.63-.06,1.2,.17,1.77,.4h.02c.57,.24,1.14,.48,1.78,.4,1.2-.14,1.85-1.32,2.99-1.57,.59,.02,1.05,.04,1.67,1.04,.06,.09,.11,.21,.17,.3,.73,1.36,.85,3.8,.3,6.06-.44,1.8-.49,2.6-.22,3.06,.4,.69,1.35,.5,2.06,.37h0Zm-44.09,4.15c.5-3.9,.1-9.28-1.62-11.57-.6-.8-1.04-.98-1.13-1-.15-.05-.36-.11-.52-.16-.71-.18-1.38,.03-2.05,.24-.75,.24-1.51,.47-2.31,.16-1.33-.51-1.92-2.1-3.42-2.34-3.1,.17-6.8,5.53-8.93,10.43-1,2.32-1.7,4.79-1.83,5.26-.91,3.32-1.08,6.79-1.97,10.11-1.04,3.88-2.6,7.59-3.6,11.48-.08,.3-.18,.71-.25,1.02-2.65,11.27,1.96,16.42,3.43,17.74,1.61,1.44,16.71,8.5,19.88-11.52,2.27-14.39-5.08-10.91-5.16-10.86-2.87,1.95-.75,7.51-5.24,8.05h0c-.27,.02-5.19,.38-3.77-6.97,.28-1.44,.87-4.45,3.33-2.65,3.54,2.59,12.96-.23,15.17-17.42Zm.46,17.18c1.43-3.4,3.59-5.93,5.65-6.61,1.89-.62,3.52,.09,5.13,.8h.02c1.18,.53,2.36,1.05,3.65,1.03h-.03c2.41-.01,2.15-7.56,1.06-8.94-2.14-2.73-5.3,.47-7,2.2-.85,.86-3.1,3.14-5,1.15-3.37-3.53-.03-18.77,5.58-18.8,.87,.07,1.65,.44,2.44,.82,1.07,.51,2.15,1.02,3.42,.76,1.08-.22,1.89-1.08,3-1.24,.41-.06,1.64-.05,2.84,.37,1.44,.5,3.26,1.54,4.57,5.03,.95,2.52,1.03,4.92,1.08,6.2,.13,3.67-.24,7.3-.62,10.94l-.02,.18h0c-.33,3.24-.66,6.48-.63,9.74,.06,4.84,1.54,9.51,1.66,14.34,.1,4.22-.59,7.11-2.12,8.84-1.85,2.1-8.37,1.84-8.65-2.78v-2.77c-.13-1.71-1.08-.92-1.69,.29-4.67,9.29-9.59,7.59-12.88,4.53-6.25-5.8-4-20.07-1.49-26.07Zm235.86-26.84h0c-1.86-.89-2.78,2.23-1.21,6.77,1.18,3.42,3.7,7.21,4.64,5.25,.74-2.13,.05-6.4-1.58-9.72-.27-.55-.9-1.83-1.86-2.29Zm-169.97,5.07c-3.14,4.64-1.49,25.08,7,23.65,3.74-1.11,4.43-6.83,3.19-11.92-1.67-6.84-7.66-15.46-10.19-11.73Zm-78.12,3.64c1.08-.62,4.71-.22,3.39,4.28-.66,2.26-2.3,4.44-4.15,4.23-3.87-.98-1.15-7.41,.77-8.52Zm203.82,39.34c2.17,5.5,2.78,11.45,4.84,17,.03,.08,.06,.17,.09,.24,.67,1.56,1.56,3.3,3.65,4.38,6.67,3.41,20.05-8.95,15.84-20.93-.17-.5-1.74-4.86-3.65-7-2.1-2.35-7.28-2.01-4.89,6.91,1.21,4.5-1.95,5.17-3.34,3.26-1.48-2.04-3.92-8.73-5.24-12.54-5.56-16.04-10.15-21.28-10.2-21.32-.14-.14-.33-.32-.48-.43-.4-.3-1.16-.75-1.77-.44-1.43,.75-1.21,2.78-2.71,3.49-1.14,.55-2.5,.42-3.57,1.18-4.13,3.44,2.22,12.1,6.02,17.26,2.68,3.66,4.03,5.49,5.39,8.93Zm-.8,11.19h0c8.5,20.26-10.12,33.8-21,29.06-3.55-1.55-5.29-4.56-5.73-5.45-.19-.37-.43-.88-.59-1.26-1.79-4.38-1.18-9.27-2.91-13.66-1.64-4.13-5.45-6.85-7.1-10.98-.5-1.25-.82-2.53-.94-3.02h0c-.1-.45-2.78-12.46,4.8-15.36,1.86-.71,4.01-.03,5.77-1.23,2.52-1.71,3.3-4.93,5.8-6.66,5.4-3.33,10.23,3.31,12.03,7.28,4,8.81-2.68,12.59-5.75,11.34-.62-.25-1.17-.65-1.71-1.05-.91-.67-1.82-1.34-3.07-1.31-.01,0-1.94,.11-2.99,2.53-.46,1.06-1.17,4.42,2.22,12.6,6.56,15.84,10.8,6.23,10.98,5.81,.79-1.84,.22-3.8-.34-5.74-.79-2.71-1.57-5.4,1.27-7.81,2.58-2.19,6.72-1.21,9.28,4.9Zm-180.04-19.75c2.91-.02,4.51-2.04,4.74-6.01,.17-2.81-3.62-4.59-5.78-2.73-3.15,2.71-1.4,8.57,1.05,8.74Zm240.76-4.13c-.67,.56-1.77,3.56-2.21,6.75-.29,2.12-.5,3.25-.62,3.4-.63,.83-1.93,.74-2.43,1.76-.9,2.17-1.36,5.58-1.29,9.59,.09,5.45,2.16,10.62,2.3,16.07,.08,2.86-.16,5.72-.4,8.57v.17s-.02,.01-.02,.01c-.28,3.29-.56,6.57-.37,9.88,.08,1.37,.26,1.49,.59,1.69,2.5-1.33,6.13-15.74,7.33-29.08,.03-.34,.8-31.82-2.88-28.82h0Zm.14,24.44c-.2,.51-.67,1.67-1.09,.72-1.33-2.98,.2-11.8,1.45-11.36,.38,.14,.55,1.26,.61,2.16,.17,2.32-.11,6.07-.97,8.47ZM17.34,225.07h0s0-.02,0-.05c.03-.83,.47-12.32-3.22-17.91-1.84-2.78-4.35-2.96-3.93,3.11,.09,1.22,.19,2.9-.39,3.41-2.34,2.03-5.72-8.37-4.42-19.55,.29-2.54,.97-5.32,2.5-4.14,2.89,2.22,1.45,6.16,3.47,8.73,.17,.22,4.31,5.35,4.98-4.29,.09-1.23,.72-12.08-3.34-15.09-.64-.42-1.38-.37-2.13-.32h-.04c-.96,.07-1.93,.15-2.68-.76-1.33-1.64-.88-4.54-3.67-5.12-1.81-.37-3.63,3.22-4.23,8.36-.65,5.53,.39,23.95,.41,24.12,.65,9.03,4.46,17.3,7.72,21.16,2.27,2.7,8.33,7.66,8.98-1.66Zm187.16-44.96c3.31,8.96-1.28,10.67-5.32,12.18h0c-2.73,1.01-3.35,1.87-3.42,2.84,0,.04,.08,4.51,6.23,13.34,2.31,3.32,4.71,6.75,4.94,11.4h0s0,.04,0,.04c.03,.59,.1,2.04-.24,3.67-1.47,7-8.42,10.46-13.07,8.39-3.42-1.52-4.97-5.25-5.59-7.35-2.22-7.48-2.48-15.38-4.92-22.81-1.73-5.25-5.26-9.74-6.46-15.21-.33-1.5-.82-5.08,1.74-6,.45-.17,.93-.17,1.42-.17h.11c.86,.01,1.72,.02,2.4-.77,1.32-1.55,2.01-1.83,2.56-2.06,1.18-.29,1.42-.07,2.96,1.74,1.44,1.71,2.93,3.47,5.03-.93v-.05c1.46-3.04,2.51-5.23,5.17-4.89,3.13,.39,5.45,3.82,6.49,6.63Zm109.55,.26c-.51-3.36-1.69-6.58-4.43-2.85h-.01c-1.78,2.76-2.95,5.69-.55,16.14h0c1.03,4.51,3.78,16.49-.24,22.65-1.59,2.43-2.17,.8-2.44,0-.32-.9-.5-3.75-.54-8.48-.13-15.2-2.15-19.51-3.19-19.67-.58-.09-6.08,5.63-6.27,8.7-.19,3.2,.6,6.24,1.38,9.26,.6,2.29,1.19,4.58,1.37,6.94,.22,2.94,.08,5.88-.06,8.81v.16s0,0,0,0c-.15,3.17-.3,6.34-.02,9.51,.13,1.44,.37,2.59,.72,3.42,.55,1.3,1.87,2.94,4.6-.69,.35-.47,2.24-4.79,5.65-12.98,.09-.02,.22-.06,.31-.08,0,.51-.04,1.02-.09,1.53-.08,.9-.16,1.81,.06,2.72,.12,.04,.28,.11,.4,.16,1.98-1.69,4.26-9.13,4.88-15.94,.98-10.65-1.32-27.79-1.51-29.23v-.03s0-.05-.01-.06ZM36.24,199.03c-.24,9.24-3.29,7.97-5.99,6.85-2.46-1.03-3.19-.77-2.92,2.81,.42,5.63,.48,6.5,1.99,12.02,1.64,5.99,2.83,10.33,2.3,14.34-.11,.84-.22,1.21-.35,1.64-1.09,3.62-4.51,2.54-6.56,.38-4.52-4.77-5.14-13.63-5.35-16.55-.15-2.15-.7-30.47-.7-30.6,.17-3.87,1.06-6.21,2.28-5.96,.95,.2,1.23,1.24,2.04,1.62,.42,.2,.83,.06,1.22-.07,.37-.13,.75-.26,1.15-.11,1.08,.68,1.11,2.22,1.13,3.62,.03,1.66,.06,3.11,1.79,2.73,.72-.16,1.44-.75,2.15-1.34h.01c1.26-1.04,2.48-2.04,3.63-.61,2.18,2.73,2.22,7.76,2.19,9.24Zm146.64,18.97c4.67,16.47-18.43,28.87-32.89,21.68-4.9-2.43-7.34-6.66-8.52-9.78-1.61-4.26-1.59-8.88-2.88-13.22-.88-2.98-2.42-5.71-3.25-8.7-.04-.15-.15-.55-.27-1.06-.72-3.32-.48-5.98-.27-7.28,.87-5.24,3.42-7.53,4.87-8.42,.53-.32,1.13-.7,2.22-1.07,3.07-1.05,6.39-.32,9.46-1.31,2.85-.93,4.89-3.32,7.74-4.26,6.73-1.97,12.06,4.59,13.53,6.64,.76,1.05,1.79,2.84,2.41,4.44,.07,.19,.17,.45,.24,.65,1.18,3.36,1.57,6.9,2.48,10.33,1.04,3.95,3.82,7.1,5.02,10.99,.04,.13,.08,.26,.11,.39Zm139.98-28.9c-.19,3.34-.94,7.59-1.71,9.68-.17,.39-.2,.44-.32,.52-1.05-.28,.51-12.36,1.65-12.8,.2-.08,.52,.16,.38,2.6h0ZM44.05,241.75c-3.26-3.9-4.48-8.01-4.92-10.12-.15-.72-.32-1.62-.49-3.31h0c-.18-1.85-.17-3.7-.14-5.56,.02-1.95,.04-3.9-.17-5.85-.42-3.75-1.71-7.37-1.74-11.18-.09-8.39,3.56-13.27,6.98-12.99,2.03,.39,3.52,1.84,5.34,2.65,1.13,.51,2.27,.33,3.42,.14h.03c.99-.17,1.97-.33,2.96-.06,.39,.11,1.23,.34,2.32,1.21,4,3.16,6.06,9.11,6.47,12.33,2,15.66-7.81,18.14-13.62,15.08-2.86-1.51-2.73,1-2.69,1.83,.28,5.17,3.6,7.23,6.37,7.41,2.15,.14,2.32-1.63,2.5-3.48,.11-1.23,.24-2.5,.95-3.27,.98-1.06,8.7-3.09,10.06,9.79,.11,1.04,.17,2.44,.11,3.49-.72,12.4-16.63,10.35-23.74,1.87Zm66.37-4.22c.05,.17,.12,.39,.18,.56,.52,1.62,2.12,5.66,5.98,8.2,6.66,4.38,25.44,3.47,21.63-13.83-.05-.22-.11-.43-.16-.65-1.61-5.81-3.67-8.93-6.11-9.28-2.37-.33-5.56,1.17-4.97,4.19,.6,3.07-1.4,3.31-1.49,3.32-2.37,.24-4.33-10.61-3.98-11.91,.15-.57,.36-1.33,4.19-1.92,1.41-.22,2.86-.44,3.99-1.77,2.03-2.39,1.51-6.46,.38-8.36-1.78-2.99-4.26-2.56-6.45-2.18h-.01c-.88,.15-2.36,.4-2.85-.5-.19-.35-.32-.83,.17-2.83,.57-2.34,.16-4.74-1.04-6.11-.08-.09-.19-.22-.27-.29-1-1-1.82-1.03-2.58-.98-.77,.12-1.46,.5-2.14,.88h-.03c-.92,.52-1.85,1.02-3,.89-3.56-.4-5.57-.49-6.03-.25-1.99,1.01-1.58,3.68-1.18,6.26h0c.57,3.62,.35,5.52-.63,5.72-.67,.14-2.44,.5-1.12,6.82,.76,3.65,2.17,3.93,2.58,3.93,1.73,0,2.53,.67,2.99,4.82h-.01c1.06,9.45,1.71,14.54,1.94,15.26Zm-28.46-18.02h.04s.06,.03,.06,.03c1.64,.52,3.29,1.04,5.03,1.01h-.01c3.46-.04,1.03-7.3-.9-8.61-3.54-2.42-6.93,.68-8.56,2.17-3.41,3.12-6.06,1.38-7.35,.06-4.4-4.52-4.33-17.52,2.85-17.41,2.47,.14,4.65,1.46,7.1,1.71,1.53,.15,3.02-.19,4.51-.52h0c1.79-.4,3.57-.8,5.43-.37,2.35,.55,5.11,1.57,7.67,4.97,1.89,2.5,2.49,5.07,2.71,6.05,1.47,6.34,.78,12.89,1.88,19.27,.82,4.74,3.48,8.87,4.43,13.55,.92,4.53-.06,6.32-.38,6.93h0c-2.02,3.64-10.22,2.62-11.4-1.39-.04-.13-.06-.26-.09-.39l-.09-.37c-.03-.11-.05-.23-.08-.34l-.07-.32c-.03-.1-.05-.2-.07-.3l-.06-.28-.06-.26-.05-.24c-.19-.62-1-1.87-2.07,.55-5.42,12.33-16.76,1.39-16.88,1.28-5.73-5.78-7.58-17.58-5.08-23.18,.54-1.19,2.12-4.02,5.33-4.51,2.16-.34,4.16,.29,6.15,.92Zm84.96-6.9c-1.59-6.42-9.36-15.61-13.04-10.19-3.82,5.61-1.27,23.8,8.42,21.98,4.62-1.31,5.82-6.93,4.62-11.8Zm112.55,36.56c.04-2.22,.3-4.43,.57-6.64,.32-2.67,.65-5.34,.56-8.04-.11-3.16-.77-4.98-1.87-8.01h0s0-.02,0-.02c-1.89-5.21-4.73-13.06-.3-16.68,1.18-.85,2.76-.8,3.92-1.69,1.17-.89,1.38-2.55,2.68-3.33,.71-.42,1.18-.05,1.39,.22,1.33,1.63,2.06,9.6,2.06,9.68,.28,3.63,.22,7.27,.17,10.91v.23s0,.29,0,.29h0c-.05,3.07-.1,6.14,.06,9.21,.24,4.74,3.06,2.76,3.57-1.21,1.01-7.86,4.61-8.68,5.37-6.79,.74,1.83,.4,5.65,.33,6.39-1.02,10.27-14.39,22.66-17.74,18.56-.69-.85-.73-2.1-.76-2.86h0v-.2ZM54.27,211.17c.06-4.28-4.81-5.21-6.19-4.3-1.89,1.26-2.21,7.03,2.49,8.14,2.39,.33,3.67-1.68,3.7-3.84Zm194.78,54.28c.26,1.63,1.03,3.03,2.16,3.92,7.24,5.69,27.53-9.12,25.58-25.59-.5-4.2-3.34-5.31-6.48-2.51-3.65,3.26-1.38,8.62-4.31,12.13-2.38,2.84-6.51,5.7-7.5-7.04-.6-7.81,2.68-14,7.37-10.1,2.68,2.23,9.76-2.49,8.76-10.53-.47-3.8-2.89-10.02-8.68-6.39-2.47,1.69-4.05,4.24-6.19,6.25-2.61,2.45-6.62,1.5-9.28,3.83-2.71,2.38-3.97,5.91-4.38,7.33-.72,2.45-1.01,5.06-.79,7.18,.42,4.06,3.94,6.9,4.29,10.99,.14,1.65-.09,3.27-.32,4.9-.27,1.87-.52,3.75-.23,5.65Zm65.19-37.68s.03-.07,.04-.11l-.04,.11h0Zm0,0s0,.01,0,.02h0v-.02Zm-227.89,8.9c3.55,0,5.08-1.85,4.54-5.5-.39-2.67-5.76-4.31-7.98-2.44-3.01,2.54,.52,7.76,3.44,7.94Zm218.7,10.89c.92-1.69,1.93-3.54,2.68-5.07,4.03-8.5,4.37-9.21,6.39-14.41-.2,.5-.39,.88-1.56,3.28-2.58,5.37-4.76,10.91-7.51,16.19Zm0,0c-.32,.6-.63,1.16-.91,1.69,.31-.56,.62-1.13,.91-1.69Zm2.33-7.88c.82-1.16,.9-1.23,1.26-1.49,.13,.27,.27,.56-1.04,3.61-1.33,3.11-3.93,8.45-6.9,13.32l-1.35,2.15c-1.57,2.35-2.73,4.09-3.7,5.51,3.57-5.66,5.77-10.85,7.05-13.87,1.81-4.28,2.7-6.3,4.68-9.23ZM31.56,274.33c-.8-.86-1.59-1.72-1.41-3.05h0c2.38-1.16,14.58,16.22,14.35,17.98-.01,.07-.06,.15-.09,.22-2.13,.57-13.66-11.61-20.17-20.61-2.7-3.72-14.78-22.33-13.4-25.79,.34-.85,1.31-.04,4.14,3.51,1.41,1.76,3.67,2.03,5.44,3.17,4.3,3.06,8.19,11.69,8.93,13.39,1.55,3.56,1.19,3.97,.85,4.36-.88-.02-2.82-.72-5.9-5.3-1.13-1.67-3.01-4.46-4.04-4.25-.23,3.6,10.4,18.73,12.72,19.24,.09-1.23-.67-2.05-1.43-2.87Zm188.33-14.53h0c-3.81,1.45-4.53,2.32-3.87,4.68,1.34,4.77,1.58,5.12,3.86,8.48,1.79,2.63,3.33,4.91,2.7,8.82-.09,.55-.39,1.59-.7,2.27-2.55,5.55-10.26,8.97-14.21,6.3-.44-.3-1.8-1.22-2.58-3.82-1.65-5.57-.83-11.47-2.29-17.07-1.08-4.13-3.85-7.56-4.88-11.71-.09-.34-.19-.8-.25-1.15-.3-1.81-.27-4.95,3.37-5.66,1.99-.39,3.11-.7,3.36-.93,1.51-1.41,2.19-1.69,2.84-1.95,1.23-.4,1.55-.1,2.84,1.37,1.11,1.26,2.5,2.83,4.94-.7,2.76-3.99,3.79-5.48,6.66-5.35,1.94,.09,4.31,2.02,5.09,5.54,.43,1.98,.25,3.39,.18,3.89h0v.03c-.63,4.54-2.77,5.35-7.03,6.96Zm80.97-10.8h0c-.06-.04-.15-.11-.22-.15l-5.34,6.19c-1.29,2.07-2.95,6.68-3.26,7.58-3.72,10.53-13.68,21.31-13.78,21.42,4.03-4.2,4.28-4.5,10.68-12.17,.33-.42,.64-.82,.93-1.19-.24,.28-.47,.56-.71,.83,3.1-4.8,11.34-17.54,11.7-22.51Zm-257.53,24.5c-.02,1.03,1.18,4.26,9.55,14.33h0c11.88,14.31,1.36,9.17-4.87,2.61-6.05-6.36-22.72-35.79-19.18-35.68,.06,0,.15,.03,.21,.05,.95,.35,1.56,1.2,2.45,1.62,.35,.17,.71,.11,1.07,.06,.34-.06,.68-.11,1.01,.03,2.12,1.18,2.19,3.92,4.04,5.32,1.05,.79,1.39,.34,2.07-.57h0c.6-.81,1.51-2.02,3.97-.02,1.84,1.49,3.9,4.58,5.14,7.68,2.95,7.37-.1,6.15-3.06,4.97-1.96-.78-2.11-.65-2.4-.39Zm122.62,24.53h0c13.29,7.03,37.78-4.41,34.94-16.32-.02-.09-.05-.19-.07-.29-.75-2.78-3.03-4.83-3.72-7.64-.72-2.91-.76-5.96-1.71-8.83-.05-.16-.13-.37-.19-.52-.8-2.08-2.07-3.59-2.5-4.08-.58-.68-5.87-6.62-13.45-4.43-3.24,1.02-5.75,3.59-9.15,4.29-3.82,.78-7.86,.45-11.49,2.2-1.19,.57-4.08,2.29-5.23,5.93-1.16,3.66-.23,6.8,.42,8.35,.98,2.32,2.59,4.31,3.6,6.61,1.36,3.1,1.51,6.61,3.21,9.6,.86,1.51,2.48,3.62,5.34,5.13Zm123.91-27.35c2.48-3.19,3.67-4.8,5.78-7.89-1.63,2.58-3.54,5.27-5.78,7.89Zm-7.38,7.76c-.53,1.27-3.29,4.43-3.61,4.79h0c-4.33,4.94-13.65,13.35-14.67,13.26,.05-.27,.09-.44,1.24-1.87,.04-.04,.06-.08,.1-.12,7.75-9.51,8.45-11.57,9.51-16.63,1.54-7.42,4.27-9.59,5.17-10.3,1.02-.76,2.3-1.06,3.27-1.9,.88-.77,1.38-1.91,2.42-2.54,.67-.4,.67,.27,.64,.58,0,.06-.89,6.64-10.99,21.23-.88,1.27-.93,1.36-1.08,1.67,.05,.01,.11,.03,.17,.04,3.09-2.3,4.56-6.11,7.72-8.33l.12,.12Zm-221.48,12.42c-1.38-2.29-2.36-4.77-3.65-7.11-1.38-2.5-3.3-4.63-4.71-7.1h.02c-1.12-1.97-1.85-3.75-2.16-4.76-1.48-4.8-.05-8.1,3.32-7.67,.1,.02,.24,.05,.34,.07,2.16,.49,3.96,1.82,6.04,2.5,1.14,.37,2.3,.3,3.47,.24h.06s.07,0,.07,0c1.11-.06,2.22-.11,3.3,.2,4.77,1.37,13.8,9.08,14.23,17.57,.34,6.71-7.77,5.52-10.76,4.33-1.68-.67-2.16-.4-2.37-.29-.06,.22-.13,.5,.32,1.38,1.76,3.41,5.09,5.05,7.63,5.45,1.23,.19,2.02,.04,2.18-.42,.24-.68-.07-1.25-.38-1.81h0s0-.02,0-.02c-.31-.56-.61-1.12-.38-1.79,.59-1.76,7.86-1.72,12.31,6.72,1.46,2.78,1.41,4.31,1.25,4.97-1.41,5.68-19.29,1.78-28.33-9.79-.93-1.18-1.71-2.49-1.8-2.63Zm75.75,13.57h0c-3.13-1.53-4.87-3.65-5.78-5.16-2.12-3.53-2.58-7.63-3.98-11.41-.65-1.76-1.28-2.99-3.43-2.9-.52,.02-1.87-.22-3.19-2.96-.37-.76-2.1-4.59-.22-5.23,.34-.11,.61-.29,.8-.53,.56-.67,.52-1.84-.09-3.48-1-2.65-1.79-4.76-.08-5.75,1.42-.83,2.5-.68,6.48-.15h0c1.33,.18,2.48-.31,3.63-.8,.77-.33,1.55-.66,2.38-.78,.85-.07,1.71-.06,2.91,.74,1.99,1.33,2.27,3.67,1.91,5.26-.36,1.57-.27,2.21,.33,2.55,.67,.37,1.74,.25,2.79,.06h.05c2.17-.37,4.21-.71,6.24,.85,.11,.09,.26,.22,.35,.32,1.53,1.63,2.28,4.47,.68,6.53-1.08,1.4-2.73,1.65-4.33,1.89-3.85,.57-4.01,1.12-4.15,1.6-.28,.94,2.53,8.84,4.89,8.58,.08,0,2.03-.25,1.24-2.43-.8-2.2,2.5-3.39,4.5-3.26,3.49,.22,5.47,3.78,6.65,6.44,.06,.15,.12,.29,.18,.44,4.37,12.04-14.37,12.69-20.78,9.56Zm-21.78-.05h0s0,.01,0,.01c-2.99,8.03-16.57,1.11-21.17-4.21-2.73-3.15-6.55-9.37-3.61-12.74,1.25-1.44,3.22-1.6,4.6-1.6,3.47,0,6.71,1.36,10.13,1.6,3.96,.28-.18-5.6-1.91-6.4-4.33-2.02-7.21,.34-8.61,1.49h-.01c-4.5,3.72-9.58-1.84-9.79-2.07-4.18-4.66-5.13-12.09,1.26-11.77,2.71,.17,5.25,1.27,7.96,1.49,1.66,.13,3.29-.14,4.92-.41,1.88-.32,3.76-.62,5.68-.32,1.26,.2,5.08,.81,8.58,3.57,2.2,1.74,3.37,3.45,3.96,4.59,2.48,4.75,2.81,10.21,4.94,15.08,1.51,3.45,4.51,5.92,6.19,9.26,.52,1.05,1.1,2.54,.88,3.69-.63,3.31-9.25,2.68-11.16,0-.05-.08-.1-.17-.15-.24-.05-.07-.09-.15-.14-.23-.05-.07-.09-.14-.14-.22-.04-.07-.09-.14-.13-.21-.04-.06-.08-.13-.11-.19-.04-.06-.07-.12-.11-.18-.04-.06-.06-.11-.1-.17-.03-.05-.06-.1-.18-.29h0c-.11-.12-1.14-1.14-1.75,.5Zm57.66-32.47c3.85-5.68,11.9,1.31,13.25,6.74,.9,3.62-.54,7.94-5.03,9.18-9.06,1.84-11.75-10.73-8.22-15.92Zm94.95,17.51h0c.38,.52-2.46,6.17-11.37,12.93-3.26,2.48-12.51,8.81-12.23,5.54,0-.11,.04-.27,.08-.38l.07-.22c.74-2.27,2.55-3.89,3.64-5.95,.71-1.33,.6-1.73,.28-2.77h0c-.2-.68-.6-2.05,.56-4.95,.73-1.82,1.85-3.71,3.34-5.6,1.08-1.38,2.65-2.92,3.8-3.75,2.19-1.56,5.02-1.71,7.18-3.29,2.22-1.62,4.03-3.75,6.31-5.29,4.72-3.03,4.11,1.02,3.94,1.86-.16,.78-.44,1.56-.6,1.96-2.09,5.32-7.91,9.53-8.8,7.89-.99-1.83-4.24,1.59-5.25,2.98-1.31,1.79-4.66,8.72-3.95,9.68,.77,.11,4.11-1.93,5.59-4.49,2.17-3.76,6.54-7.38,7.41-6.15Zm-197.44-9.8c-1.18-3.29-6.3-4.3-7.35-3.65-1.42,.88,.06,5.31,4.91,6.4,2.38,.37,3.04-1.1,2.44-2.75Zm40.84,15.47c-.94-2.02-6.9-3.12-8.5-1.57-1.92,1.85,2.39,5.21,5.12,5.34,3.41,.02,4.55-1.24,3.38-3.77Zm113.51,5.6c3.79-3.62,4.37-4.18,6.52-4.35,1.5-.11,2.94,.9,2.8,3.07-.09,1.4-.69,2.47-1,3.04-2.04,3.67-6.59,3.24-9.35,5.73-.47,.44-1.23,2.57,.57,5.6,.78,1.31,.97,2.08,.15,3.45-.1,.17-.34,.53-.85,1.06-2.58,2.72-9.81,5.65-11.37,4.15-.56-.54-.55-1.54,.03-4.87,.42-2.41,.39-2.98,.36-3.51v-.02c-.15-2.58-2.17-4.51-2.45-7.05-.08-.73,.09-1.29,.19-1.59,.17-.55,.61-1.33,1.74-1.95,.09-.05,.23-.11,.33-.16,1.17-.48,2.5-.38,3.63-.98,1.01-.53,1.88-1.31,2.96-1.71,.98-.34,1.21-.27,2.07,.61h0c.6,.61,1.51,1.53,3.67-.53Zm-166.84,1.24c7.66,5.23,11.82,8.06,12.5,8.49h0c.58,.37,1.04,.65,1.41,.87l-1.21-.72c-8.14-5.2-8.63-5.52-13.58-9.2l-.65-.49c.19,.14,.7,.49,1.53,1.05Zm30.54,16.86s-.09,.08-.14,.11c-1.52-.18-2.77-1.18-4.27-1.44,.17,.17,2.45,1.55,6.65,3.47-1.79-.77-3.56-1.56-5.08-2.26l-6.23-3.14c-6.75-3.59-13.53-8.19-14.38-9.3,.09,0,1.41,.55,3.99,1.68,.65,.3,.72,.35,2.65,1.67h0l.11,.07c1.62,1.1,3,2.03,3.53,1.87,.24-1.42,3.56,.13,9.87,4.61,3.04,2.15,3.23,2.52,3.29,2.64Zm2.25,2.15c1.68,.77,3.65,1.62,5.93,2.53-1.78-.75-3.87-1.63-5.93-2.53Zm116.99-5.01h0c.14,1.51,1.62,2.36,1.87,3.82,0,.04,.01,.08,.01,.12,.56,5.91-22.42,12.49-29.61,8.48-.22-.12-2.44-2.55-6.64-7.29-.09-.11-.37-.47-.57-.84-1.09-2.03-.24-3.75,.37-4.59,.88-1.21,2.35-2.2,4.4-2.94,3.09-1.13,6.4-1.12,9.57-1.85,2.77-.65,5.12-2.33,7.82-3.15,6.11-1.74,9.82,.78,10.81,1.6,.19,.16,1.15,.98,1.57,2.15,.03,.09,.07,.19,.09,.28,.24,.88,.25,1.79,.25,2.68,0,.51,0,1.02,.06,1.53Zm-92.12,12.18c.44-.19,2.56-.55,11.6,3.04h0c2.12,.84,3.21,1.37,3.29,1.59-.55,0-1.15-.07-2.89-.39h-.02l-2.65-.52c-30.95-6.43-39.48-16.15-39.54-16.25-.81-1.16-.25-1.64,1.5-1.32,2.02,.46,3.91,1.3,5.91,1.82,1.97,.52,4.05,.27,6.03,.75,.36,.09,1.69,.44,3.81,1.28,5.36,2.12,10.35,5.04,12.73,7.44,1.77,1.79,.44,1.97-.06,2.03-1.41,.19-2.76-.16-4.09-.5h-.04c-1.05-.28-2.1-.55-3.19-.57,.89,.67,8.47,3.42,9.91,2.92-.75-.46-1.8-.39-2.27-1.33Zm61.42,.68h0s0,.01,0,.01c.03,.02,.05,.05,.08,.07,4.18,4.29-10.71,4.36-10.86,4.36-4.84-.04-7.48-.99-8.61-1.55-.3-.16-.38-.2-.73-.4-.02,0-1.54-1.36-4.58-4.05-1.63-1.44-3.98-.78-5.69-1.98-.42-.3-2.49-1.98-1.97-2.69,.21-.29,.53-.27,.85-.26h.02s0,0,0,0c.38,.02,.75,.04,.93-.41,.05-.12-.29-.57-1-1.33-1.88-1.99-2.19-2.77-1.34-3.32,1.05-.68,3.78-.51,5.59-.39,1.16,.07,2.24-.24,3.32-.57,.69-.2,1.38-.41,2.1-.51,.9-.09,1.57-.06,2.6,.3,.73,.26,2.4,1.06,2.02,2.94-.12,.61-.01,.98,.32,1.12,1.31,.54,2.63,.3,3.95,.06h0c1.32-.24,2.64-.47,3.95,.06,.09,.04,.22,.09,.31,.14,.96,.52,2.13,1.79,1.15,3.01-.73,.9-2.32,1.13-3.59,1.32-3.02,.44-3.12,.7-3.16,.82-.24,.66,2.93,3.65,4.61,3.55,.19-.01,1.64-.14,.83-1.05-.82-.93,1.71-1.55,3.24-1.61,2.58-.11,4.33,1.15,5.58,2.26l.09,.09Zm11-10.74c-1.94,2.91-.11,7.76,6.47,6.3,3.54-.94,4.71-3.06,4.31-4.63-.77-3.01-7.86-6.08-10.78-1.67Zm-31.99,14.54h.01c1.26,.59,1.36,.75,1.56,1.03-.43,.9-6.77,.44-7.97,.1-.06-.02-.12-.04-.19-.06s-.12-.04-.18-.06c-.06-.01-.11-.03-.17-.05-.06-.01-.11-.04-.16-.05-.05-.02-.09-.04-.14-.05-.05-.01-.09-.03-.14-.04s-.08-.03-.12-.04c-.04,0-.08-.02-.22-.07-.77-.19-.91-.1-1.12,.04,.46,2.69-16.19-.74-21.44-3.41-.09-.04-8.85-4.56,5.62-2.81,3.63,.44,4,.39,4.55,.21,.01-1.15-6.57-4.89-10.79-2.2-3.01,1.92-10.43-1.53-12.79-4.03-.3-.32-2.8-3.11,2.02-2.91,2.39,.14,4.72,.76,7.11,.9,1.44,.08,2.86-.06,4.29-.2,1.54-.15,3.09-.3,4.65-.17,2.53,.22,4.86,.69,6.95,1.41,2.32,.8,5.63,3.34,9.93,7.62,.93,.93,3.84,2.55,8.74,4.86Zm-51.45-8.62c.28,.05,.81,.14,1.13,.08,.39-.07,.62-.32-.48-1.1-2.22-1.58-6.65-2.47-6.99-2.12-.34,.35,2.22,2.28,6.34,3.15Zm35.5,7.83c.67,.01,1.43,0,1.88-.13,.69-.2,.53-.57-.49-1.16-1.31-.76-6.39-1.19-6.95-.59-.64,.67,3.44,1.81,5.56,1.88Z"></path></g></g></svg>