<svg focusable="false" aria-hidden="true" viewBox="0 0 183 72" width="183" height="72" fill="currentColor" xmlns="http://www.w3.org/2000/svg"><path fill-rule="evenodd" clip-rule="evenodd" d="M7.76381 15.9923C7.6494 14.9392 8.20537 14.8235 8.49765 14.8974C8.49765 14.8974 13.3326 16.9512 22.9879 17.1197C32.6432 17.2882 37.9567 14.9694 37.9567 14.9694C38.2494 14.897 38.8048 15.0153 38.6852 16.0679C38.5657 17.1205 38.3827 20.1617 38.3062 21.5507L43.8631 21.5643C44.5456 21.5416 45.8071 21.9346 45.3933 23.6884C45.3092 24.0452 45.1857 24.6556 45.0271 25.4392C44.2113 29.4705 42.4676 38.0869 40.3807 40.3468C38.9141 42.0981 36.9378 42.9706 35.4015 43.3325C34.1217 43.713 32.7871 43.646 32.3256 43.6229L32.3255 43.6229C32.2593 43.6196 32.2111 43.6171 32.1836 43.6171C31.1562 45.15 28.5306 48.4631 26.2469 49.4519C25.5024 49.7206 25.5084 49.9911 25.5131 50.2037C25.5134 50.221 25.5138 50.2379 25.5138 50.2544C25.6308 52.2288 26.1269 56.6463 27.1753 58.5207C27.3143 58.8005 27.3534 59.0133 27.3802 59.1593C27.4095 59.3189 27.4241 59.3987 27.5387 59.399L28.9279 59.4024C29.0741 59.4027 29.4251 59.4036 29.6584 59.6966C29.783 59.8532 30.0017 59.8497 30.2396 59.8458C30.5581 59.8406 30.9111 59.8348 31.1194 60.212C31.3425 60.6158 31.2961 61.047 31.2722 61.2692C31.267 61.3176 31.2629 61.3561 31.2628 61.3822L33.4563 61.3876C33.7244 61.3882 34.2603 61.5212 34.259 62.0476L34.2482 66.4346C34.2481 66.5145 34.2423 66.5799 34.2376 66.6333C34.2166 66.8732 34.2166 66.8732 34.8321 66.8747L36.7331 66.8794C36.8552 66.8797 37.0987 66.8949 37.0971 67.5383L37.0923 69.5124C37.0919 69.6587 37.0912 69.9511 36.4332 69.9495L9.75252 69.8843C9.09447 69.8827 9.09518 69.5903 9.09554 69.444L9.10036 67.4699C9.10194 66.8265 9.34552 66.8124 9.46755 66.8127L11.3686 66.8174C11.9841 66.8189 11.9841 66.8189 11.9642 66.5789L11.9642 66.5788L11.9642 66.5788C11.9598 66.5253 11.9544 66.46 11.9546 66.3801L11.9653 61.9931C11.9666 61.4667 12.5031 61.3364 12.7712 61.337L14.9647 61.3424C14.9647 61.3163 14.9608 61.2778 14.9558 61.2294C14.933 61.007 14.8888 60.5756 15.1138 60.1729C15.324 59.7967 15.6769 59.8042 15.9954 59.811C16.2333 59.816 16.4519 59.8207 16.5774 59.6646C16.812 59.3728 17.163 59.3736 17.3092 59.374L18.6984 59.3774C18.813 59.3776 18.828 59.2979 18.8581 59.1385C18.8856 58.9926 18.9258 58.78 19.0662 58.5009C20.1236 56.6317 20.6413 52.2167 20.768 50.2428C20.7681 50.2264 20.7685 50.2095 20.769 50.1923L20.769 50.1921C20.7747 49.9795 20.782 49.709 20.0388 49.4367C17.76 48.4368 15.1506 45.1109 14.1307 43.573C14.1033 43.5729 14.0555 43.5751 13.9898 43.578L13.9894 43.578L13.9888 43.5781L13.9887 43.5781C13.5271 43.599 12.1922 43.6594 10.9143 43.2726C9.37974 42.9033 7.40774 42.0211 5.9497 40.2627C3.87385 37.9926 2.17231 29.3678 1.37622 25.3325C1.22147 24.5481 1.10095 23.9372 1.01852 23.58C0.613359 21.8242 1.87679 21.4373 2.55915 21.4634L8.11599 21.477C8.04627 20.0876 7.87822 17.0455 7.76381 15.9923ZM4.05611 23.9079C3.20128 23.8929 3.40427 24.8924 3.55871 25.6528C3.57875 25.7514 3.59798 25.8461 3.61397 25.934C3.75317 26.6991 4.39978 29.8527 6.101 34.9264C7.80222 40.0001 11.0906 40.3694 12.5222 39.9198C11.5423 37.801 9.47426 31.0193 9.05757 28.6731C8.64087 26.3268 8.12256 23.9788 7.5126 23.9682L4.05611 23.9079ZM42.8047 25.9546C42.9724 25.1971 43.1928 24.2013 42.3378 24.2013L38.8808 24.2013C38.2707 24.2013 37.7115 26.5399 37.2539 28.8785C36.7964 31.2171 34.6103 37.9617 33.5935 40.0631C35.017 40.5376 38.3114 40.2258 40.1009 35.1825C41.8904 30.1393 42.592 26.9975 42.7445 26.2349C42.762 26.1473 42.7829 26.053 42.8047 25.9547L42.8047 25.9546ZM28.1379 33.8175L23.1536 36.9543L18.1912 33.7832L23.139 40.9976L23.139 40.9996L23.1397 40.9986L23.1404 40.9996L23.1404 40.9976L28.1379 33.8175ZM23.2025 23.198L23.2025 23.1933L23.2011 23.1957L23.1998 23.1934L23.1998 23.1979L18.1661 31.7996L23.1593 34.9309L23.1593 34.9326L23.1607 34.9318L23.162 34.9326L23.162 34.931L28.1767 31.8342L23.2025 23.198Z" fill="#currentColor"></path><path d="M38.4795 15.1224C38.4672 16.5262 31.6747 17.605 23.3079 17.532C14.9411 17.459 7.96506 16.2582 7.97731 14.8544C7.98957 13.4506 14.9854 12.3753 23.3522 12.4483C31.719 12.5213 38.4917 13.7186 38.4795 15.1224Z" fill="#currentColor"></path><path d="M34.0877 20.1266C34.8352 20.1266 34.9687 20.1266 36.3243 19.6522C36.1563 20.5542 35.2722 27.3902 34.9687 28.463C34.1577 31.3298 33.2418 35.7601 32.0544 36.6163C31.8288 36.779 30.8345 36.6163 30.4643 36.3778C30.0942 36.1394 31.3767 33.6818 32.9355 28.463C33.8166 22.8376 33.5455 20.3977 34.0877 20.1266Z" fill="#currentColor"></path><path d="M74.5378 12.926C83.7733 12.926 91.2602 20.5379 91.2602 29.9276V39.7035C91.2602 49.0932 83.7733 56.7051 74.5378 56.7051C73.0871 56.7051 71.6796 56.5172 70.3374 56.1642L70.3376 57.3183C70.3376 64.1872 64.8342 69.7686 58.0032 69.8796L57.7958 69.8813V32.4778L57.815 32.4774L57.8155 29.9276C57.8155 20.5379 65.3023 12.926 74.5378 12.926ZM149.424 12.926C158.665 12.926 166.157 20.5814 166.157 30.0247V39.8565C166.157 49.2999 158.665 56.9553 149.424 56.9553C140.184 56.9553 132.692 49.2999 132.692 39.8565V30.0247C132.692 20.5814 140.184 12.926 149.424 12.926ZM111.976 12.1181C121.217 12.1181 128.708 19.7735 128.708 29.2169V39.0486C128.708 48.492 121.217 56.1474 111.976 56.1474C102.735 56.1474 95.244 48.492 95.244 39.0486V29.2169C95.244 19.7735 102.735 12.1181 111.976 12.1181ZM182.889 0V43.3775C182.889 50.3596 177.295 56.0329 170.351 56.1457L170.14 56.1474V12.7699C170.14 5.71728 175.848 0 182.889 0ZM149.424 25.7501C147.114 25.7501 145.241 27.6639 145.241 30.0247V39.8565C145.241 42.2174 147.114 44.1312 149.424 44.1312C151.735 44.1312 153.607 42.2174 153.607 39.8565V30.0247C153.607 27.6639 151.735 25.7501 149.424 25.7501ZM74.5378 25.6772C72.229 25.6772 70.3572 27.5802 70.3572 29.9276V39.7035C70.3572 42.0509 72.229 43.9539 74.5378 43.9539C76.8467 43.9539 78.7184 42.0509 78.7184 39.7035V29.9276C78.7184 27.5802 76.8467 25.6772 74.5378 25.6772ZM111.976 24.9422C109.666 24.9422 107.793 26.856 107.793 29.2169V39.0486C107.793 41.4095 109.666 43.3233 111.976 43.3233C114.286 43.3233 116.159 41.4095 116.159 39.0486V29.2169C116.159 26.856 114.286 24.9422 111.976 24.9422Z" fill="#currentColor"></path><path d="M136.063 67.8326H135.715C135.369 67.8326 135.065 67.5089 135.065 67.0047V64.6226H135.807C136.152 64.6226 136.416 64.394 136.416 64.0689C136.416 63.9046 136.355 63.7584 136.242 63.6538C136.131 63.5498 135.978 63.495 135.807 63.495H135.065V62.1591C135.065 61.7944 134.793 61.5242 134.426 61.5242C134.059 61.5242 133.786 61.7944 133.786 62.1591V63.495H133.444C133.273 63.495 133.12 63.5498 133.008 63.6538C132.896 63.7584 132.835 63.9046 132.835 64.0689C132.835 64.394 133.098 64.6226 133.444 64.6226H133.786V67.0047C133.786 68.1909 134.61 69.1025 135.715 69.1025H135.899C136.297 69.1025 136.631 68.8514 136.631 68.4675C136.631 68.1195 136.395 67.8326 136.063 67.8326Z" fill="#currentColor"></path><path fill-rule="evenodd" clip-rule="evenodd" d="M143.775 66.2022L143.775 66.2014C143.765 64.4777 142.543 63.2512 140.834 63.2512C139.974 63.2512 139.235 63.5547 138.71 64.0798C138.185 64.6048 137.883 65.344 137.883 66.2022C137.883 67.0556 138.185 67.7922 138.71 68.3158C139.235 68.8395 139.974 69.1431 140.834 69.1431C141.689 69.1431 142.426 68.8394 142.949 68.3157C143.473 67.7921 143.775 67.0556 143.775 66.2022ZM140.834 64.4194C141.333 64.4194 141.751 64.6043 142.045 64.9152C142.34 65.2267 142.517 65.6718 142.517 66.2022C142.517 66.7325 142.34 67.1749 142.046 67.4837C141.752 67.7921 141.333 67.9749 140.834 67.9749C140.335 67.9749 139.914 67.792 139.617 67.4834C139.32 67.1744 139.141 66.732 139.141 66.2022C139.141 65.1483 139.847 64.4194 140.834 64.4194Z" fill="#currentColor"></path><path fill-rule="evenodd" clip-rule="evenodd" d="M148.229 71.4084C147.223 71.4084 146.304 71.0081 145.694 70.2436C145.581 70.1056 145.538 69.9446 145.566 69.7903C145.593 69.6371 145.687 69.5021 145.824 69.409L145.825 69.4082C146.132 69.2054 146.502 69.2968 146.703 69.5581C147.044 69.9903 147.568 70.2402 148.249 70.2402C148.708 70.2402 149.126 70.0722 149.43 69.7541C149.734 69.4361 149.932 68.9588 149.932 68.3253V68.2448C149.48 68.8106 148.822 69.1431 148.045 69.1431C147.243 69.1431 146.554 68.8372 146.066 68.3124C145.578 67.7883 145.298 67.0529 145.298 66.2022C145.298 65.344 145.601 64.6048 146.125 64.0798C146.65 63.5547 147.39 63.2512 148.249 63.2512C149.959 63.2512 151.18 64.4777 151.191 66.2014L151.191 66.2022L151.191 68.3964C151.191 70.0655 149.983 71.4084 148.229 71.4084ZM148.249 67.9749C147.75 67.9749 147.329 67.792 147.032 67.4834C146.735 67.1744 146.556 66.732 146.556 66.2022C146.556 65.1483 147.262 64.4194 148.249 64.4194C148.748 64.4194 149.166 64.6043 149.461 64.9152C149.755 65.2267 149.932 65.6718 149.932 66.2022C149.932 66.7325 149.755 67.1749 149.461 67.4837C149.167 67.7921 148.748 67.9749 148.249 67.9749Z" fill="#currentColor"></path><path fill-rule="evenodd" clip-rule="evenodd" d="M157.669 67.6483C157.444 67.4643 157.113 67.4718 156.867 67.6547C156.611 67.8426 156.147 68.0155 155.757 68.0155C154.829 68.0155 154.144 67.4751 153.949 66.6847H157.68C157.847 66.6847 157.998 66.6291 158.107 66.5252C158.217 66.4208 158.279 66.275 158.279 66.1108C158.279 65.2839 158.033 64.5682 157.571 64.0576C157.106 63.5455 156.433 63.2512 155.603 63.2512C154.763 63.2512 154.038 63.5554 153.524 64.0807C153.01 64.6058 152.713 65.3446 152.713 66.2022C152.713 67.0569 153.027 67.794 153.569 68.3173C154.111 68.8404 154.873 69.1431 155.757 69.1431C156.407 69.1431 157.203 68.881 157.688 68.4962C157.828 68.3882 157.904 68.2396 157.899 68.0786C157.893 67.9199 157.81 67.7695 157.672 67.6504L157.669 67.6483ZM155.603 64.3788C156.033 64.3788 156.371 64.5224 156.616 64.7615C156.834 64.9735 156.985 65.2671 157.058 65.6181H153.96C154.047 65.2668 154.22 64.9744 154.465 64.7628C154.743 64.5225 155.124 64.3788 155.603 64.3788Z" fill="#currentColor"></path><path d="M162.377 67.8326H162.029C161.683 67.8326 161.379 67.5089 161.379 67.0047V64.6226H162.121C162.467 64.6226 162.73 64.394 162.73 64.0689C162.73 63.9046 162.669 63.7584 162.557 63.6538C162.445 63.5498 162.292 63.495 162.121 63.495H161.379V62.1591C161.379 61.7944 161.107 61.5242 160.74 61.5242C160.373 61.5242 160.101 61.7944 160.101 62.1591V63.495H159.758C159.587 63.495 159.434 63.5498 159.323 63.6538C159.21 63.7584 159.149 63.9046 159.149 64.0689C159.149 64.394 159.413 64.6226 159.758 64.6226H160.101V67.0047C160.101 68.1909 160.924 69.1025 162.029 69.1025H162.213C162.611 69.1025 162.945 68.8514 162.945 68.4675C162.945 68.1195 162.709 67.8326 162.377 67.8326Z" fill="#currentColor"></path><path d="M167.394 63.241C166.776 63.241 166.216 63.4328 165.782 63.7676V61.5598C165.782 61.377 165.717 61.2141 165.599 61.0967C165.481 60.9792 165.317 60.9147 165.133 60.9147C164.949 60.9147 164.785 60.9792 164.666 61.0967C164.548 61.2141 164.483 61.377 164.483 61.5598V68.4675C164.483 68.6503 164.548 68.8132 164.666 68.9307C164.785 69.0481 164.949 69.1126 165.133 69.1126C165.317 69.1126 165.481 69.0481 165.599 68.9307C165.717 68.8132 165.782 68.6503 165.782 68.4675V65.6029C165.782 64.9498 166.37 64.4296 167.189 64.4296C167.632 64.4296 168.003 64.5525 168.264 64.7973C168.523 65.0409 168.688 65.4206 168.688 65.9686V68.4675C168.688 68.8323 168.97 69.1126 169.338 69.1126C169.705 69.1126 169.987 68.8323 169.987 68.4675V65.9686C169.987 65.0983 169.712 64.4136 169.243 63.9462C168.774 63.4792 168.123 63.241 167.394 63.241Z" fill="#currentColor"></path><path fill-rule="evenodd" clip-rule="evenodd" d="M176.659 66.6847H172.928C173.123 67.4751 173.808 68.0155 174.736 68.0155C175.126 68.0155 175.59 67.8426 175.846 67.6546C176.092 67.4718 176.423 67.4644 176.648 67.6483L176.651 67.6505C176.789 67.7695 176.872 67.9199 176.878 68.0786C176.883 68.2396 176.807 68.3883 176.666 68.4962C176.181 68.8811 175.386 69.1431 174.736 69.1431C173.851 69.1431 173.089 68.8404 172.548 68.3173C172.006 67.794 171.692 67.0569 171.692 66.2022C171.692 65.3446 171.989 64.6058 172.503 64.0807C173.017 63.5554 173.742 63.2512 174.582 63.2512C175.412 63.2512 176.085 63.5455 176.549 64.0576C177.012 64.5682 177.257 65.2839 177.257 66.1108C177.257 66.275 177.196 66.4208 177.086 66.5252C176.976 66.6291 176.826 66.6847 176.659 66.6847ZM174.582 64.3788C175.012 64.3788 175.349 64.5224 175.595 64.7615C175.813 64.9735 175.964 65.2671 176.037 65.6181H172.939C173.026 65.2668 173.198 64.9744 173.443 64.7628C173.722 64.5225 174.102 64.3788 174.582 64.3788Z" fill="#currentColor"></path><path d="M181.714 63.2308C181.104 63.2308 180.539 63.452 180.117 63.8188C180.101 63.6758 180.051 63.5511 179.956 63.4572C179.839 63.3404 179.673 63.2918 179.484 63.2918C179.296 63.2918 179.132 63.3445 179.015 63.4611C178.897 63.5776 178.844 63.7408 178.844 63.9267V68.4675C178.844 68.6576 178.897 68.8217 179.015 68.9377C179.133 69.0533 179.298 69.1025 179.484 69.1025C179.675 69.1025 179.84 69.0503 179.957 68.9325C180.074 68.8151 180.123 68.6516 180.123 68.4675V65.5013C180.123 65.0869 180.339 64.7725 180.713 64.5847C181.091 64.3944 181.635 64.3344 182.27 64.4573C182.421 64.4913 182.575 64.4891 182.708 64.4241C182.846 64.3566 182.94 64.2311 182.984 64.0591C183.014 63.9399 183.002 63.8216 182.95 63.7137C182.898 63.6075 182.809 63.5187 182.696 63.4484C182.472 63.3089 182.136 63.2308 181.714 63.2308Z" fill="#currentColor"></path></svg>