<?xml version="1.0" encoding="UTF-8"?>
<svg xmlns:xodm="http://www.corel.com/coreldraw/odm/2003" xmlns="http://www.w3.org/2000/svg" xmlns:xlink="http://www.w3.org/1999/xlink" version="1.1" id="Layer_1" x="0px" y="0px" viewBox="0 0 2500 2500" style="enable-background:new 0 0 2500 2500;" xml:space="preserve">
<style type="text/css">
	.st0{fill:#FEFEFE;}
	.st1{fill:#9B1C2E;}
</style>
<g id="Layer_x0020_1">
	<g id="_2084847929936">
		<g>
			<circle class="st0" cx="1249.2" cy="1250" r="1247.6"></circle>
		</g>
		<g>
			<path class="st1" d="M733.8,1797.5c28.9,0,56.2-16.1,69-41.8l183.9-349.2H702.5c-43.3,0-77.9-35.3-77.9-77.9v-156.6     c0-43.4,35.3-77.9,77.9-77.9h449.6l349.2-661.5c13.7-25.7,40.2-41.7,69-41.7h588.5c-228-240.9-549.9-391-908-391     C560.4,0,0,559.6,0,1250.8c0,195.9,45,382.2,126,547.5h607.7L733.8,1797.5L733.8,1797.5z"></path>
			<path class="st1" d="M1766.2,702.5c-28.9,0-56.2,16-69,41.7l-183.8,349.2h284.2c43.3,0,77.9,35.3,77.9,77.9v156.6     c0,43.4-35.3,77.9-77.9,77.9h-449.6l-349.2,661.5c-13.7,25.7-40.1,41.7-69,41.7H341.2c228,240.9,549.9,391,908,391     c690.4,0,1250.8-559.6,1250.8-1250.8c0-195.9-45-382.2-126-547.5h-607.7L1766.2,702.5L1766.2,702.5z"></path>
		</g>
	</g>
</g>
</svg>
