<?xml version="1.0" encoding="UTF-8" standalone="no"?>
<!DOCTYPE svg PUBLIC "-//W3C//DTD SVG 1.1//EN" "http://www.w3.org/Graphics/SVG/1.1/DTD/svg11.dtd">
<svg width="100%" height="100%" viewBox="0 0 105 72" version="1.1" xmlns="http://www.w3.org/2000/svg" xmlns:xlink="http://www.w3.org/1999/xlink" xml:space="preserve" xmlns:serif="http://www.serif.com/" style="fill-rule:evenodd;clip-rule:evenodd;stroke-linejoin:round;stroke-miterlimit:1.41421;">
    <g transform="matrix(1,0,0,1,-571,-639)">
        <clipPath id="_clip1">
            <rect x="572.729" y="641" width="101.565" height="68.384"/>
        </clipPath>
        <g clip-path="url(#_clip1)">
            <path d="M648.252,694.4C648.391,694.4 648.492,694.366 648.557,694.298C648.619,694.231 648.65,694.14 648.65,694.028C648.65,693.911 648.617,693.824 648.55,693.765C648.482,693.707 648.374,693.677 648.226,693.677L647.808,693.677L647.808,694.4L648.252,694.4ZM647.354,693.299L648.274,693.299C648.422,693.299 648.55,693.322 648.653,693.365C648.758,693.407 648.847,693.461 648.917,693.531C648.986,693.597 649.037,693.671 649.068,693.756C649.102,693.839 649.116,693.922 649.116,694C649.116,694.155 649.078,694.292 649.001,694.416C648.924,694.54 648.809,694.634 648.65,694.696L649.231,695.68L648.718,695.68L648.185,694.756L647.808,694.756L647.808,695.68L647.354,695.68L647.354,693.299ZM648.17,696.404C648.437,696.404 648.682,696.356 648.907,696.257C649.13,696.16 649.325,696.028 649.49,695.856C649.654,695.686 649.783,695.484 649.874,695.254C649.968,695.021 650.014,694.772 650.014,694.507C650.014,694.24 649.968,693.995 649.874,693.761C649.783,693.531 649.654,693.329 649.49,693.157C649.325,692.986 649.13,692.852 648.907,692.754C648.682,692.654 648.439,692.604 648.18,692.604C647.914,692.604 647.669,692.654 647.443,692.754C647.22,692.852 647.023,692.986 646.855,693.157C646.69,693.329 646.56,693.531 646.469,693.761C646.375,693.995 646.33,694.24 646.33,694.507C646.33,694.772 646.375,695.021 646.469,695.254C646.56,695.484 646.687,695.686 646.853,695.856C647.016,696.028 647.21,696.16 647.436,696.257C647.662,696.356 647.906,696.404 648.17,696.404ZM648.17,696.854C647.844,696.854 647.537,696.794 647.251,696.673C646.966,696.552 646.718,696.384 646.51,696.171C646.298,695.957 646.133,695.707 646.013,695.422C645.89,695.136 645.83,694.828 645.83,694.5C645.83,694.172 645.89,693.865 646.013,693.579C646.133,693.294 646.298,693.045 646.51,692.834C646.718,692.624 646.966,692.455 647.251,692.333C647.537,692.209 647.846,692.146 648.18,692.146C648.506,692.146 648.814,692.209 649.097,692.333C649.38,692.455 649.625,692.624 649.834,692.834C650.045,693.045 650.21,693.294 650.33,693.579C650.45,693.865 650.513,694.172 650.513,694.5C650.513,694.828 650.45,695.136 650.33,695.422C650.21,695.707 650.045,695.957 649.834,696.171C649.625,696.384 649.378,696.552 649.092,696.673C648.806,696.794 648.499,696.854 648.17,696.854Z" style="fill-rule:nonzero;"/>
            <path d="M636.912,678.319C635.71,677.362 633.55,676.777 631.627,676.777C626.681,676.777 623.827,680.469 623.827,684.934C623.827,689.226 626.198,692.459 631.013,692.459C633.634,692.459 635.71,691.778 636.912,690.774L636.912,678.319ZM620.191,707.615L621.97,702.09C623.69,702.805 626.069,703.648 629.062,703.648C633.058,703.648 636.912,701.945 636.912,696.879L636.912,696.127C635.198,697.036 633.127,697.702 630.058,697.702C621.912,697.702 617.443,692.422 617.443,684.931C617.443,677.685 622.742,671.531 631.385,671.531C636.293,671.531 640.111,673.02 643.19,674.999L643.19,695.005C643.19,698.333 642.818,700.188 642.074,701.984C640.135,706.682 635.498,709.384 628.728,709.384C626.078,709.384 622.678,708.765 620.191,707.615Z" style="fill-rule:nonzero;"/>
            <path d="M572.726,672.119L578.731,672.119L578.89,674.743C580.92,672.628 583.843,671.586 586.706,671.586C592.462,671.586 596.27,674.959 596.27,681.446L596.27,697.042L590.002,697.042L590.002,682.206C590.002,678.609 588.127,677.019 585.262,677.019C582.526,677.019 579.79,678.846 578.998,681.148L578.998,697.042L572.726,697.042" style="fill-rule:nonzero;"/>
            <path d="M601.418,672.119L607.361,672.119L607.517,675.319C609.408,672.956 611.904,671.704 615.142,671.704C616.238,671.704 617.63,671.942 618.73,672.427L616.747,678.069C615.854,677.724 614.448,677.54 613.435,677.54C610.822,677.54 608.503,679.226 607.69,681.456L607.69,697.042L601.418,697.042" style="fill-rule:nonzero;"/>
            <rect x="662.712" y="653.168" width="4.239" height="6.754" style="fill:rgb(255,210,0);fill-rule:nonzero;"/>
            <rect x="662.712" y="665.326" width="4.239" height="6.76" style="fill:rgb(255,210,0);fill-rule:nonzero;"/>
            <rect x="655.358" y="660.501" width="6.758" height="4.245" style="fill:rgb(66,149,56);fill-rule:nonzero;"/>
            <rect x="667.526" y="660.501" width="6.767" height="4.245" style="fill:rgb(255,210,0);fill-rule:nonzero;"/>
            <rect x="650.546" y="653.168" width="4.241" height="6.754" style="fill:rgb(51,48,145);fill-rule:nonzero;"/>
            <rect x="650.546" y="665.326" width="4.241" height="6.76" style="fill:rgb(0,173,239);fill-rule:nonzero;"/>
            <rect x="643.193" y="660.501" width="6.759" height="4.245" style="fill:rgb(0,173,239);fill-rule:nonzero;"/>
            <rect x="650.546" y="641" width="4.241" height="6.759" style="fill:rgb(236,0,139);fill-rule:nonzero;"/>
            <rect x="643.193" y="648.339" width="6.759" height="4.241" style="fill:rgb(236,0,139);fill-rule:nonzero;"/>
            <rect x="655.361" y="648.339" width="6.768" height="4.241" style="fill:rgb(236,0,139);fill-rule:nonzero;"/>
        </g>
    </g>
</svg>
