<svg width="20" height="21" viewBox="0 0 20 21" fill="none" xmlns="http://www.w3.org/2000/svg">
<rect width="20" height="20" transform="translate(0 0.5)" />
<path d="M17.5 6.52783C17.5 5.42326 16.6046 4.52783 15.5 4.52783H4.5C3.39543 4.52783 2.5 5.42326 2.5 6.52783V14.4723C2.5 15.5768 3.39543 16.4723 4.5 16.4723H15.5C16.6046 16.4723 17.5 15.5768 17.5 14.4723V6.52783ZM16 7.16175C16 7.38078 15.8869 7.58428 15.701 7.69998L11.0565 10.5894C10.4096 10.9917 9.59037 10.9917 8.94354 10.5894L4.29904 7.69998C4.11307 7.58428 4 7.38078 4 7.16175C4 6.66448 4.54647 6.36085 4.96871 6.62353L8.94354 9.09629C9.59037 9.49869 10.4096 9.49869 11.0565 9.09629L15.0313 6.62353C15.4535 6.36085 16 6.66448 16 7.16175Z" fill="var(--justaname-primary-color)"/>
</svg>
