<svg width="20" height="21" viewBox="0 0 20 21" fill="none" xmlns="http://www.w3.org/2000/svg">
<rect width="20" height="20" transform="translate(0 0.5)" />
<path d="M4.56037 3.94905C4.56552 3.36557 4.57067 2.88019 4.57581 2.8647C4.57581 2.84921 6.98029 2.84404 15.2595 2.8647L15.275 5.00759H16.7732C18.1634 5.00759 18.2715 5.01275 18.2715 5.09537C18.2715 5.147 18.2406 5.27609 18.1995 5.37936L18.1994 5.37947C18.1634 5.48791 18.1068 5.65823 18.0759 5.75631C18.0398 5.85441 18.0038 5.99383 17.9884 6.06612C17.9729 6.13841 17.942 6.25201 17.9163 6.3243C17.8905 6.39659 17.839 6.55666 17.803 6.68575C17.767 6.81484 17.7309 6.95426 17.7258 6.99557C17.7155 7.03688 17.6949 7.104 17.6794 7.13498C17.664 7.18146 17.5662 7.19695 17.1388 7.17629V15.9544L17.2933 15.9905C17.3757 16.0164 17.4838 16.0835 17.525 16.1454C17.5765 16.2281 17.6022 16.3933 17.6022 16.6618C17.6022 17.0646 17.6022 17.0646 17.7309 17.0387C17.8287 17.0181 17.9008 17.0542 18.0398 17.1937C18.2149 17.3692 18.22 17.3847 18.1943 18.1231L12.7109 18.1489V17.7358C12.7109 17.3692 12.7263 17.3073 12.8396 17.1937C12.9065 17.1214 12.9941 17.0646 13.0301 17.0594C13.0661 17.0542 13.1434 17.0491 13.2 17.0439C13.2927 17.0387 13.303 17.0026 13.303 16.6412C13.303 16.29 13.3184 16.2332 13.4317 16.1145C13.5038 16.037 13.5913 15.9802 13.6222 15.9802C13.6737 15.9802 13.6891 15.4535 13.684 13.5172C13.684 12.1592 13.6634 10.956 13.6376 10.8424C13.6171 10.7288 13.581 10.5894 13.5707 10.5326C13.5553 10.4758 13.5089 10.3364 13.4677 10.2228C13.4265 10.1092 13.3442 9.913 13.2875 9.78391C13.2309 9.65482 13.0816 9.41213 12.9529 9.24173C12.8293 9.07133 12.613 8.82864 12.474 8.69955C12.335 8.57046 12.1188 8.3949 11.99 8.30712C11.8613 8.2245 11.5987 8.07992 11.3979 7.99214C11.1971 7.8992 10.9654 7.81142 10.8831 7.79592C10.8007 7.78043 10.6565 7.75462 10.5741 7.73396C10.4917 7.71847 10.188 7.70814 9.90479 7.70814C9.62161 7.70814 9.31783 7.71847 9.23545 7.73396C9.15307 7.75462 9.0089 7.78043 8.92652 7.79592C8.84414 7.81142 8.61245 7.8992 8.41165 7.99214C8.21084 8.07992 7.94826 8.2245 7.81954 8.30712C7.69082 8.3949 7.47457 8.57046 7.33555 8.69955C7.19654 8.82864 6.98029 9.07133 6.85672 9.24173C6.728 9.41213 6.57869 9.65482 6.52205 9.78391C6.46541 9.913 6.38303 10.1092 6.34184 10.2228C6.30065 10.3364 6.25946 10.4707 6.24402 10.5171C6.23372 10.5688 6.20797 10.6617 6.18738 10.7237C6.16678 10.7908 6.14619 11.9991 6.12045 15.9802L6.23372 15.9544C6.31267 15.9372 6.41221 15.9785 6.53235 16.0783C6.7074 16.2229 6.71255 16.2332 6.7177 16.6308C6.72285 16.9923 6.73315 17.0387 6.82068 17.0439C6.87731 17.0439 6.96484 17.0594 7.02148 17.0801C7.07812 17.0955 7.1605 17.1627 7.20684 17.2298C7.26347 17.3124 7.28922 17.4777 7.30466 18.1489H1.79548L1.80578 17.7513C1.81093 17.3899 1.83152 17.3331 1.95509 17.1937C2.04777 17.0904 2.1456 17.0387 2.38759 17.0387L2.39789 16.6515C2.40304 16.3623 2.42878 16.2332 2.50601 16.1351C2.5575 16.0628 2.66562 16.0009 2.87672 15.9802V7.17629H2.61413C2.3567 7.17629 2.35155 7.17629 2.28976 6.96975C2.25372 6.85615 2.19708 6.6651 2.16104 6.54634C2.13015 6.42241 2.10441 6.31914 2.10956 6.31397C2.10956 6.30365 2.06322 6.17456 2.00658 6.02998C1.94479 5.88023 1.90875 5.75631 1.9242 5.75631C1.93965 5.75631 1.91905 5.66853 1.87786 5.56525C1.83667 5.45682 1.79033 5.29675 1.76974 5.21413C1.74914 5.13151 1.7337 5.05406 1.72855 5.04373C1.7234 5.0334 2.3567 5.02308 4.55007 5.00759L4.56037 3.94905Z" fill="var(--justaname-primary-color)"/>
</svg>
