<svg width="20" height="21" viewBox="0 0 20 21" fill="none" xmlns="http://www.w3.org/2000/svg">
<g id="basil:google-solid">
<path id="Vector" d="M17.2167 9C17.2967 9 17.3658 9.05583 17.3792 9.13417C17.4575 9.5725 17.5 10.0442 17.5 10.5C17.5025 12.3457 16.8219 14.1271 15.5892 15.5008C15.5605 15.5326 15.5207 15.5519 15.478 15.5547C15.4354 15.5575 15.3934 15.5435 15.3608 15.5158L13.3233 13.7908C13.3058 13.7757 13.2915 13.7572 13.2812 13.7365C13.271 13.7157 13.2651 13.6931 13.2639 13.6699C13.2626 13.6468 13.2661 13.6237 13.274 13.6019C13.2819 13.5802 13.2942 13.5602 13.31 13.5433C13.7203 13.0967 14.0361 12.5718 14.2383 12H10.1667C10.1225 12 10.0801 11.9824 10.0488 11.9512C10.0176 11.9199 10 11.8775 10 11.8333V9.16667C10 9.075 10.075 9 10.1667 9H17.2167ZM12.0608 14.5C12.0907 14.4844 12.1245 14.478 12.158 14.4815C12.1915 14.4851 12.2233 14.4985 12.2492 14.52L14.3892 16.3308C14.4083 16.3467 14.4235 16.3668 14.4336 16.3894C14.4438 16.4121 14.4487 16.4368 14.4479 16.4616C14.4471 16.4865 14.4406 16.5108 14.429 16.5327C14.4174 16.5547 14.4009 16.5737 14.3808 16.5883C13.1057 17.5085 11.5725 18.0026 10 18C8.75001 18.0006 7.51971 17.6886 6.42111 17.0923C5.32252 16.496 4.39053 15.6343 3.71001 14.5858C3.68771 14.5512 3.67928 14.5094 3.68638 14.4688C3.69348 14.4282 3.7156 14.3917 3.74834 14.3667L5.86917 12.7317C5.88867 12.7171 5.91104 12.7068 5.93479 12.7015C5.95855 12.6962 5.98316 12.696 6.00701 12.7008C6.03086 12.7057 6.05341 12.7156 6.07317 12.7298C6.09293 12.744 6.10946 12.7623 6.12167 12.7833C6.70472 13.7743 7.64509 14.5044 8.74962 14.8236C9.85416 15.1429 11.039 15.0271 12.0608 14.5ZM5.56667 11.2717C5.572 11.3022 5.56892 11.3336 5.55777 11.3625C5.54661 11.3915 5.5278 11.4168 5.50334 11.4358L3.22417 13.1917C3.20406 13.2075 3.18052 13.2183 3.15545 13.2233C3.13038 13.2283 3.10448 13.2274 3.07984 13.2206C3.05519 13.2138 3.03249 13.2013 3.01356 13.1841C2.99463 13.1669 2.98 13.1455 2.97084 13.1217C2.65838 12.283 2.49891 11.395 2.50001 10.5C2.50001 9.54 2.68084 8.62167 3.01001 7.7775C3.01925 7.75423 3.03372 7.7334 3.05229 7.71662C3.07087 7.69983 3.09305 7.68754 3.11714 7.68069C3.14122 7.67385 3.16655 7.67263 3.19118 7.67713C3.21581 7.68164 3.23907 7.69174 3.25917 7.70667L5.53584 9.37667C5.59001 9.41584 5.61501 9.485 5.60084 9.55C5.47885 10.1163 5.4678 10.7008 5.56667 11.2717ZM5.95584 8.13417C6.03584 8.1925 6.14834 8.16917 6.20167 8.08583C6.60783 7.44635 7.16897 6.91984 7.83301 6.55519C8.49704 6.19054 9.24244 5.99957 10 6C11.0475 5.99965 12.062 6.3668 12.8667 7.0375C12.8992 7.06502 12.9407 7.07942 12.9833 7.07788C13.0258 7.07634 13.0663 7.05897 13.0967 7.02917L14.985 5.14C15.0008 5.12427 15.0133 5.10548 15.0216 5.08477C15.0299 5.06407 15.0339 5.04188 15.0334 5.01958C15.0328 4.99727 15.0277 4.97532 15.0184 4.95504C15.0091 4.93477 14.9957 4.91661 14.9792 4.90167C13.6102 3.67633 11.8373 2.9992 10 3C8.76639 2.99932 7.5517 3.30321 6.46373 3.8847C5.37577 4.46619 4.44819 5.30729 3.76334 6.33333C3.74032 6.36858 3.73172 6.41133 3.73932 6.45274C3.74692 6.49415 3.77013 6.53106 3.80417 6.55583L5.95584 8.13417Z" fill="#8714E3"/>
</g>
</svg>
