<svg width="20" height="21" viewBox="0 0 20 21" fill="none" xmlns="http://www.w3.org/2000/svg">
<rect width="20" height="20" transform="translate(0 0.5)" />
<path fill-rule="evenodd" clip-rule="evenodd" d="M5.71455 3C4.86221 3 4.04477 3.33851 3.44196 3.94108C2.83915 4.54366 2.50033 5.36098 2.5 6.21332V14.7854C2.5 15.638 2.83867 16.4556 3.44152 17.0585C4.04437 17.6613 4.862 18 5.71455 18H14.2867C15.139 17.9997 15.9563 17.6609 16.5589 17.058C17.1615 16.4552 17.5 15.6378 17.5 14.7854V6.21332C17.4997 5.36119 17.161 4.54406 16.5585 3.94152C15.9559 3.33898 15.1388 3.00033 14.2867 3H5.71455ZM15.2113 6.21825C15.2113 6.4638 15.1138 6.6993 14.9401 6.87293C14.7665 7.04656 14.531 7.1441 14.2854 7.1441C14.0399 7.1441 13.8044 7.04656 13.6308 6.87293C13.4571 6.6993 13.3596 6.4638 13.3596 6.21825C13.3596 5.9727 13.4571 5.73721 13.6308 5.56358C13.8044 5.38995 14.0399 5.2924 14.2854 5.2924C14.531 5.2924 14.7665 5.38995 14.9401 5.56358C15.1138 5.73721 15.2113 5.9727 15.2113 6.21825ZM10.0019 7.93169C9.32086 7.93169 8.66776 8.20222 8.18622 8.68375C7.70469 9.16529 7.43416 9.81839 7.43416 10.4994C7.43416 11.1804 7.70469 11.8335 8.18622 12.315C8.66776 12.7965 9.32086 13.0671 10.0019 13.0671C10.6828 13.0671 11.3359 12.7965 11.8175 12.315C12.299 11.8335 12.5695 11.1804 12.5695 10.4994C12.5695 9.81839 12.299 9.16529 11.8175 8.68375C11.3359 8.20222 10.6828 7.93169 10.0019 7.93169ZM6.19846 10.4994C6.19846 9.49099 6.59904 8.5239 7.31209 7.81085C8.02513 7.09781 8.99222 6.69723 10.0006 6.69723C11.009 6.69723 11.9761 7.09781 12.6891 7.81085C13.4022 8.5239 13.8028 9.49099 13.8028 10.4994C13.8028 11.5078 13.4022 12.4749 12.6891 13.1879C11.9761 13.901 11.009 14.3015 10.0006 14.3015C8.99222 14.3015 8.02513 13.901 7.31209 13.1879C6.59904 12.4749 6.19846 11.5078 6.19846 10.4994Z" fill="var(--justaname-primary-color)"/>
</svg>
