<svg width="20" height="21" viewBox="0 0 20 21" fill="none" xmlns="http://www.w3.org/2000/svg">
<rect width="20" height="20" transform="translate(0 0.5)" />
<path d="M14.6667 4.5C15.0203 4.5 15.3594 4.64048 15.6095 4.89052C15.8595 5.14057 16 5.47971 16 5.83333V15.1667C16 15.5203 15.8595 15.8594 15.6095 16.1095C15.3594 16.3595 15.0203 16.5 14.6667 16.5H5.33333C4.97971 16.5 4.64057 16.3595 4.39052 16.1095C4.14048 15.8594 4 15.5203 4 15.1667V5.83333C4 5.47971 4.14048 5.14057 4.39052 4.89052C4.64057 4.64048 4.97971 4.5 5.33333 4.5H14.6667ZM14.3333 14.8333V11.3C14.3333 10.7236 14.1044 10.1708 13.6968 9.76322C13.2892 9.35564 12.7364 9.12667 12.16 9.12667C11.5933 9.12667 10.9333 9.47333 10.6133 9.99333V9.25333H8.75333V14.8333H10.6133V11.5467C10.6133 11.0333 11.0267 10.6133 11.54 10.6133C11.7875 10.6133 12.0249 10.7117 12.2 10.8867C12.375 11.0617 12.4733 11.2991 12.4733 11.5467V14.8333H14.3333ZM6.58667 8.20667C6.88371 8.20667 7.16859 8.08867 7.37863 7.87863C7.58867 7.66859 7.70667 7.38371 7.70667 7.08667C7.70667 6.46667 7.20667 5.96 6.58667 5.96C6.28786 5.96 6.00128 6.0787 5.78999 6.28999C5.5787 6.50128 5.46 6.78786 5.46 7.08667C5.46 7.70667 5.96667 8.20667 6.58667 8.20667ZM7.51333 14.8333V9.25333H5.66667V14.8333H7.51333Z" fill="var(--justaname-primary-color)"/>
</svg>
