<svg width="20" height="21" viewBox="0 0 20 21" fill="none" xmlns="http://www.w3.org/2000/svg">
<rect width="20" height="20" transform="translate(0 0.5)" />
<path d="M6.89091 6.44946C9.11275 6.44946 10.9138 8.26305 10.9138 10.5001C10.9138 12.7371 9.11262 14.5505 6.89091 14.5505C4.6692 14.5505 2.86792 12.7371 2.86792 10.5001C2.86792 8.26305 4.66907 6.44946 6.89091 6.44946ZM13.3153 6.68674C14.4263 6.68674 15.3268 8.39385 15.3268 10.5001H15.327C15.327 12.6057 14.4264 14.3134 13.3155 14.3134C12.2046 14.3134 11.304 12.6057 11.304 10.5001C11.304 8.3944 12.2044 6.68674 13.3153 6.68674ZM16.4246 7.08392C16.8153 7.08392 17.1321 8.61335 17.1321 10.5001C17.1321 12.3862 16.8154 13.9162 16.4246 13.9162C16.0339 13.9162 15.7173 12.3866 15.7173 10.5001C15.7173 8.61349 16.034 7.08392 16.4246 7.08392Z" fill="var(--justaname-primary-color)"/>
</svg>
