<svg width="20" height="21" viewBox="0 0 20 21" fill="none" xmlns="http://www.w3.org/2000/svg">
<rect width="20" height="20" transform="translate(0 0.5)" />
<path d="M8.99994 11.332C8.99994 10.876 8.62394 10.5 8.16794 10.5C7.71194 10.5 7.33594 10.876 7.33594 11.332C7.33594 11.5527 7.42359 11.7643 7.57962 11.9203C7.73566 12.0763 7.94728 12.164 8.16794 12.164C8.3886 12.164 8.60022 12.0763 8.75625 11.9203C8.91228 11.7643 8.99994 11.5527 8.99994 11.332ZM11.6719 13.228C11.3119 13.588 10.5439 13.716 9.99994 13.716C9.45594 13.716 8.68794 13.588 8.32794 13.228C8.30848 13.2072 8.28494 13.1906 8.2588 13.1792C8.23265 13.1678 8.20444 13.162 8.17594 13.162C8.14743 13.162 8.11923 13.1678 8.09308 13.1792C8.06693 13.1906 8.0434 13.2072 8.02394 13.228C8.0031 13.2475 7.9865 13.271 7.97514 13.2971C7.96378 13.3233 7.95792 13.3515 7.95792 13.38C7.95792 13.4085 7.96378 13.4367 7.97514 13.4629C7.9865 13.489 8.0031 13.5125 8.02394 13.532C8.59194 14.1 9.67994 14.148 9.99994 14.148C10.3199 14.148 11.4079 14.1 11.9759 13.532C11.9968 13.5125 12.0134 13.489 12.0247 13.4629C12.0361 13.4367 12.042 13.4085 12.042 13.38C12.042 13.3515 12.0361 13.3233 12.0247 13.2971C12.0134 13.271 11.9968 13.2475 11.9759 13.228C11.8959 13.148 11.7599 13.148 11.6719 13.228ZM11.8319 10.5C11.3759 10.5 10.9999 10.876 10.9999 11.332C10.9999 11.788 11.3759 12.164 11.8319 12.164C12.2879 12.164 12.6639 11.788 12.6639 11.332C12.6639 10.876 12.2959 10.5 11.8319 10.5Z" fill="var(--justaname-primary-color)"/>
<path d="M10 2.5C5.584 2.5 2 6.084 2 10.5C2 14.916 5.584 18.5 10 18.5C14.416 18.5 18 14.916 18 10.5C18 6.084 14.416 2.5 10 2.5ZM14.64 11.564C14.656 11.676 14.664 11.796 14.664 11.916C14.664 13.708 12.576 15.164 10 15.164C7.424 15.164 5.336 13.708 5.336 11.916C5.336 11.796 5.344 11.676 5.36 11.564C4.952 11.38 4.672 10.972 4.672 10.5C4.67081 10.2706 4.73744 10.046 4.86351 9.8543C4.98959 9.66264 5.16948 9.51251 5.3806 9.42276C5.59173 9.33301 5.82466 9.30765 6.05015 9.34985C6.27564 9.39206 6.48363 9.49996 6.648 9.66C7.456 9.076 8.576 8.708 9.816 8.668L10.408 5.876C10.416 5.82 10.448 5.772 10.496 5.748C10.544 5.716 10.6 5.708 10.656 5.716L12.592 6.132C12.6577 5.99886 12.7577 5.88572 12.8819 5.8043C13.006 5.72288 13.1497 5.67616 13.2979 5.66898C13.4462 5.66179 13.5937 5.69441 13.7251 5.76345C13.8565 5.83248 13.9671 5.93542 14.0453 6.06159C14.1235 6.18775 14.1666 6.33255 14.17 6.48096C14.1734 6.62937 14.137 6.77598 14.0646 6.9056C13.9923 7.03521 13.8865 7.1431 13.7584 7.21808C13.6303 7.29306 13.4844 7.33239 13.336 7.332C12.888 7.332 12.528 6.98 12.504 6.54L10.768 6.172L10.24 8.668C11.464 8.708 12.56 9.084 13.36 9.66C13.4826 9.54289 13.6294 9.45399 13.79 9.39952C13.9506 9.34505 14.1211 9.32632 14.2897 9.34465C14.4583 9.36298 14.6208 9.41792 14.7659 9.50563C14.9111 9.59333 15.0353 9.71169 15.1299 9.85242C15.2245 9.99315 15.2872 10.1528 15.3136 10.3203C15.3401 10.4878 15.3296 10.6591 15.2829 10.8221C15.2363 10.9851 15.1546 11.136 15.0435 11.2642C14.9325 11.3923 14.7947 11.4946 14.64 11.564Z" fill="var(--justaname-primary-color)"/>
</svg>
