<svg width="20" height="21" viewBox="0 0 20 21" fill="none" xmlns="http://www.w3.org/2000/svg">
<rect width="20" height="20" transform="translate(0 0.5)" />
<path d="M17.5 5.89757C16.9378 6.14425 16.3423 6.306 15.733 6.37755C16.3726 6.00022 16.8535 5.40185 17.086 4.69423C16.48 5.04862 15.8191 5.29824 15.1307 5.43266C14.8409 5.12765 14.4923 4.88516 14.1061 4.71998C13.7199 4.55481 13.3042 4.47041 12.8845 4.47194C11.185 4.47194 9.80725 5.83578 9.80725 7.5161C9.80725 7.7542 9.83425 7.98703 9.88675 8.20932C8.66768 8.15107 7.47409 7.83815 6.38213 7.29053C5.29016 6.7429 4.32382 5.97261 3.54475 5.02878C3.27162 5.49174 3.12806 6.02023 3.12925 6.55839C3.12977 7.06171 3.25512 7.55696 3.49397 7.99939C3.73281 8.44182 4.07763 8.81748 4.49725 9.09242C4.00936 9.0766 3.53202 8.94573 3.10375 8.7104V8.74807C3.10375 10.2234 4.165 11.4539 5.57125 11.7342C5.30696 11.8047 5.03469 11.8404 4.76125 11.8404C4.5625 11.8404 4.36975 11.8216 4.1815 11.7839C4.38256 12.3927 4.76733 12.9235 5.28236 13.3025C5.7974 13.6815 6.41713 13.89 7.0555 13.899C5.96055 14.7464 4.61636 15.2041 3.23425 15.2003C2.98525 15.2003 2.74075 15.1852 2.5 15.1581C3.91094 16.0553 5.54694 16.5305 7.21675 16.528C12.877 16.528 15.9715 11.8887 15.9715 7.86572L15.961 7.47164C16.5646 7.04491 17.0861 6.51156 17.5 5.89757Z" fill="var(--justaname-primary-color)"/>
</svg>
