<svg width="93" height="86" viewBox="0 0 93 86" fill="none" xmlns="http://www.w3.org/2000/svg">
<path d="M15.9198 6.1725C15.9488 2.89232 15.9777 0.163668 16.0067 0.0765839C16.0067 -0.0105007 29.5239 -0.0395289 76.0673 0.0765839L76.1541 12.1233H84.577C92.3922 12.1233 93 12.1523 93 12.6168C93 12.907 92.8263 13.6327 92.5948 14.2133L92.5945 14.2141C92.3919 14.8237 92.0737 15.7811 91.9001 16.3324C91.6975 16.8839 91.4949 17.6677 91.408 18.0741C91.3212 18.4804 91.1475 19.1191 91.0028 19.5255C90.8581 19.9319 90.5686 20.8317 90.366 21.5574C90.1634 22.2831 89.9608 23.0669 89.9318 23.2991C89.8739 23.5314 89.7582 23.9087 89.6713 24.0829C89.5845 24.3441 89.0346 24.4312 86.6321 24.3151V73.663L87.5005 73.8662C87.9636 74.0114 88.5714 74.3887 88.803 74.7371C89.0924 75.2015 89.2372 76.1304 89.2372 77.6399C89.2372 79.9041 89.2372 79.9041 89.9608 79.7589C90.5107 79.6428 90.916 79.846 91.6975 80.6298C92.6816 81.6167 92.7105 81.7038 92.5658 85.8549L61.7396 86V83.6777C61.7396 81.6167 61.8264 81.2684 62.4632 80.6298C62.8395 80.2234 63.3315 79.9041 63.5341 79.875C63.7367 79.846 64.1709 79.817 64.4893 79.788C65.0103 79.7589 65.0682 79.5557 65.0682 77.5238C65.0682 75.5499 65.155 75.2305 65.7918 74.5629C66.1971 74.1275 66.6891 73.8082 66.8628 73.8082C67.1522 73.8082 67.2391 70.8473 67.2101 59.9617C67.2101 52.3273 67.0944 45.5637 66.9496 44.9251C66.8338 44.2865 66.6312 43.5027 66.5733 43.1834C66.4865 42.8641 66.226 42.0804 65.9944 41.4417C65.7629 40.8031 65.2998 39.7001 64.9814 38.9743C64.663 38.2486 63.8236 36.8843 63.1 35.9264C62.4053 34.9685 61.1896 33.6041 60.4081 32.8784C59.6266 32.1527 58.4109 31.1658 57.6873 30.6723C56.9636 30.2078 55.4875 29.395 54.3586 28.9016C53.2298 28.3791 51.9272 27.8856 51.4641 27.7985C51.001 27.7114 50.1906 27.5663 49.7274 27.4502C49.2643 27.3631 47.5566 27.305 45.9646 27.305C44.3726 27.305 42.6649 27.3631 42.2018 27.4502C41.7387 27.5663 40.9282 27.7114 40.4651 27.7985C40.002 27.8856 38.6994 28.3791 37.5706 28.9016C36.4417 29.395 34.9656 30.2078 34.2419 30.6723C33.5183 31.1658 32.3026 32.1527 31.5211 32.8784C30.7396 33.6041 29.5239 34.9685 28.8293 35.9264C28.1056 36.8843 27.2662 38.2486 26.9478 38.9743C26.6294 39.7001 26.1663 40.8031 25.9348 41.4417C25.7032 42.0804 25.4716 42.8351 25.3848 43.0963C25.3269 43.3866 25.1822 43.9091 25.0664 44.2575C24.9506 44.6348 24.8349 51.4274 24.6901 73.8082L25.3269 73.663C25.7707 73.5663 26.3303 73.7985 27.0057 74.3597C27.9899 75.1725 28.0188 75.2305 28.0477 77.4657C28.0767 79.4977 28.1346 79.7589 28.6266 79.788C28.945 79.788 29.4371 79.875 29.7555 79.9912C30.0739 80.0782 30.537 80.4556 30.7975 80.833C31.1159 81.2974 31.2606 82.2263 31.3475 86H0.376458L0.434348 83.7648C0.463292 81.7328 0.579072 81.4135 1.27375 80.6298C1.79476 80.0492 2.34471 79.7589 3.70512 79.7589L3.76301 77.5818C3.79195 75.9562 3.93668 75.2305 4.37085 74.679C4.6603 74.2726 5.26814 73.9243 6.45488 73.8082V24.3151H4.97869C3.53145 24.3151 3.5025 24.3151 3.15516 23.154C2.95255 22.5154 2.63416 21.4413 2.43154 20.7737C2.25787 20.077 2.11315 19.4964 2.14209 19.4674C2.14209 19.4094 1.88159 18.6836 1.5632 17.8709C1.21586 17.029 1.01324 16.3324 1.10008 16.3324C1.18691 16.3324 1.07113 15.8389 0.839576 15.2583C0.608017 14.6487 0.347513 13.7489 0.231734 13.2844C0.115954 12.82 0.0291196 12.3845 0.000174731 12.3265C-0.0287701 12.2684 3.53145 12.2104 15.862 12.1233L15.9198 6.1725Z" fill="var(--justaname-primary-color)"/>
</svg>
