<svg width="10" height="10" viewBox="0 0 10 10" fill="none" xmlns="http://www.w3.org/2000/svg">
<g id="delete_forever">
<mask id="mask0_2623_164" style="mask-type:alpha" maskUnits="userSpaceOnUse" x="0" y="0" width="10" height="10">
<rect id="Bounding box" width="10" height="10" fill="#D9D9D9"/>
</mask>
<g mask="url(#mask0_2623_164)">
<path id="delete_forever_2" d="M3.91675 6.875L5.00008 5.79167L6.08341 6.875L6.66675 6.29167L5.58341 5.20833L6.66675 4.125L6.08341 3.54167L5.00008 4.625L3.91675 3.54167L3.33341 4.125L4.41675 5.20833L3.33341 6.29167L3.91675 6.875ZM2.91675 8.75C2.68758 8.75 2.4914 8.6684 2.32821 8.50521C2.16501 8.34201 2.08341 8.14583 2.08341 7.91667V2.5H1.66675V1.66667H3.75008V1.25H6.25008V1.66667H8.33341V2.5H7.91675V7.91667C7.91675 8.14583 7.83515 8.34201 7.67196 8.50521C7.50876 8.6684 7.31258 8.75 7.08341 8.75H2.91675ZM7.08341 2.5H2.91675V7.91667H7.08341V2.5Z" fill="#FF0000"/>
</g>
</g>
</svg>
