<svg width="80" height="36" viewBox="0 0 80 36" fill="none" xmlns="http://www.w3.org/2000/svg">
<g id="Group 26">
<g id="Name">
<path d="M40.1477 29.1921H36.4646L32.5659 23.2571V29.1921H28.8828V17.3889H32.5659L36.4646 23.4239V17.3889H40.1477V29.1921Z" fill="black"/>
<path d="M41.314 24.4908C41.314 23.5017 41.4799 22.6459 41.8117 21.9235C42.1546 21.1899 42.6191 20.6342 43.2053 20.2563C43.7915 19.8674 44.4496 19.6729 45.1796 19.6729C45.7879 19.6729 46.3132 19.8007 46.7556 20.0563C47.1981 20.3008 47.5354 20.6398 47.7677 21.0732V19.7896H51.4342V29.1921H47.7677V27.9084C47.5354 28.3418 47.1981 28.6864 46.7556 28.942C46.3132 29.1865 45.7879 29.3088 45.1796 29.3088C44.4496 29.3088 43.7915 29.1198 43.2053 28.7419C42.6191 28.3529 42.1546 27.7972 41.8117 27.0748C41.4799 26.3413 41.314 25.48 41.314 24.4908ZM47.7677 24.4908C47.7677 23.9907 47.6405 23.6017 47.3861 23.3238C47.1317 23.046 46.8054 22.9071 46.4073 22.9071C46.0091 22.9071 45.6828 23.046 45.4284 23.3238C45.174 23.6017 45.0468 23.9907 45.0468 24.4908C45.0468 24.9909 45.174 25.3799 45.4284 25.6578C45.6828 25.9356 46.0091 26.0746 46.4073 26.0746C46.8054 26.0746 47.1317 25.9356 47.3861 25.6578C47.6405 25.3799 47.7677 24.9909 47.7677 24.4908Z" fill="black"/>
<path d="M65.5806 19.7229C66.7751 19.7229 67.6987 20.0841 68.3512 20.8065C69.0149 21.5289 69.3467 22.5069 69.3467 23.7406V29.1921H65.6802V24.2074C65.6802 23.8073 65.5585 23.4961 65.3152 23.2738C65.0829 23.0404 64.7677 22.9237 64.3695 22.9237C63.9603 22.9237 63.6395 23.0404 63.4073 23.2738C63.175 23.4961 63.0589 23.8073 63.0589 24.2074V29.1921H59.3924V24.2074C59.3924 23.8073 59.2707 23.4961 59.0274 23.2738C58.7951 23.0404 58.4799 22.9237 58.0817 22.9237C57.6725 22.9237 57.3518 23.0404 57.1195 23.2738C56.8872 23.4961 56.7711 23.8073 56.7711 24.2074V29.1921H53.088V19.7896H56.7711V21.0566C57.0365 20.6565 57.396 20.3341 57.8495 20.0896C58.314 19.8451 58.856 19.7229 59.4753 19.7229C60.15 19.7229 60.7473 19.8729 61.2671 20.173C61.7869 20.462 62.2017 20.8732 62.5114 21.4067C62.8543 20.9176 63.2911 20.5175 63.822 20.2063C64.3529 19.884 64.9391 19.7229 65.5806 19.7229Z" fill="black"/>
<path d="M80.0006 24.4075C80.0006 24.6631 79.984 24.9076 79.9508 25.141H74.028C74.0833 25.9523 74.4207 26.358 75.04 26.358C75.4382 26.358 75.7258 26.1746 75.9027 25.8078H79.8015C79.6688 26.4747 79.3867 27.0748 78.9554 27.6083C78.5351 28.1307 77.9987 28.5474 77.3461 28.8586C76.7046 29.1587 75.9967 29.3088 75.2225 29.3088C74.2935 29.3088 73.4639 29.1143 72.734 28.7253C72.015 28.3363 71.451 27.7806 71.0417 27.0582C70.6436 26.3246 70.4445 25.4688 70.4445 24.4908C70.4445 23.5128 70.6436 22.6625 71.0417 21.9401C71.451 21.2066 72.015 20.6453 72.734 20.2563C73.4639 19.8674 74.2935 19.6729 75.2225 19.6729C76.1516 19.6729 76.9756 19.8674 77.6945 20.2563C78.4245 20.6342 78.9886 21.1788 79.3867 21.8901C79.796 22.6014 80.0006 23.4405 80.0006 24.4075ZM76.2677 23.5239C76.2677 23.2127 76.1682 22.9793 75.9691 22.8237C75.77 22.657 75.5212 22.5736 75.2225 22.5736C74.57 22.5736 74.1884 22.8904 74.0778 23.5239H76.2677Z" fill="black"/>
</g>
<g id="Just a">
<path d="M42.4474 5.69824V12.4027C42.4474 13.6448 42.1197 14.5886 41.4644 15.2341C40.8189 15.8698 39.9094 16.1877 38.7357 16.1877C37.474 16.1877 36.4716 15.8405 35.7282 15.1461C34.9849 14.4517 34.6133 13.4394 34.6133 12.1093H37.8261C37.8261 12.5298 37.8946 12.8281 38.0315 13.0042C38.1684 13.1705 38.3543 13.2536 38.589 13.2536C38.7846 13.2536 38.9362 13.19 39.0438 13.0629C39.1514 12.9357 39.2052 12.7157 39.2052 12.4027V5.69824H42.4474Z" fill="black"/>
<path d="M52.6118 7.8108V16.085H49.3549V14.8233C49.1006 15.2146 48.7583 15.5324 48.328 15.7769C47.9074 16.0214 47.4037 16.1437 46.8169 16.1437C45.8682 16.1437 45.1249 15.8258 44.587 15.1901C44.0588 14.5544 43.7948 13.6937 43.7948 12.6081V7.8108H47.037V12.1973C47.037 12.5885 47.1397 12.9015 47.345 13.1362C47.5602 13.3612 47.8438 13.4736 48.1959 13.4736C48.5578 13.4736 48.8414 13.3612 49.0468 13.1362C49.2522 12.9015 49.3549 12.5885 49.3549 12.1973V7.8108H52.6118Z" fill="black"/>
<path d="M57.765 16.1877C56.9826 16.1877 56.2882 16.0606 55.6818 15.8063C55.0852 15.552 54.6109 15.1999 54.2588 14.75C53.9067 14.3001 53.7062 13.7915 53.6573 13.2242H56.7821C56.8212 13.4688 56.9239 13.6497 57.0902 13.7671C57.2662 13.8844 57.4863 13.9431 57.7504 13.9431C57.9166 13.9431 58.0487 13.9089 58.1465 13.8404C58.2443 13.7622 58.2932 13.6693 58.2932 13.5617C58.2932 13.3758 58.1905 13.2438 57.9851 13.1656C57.7797 13.0873 57.4325 12.9993 56.9435 12.9015C56.3469 12.7841 55.853 12.657 55.4618 12.5201C55.0803 12.3831 54.7429 12.1484 54.4495 11.8159C54.1659 11.4833 54.0241 11.0237 54.0241 10.4368C54.0241 9.92826 54.1561 9.46858 54.4202 9.0578C54.694 8.63725 55.095 8.3096 55.6231 8.07487C56.1513 7.83036 56.7919 7.70811 57.545 7.70811C58.66 7.70811 59.5304 7.98196 60.1564 8.52966C60.7921 9.07736 61.1735 9.79133 61.3007 10.6716H58.4106C58.3617 10.4466 58.259 10.2755 58.1025 10.1581C57.946 10.031 57.7357 9.96738 57.4716 9.96738C57.3054 9.96738 57.1782 10.0016 57.0902 10.0701C57.0022 10.1288 56.9582 10.2217 56.9582 10.3488C56.9582 10.5151 57.0609 10.6422 57.2662 10.7302C57.4716 10.8085 57.7993 10.8916 58.2492 10.9796C58.8458 11.097 59.3495 11.229 59.7602 11.3758C60.171 11.5225 60.528 11.7767 60.8312 12.1386C61.1344 12.4907 61.286 12.9797 61.286 13.6057C61.286 14.0947 61.1442 14.5348 60.8605 14.926C60.5769 15.3172 60.1661 15.6253 59.6282 15.8503C59.1001 16.0752 58.479 16.1877 57.765 16.1877Z" fill="black"/>
<path d="M67.7279 13.3123V16.085H66.4955C64.2265 16.085 63.092 14.9554 63.092 12.6961V10.5249H62.065V7.8108H63.092V5.81561H66.3488V7.8108H67.6985V10.5249H66.3488V12.7548C66.3488 12.9504 66.3928 13.0922 66.4809 13.1802C66.5787 13.2683 66.7351 13.3123 66.9503 13.3123H67.7279Z" fill="black"/>
<path d="M71.0209 11.9479C71.0209 11.0775 71.1676 10.3244 71.4611 9.68864C71.7643 9.04313 72.175 8.55411 72.6934 8.22158C73.2118 7.87927 73.7937 7.70811 74.4392 7.70811C74.9771 7.70811 75.4417 7.82058 75.8329 8.04553C76.2241 8.2607 76.5224 8.559 76.7278 8.94044V7.8108H79.97V16.085H76.7278V14.9554C76.5224 15.3368 76.2241 15.64 75.8329 15.8649C75.4417 16.0801 74.9771 16.1877 74.4392 16.1877C73.7937 16.1877 73.2118 16.0214 72.6934 15.6889C72.175 15.3466 71.7643 14.8576 71.4611 14.2218C71.1676 13.5763 71.0209 12.8184 71.0209 11.9479ZM76.7278 11.9479C76.7278 11.5078 76.6153 11.1655 76.3904 10.921C76.1654 10.6765 75.8769 10.5542 75.5248 10.5542C75.1727 10.5542 74.8842 10.6765 74.6592 10.921C74.4343 11.1655 74.3218 11.5078 74.3218 11.9479C74.3218 12.388 74.4343 12.7303 74.6592 12.9748C74.8842 13.2194 75.1727 13.3416 75.5248 13.3416C75.8769 13.3416 76.1654 13.2194 76.3904 12.9748C76.6153 12.7303 76.7278 12.388 76.7278 11.9479Z" fill="black"/>
</g>
<g id="Group 19">
<g id="Group 13">
<g id="Group 11">
<path id="Ellipse 2" d="M31.4993 13.8899C33.7692 21.4532 29.4781 29.4247 21.9147 31.6946C14.3514 33.9645 6.37994 29.6733 4.11003 22.1099C1.84012 14.5466 6.13131 6.57516 13.6947 4.30525C21.258 2.03534 29.2294 6.32653 31.4993 13.8899Z" fill="#3280F4"/>
<g id="Ellipse 2 (Stroke)" filter="url(#filter0_i_2536_1549)">
<path fill-rule="evenodd" clip-rule="evenodd" d="M21.6511 30.8163C28.7295 28.692 32.7455 21.2318 30.6211 14.1534C28.4968 7.07512 21.0365 3.05912 13.9582 5.18346C6.8799 7.30781 2.8639 14.768 4.98824 21.8464C7.11259 28.9247 14.5728 32.9407 21.6511 30.8163ZM21.9147 31.6946C29.4781 29.4247 33.7692 21.4532 31.4993 13.8899C29.2294 6.32653 21.258 2.03534 13.6947 4.30525C6.13131 6.57516 1.84012 14.5466 4.11003 22.1099C6.37994 29.6733 14.3514 33.9645 21.9147 31.6946Z" fill="black"/>
</g>
<path id="Subtract" fill-rule="evenodd" clip-rule="evenodd" d="M28.8881 27.0356C27.4787 28.1821 25.8258 29.0773 23.9775 29.632C16.4141 31.9019 8.44269 27.6108 6.17278 20.0474C4.75709 15.3303 5.89349 10.4545 8.7841 6.9021C4.42593 10.4472 2.39495 16.3953 4.11015 22.1103C6.38006 29.6737 14.3515 33.9649 21.9148 31.695C24.7611 30.8407 27.144 29.1791 28.8881 27.0356Z" fill="black"/>
<g id="Group 8">
<path id="Ellipse 9" d="M36.2192 12.4536C36.2192 17.9557 31.703 22.4161 26.132 22.4161C20.5611 22.4161 16.0449 17.9557 16.0449 12.4536C16.0449 6.95137 20.5611 2.49097 26.132 2.49097C31.703 2.49097 36.2192 6.95137 36.2192 12.4536Z" fill="#FDF9FE"/>
<path id="Ellipse 9 (Stroke)" fill-rule="evenodd" clip-rule="evenodd" d="M26.132 21.4992C31.2074 21.4992 35.3022 17.4386 35.3022 12.4536C35.3022 7.46847 31.2074 3.40788 26.132 3.40788C21.0567 3.40788 16.9618 7.46847 16.9618 12.4536C16.9618 17.4386 21.0567 21.4992 26.132 21.4992ZM26.132 22.4161C31.703 22.4161 36.2192 17.9557 36.2192 12.4536C36.2192 6.95137 31.703 2.49097 26.132 2.49097C20.5611 2.49097 16.0449 6.95137 16.0449 12.4536C16.0449 17.9557 20.5611 22.4161 26.132 22.4161Z" fill="black"/>
<circle id="Ellipse 6" cx="27.7501" cy="11.9566" r="4.22662" fill="black" stroke="black" stroke-width="4"/>
<path id="Ellipse 10" d="M24.7616 18.4311C24.7616 23.9333 20.3012 28.3937 14.799 28.3937C9.29683 28.3937 4.83643 23.9333 4.83643 18.4311C4.83643 12.9289 9.29683 8.46851 14.799 8.46851C20.3012 8.46851 24.7616 12.9289 24.7616 18.4311Z" fill="#FDF9FE"/>
<path id="Ellipse 10 (Stroke)" fill-rule="evenodd" clip-rule="evenodd" d="M14.799 27.4768C19.7948 27.4768 23.8447 23.4269 23.8447 18.4311C23.8447 13.4353 19.7948 9.38542 14.799 9.38542C9.80322 9.38542 5.75334 13.4353 5.75334 18.4311C5.75334 23.4269 9.80322 27.4768 14.799 27.4768ZM14.799 28.3937C20.3012 28.3937 24.7616 23.9333 24.7616 18.4311C24.7616 12.9289 20.3012 8.46851 14.799 8.46851C9.29683 8.46851 4.83643 12.9289 4.83643 18.4311C4.83643 23.9333 9.29683 28.3937 14.799 28.3937Z" fill="black"/>
<path id="Ellipse 11" d="M20.5206 17.9341C20.5206 20.3067 18.6461 22.1608 16.4185 22.1608C14.1909 22.1608 12.3164 20.3067 12.3164 17.9341C12.3164 15.5616 14.1909 13.7075 16.4185 13.7075C18.6461 13.7075 20.5206 15.5616 20.5206 17.9341Z" fill="black" stroke="black" stroke-width="4"/>
</g>
</g>
</g>
<path id="Star 1" d="M17.9938 13.9504L18.6235 15.7276L20.4007 16.3573L18.6235 16.987L17.9938 18.7642L17.3641 16.987L15.5869 16.3573L17.3641 15.7276L17.9938 13.9504Z" fill="white"/>
<path id="Star 2" d="M29.685 7.30151L30.1948 8.74018L31.6334 9.24995L30.1948 9.75972L29.685 11.1984L29.1752 9.75972L27.7366 9.24995L29.1752 8.74018L29.685 7.30151Z" fill="white"/>
</g>
</g>
<defs>
<filter id="filter0_i_2536_1549" x="3.50293" y="3.698" width="28.6035" height="28.6038" filterUnits="userSpaceOnUse" color-interpolation-filters="sRGB">
<feFlood flood-opacity="0" result="BackgroundImageFix"/>
<feBlend mode="normal" in="SourceGraphic" in2="BackgroundImageFix" result="shape"/>
<feColorMatrix in="SourceAlpha" type="matrix" values="0 0 0 0 0 0 0 0 0 0 0 0 0 0 0 0 0 0 127 0" result="hardAlpha"/>
<feOffset dx="10" dy="-10"/>
<feComposite in2="hardAlpha" operator="arithmetic" k2="-1" k3="1"/>
<feColorMatrix type="matrix" values="0 0 0 0 0 0 0 0 0 0 0 0 0 0 0 0 0 0 1 0"/>
<feBlend mode="normal" in2="shape" result="effect1_innerShadow_2536_1549"/>
</filter>
</defs>
</svg>
