<?xml version="1.0" encoding="UTF-8"?>
<svg xmlns="http://www.w3.org/2000/svg" xmlns:xlink="http://www.w3.org/1999/xlink" width="27px" height="32px" viewBox="0 0 27 32" version="1.1">
<g id="surface1">
<path style=" stroke:none;fill-rule:nonzero;fill:rgb(49.019608%,31.372549%,81.176471%);fill-opacity:1;" d="M 23.757812 12.554688 C 21.023438 9.574219 16.832031 5.710938 16.378906 3.773438 C 15.925781 1.835938 17.132812 0.0429688 17.132812 0.0429688 C 15.21875 0.0078125 14.136719 0.972656 13.511719 2.066406 C 12.894531 0.972656 11.800781 0.0078125 9.894531 0.0429688 C 9.894531 0.0429688 11.109375 1.820312 10.652344 3.773438 C 10.195312 5.722656 5.996094 9.574219 3.273438 12.554688 C -4.347656 20.894531 2.265625 31.960938 13.503906 31.960938 C 24.738281 31.960938 31.367188 20.894531 23.757812 12.554688 Z M 13.511719 29.410156 C 8.980469 29.410156 3.828125 26.980469 2.683594 22.070312 C 1.382812 16.332031 7.007812 12.808594 10.332031 9.355469 L 10.871094 9.898438 C 11.164062 10.171875 11.449219 10.460938 11.753906 10.734375 C 11.511719 10.976562 11.269531 11.203125 11.054688 11.421875 C 8.296875 14.117188 3.523438 17.1875 4.5625 21.601562 C 5.492188 25.5625 9.898438 27.414062 13.511719 27.414062 C 17.121094 27.414062 21.53125 25.5625 22.457031 21.601562 C 23.492188 17.1875 18.722656 14.109375 15.96875 11.421875 C 14.664062 10.148438 13.367188 8.851562 12.074219 7.550781 C 12.582031 7.023438 13.054688 6.460938 13.484375 5.867188 L 13.507812 5.84375 L 13.53125 5.867188 C 17.011719 10.90625 25.984375 15.007812 24.347656 22.070312 C 23.191406 26.980469 18.050781 29.410156 13.511719 29.410156 Z M 16.953125 18.328125 C 16.722656 18.050781 16.472656 17.789062 16.207031 17.546875 L 17.609375 16.078125 C 19.632812 18.148438 21.558594 20.734375 18.585938 23.261719 C 17.296875 24.359375 15.359375 24.851562 13.492188 24.851562 C 11.625 24.851562 9.699219 24.359375 8.410156 23.261719 C 5.421875 20.722656 7.386719 18.125 9.414062 16.042969 L 10.8125 17.523438 C 10.527344 17.769531 10.265625 18.039062 10.027344 18.328125 C 7.824219 21.058594 11.050781 22.757812 13.484375 22.757812 C 15.917969 22.757812 19.160156 21.058594 16.953125 18.328125 Z M 15.160156 20.109375 C 14.140625 20.691406 12.886719 20.6875 11.871094 20.097656 L 12.558594 16.175781 C 11.730469 15.714844 11.359375 14.722656 11.675781 13.828125 C 11.992188 12.933594 12.90625 12.398438 13.84375 12.558594 C 14.777344 12.722656 15.460938 13.53125 15.460938 14.480469 C 15.464844 15.1875 15.078125 15.839844 14.453125 16.175781 Z M 15.160156 20.109375 "/>
</g>
</svg>
