<svg width="164" height="76" viewBox="0 0 164 76" fill="none" xmlns="http://www.w3.org/2000/svg">
<path d="M79.9638 62.8541H72.2737L64.1334 50.4624V62.8541H56.4434V38.21H64.1334L72.2737 50.8105V38.21H79.9638V62.8541Z" fill="white"/>
<path d="M82.3988 53.0382C82.3988 50.9729 82.7452 49.1861 83.438 47.6778C84.1539 46.1462 85.1238 44.9859 86.3478 44.197C87.5717 43.3848 88.9457 42.9787 90.4699 42.9787C91.74 42.9787 92.8369 43.2455 93.7607 43.7793C94.6844 44.2898 95.3887 44.9975 95.8737 45.9026V43.2223H103.529V62.8541H95.8737V60.1739C95.3887 61.0789 94.6844 61.7983 93.7607 62.332C92.8369 62.8425 91.74 63.0978 90.4699 63.0978C88.9457 63.0978 87.5717 62.7033 86.3478 61.9143C85.1238 61.1021 84.1539 59.9418 83.438 58.4335C82.7452 56.9019 82.3988 55.1035 82.3988 53.0382ZM95.8737 53.0382C95.8737 51.994 95.6081 51.1818 95.077 50.6017C94.5458 50.0215 93.8646 49.7315 93.0332 49.7315C92.2019 49.7315 91.5206 50.0215 90.9895 50.6017C90.4583 51.1818 90.1928 51.994 90.1928 53.0382C90.1928 54.0825 90.4583 54.8947 90.9895 55.4748C91.5206 56.0549 92.2019 56.345 93.0332 56.345C93.8646 56.345 94.5458 56.0549 95.077 55.4748C95.6081 54.8947 95.8737 54.0825 95.8737 53.0382Z" fill="white"/>
<path d="M133.066 43.0831C135.56 43.0831 137.488 43.8373 138.851 45.3456C140.236 46.854 140.929 48.8961 140.929 51.4719V62.8541H133.274V52.4465C133.274 51.6111 133.02 50.9613 132.512 50.4972C132.027 50.0099 131.369 49.7663 130.537 49.7663C129.683 49.7663 129.013 50.0099 128.528 50.4972C128.043 50.9613 127.801 51.6111 127.801 52.4465V62.8541H120.145V52.4465C120.145 51.6111 119.891 50.9613 119.383 50.4972C118.898 50.0099 118.24 49.7663 117.409 49.7663C116.554 49.7663 115.885 50.0099 115.4 50.4972C114.915 50.9613 114.672 51.6111 114.672 52.4465V62.8541H106.982V43.2223H114.672V45.8678C115.226 45.0324 115.977 44.3594 116.924 43.8489C117.894 43.3384 119.025 43.0831 120.319 43.0831C121.727 43.0831 122.974 43.3964 124.06 44.0229C125.145 44.6263 126.011 45.4849 126.658 46.5987C127.374 45.5777 128.286 44.7423 129.394 44.0925C130.503 43.4196 131.727 43.0831 133.066 43.0831Z" fill="white"/>
<path d="M163.174 52.8642C163.174 53.3979 163.139 53.9084 163.07 54.3957H150.704C150.819 56.0897 151.523 56.9367 152.817 56.9367C153.648 56.9367 154.248 56.5539 154.618 55.7881H162.758C162.481 57.1804 161.892 58.4335 160.992 59.5474C160.114 60.638 158.994 61.5082 157.632 62.158C156.292 62.7845 154.814 63.0978 153.198 63.0978C151.258 63.0978 149.526 62.6917 148.002 61.8795C146.501 61.0673 145.323 59.907 144.468 58.3987C143.637 56.8671 143.221 55.0803 143.221 53.0382C143.221 50.9962 143.637 49.2209 144.468 47.7126C145.323 46.181 146.501 45.0092 148.002 44.197C149.526 43.3848 151.258 42.9787 153.198 42.9787C155.137 42.9787 156.858 43.3848 158.359 44.197C159.883 44.9859 161.061 46.123 161.892 47.6082C162.747 49.0933 163.174 50.8453 163.174 52.8642ZM155.38 51.0194C155.38 50.3696 155.172 49.8823 154.756 49.5574C154.341 49.2093 153.821 49.0353 153.198 49.0353C151.835 49.0353 151.038 49.6966 150.807 51.0194H155.38Z" fill="white"/>
<path d="M84.7662 13.8011V27.7996C84.7662 30.393 84.0821 32.3636 82.7139 33.7114C81.3662 35.0388 79.467 35.7024 77.0165 35.7024C74.3823 35.7024 72.2891 34.9775 70.7371 33.5276C69.1852 32.0777 68.4092 29.9642 68.4092 27.187H75.1174C75.1174 28.0651 75.2604 28.6879 75.5462 29.0555C75.8321 29.4026 76.2201 29.5762 76.7102 29.5762C77.1186 29.5762 77.4352 29.4435 77.6598 29.178C77.8844 28.9125 77.9967 28.4531 77.9967 27.7996V13.8011H84.7662Z" fill="white"/>
<path d="M105.989 18.212V35.488H99.1887V32.8537C98.6578 33.6706 97.9431 34.3342 97.0446 34.8448C96.1665 35.3553 95.1148 35.6105 93.8895 35.6105C91.9087 35.6105 90.3567 34.9469 89.2336 33.6195C88.1309 32.2922 87.5795 30.4951 87.5795 28.2284V18.212H94.349V27.3708C94.349 28.1876 94.5634 28.8411 94.9923 29.3312C95.4415 29.8008 96.0337 30.0357 96.7689 30.0357C97.5244 30.0357 98.1166 29.8008 98.5455 29.3312C98.9743 28.8411 99.1887 28.1876 99.1887 27.3708V18.212H105.989Z" fill="white"/>
<path d="M116.749 35.7024C115.115 35.7024 113.665 35.437 112.399 34.906C111.153 34.3751 110.163 33.6399 109.428 32.7006C108.693 31.7612 108.274 30.6993 108.172 29.5149H114.696C114.778 30.0255 114.992 30.4032 115.34 30.6483C115.707 30.8933 116.167 31.0159 116.718 31.0159C117.065 31.0159 117.341 30.9444 117.545 30.8014C117.749 30.6381 117.851 30.4441 117.851 30.2195C117.851 29.8315 117.637 29.5558 117.208 29.3924C116.779 29.229 116.054 29.0453 115.033 28.8411C113.788 28.596 112.756 28.3305 111.939 28.0446C111.143 27.7588 110.439 27.2687 109.826 26.5743C109.234 25.88 108.938 24.9203 108.938 23.695C108.938 22.6331 109.213 21.6734 109.765 20.8157C110.336 19.9376 111.174 19.2535 112.276 18.7634C113.379 18.2529 114.717 17.9976 116.289 17.9976C118.617 17.9976 120.434 18.5694 121.741 19.713C123.069 20.8565 123.865 22.3472 124.131 24.1851H118.096C117.994 23.7154 117.78 23.3581 117.453 23.113C117.126 22.8476 116.687 22.7148 116.136 22.7148C115.789 22.7148 115.523 22.7863 115.34 22.9292C115.156 23.0518 115.064 23.2458 115.064 23.5112C115.064 23.8584 115.278 24.1239 115.707 24.3076C116.136 24.471 116.82 24.6446 117.759 24.8284C119.005 25.0734 120.057 25.3491 120.914 25.6554C121.772 25.9617 122.517 26.4927 123.15 27.2482C123.784 27.9834 124.1 29.0044 124.1 30.3113C124.1 31.3324 123.804 32.2513 123.212 33.0682C122.62 33.885 121.762 34.5282 120.639 34.9979C119.536 35.4676 118.239 35.7024 116.749 35.7024Z" fill="white"/>
<path d="M137.55 29.6987V35.488H134.977C130.24 35.488 127.871 33.1294 127.871 28.4122V23.8788H125.727V18.212H127.871V14.0462H134.671V18.212H137.489V23.8788H134.671V28.5347C134.671 28.9432 134.763 29.2393 134.947 29.423C135.151 29.6068 135.478 29.6987 135.927 29.6987H137.55Z" fill="white"/>
<path d="M144.426 26.85C144.426 25.0326 144.732 23.4602 145.345 22.1328C145.978 20.7851 146.836 19.764 147.918 19.0697C149 18.355 150.215 17.9976 151.563 17.9976C152.686 17.9976 153.656 18.2325 154.473 18.7021C155.29 19.1514 155.913 19.7742 156.341 20.5706V18.212H163.111V35.488H156.341V33.1294C155.913 33.9258 155.29 34.5589 154.473 35.0286C153.656 35.4778 152.686 35.7024 151.563 35.7024C150.215 35.7024 149 35.3553 147.918 34.661C146.836 33.9462 145.978 32.9252 145.345 31.5979C144.732 30.2501 144.426 28.6675 144.426 26.85ZM156.341 26.85C156.341 25.9311 156.107 25.2164 155.637 24.7058C155.167 24.1953 154.565 23.9401 153.83 23.9401C153.095 23.9401 152.492 24.1953 152.022 24.7058C151.553 25.2164 151.318 25.9311 151.318 26.85C151.318 27.769 151.553 28.4837 152.022 28.9942C152.492 29.5047 153.095 29.76 153.83 29.76C154.565 29.76 155.167 29.5047 155.637 28.9942C156.107 28.4837 156.341 27.769 156.341 26.85Z" fill="white"/>
<circle cx="33.3037" cy="39.4738" r="29.855" fill="#3280F4"/>
<path fill-rule="evenodd" clip-rule="evenodd" d="M56.4498 58.3407C53.5074 60.7336 50.0572 62.602 46.1992 63.7598C30.4074 68.4992 13.7636 59.5395 9.02416 43.7478C6.06804 33.898 8.44143 23.7167 14.478 16.2993C5.37667 23.7011 1.13502 36.1214 4.71656 48.0552C9.45598 63.8469 26.0998 72.8066 41.8916 68.0672C47.8335 66.2839 52.8082 62.8152 56.4498 58.3407Z" fill="black"/>
<circle cx="50.7505" cy="27.8861" r="20.3013" fill="white" stroke="black"/>
<circle cx="54.0754" cy="26.8461" r="12.5007" fill="black" stroke="black"/>
<path d="M58.1161 18.6327L58.7091 20.3065L58.7887 20.5311L59.0134 20.6107L60.6872 21.2038L59.0134 21.7969L58.7887 21.8765L58.7091 22.1012L58.1161 23.775L57.523 22.1012L57.4434 21.8765L57.2187 21.7969L55.5449 21.2038L57.2187 20.6107L57.4434 20.5311L57.523 20.3065L58.1161 18.6327Z" fill="white" stroke="black"/>
<circle cx="27.0337" cy="40.3668" r="20.3013" fill="white" stroke="black"/>
<circle cx="30.4138" cy="39.3265" r="12.5007" fill="black" stroke="black"/>
<path d="M33.7061 32.5123L34.5496 34.8929L34.6292 35.1176L34.8539 35.1972L37.2345 36.0407L34.8539 36.8842L34.6292 36.9638L34.5496 37.1885L33.7061 39.5691L32.8626 37.1885L32.783 36.9638L32.5583 36.8842L30.1777 36.0407L32.5583 35.1972L32.783 35.1176L32.8626 34.8929L33.7061 32.5123Z" fill="white" stroke="black"/>
</svg>
