<svg width="76" height="76" viewBox="0 0 76 76" fill="none" xmlns="http://www.w3.org/2000/svg">
<circle cx="33.4776" cy="39.4738" r="28.905" fill="#3280F4" stroke="black" stroke-width="1.9"/>
<path fill-rule="evenodd" clip-rule="evenodd" d="M56.6236 58.3407C53.6813 60.7336 50.231 62.602 46.373 63.7598C30.5812 68.4992 13.9374 59.5395 9.19799 43.7478C6.24187 33.898 8.61526 23.7167 14.6518 16.2993C5.5505 23.7011 1.30884 36.1214 4.89039 48.0552C9.62981 63.8469 26.2736 72.8066 42.0654 68.0672C48.0073 66.2839 52.982 62.8152 56.6236 58.3407Z" fill="black"/>
<circle cx="50.9243" cy="27.8861" r="19.8513" fill="white" stroke="black" stroke-width="1.9"/>
<circle cx="54.2493" cy="26.8461" r="13.0007" fill="black"/>
<path d="M58.2899 17.1356L59.3542 20.1395L62.3581 21.2038L59.3542 22.2682L58.2899 25.272L57.2255 22.2682L54.2217 21.2038L57.2255 20.1395L58.2899 17.1356Z" fill="white"/>
<circle cx="27.2075" cy="40.3668" r="19.8513" fill="white" stroke="black" stroke-width="1.9"/>
<circle cx="30.5876" cy="39.3265" r="13.0007" fill="black"/>
<path d="M33.8799 31.0153L35.1947 34.7259L38.9053 36.0407L35.1947 37.3555L33.8799 41.0661L32.5651 37.3555L28.8545 36.0407L32.5651 34.7259L33.8799 31.0153Z" fill="white"/>
</svg>
