<?xml version="1.0" encoding="UTF-8"?>
<svg xmlns="http://www.w3.org/2000/svg" xmlns:xlink="http://www.w3.org/1999/xlink" width="32px" height="32px" viewBox="0 0 32 32" version="1.1">
<g id="surface1">
<path style="fill:none;stroke-width:2.5;stroke-linecap:butt;stroke-linejoin:miter;stroke:rgb(13.333333%,13.72549%,14.901961%);stroke-opacity:1;stroke-miterlimit:4;" d="M 30.600513 15.9 C 30.600513 24.016919 24.016919 30.600513 15.9 30.600513 C 7.783081 30.600513 1.199487 24.016919 1.199487 15.9 C 1.199487 7.783081 7.783081 1.199487 15.9 1.199487 C 24.016919 1.199487 30.600513 7.783081 30.600513 15.9 Z M 30.600513 15.9 " transform="matrix(1.006289,0,0,1.006289,0,0)"/>
<path style=" stroke:none;fill-rule:nonzero;fill:rgb(13.333333%,13.72549%,14.901961%);fill-opacity:1;" d="M 18.816406 21.332031 C 18.71875 21.234375 18.71875 21.03125 18.617188 20.832031 C 18.617188 20.628906 18.515625 20.425781 18.515625 20.226562 C 18.316406 20.425781 18.113281 20.527344 17.910156 20.730469 C 17.710938 20.929688 17.410156 21.03125 17.207031 21.132812 C 16.90625 21.234375 16.703125 21.332031 16.300781 21.433594 C 16 21.535156 15.597656 21.535156 15.296875 21.535156 C 14.691406 21.535156 14.1875 21.433594 13.683594 21.234375 C 13.183594 21.03125 12.78125 20.832031 12.378906 20.527344 C 11.976562 20.226562 11.773438 19.824219 11.574219 19.421875 C 11.371094 19.019531 11.269531 18.515625 11.269531 18.011719 C 11.269531 16.804688 11.773438 15.796875 12.679688 15.195312 C 13.585938 14.492188 14.992188 14.1875 16.804688 14.1875 L 18.515625 14.1875 L 18.515625 13.484375 C 18.515625 12.878906 18.316406 12.476562 18.011719 12.175781 C 17.609375 11.875 17.105469 11.671875 16.402344 11.671875 C 15.796875 11.671875 15.394531 11.773438 15.09375 12.074219 C 14.792969 12.378906 14.691406 12.679688 14.691406 13.082031 L 11.671875 13.082031 C 11.671875 12.578125 11.773438 12.074219 11.976562 11.671875 C 12.175781 11.269531 12.476562 10.867188 12.980469 10.464844 C 13.382812 10.164062 13.886719 9.863281 14.492188 9.660156 C 15.09375 9.460938 15.796875 9.359375 16.605469 9.359375 C 17.308594 9.359375 17.910156 9.460938 18.515625 9.660156 C 19.121094 9.863281 19.621094 10.0625 20.125 10.464844 C 20.527344 10.765625 20.929688 11.269531 21.132812 11.773438 C 21.332031 12.277344 21.535156 12.878906 21.535156 13.585938 L 21.535156 18.617188 C 21.535156 19.21875 21.535156 19.722656 21.636719 20.125 C 21.734375 20.527344 21.835938 20.929688 21.9375 21.132812 L 21.9375 21.332031 Z M 15.898438 19.21875 C 16.203125 19.21875 16.503906 19.21875 16.703125 19.121094 C 17.007812 19.019531 17.207031 18.917969 17.410156 18.816406 C 17.609375 18.71875 17.8125 18.617188 17.910156 18.414062 C 18.011719 18.316406 18.214844 18.113281 18.316406 18.011719 L 18.316406 16 L 16.804688 16 C 16.300781 16 15.898438 16 15.597656 16.101562 C 15.296875 16.203125 14.992188 16.300781 14.792969 16.503906 C 14.589844 16.703125 14.390625 16.804688 14.289062 17.105469 C 14.1875 17.308594 14.1875 17.609375 14.1875 17.8125 C 14.1875 18.214844 14.289062 18.515625 14.589844 18.816406 C 14.894531 19.121094 15.394531 19.21875 15.898438 19.21875 Z M 15.898438 19.21875 "/>
</g>
</svg>
