<?xml version="1.0" encoding="UTF-8"?>
<svg xmlns="http://www.w3.org/2000/svg" xmlns:xlink="http://www.w3.org/1999/xlink" width="29px" height="32px" viewBox="0 0 29 31" version="1.1">
<g id="surface1">
<path style=" stroke:none;fill-rule:nonzero;fill:rgb(27.45098%,61.960784%,63.529412%);fill-opacity:1;" d="M 0 23.167969 L 13.859375 30.886719 L 27.722656 23.167969 L 27.722656 7.722656 L 13.859375 0 L 0 7.722656 Z M 0 23.167969 "/>
<path style=" stroke:none;fill-rule:nonzero;fill:rgb(41.568627%,79.215686%,81.960784%);fill-opacity:1;" d="M 12.441406 1.847656 L 2.375 7.453125 C 2.394531 7.625 2.394531 7.800781 2.375 7.976562 L 12.425781 13.582031 C 12.839844 13.285156 13.339844 13.128906 13.851562 13.128906 C 14.367188 13.128906 14.867188 13.285156 15.28125 13.582031 L 25.328125 7.976562 C 25.3125 7.800781 25.3125 7.625 25.328125 7.453125 L 15.296875 1.847656 C 14.882812 2.140625 14.382812 2.300781 13.871094 2.300781 C 13.355469 2.300781 12.855469 2.140625 12.441406 1.847656 Z M 26.304688 9.519531 L 16.238281 15.1875 C 16.292969 15.679688 16.183594 16.175781 15.929688 16.605469 C 15.675781 17.035156 15.285156 17.375 14.820312 17.578125 L 14.835938 28.722656 C 14.996094 28.792969 15.152344 28.878906 15.296875 28.976562 L 25.347656 23.375 C 25.292969 22.882812 25.398438 22.386719 25.65625 21.957031 C 25.910156 21.527344 26.296875 21.1875 26.765625 20.984375 L 26.765625 9.777344 C 26.605469 9.703125 26.449219 9.617188 26.304688 9.519531 Z M 1.417969 9.585938 C 1.273438 9.683594 1.121094 9.769531 0.957031 9.839844 L 0.957031 21.046875 C 1.429688 21.246094 1.824219 21.582031 2.082031 22.015625 C 2.335938 22.445312 2.441406 22.945312 2.375 23.4375 L 12.425781 29.042969 C 12.570312 28.941406 12.726562 28.855469 12.886719 28.785156 L 12.886719 17.578125 C 12.414062 17.382812 12.019531 17.042969 11.765625 16.613281 C 11.507812 16.179688 11.40625 15.683594 11.46875 15.1875 Z M 1.417969 9.585938 "/>
<path style=" stroke:none;fill-rule:nonzero;fill:rgb(27.45098%,61.960784%,63.529412%);fill-opacity:1;" d="M 13.859375 1.671875 L 26.253906 8.582031 L 26.253906 22.386719 L 13.859375 29.296875 L 1.46875 22.386719 L 1.46875 8.566406 Z M 13.859375 0.03125 L 0 7.753906 L 0 23.199219 L 13.859375 30.921875 L 27.722656 23.199219 L 27.722656 7.753906 Z M 13.859375 0.03125 "/>
<path style=" stroke:none;fill-rule:nonzero;fill:rgb(27.45098%,61.960784%,63.529412%);fill-opacity:1;" d="M 13.960938 18.070312 L 13.761719 18.070312 C 13.421875 18.074219 13.085938 18.007812 12.769531 17.882812 C 12.457031 17.757812 12.167969 17.574219 11.929688 17.339844 C 11.6875 17.109375 11.496094 16.832031 11.367188 16.527344 C 11.238281 16.226562 11.171875 15.898438 11.171875 15.570312 L 11.171875 15.378906 C 11.171875 15.050781 11.238281 14.726562 11.367188 14.421875 C 11.496094 14.121094 11.6875 13.84375 11.929688 13.609375 C 12.167969 13.378906 12.457031 13.195312 12.769531 13.070312 C 13.085938 12.945312 13.421875 12.878906 13.761719 12.878906 L 13.960938 12.878906 C 14.300781 12.878906 14.636719 12.945312 14.953125 13.070312 C 15.265625 13.195312 15.554688 13.378906 15.792969 13.609375 C 16.035156 13.84375 16.226562 14.121094 16.355469 14.421875 C 16.484375 14.726562 16.550781 15.050781 16.550781 15.378906 L 16.550781 15.570312 C 16.550781 15.898438 16.484375 16.226562 16.355469 16.527344 C 16.226562 16.832031 16.035156 17.109375 15.792969 17.339844 C 15.554688 17.574219 15.265625 17.757812 14.953125 17.882812 C 14.636719 18.007812 14.300781 18.074219 13.960938 18.070312 Z M 13.960938 28.339844 L 13.761719 28.339844 C 13.300781 28.339844 12.851562 28.457031 12.453125 28.679688 C 12.054688 28.90625 11.726562 29.226562 11.5 29.613281 L 13.859375 30.921875 L 16.222656 29.613281 C 15.996094 29.226562 15.667969 28.90625 15.269531 28.679688 C 14.871094 28.457031 14.421875 28.339844 13.960938 28.339844 Z M 27.738281 20.617188 L 27.640625 20.617188 C 27.300781 20.617188 26.960938 20.683594 26.648438 20.808594 C 26.332031 20.933594 26.046875 21.117188 25.804688 21.347656 C 25.566406 21.582031 25.375 21.855469 25.246094 22.160156 C 25.113281 22.464844 25.046875 22.789062 25.050781 23.117188 L 25.050781 23.308594 C 25.046875 23.734375 25.160156 24.152344 25.378906 24.519531 L 27.738281 23.199219 Z M 25.378906 6.449219 C 25.164062 6.816406 25.050781 7.234375 25.050781 7.660156 L 25.050781 7.847656 C 25.046875 8.179688 25.113281 8.503906 25.246094 8.808594 C 25.375 9.109375 25.566406 9.386719 25.804688 9.617188 C 26.046875 9.851562 26.332031 10.035156 26.648438 10.160156 C 26.960938 10.285156 27.300781 10.351562 27.640625 10.347656 L 27.738281 10.347656 L 27.738281 7.753906 Z M 13.859375 0.03125 L 11.5 1.335938 C 11.726562 1.726562 12.054688 2.050781 12.449219 2.277344 C 12.847656 2.503906 13.300781 2.625 13.761719 2.628906 L 13.960938 2.628906 C 14.421875 2.628906 14.871094 2.511719 15.269531 2.289062 C 15.667969 2.0625 15.996094 1.742188 16.222656 1.351562 Z M 2.359375 6.433594 L 0 7.753906 L 0 10.347656 L 0.0976562 10.347656 C 0.441406 10.351562 0.777344 10.285156 1.089844 10.160156 C 1.40625 10.035156 1.691406 9.851562 1.933594 9.617188 C 2.171875 9.386719 2.363281 9.109375 2.496094 8.808594 C 2.625 8.503906 2.691406 8.179688 2.691406 7.847656 L 2.691406 7.660156 C 2.683594 7.230469 2.570312 6.808594 2.359375 6.433594 Z M 0.0976562 20.617188 L 0 20.617188 L 0 23.199219 L 2.359375 24.519531 C 2.578125 24.152344 2.691406 23.734375 2.691406 23.308594 L 2.691406 23.117188 C 2.691406 22.789062 2.625 22.464844 2.496094 22.160156 C 2.363281 21.855469 2.171875 21.582031 1.933594 21.347656 C 1.691406 21.117188 1.40625 20.933594 1.089844 20.808594 C 0.777344 20.683594 0.441406 20.617188 0.0976562 20.617188 Z M 0.0976562 20.617188 "/>
<path style=" stroke:none;fill-rule:nonzero;fill:rgb(3.137255%,23.137255%,32.941176%);fill-opacity:0.14902;" d="M 13.859375 31 L 13.859375 15.539062 L 0 7.816406 L 0 23.277344 Z M 13.859375 31 "/>
<path style=" stroke:none;fill-rule:nonzero;fill:rgb(3.137255%,23.137255%,32.941176%);fill-opacity:0.0509804;" d="M 27.738281 23.132812 L 27.738281 7.691406 L 13.878906 15.414062 L 13.878906 30.871094 Z M 27.738281 23.132812 "/>
</g>
</svg>
