<?xml version="1.0" encoding="UTF-8"?>
<svg xmlns="http://www.w3.org/2000/svg" xmlns:xlink="http://www.w3.org/1999/xlink" width="32px" height="32px" viewBox="0 0 32 32" version="1.1">
<g id="surface1">
<path style=" stroke:none;fill-rule:nonzero;fill:rgb(0%,77.647059%,36.862745%);fill-opacity:1;" d="M 0 8.613281 L 28.519531 23.675781 C 29.265625 24.066406 29.402344 25.082031 28.785156 25.65625 L 28.769531 25.65625 C 27.875 26.46875 26.871094 27.152344 25.792969 27.695312 C 16.578125 32.328125 5.804688 25.246094 6.402344 14.949219 L 10.214844 17.582031 C 11.355469 23.59375 17.707031 27.0625 23.378906 24.773438 Z M 11.53125 12.816406 L 30.683594 20.386719 C 31.238281 20.605469 31.539062 21.207031 31.378906 21.78125 L 31.378906 21.804688 C 31.171875 22.523438 30.355469 22.863281 29.699219 22.507812 Z M 18.582031 2.898438 C 22.195312 2.589844 26.707031 3.949219 29.398438 7.414062 C 31.664062 10.339844 32.132812 13.917969 31.972656 17.609375 L 31.972656 17.601562 C 31.90625 18.382812 31.105469 18.882812 30.375 18.59375 L 17.355469 13.449219 L 29.441406 16.6875 C 29.648438 14.558594 29.148438 12.421875 28.019531 10.605469 C 24.058594 4.246094 14.703125 4.558594 11.179688 11.164062 C 10.976562 11.546875 10.800781 11.9375 10.648438 12.34375 L 7.40625 10.613281 C 7.5 10.480469 7.59375 10.351562 7.691406 10.21875 C 7.847656 9.898438 8.015625 9.570312 8.199219 9.25 C 10.347656 5.53125 13.945312 3.339844 17.738281 2.988281 C 18.019531 2.964844 18.300781 2.921875 18.582031 2.898438 Z M 18.582031 2.898438 "/>
</g>
</svg>
