<?xml version="1.0" encoding="UTF-8"?>
<svg xmlns="http://www.w3.org/2000/svg" xmlns:xlink="http://www.w3.org/1999/xlink" width="31px" height="32px" viewBox="0 0 31 31" version="1.1">
<g id="surface1">
<path style=" stroke:none;fill-rule:nonzero;fill:rgb(100%,54.117647%,0%);fill-opacity:1;" d="M 0 26.988281 L 7.3125 30.976562 L 14.625 26.988281 L 14.625 19.027344 L 7.3125 15.035156 L 0 19.027344 Z M 0 26.988281 "/>
<path style=" stroke:none;fill-rule:nonzero;fill:rgb(100%,54.117647%,0%);fill-opacity:1;" d="M 24.175781 0.0273438 L 20.3125 2.136719 L 20.304688 2.167969 L 20.304688 6.382812 L 24.175781 8.492188 L 24.210938 8.507812 L 28.074219 6.402344 L 28.074219 2.152344 Z M 24.175781 0.0273438 "/>
<path style=" stroke:none;fill-rule:nonzero;fill:rgb(100%,54.117647%,0%);fill-opacity:1;" d="M 31.363281 19.027344 L 24.050781 15.035156 L 16.738281 19.027344 L 16.738281 26.988281 L 24.050781 30.976562 L 31.363281 26.988281 Z M 31.363281 19.027344 "/>
<path style=" stroke:none;fill-rule:nonzero;fill:rgb(100%,54.117647%,0%);fill-opacity:1;" d="M 15.625 1.136719 L 8.324219 5.125 L 8.324219 13.085938 L 15.636719 17.070312 L 22.949219 13.085938 L 22.949219 9.914062 L 19.386719 7.972656 L 18.425781 7.453125 L 18.425781 2.761719 Z M 15.625 1.136719 "/>
</g>
</svg>
