<svg width="20" height="16" viewBox="0 0 20 16" fill="none" xmlns="http://www.w3.org/2000/svg">
<g id="logos:discord-icon" clip-path="url(#clip0_1794_1229)">
<path id="Vector" d="M16.9419 1.33443C15.6303 0.70285 14.2427 0.254084 12.8158 0C12.638 0.330693 12.4304 0.775477 12.2872 1.12933C10.7487 0.891229 9.22445 0.891229 7.71429 1.12933C7.57117 0.775558 7.35882 0.330693 7.17945 0C5.75116 0.254195 4.36238 0.704104 3.05015 1.33773C0.438901 5.39875 -0.26899 9.35879 0.0849164 13.2628C1.81687 14.5938 3.49531 15.4025 5.14546 15.9316C5.5556 15.3512 5.91812 14.7367 6.22929 14.0945C5.63681 13.8623 5.06564 13.5763 4.52257 13.2396C4.66547 13.1306 4.80502 13.017 4.94101 12.899C8.23179 14.4831 11.8074 14.4831 15.059 12.899C15.1956 13.0162 15.3351 13.1298 15.4773 13.2396C14.9334 13.5772 14.3612 13.8638 13.7675 14.0962C14.0805 14.741 14.4423 15.3561 14.8513 15.9332C16.503 15.4041 18.183 14.5955 19.915 13.2628C20.3303 8.73713 19.2056 4.81343 16.9419 1.33443ZM6.67765 10.8619C5.68976 10.8619 4.8796 9.91276 4.8796 8.75698C4.8796 7.60121 5.67249 6.65045 6.67765 6.65045C7.68281 6.65045 8.49296 7.59952 8.4757 8.75698C8.47726 9.91276 7.68289 10.8619 6.67765 10.8619ZM13.3223 10.8619C12.3344 10.8619 11.5243 9.91276 11.5243 8.75698C11.5243 7.60121 12.3171 6.65045 13.3223 6.65045C14.3275 6.65045 15.1376 7.59952 15.1203 8.75698C15.1203 9.91276 14.3275 10.8619 13.3223 10.8619Z" fill="#5865F2"/>
</g>
<defs>
<clipPath id="clip0_1794_1229">
<rect width="20" height="16" fill="white"/>
</clipPath>
</defs>
</svg>
