<svg width="20" height="20" viewBox="0 0 20 20" fill="none" xmlns="http://www.w3.org/2000/svg">
<g id="logos:telegram" clip-path="url(#clip0_1794_1214)">
<path id="Vector" d="M10 0C7.34844 0 4.80312 1.05422 2.92969 2.92891C1.05433 4.80435 0.000536638 7.34779 0 10C0 12.6511 1.05469 15.1964 2.92969 17.0711C4.80312 18.9458 7.34844 20 10 20C12.6516 20 15.1969 18.9458 17.0703 17.0711C18.9453 15.1964 20 12.6511 20 10C20 7.34891 18.9453 4.80359 17.0703 2.92891C15.1969 1.05422 12.6516 0 10 0Z" fill="url(#paint0_linear_1794_1214)"/>
<path id="Vector_2" d="M4.5267 9.89441C7.44232 8.62441 9.38608 7.78712 10.358 7.38253C13.1361 6.22738 13.7126 6.02675 14.0892 6.01996C14.172 6.01863 14.3564 6.0391 14.4767 6.13636C14.5767 6.21839 14.6048 6.32933 14.6189 6.40722C14.6314 6.48503 14.6486 6.66238 14.6345 6.80082C14.4845 8.38207 13.833 12.2193 13.5017 13.9903C13.3626 14.7397 13.0861 14.991 12.8189 15.0155C12.2376 15.0689 11.797 14.6318 11.2345 14.2632C10.3548 13.6861 9.85795 13.3271 9.00326 12.7641C8.01576 12.1135 8.65639 11.7558 9.21889 11.1714C9.36576 11.0185 11.9251 8.69113 11.9736 8.48003C11.9798 8.45363 11.9861 8.35519 11.9267 8.30332C11.8689 8.25128 11.783 8.2691 11.7205 8.28316C11.6314 8.30316 10.2267 9.23254 7.5017 11.0711C7.10326 11.3452 6.74232 11.4788 6.41732 11.4718C6.06107 11.4641 5.37357 11.2699 4.86264 11.1039C4.23764 10.9003 3.7392 10.7927 3.78295 10.4469C3.80482 10.2669 4.05326 10.0827 4.5267 9.89441Z" fill="white"/>
</g>
<defs>
<linearGradient id="paint0_linear_1794_1214" x1="1000" y1="0" x2="1000" y2="2000" gradientUnits="userSpaceOnUse">
<stop stop-color="#2AABEE"/>
<stop offset="1" stop-color="#229ED9"/>
</linearGradient>
<clipPath id="clip0_1794_1214">
<rect width="20" height="20" fill="white"/>
</clipPath>
</defs>
</svg>
